<svg width="150" height="50" id="圖層_1" data-name="圖層 1" xmlns="http://www.w3.org/2000/svg" viewBox="0 0 150 50"><defs><style>.cls-1{fill:#1f487e;}</style></defs><path class="cls-1" d="M4.07,20.05H5.73v8.16h5.16v1.71H4.07V20.05Z"/><path class="cls-1" d="M57.85,28.85c.28-.51.53-1,.84-1.51l1.5,1.26C61,27,61.68,25.48,62.43,24c0-.06.28.15.38.15,0-.63.12-1.36.12-2.15-.65.43-1.28,1-1.78,1.37.33.22.63.16.55.41s-.83,1.9-1.62,3.46l-1.54-1.34-1.36,2.48a5.06,5.06,0,0,1,0-6.88,5.52,5.52,0,0,1,7.25-.29c1.83,1.5,1.95,5.12.36,7.06s-5.46,2.33-6.94.63Z"/><path class="cls-1" d="M96.7,20.05h1.48c.79,2.32,1.59,4.65,2.49,7.28.85-2.55,1.63-4.87,2.43-7.25h1.73c-.67,1.92-1.31,3.78-2,5.64-.35,1-.69,2.05-1,3.07s-.46,1.17-2,1.08c-.76-2.2-1.55-4.47-2.43-7l-2.53,7H93.4L90,20.09h1.82c.74,2.29,1.49,4.62,2.25,7h.27l2.41-7Z"/><path class="cls-1" d="M74.5,29.83V20.1L75.87,20l5.51,6.9v-6.8H83v9.67c-1,.51-1.57-.09-2.08-.74-1.46-1.85-2.88-3.73-4.31-5.59a4.14,4.14,0,0,0-.46-.43v5.51c0,1.37-.08,1.43-1.62,1.28Z"/><path class="cls-1" d="M139.33,24.06h4.95V20.12h1.65v9.74c-.26,0-.52.08-.78.09s-.45,0-.83-.06v-4h-4.9v4h-1.65V20.13h1.55v3.94Z"/><path class="cls-1" d="M32.32,25.51v2.67h5.62v1.4H30.62v-9.5h7.09v1.33H32.36v2.66h4.79V25.5H32.32Z"/><path class="cls-1" d="M112.85,27.52h-4.67L107,29.88h-1.64c1.45-3.32,2.86-6.52,4.26-9.72,1.6-.25,1.63-.27,2.28,1.17,1.27,2.78,2.51,5.58,3.76,8.39-1.57.43-1.7.36-2.24-1C113.23,28.31,113,28,112.85,27.52Zm-.7-1.53-1.74-3.9L108.68,26Z"/><path class="cls-1" d="M134,27.36l1,1c-1.63,2.31-5.73,2.09-7.41.51a5.54,5.54,0,0,1,0-7.6,5.43,5.43,0,0,1,7.42.4l-1,1c-1.22-.73-2.4-1.57-3.75-1.1a5.4,5.4,0,0,0-2,1.58c-.74.83-.7,3.4.48,4.54s3,1.16,5.24-.29Z"/><path class="cls-1" d="M53.8,21.64l-1,.93c-.34-.16,0,0-.9-.61a3,3,0,0,0-3.39-.2,3.55,3.55,0,0,0-1.93,3.33,3.28,3.28,0,0,0,3.92,3.39,3.59,3.59,0,0,0,2-1c.26.23.85.53,1.17.82-1.14,2.18-5.35,2.25-7.14.68a5.48,5.48,0,0,1-.39-7.58c1.83-2,5.65-1.9,7.62.24Z"/><path class="cls-1" d="M22.27,29.82,18.2,20.07h1.86c1,2.41,1.93,4.83,3,7.5,1-2.6,2-5,3-7.49H27.8c-.55,1.38-1.07,2.69-1.61,4-.66,1.63-1.36,3.24-2,4.88-.32.81-.83,1.16-1.93.85Z"/><path class="cls-1" d="M119.5,21.72h-3.27V20.11h7.89v1.56H121.2v8.18h-1.7Z"/><path class="cls-1" d="M70.82,29.89H69.29V20.11h1.53Z"/><path class="cls-1" d="M13.82,20.08h1.51v9.49H13.82Z"/></svg>