<svg width="150" height="50" id="圖層_1" data-name="圖層 1" xmlns="http://www.w3.org/2000/svg" viewBox="0 0 150 50"><defs><style>.cls-1{fill:#1f487e;}</style></defs><path class="cls-1" d="M42.77,30.47V14h2.51v5.84a31.37,31.37,0,0,1,3.22-.17,5.13,5.13,0,0,1,4.94,4.9c.24,4-1.78,6.32-5.91,6.69a10.25,10.25,0,0,1-4.77-.76Zm2.56-1.8c2,.75,3.9.31,4.87-1a4.13,4.13,0,0,0-.2-4.77,3.91,3.91,0,0,0-4.66-.34v6.16Z"/><path class="cls-1" d="M18.83,19.59a5.63,5.63,0,0,1,5.88,5.8,5.68,5.68,0,0,1-5.84,5.87,5.64,5.64,0,0,1-5.79-5.76,5.57,5.57,0,0,1,5.75-5.91Zm3.29,5.75a3.41,3.41,0,0,0-3.3-3.59,3.43,3.43,0,0,0-3.16,3.73A3.32,3.32,0,0,0,19,29.05a3.36,3.36,0,0,0,3.16-3.71Z"/><path class="cls-1" d="M83.34,30.12c-3.77,2.45-8.56.93-9.6-3a6.37,6.37,0,0,1,.7-5.09,5.38,5.38,0,0,1,5.89-2.37c1.9.41,3,1.74,3.38,4.13.1.66.07,1.34.11,2.2H76.23c.16,2.94,2.69,3.69,7,2.19,0,.34.08.66.1,1s0,.58,0,.92Zm-2.12-5.83c-.09-1.7-.78-2.49-2.14-2.59a2.68,2.68,0,0,0-2.79,2.59Z"/><path class="cls-1" d="M60.49,24.15c.13-1.81-.55-2.54-2.36-2.32a25.22,25.22,0,0,0-2.79.65v-2a7.11,7.11,0,0,1,4.93-.79,3.24,3.24,0,0,1,2.87,3.38c.08,2.49,0,5,0,7.66a12,12,0,0,1-7.07-.06,2.83,2.83,0,0,1-1.84-3,2.73,2.73,0,0,1,2.09-2.71c1.31-.36,2.67-.51,4.15-.77Zm0,5V26.2c-2-.18-3.11,0-3.71.87a1.18,1.18,0,0,0,.12,1.51C57.63,29.35,58.73,29.47,60.48,29.12Z"/><path class="cls-1" d="M33.38,22.15v8.77H31V20.52a11.89,11.89,0,0,1,6.61-.81,3.36,3.36,0,0,1,3,3.44c.1,2.54,0,5.09,0,7.75l-2.57,0a10.09,10.09,0,0,1,0-1.1c0-1.91,0-3.82,0-5.73,0-1.52-.62-2.12-2.16-2.13-.81,0-1.63.12-2.58.2Z"/><path class="cls-1" d="M72,20.49v2.07c-1.28-.46-2.49-1.21-3.85-.76a1.1,1.1,0,0,0-.74,1v.06a1.1,1.1,0,0,0,.72,1l1.2.44a13,13,0,0,1,1.65.6,3,3,0,0,1,1.69,3,3,3,0,0,1-2.11,2.9A7.06,7.06,0,0,1,65,30.44V28.19c1.36.5,2.7,1.23,4.18.8A1.16,1.16,0,0,0,70,28h0a1.16,1.16,0,0,0-.4-1,1.21,1.21,0,0,0-.38-.24c-.73-.27-1.52-.42-2.25-.69a3.14,3.14,0,0,1-2.24-3.65,3.3,3.3,0,0,1,3.17-2.77,5.52,5.52,0,0,1,4,.85Z"/><path class="cls-1" d="M112.71,31h-1.58c-.74-3-1.49-5.91-2.23-8.88l-.32,0C107.84,25,107.11,28,106.35,31h-1.6c-1-3.62-2-7.27-3-11H103l2.46,9.3.22,0L108,20h1.48c.76,3,1.51,6.07,2.27,9.1C113,26.16,113.58,23,114.54,20l1.18,0c-1,3.74-2,7.35-3,11.1Z"/><path class="cls-1" d="M12.93,20.38c-.33.53-.65,1.07-1,1.63C10,21.82,8,21.56,7.05,23.69a3.65,3.65,0,0,0,.29,3.9c1.17,1.53,2.79,1.64,4.64,1.12l1.11,1.64c-1.85,1.47-5.92,1.09-7.7-1a6.43,6.43,0,0,1,0-7.77,6.2,6.2,0,0,1,7.57-1.18Z"/><path class="cls-1" d="M26.33,19.91h2.36V31H26.33Z"/><path class="cls-1" d="M139.6,27h-6c.3,3,2.19,3.81,5.74,2.47v.95a4.85,4.85,0,0,1-5.67-.24,4.6,4.6,0,0,1-.92-5.15,3.87,3.87,0,0,1,4.58-2.24c1.85.51,2.58,1.83,2.25,4.22Zm-1.13-1c-.23-1.71-.86-2.28-2.35-2.21A2.09,2.09,0,0,0,134,25.92Z"/><path class="cls-1" d="M121.25,26.1a4.12,4.12,0,0,0,0-.83,3.19,3.19,0,0,0-.19-.86,1.27,1.27,0,0,0-1-.78c-.62-.17-1.18.11-2.7.62l-.15-1.1a15.67,15.67,0,0,1,2.29-.53,2.52,2.52,0,0,1,3,2.71c0,1.8,0,3.6,0,5.55a8.7,8.7,0,0,1-4.7-.1,2,2,0,0,1-1.43-2,2,2,0,0,1,1.38-2,14.46,14.46,0,0,1,2.28-.5c.37-.07.75-.08,1.17-.13ZM118,29.38c.71.83,1.71,1,3.25.52V27.4c-1.85-.27-2.67-.14-3.31.71a1,1,0,0,0,0,1.27Z"/><path class="cls-1" d="M125.19,18.27h1V31h-1Z"/><path class="cls-1" d="M142.07,23.92c-.38-.09-1.3,0-1.62-.08a6,6,0,0,1-.08-1.08c0-.22,1.26,0,1.69-.11,0-.54.07-1.11.1-1.75h1.07c0,.62.08,1.19.12,1.84.72.05,1.44,0,2.21,0,0,.24,0,.76.05,1.09-.73.06-1.4-.06-2.2,0v5.7c.56,1.1,1.54.52,2.51.34,0,.38,0,.64-.06,1a14.42,14.42,0,0,1-1.46.25,1.87,1.87,0,0,1-2.27-2c0-1.37,0-2.74,0-4.11,0-.34,0-.68-.05-1.09Z"/><path class="cls-1" d="M129.2,18.21l1,.08V31l-1,.07Z"/><path class="cls-1" d="M27.4,14.92A1.5,1.5,0,0,1,29,16.43a1.68,1.68,0,0,1-1.56,1.64,1.65,1.65,0,0,1-1.54-1.5,1.49,1.49,0,0,1,1.48-1.65Z"/><path class="cls-1" d="M93.26,37.28a.44.44,0,0,1-.44-.44V13.16a.44.44,0,0,1,.44-.44.44.44,0,0,1,.44.44V36.84A.44.44,0,0,1,93.26,37.28Z"/></svg>