<svg width="150" height="50" id="圖層_1" data-name="圖層 1" xmlns="http://www.w3.org/2000/svg" viewBox="0 0 150 50"><defs><style>.cls-1{fill:#1f487e;}</style></defs><path class="cls-1" d="M60.19,31.93H54l-.86,2.92H47.56L54.2,17.19h5.95l6.64,17.66H61.08l-.88-2.92Zm-1.13-3.82-2-6.35-1.93,6.35Z"/><path class="cls-1" d="M65.83,17.18H82.42v4.36H76.85v13.3H71.39V21.54H65.82V17.18Z"/><path class="cls-1" d="M82.53,28.48a6.38,6.38,0,0,1,2-4.82,7.38,7.38,0,0,1,5.34-1.9A7.33,7.33,0,0,1,95.66,24a6.47,6.47,0,0,1,1.58,4.42,6.41,6.41,0,0,1-2,4.84,7.48,7.48,0,0,1-5.42,1.89,7.57,7.57,0,0,1-5-1.57,6.28,6.28,0,0,1-2.34-5.08Zm4.92,0A3.88,3.88,0,0,0,88.14,31a2.26,2.26,0,0,0,3.48,0,4,4,0,0,0,.68-2.59,3.78,3.78,0,0,0-.69-2.48,2.11,2.11,0,0,0-1.7-.81,2.22,2.22,0,0,0-1.77.83,3.8,3.8,0,0,0-.7,2.51Z"/><path class="cls-1" d="M99.84,17.18h5V26.3l3.66-4.25h6L110,26.53l4.86,8.31H109.3l-2.59-5.13-1.85,1.8v3.33h-5V17.18Z"/><path class="cls-1" d="M129.9,29.66h-9.83a3.17,3.17,0,0,0,.64,1.76,2.33,2.33,0,0,0,1.86.83,2.78,2.78,0,0,0,1.37-.36,3.14,3.14,0,0,0,.86-.81l4.83.45A6.84,6.84,0,0,1,127,34.29a9.79,9.79,0,0,1-4.49.84,9.14,9.14,0,0,1-4-.72,5.93,5.93,0,0,1-2.42-2.28,6.85,6.85,0,0,1-1-3.67A6.46,6.46,0,0,1,117,23.6a7.31,7.31,0,0,1,5.31-1.86,9.52,9.52,0,0,1,4.34.83A5.58,5.58,0,0,1,129.08,25a8.85,8.85,0,0,1,.83,4.11v.57Zm-5-2.35a3.27,3.27,0,0,0-.77-2,2.4,2.4,0,0,0-3.5.32,3.38,3.38,0,0,0-.57,1.72h4.84Z"/><path class="cls-1" d="M132.4,22.05H137v2.08A6.67,6.67,0,0,1,139,22.31a5.52,5.52,0,0,1,2.55-.55A4.18,4.18,0,0,1,144.78,23a5.25,5.25,0,0,1,1.15,3.74v8.13H141v-7a2.53,2.53,0,0,0-.45-1.7,1.6,1.6,0,0,0-1.25-.5,1.82,1.82,0,0,0-1.45.67,3.93,3.93,0,0,0-.55,2.42v6.14h-4.9V22Z"/><g id="_9KNQ6K.tif" data-name=" 9KNQ6K.tif"><path class="cls-1" d="M6.82,41.24H4.7c-.62,0-.77-.27-.49-.82.9-1.83,1.78-3.67,2.69-5.49.52-1,1.1-2.06,1.62-3.1.93-1.87,1.81-3.77,2.74-5.64C12.84,23,14.44,19.86,16,16.7c1.25-2.49,2.48-5,3.74-7.49.1-.2.35-.47.51-.45a.89.89,0,0,1,.57.46c.73,1.37,1.42,2.75,2.13,4.12a.79.79,0,0,1,0,.81L10.85,38.31c-.42.84-.86,1.68-1.26,2.54a.6.6,0,0,1-.64.39c-.71,0-1.41,0-2.12,0Z"/><path class="cls-1" d="M33.83,41.13c-.67,0-1.35,0-2,0a.87.87,0,0,1-.92-.57q-3.51-7.06-7.06-14.13c-.08-.17-.18-.34-.27-.5a1.13,1.13,0,0,1-.09-1.2c.5-1,.94-2,1.42-3,.24-.49.52-1,.8-1.43a.43.43,0,0,1,.81,0c.23.4.42.83.63,1.24l8.8,17.62c.18.35.35.71.52,1.07.28.59.12.85-.52.85H33.81Z"/><path class="cls-1" d="M20.3,41.13c-1.36,0-2.72,0-4.08,0-.23,0-.59-.09-.66-.24a1,1,0,0,1,.12-.74q2.05-4.12,4.16-8.23c.08-.16.32-.37.45-.35a.78.78,0,0,1,.53.39c1,1.9,1.92,3.81,2.87,5.72.44.87.88,1.74,1.31,2.62.29.59.13.84-.52.84H20.3Z"/></g></svg>