<?xml version="1.0" encoding="UTF-8"?>
<svg id="_圖層_1" data-name="圖層 1" xmlns="http://www.w3.org/2000/svg" viewBox="0 0 1920.35 635.12">
  <g>
    <path d="M1289.75,426.84s54.79-213.51,156.68-213.51,154.67,232.29,154.67,232.29l-311.35-18.77Z" style="fill: #d6ecf9;"/>
    <path d="M1449.99,410.4S1554.46,2.46,1607.24,.03c89.93-4.14,98.2,440.02,98.2,440.02l-255.45-29.65Z" style="fill: #d6ecf9;"/>
    <path d="M1097.79,434.29s51.24-125.89,128.54-120.09c77.3,5.8,106.83,149.14,106.83,149.14l-235.37-29.05Z" style="fill: #d6ecf9;"/>
    <path d="M3,165.32s261.11-16.11,650.82,190.43c389.71,206.54,404.34,210.74,404.34,210.74H3V165.32Z" style="fill: #d6ecf9;"/>
    <path d="M1918.45,270.74s-226.1-12.32-524.04,145.59c-297.95,157.91-309.13,161.12-309.13,161.12h833.18V270.74Z" style="fill: #d6ecf9;"/>
    <rect y="429.95" width="1918.45" height="205.17" style="fill: #d6ecf9;"/>
  </g>
  <g>
    <path d="M960.35,390.14c-360.88,0-693.59,25.93-960,69.6v115.37H1920.35v-115.37c-266.41-43.67-599.12-69.6-960-69.6Z" style="fill: #c4dfef;"/>
    <g>
      <g>
        <path d="M424.19,324.03l-24.06,36.08c-.94,1.41,.41,3.22,2.03,2.73l1.89-.58c.33-.1,.67-.1,1-.01l4.64,1.27c1.9,.52,3.92,.48,5.8-.12l3.43-1.1c.38-.12,.78-.11,1.16,.02l2.2,.78c2.21,.79,4.63,.79,6.84,0l2.2-.78c.37-.13,.78-.14,1.15-.02l3.43,1.1c1.88,.6,3.89,.64,5.8,.12l4.64-1.27c.33-.09,.68-.08,1,.01l1.89,.58c1.62,.5,2.97-1.32,2.03-2.73l-24.06-36.08c-.71-1.07-2.29-1.07-3,0Z" style="fill: #c4dfef;"/>
        <path d="M423.18,334.1l-27.71,41.56c-1.08,1.62,.47,3.71,2.34,3.14l2.17-.66c.38-.11,.78-.12,1.16-.02l5.34,1.46c2.19,.6,4.51,.55,6.68-.14l3.95-1.26c.43-.14,.9-.13,1.33,.02l2.53,.9c2.55,.91,5.33,.91,7.88,0l2.53-.9c.43-.15,.9-.16,1.33-.02l3.95,1.26c2.17,.69,4.49,.74,6.68,.14l5.34-1.46c.38-.1,.78-.1,1.16,.02l2.17,.66c1.87,.57,3.42-1.52,2.34-3.14l-27.71-41.56c-.82-1.23-2.64-1.23-3.46,0Z" style="fill: #c4dfef;"/>
        <path d="M423.89,344.08l-28.95,43.42c-1.13,1.7,.49,3.88,2.44,3.28l2.27-.69c.39-.12,.81-.13,1.21-.02l5.58,1.53c2.29,.63,4.71,.58,6.98-.15l4.13-1.32c.45-.14,.94-.14,1.39,.02l2.65,.94c2.66,.95,5.57,.95,8.23,0l2.65-.94c.45-.16,.94-.17,1.39-.02l4.13,1.32c2.26,.72,4.69,.78,6.98,.15l5.58-1.53c.4-.11,.81-.1,1.21,.02l2.27,.69c1.95,.6,3.57-1.58,2.44-3.28l-28.95-43.42c-.86-1.29-2.75-1.29-3.61,0Z" style="fill: #c4dfef;"/>
        <path d="M423.84,353.11l-29.76,44.63c-1.16,1.74,.5,3.99,2.51,3.37l2.33-.71c.4-.12,.83-.13,1.24-.02l5.74,1.57c2.36,.64,4.85,.59,7.17-.15l4.25-1.36c.47-.15,.97-.14,1.43,.02l2.72,.97c2.74,.97,5.73,.97,8.46,0l2.72-.97c.46-.16,.96-.17,1.43-.02l4.25,1.36c2.33,.74,4.82,.8,7.17,.15l5.74-1.57c.41-.11,.84-.11,1.24,.02l2.33,.71c2.01,.61,3.67-1.63,2.51-3.37l-29.76-44.63c-.88-1.33-2.83-1.33-3.71,0Z" style="fill: #c4dfef;"/>
        <polygon points="431.35 398.11 426.71 398.11 422.07 398.11 415.11 417.71 426.71 415.47 438.32 417.71 431.35 398.11" style="fill: #c4dfef;"/>
      </g>
      <g>
        <path d="M1164.15,356.23l-9.64,16.63c-.38,.65,.13,1.51,.76,1.29l.73-.25c.13-.04,.26-.04,.39,0l1.78,.63c.73,.26,1.51,.25,2.24-.01l1.34-.49c.15-.05,.3-.05,.45,.02l.84,.38c.85,.38,1.78,.4,2.64,.05l.86-.35c.15-.06,.3-.06,.45,0l1.32,.54c.72,.29,1.5,.33,2.24,.1l1.8-.56c.13-.04,.26-.03,.39,.01l.72,.28c.62,.24,1.16-.59,.81-1.26l-8.96-17.01c-.27-.5-.87-.52-1.16-.02Z" style="fill: #c4dfef;"/>
        <path d="M1163.67,360.91l-11.1,19.15c-.43,.75,.15,1.73,.87,1.48l.84-.29c.15-.05,.3-.05,.45,0l2.05,.72c.84,.3,1.74,.29,2.58-.01l1.54-.56c.17-.06,.35-.05,.51,.02l.97,.44c.98,.44,2.05,.46,3.04,.06l.99-.4c.17-.07,.35-.07,.51,0l1.52,.62c.83,.34,1.73,.38,2.58,.12l2.08-.64c.15-.05,.3-.04,.45,.02l.83,.33c.72,.28,1.34-.68,.93-1.45l-10.32-19.58c-.31-.58-1.01-.6-1.34-.03Z" style="fill: #c4dfef;"/>
        <path d="M1163.85,365.57l-11.59,20.01c-.45,.78,.15,1.81,.91,1.55l.88-.31c.15-.05,.31-.05,.47,0l2.14,.76c.88,.31,1.82,.3,2.7-.02l1.61-.58c.18-.06,.36-.06,.54,.02l1.01,.46c1.02,.46,2.14,.48,3.18,.06l1.03-.42c.17-.07,.36-.07,.54,0l1.58,.65c.87,.35,1.8,.4,2.69,.12l2.17-.67c.15-.05,.32-.04,.47,.02l.87,.34c.75,.29,1.4-.71,.97-1.51l-10.78-20.46c-.32-.61-1.05-.62-1.4-.03Z" style="fill: #c4dfef;"/>
        <path d="M1163.74,369.78l-11.92,20.57c-.47,.8,.16,1.86,.94,1.59l.91-.31c.16-.05,.32-.05,.48,0l2.2,.78c.9,.32,1.87,.31,2.77-.02l1.65-.6c.18-.07,.38-.06,.55,.02l1.04,.47c1.05,.48,2.2,.5,3.27,.07l1.06-.43c.18-.07,.37-.07,.55,0l1.63,.67c.89,.36,1.85,.41,2.77,.13l2.23-.69c.16-.05,.32-.04,.48,.02l.89,.35c.77,.3,1.43-.73,1-1.55l-11.08-21.03c-.33-.62-1.08-.64-1.43-.03Z" style="fill: #c4dfef;"/>
        <polygon points="1166.22 390.81 1164.43 390.78 1162.64 390.74 1159.76 399.82 1164.27 398.87 1168.73 400 1166.22 390.81" style="fill: #c4dfef;"/>
      </g>
      <g>
        <path d="M347.77,379.81l-9.3,16.82c-.36,.66,.16,1.5,.78,1.27l.73-.27c.13-.05,.26-.05,.39,0l1.79,.59c.74,.24,1.51,.22,2.24-.06l1.33-.51c.15-.06,.3-.05,.45,0l.85,.37c.85,.37,1.79,.37,2.64,0l.85-.37c.14-.06,.3-.06,.45,0l1.33,.51c.73,.28,1.51,.3,2.24,.06l1.79-.59c.13-.04,.26-.04,.39,0l.73,.27c.63,.23,1.15-.61,.78-1.27l-9.3-16.82c-.28-.5-.88-.5-1.16,0Z" style="fill: #c4dfef;"/>
        <path d="M347.38,384.5l-10.71,19.37c-.42,.76,.18,1.73,.9,1.46l.84-.31c.15-.05,.3-.06,.45,0l2.07,.68c.85,.28,1.74,.26,2.58-.07l1.53-.59c.17-.06,.35-.06,.51,.01l.98,.42c.98,.42,2.06,.42,3.04,0l.98-.42c.17-.07,.35-.07,.51-.01l1.53,.59c.84,.32,1.73,.35,2.58,.07l2.07-.68c.15-.05,.3-.05,.45,0l.84,.31c.72,.27,1.32-.71,.9-1.46l-10.71-19.37c-.32-.58-1.02-.58-1.34,0Z" style="fill: #c4dfef;"/>
        <path d="M347.65,389.16l-11.19,20.24c-.44,.79,.19,1.81,.94,1.53l.88-.32c.15-.06,.31-.06,.47,0l2.16,.71c.89,.29,1.82,.27,2.7-.07l1.6-.62c.18-.07,.36-.06,.54,.01l1.02,.44c1.03,.44,2.15,.44,3.18,0l1.02-.44c.17-.07,.36-.08,.54-.01l1.6,.62c.87,.34,1.81,.36,2.7,.07l2.16-.71c.15-.05,.31-.05,.47,0l.88,.32c.75,.28,1.38-.74,.94-1.53l-11.19-20.24c-.33-.6-1.06-.6-1.4,0Z" style="fill: #c4dfef;"/>
        <path d="M347.64,393.37l-11.5,20.81c-.45,.81,.19,1.86,.97,1.57l.9-.33c.16-.06,.32-.06,.48,0l2.22,.73c.91,.3,1.87,.28,2.77-.07l1.64-.63c.18-.07,.37-.07,.55,.01l1.05,.45c1.06,.45,2.21,.45,3.27,0l1.05-.45c.18-.08,.37-.08,.55-.01l1.64,.63c.9,.35,1.86,.37,2.77,.07l2.22-.73c.16-.05,.32-.05,.48,0l.9,.33c.77,.29,1.42-.76,.97-1.57l-11.5-20.81c-.34-.62-1.09-.62-1.44,0Z" style="fill: #c4dfef;"/>
        <polygon points="350.54 414.35 348.75 414.35 346.95 414.35 344.26 423.48 348.75 422.44 353.23 423.48 350.54 414.35" style="fill: #c4dfef;"/>
      </g>
      <g>
        <path d="M131.25,414.6l-5.75,10.41c-.23,.41,.1,.93,.48,.79l.45-.17c.08-.03,.16-.03,.24,0l1.11,.37c.46,.15,.94,.14,1.39-.04l.82-.32c.09-.03,.19-.03,.28,0l.53,.23c.53,.23,1.11,.23,1.64,0l.53-.23c.09-.04,.19-.04,.28,0l.82,.32c.45,.17,.93,.19,1.39,.04l1.11-.37c.08-.03,.16-.02,.24,0l.45,.17c.39,.14,.71-.38,.49-.79l-5.75-10.41c-.17-.31-.55-.31-.72,0Z" style="fill: #c4dfef;"/>
        <path d="M131.01,417.5l-6.63,11.99c-.26,.47,.11,1.07,.56,.91l.52-.19c.09-.03,.19-.03,.28,0l1.28,.42c.52,.17,1.08,.16,1.6-.04l.95-.36c.1-.04,.22-.04,.32,0l.61,.26c.61,.26,1.27,.26,1.88,0l.61-.26c.1-.04,.21-.05,.32,0l.95,.36c.52,.2,1.07,.21,1.6,.04l1.28-.42c.09-.03,.19-.03,.28,0l.52,.19c.45,.16,.82-.44,.56-.91l-6.63-11.99c-.2-.36-.63-.36-.83,0Z" style="fill: #c4dfef;"/>
        <path d="M131.18,420.38l-6.92,12.52c-.27,.49,.12,1.12,.58,.95l.54-.2c.09-.03,.19-.04,.29,0l1.34,.44c.55,.18,1.13,.17,1.67-.04l.99-.38c.11-.04,.23-.04,.33,0l.63,.27c.64,.27,1.33,.27,1.97,0l.63-.27c.11-.05,.22-.05,.33,0l.99,.38c.54,.21,1.12,.22,1.67,.04l1.34-.44c.09-.03,.19-.03,.29,0l.54,.2c.47,.17,.85-.46,.58-.95l-6.92-12.52c-.21-.37-.66-.37-.86,0Z" style="fill: #c4dfef;"/>
        <path d="M131.17,422.99l-7.12,12.87c-.28,.5,.12,1.15,.6,.97l.56-.21c.1-.04,.2-.04,.3,0l1.37,.45c.56,.19,1.16,.17,1.71-.04l1.02-.39c.11-.04,.23-.04,.34,0l.65,.28c.65,.28,1.37,.28,2.02,0l.65-.28c.11-.05,.23-.05,.34,0l1.02,.39c.56,.21,1.15,.23,1.71,.04l1.37-.45c.1-.03,.2-.03,.3,0l.56,.21c.48,.18,.88-.47,.6-.97l-7.12-12.87c-.21-.38-.68-.38-.89,0Z" style="fill: #c4dfef;"/>
        <polygon points="132.96 435.97 131.85 435.97 130.75 435.97 129.08 441.62 131.85 440.97 134.63 441.62 132.96 435.97" style="fill: #c4dfef;"/>
      </g>
      <g>
        <path d="M140.59,428.63l-3.68,6.66c-.14,.26,.06,.59,.31,.5l.29-.11s.1-.02,.15,0l.71,.23c.29,.1,.6,.09,.89-.02l.53-.2c.06-.02,.12-.02,.18,0l.34,.14c.34,.15,.71,.15,1.05,0l.34-.14c.06-.02,.12-.03,.18,0l.53,.2c.29,.11,.6,.12,.89,.02l.71-.23c.05-.02,.1-.02,.15,0l.29,.11c.25,.09,.45-.24,.31-.5l-3.68-6.66c-.11-.2-.35-.2-.46,0Z" style="fill: #c4dfef;"/>
        <path d="M140.43,430.49l-4.24,7.67c-.17,.3,.07,.69,.36,.58l.33-.12c.06-.02,.12-.02,.18,0l.82,.27c.34,.11,.69,.1,1.02-.03l.6-.23c.07-.03,.14-.02,.2,0l.39,.17c.39,.17,.82,.17,1.21,0l.39-.17c.07-.03,.14-.03,.2,0l.6,.23c.33,.13,.69,.14,1.02,.03l.82-.27c.06-.02,.12-.02,.18,0l.33,.12c.29,.11,.52-.28,.36-.58l-4.24-7.67c-.13-.23-.4-.23-.53,0Z" style="fill: #c4dfef;"/>
        <path d="M140.54,432.33l-4.43,8.01c-.17,.31,.07,.72,.37,.61l.35-.13c.06-.02,.12-.02,.18,0l.85,.28c.35,.12,.72,.11,1.07-.03l.63-.24c.07-.03,.14-.03,.21,0l.41,.17c.41,.18,.85,.18,1.26,0l.41-.17c.07-.03,.14-.03,.21,0l.63,.24c.35,.13,.72,.14,1.07,.03l.85-.28c.06-.02,.12-.02,.18,0l.35,.13c.3,.11,.55-.29,.37-.61l-4.43-8.01c-.13-.24-.42-.24-.55,0Z" style="fill: #c4dfef;"/>
        <path d="M140.54,434l-4.55,8.24c-.18,.32,.08,.74,.38,.62l.36-.13c.06-.02,.13-.02,.19,0l.88,.29c.36,.12,.74,.11,1.1-.03l.65-.25c.07-.03,.15-.03,.22,0l.42,.18c.42,.18,.88,.18,1.29,0l.42-.18c.07-.03,.15-.03,.22,0l.65,.25c.36,.14,.74,.15,1.1,.03l.88-.29c.06-.02,.13-.02,.19,0l.36,.13c.31,.11,.56-.3,.38-.62l-4.55-8.24c-.14-.24-.43-.24-.57,0Z" style="fill: #c4dfef;"/>
        <polygon points="141.69 442.31 140.98 442.31 140.27 442.31 139.2 445.92 140.98 445.51 142.75 445.92 141.69 442.31" style="fill: #c4dfef;"/>
      </g>
      <g>
        <path d="M904.58,351.29l-9.73,17.6c-.38,.69,.16,1.57,.82,1.33l.76-.28c.13-.05,.27-.05,.41,0l1.88,.62c.77,.25,1.58,.23,2.34-.06l1.39-.54c.15-.06,.32-.06,.47,0l.89,.38c.89,.38,1.87,.38,2.77,0l.89-.38c.15-.06,.31-.07,.47,0l1.39,.54c.76,.29,1.57,.31,2.34,.06l1.88-.62c.13-.04,.27-.04,.41,0l.76,.28c.66,.24,1.2-.64,.82-1.33l-9.73-17.6c-.29-.52-.93-.52-1.21,0Z" style="fill: #c4dfef;"/>
        <path d="M904.17,356.2l-11.2,20.27c-.44,.79,.19,1.81,.94,1.53l.88-.32c.15-.06,.31-.06,.47,0l2.16,.71c.89,.29,1.82,.27,2.7-.07l1.6-.62c.18-.07,.36-.06,.54,.01l1.02,.44c1.03,.44,2.15,.44,3.18,0l1.02-.44c.17-.07,.36-.08,.54-.01l1.6,.62c.88,.34,1.81,.36,2.7,.07l2.16-.71c.15-.05,.32-.05,.47,0l.88,.32c.76,.28,1.38-.74,.94-1.53l-11.2-20.27c-.33-.6-1.07-.6-1.4,0Z" style="fill: #c4dfef;"/>
        <path d="M904.46,361.07l-11.7,21.17c-.46,.83,.2,1.89,.99,1.6l.92-.34c.16-.06,.33-.06,.49,0l2.26,.74c.93,.31,1.91,.28,2.82-.07l1.67-.64c.18-.07,.38-.07,.56,.01l1.07,.46c1.08,.46,2.25,.46,3.33,0l1.07-.46c.18-.08,.38-.08,.56-.01l1.67,.64c.91,.35,1.89,.38,2.82,.07l2.26-.74c.16-.05,.33-.05,.49,0l.92,.34c.79,.29,1.44-.77,.99-1.6l-11.7-21.17c-.35-.63-1.11-.63-1.46,0Z" style="fill: #c4dfef;"/>
        <path d="M904.44,365.48l-12.03,21.77c-.47,.85,.2,1.94,1.01,1.65l.94-.35c.16-.06,.34-.06,.5,0l2.32,.77c.95,.31,1.96,.29,2.9-.07l1.72-.66c.19-.07,.39-.07,.58,.01l1.1,.47c1.11,.48,2.31,.48,3.42,0l1.1-.47c.19-.08,.39-.08,.58-.01l1.72,.66c.94,.36,1.95,.39,2.9,.07l2.32-.77c.16-.05,.34-.05,.5,0l.94,.35c.81,.3,1.48-.79,1.01-1.65l-12.03-21.77c-.36-.65-1.14-.65-1.5,0Z" style="fill: #c4dfef;"/>
        <polygon points="907.48 387.42 905.6 387.42 903.73 387.42 900.91 396.98 905.6 395.89 910.29 396.98 907.48 387.42" style="fill: #c4dfef;"/>
      </g>
      <g>
        <path d="M1139.92,373.74l-5.32,10.24c-.21,.4,.12,.9,.49,.75l.43-.17c.07-.03,.16-.03,.23-.01l1.09,.33c.45,.13,.91,.11,1.34-.07l.79-.33c.09-.04,.18-.04,.27,0l.52,.21c.52,.21,1.08,.19,1.59-.04l.5-.23c.09-.04,.18-.04,.27-.01l.8,.29c.44,.16,.91,.16,1.35,0l1.07-.38c.08-.03,.16-.03,.23,0l.44,.15c.38,.13,.68-.39,.45-.77l-5.84-9.95c-.17-.3-.54-.29-.7,.02Z" style="fill: #c4dfef;"/>
        <path d="M1139.76,376.57l-6.12,11.79c-.24,.46,.14,1.04,.56,.86l.5-.2c.09-.03,.18-.04,.27-.01l1.25,.38c.51,.15,1.05,.13,1.55-.08l.91-.38c.1-.04,.21-.04,.31,0l.59,.24c.6,.24,1.24,.22,1.83-.05l.58-.27c.1-.05,.21-.05,.31-.01l.93,.33c.51,.18,1.05,.18,1.55,0l1.23-.44c.09-.03,.18-.03,.27,0l.51,.17c.44,.15,.78-.44,.52-.89l-6.73-11.46c-.2-.34-.62-.33-.8,.02Z" style="fill: #c4dfef;"/>
        <path d="M1139.99,379.36l-6.4,12.32c-.25,.48,.14,1.08,.59,.9l.52-.21c.09-.04,.19-.04,.28-.01l1.31,.39c.54,.16,1.1,.13,1.62-.08l.95-.39c.1-.04,.22-.04,.32,0l.62,.25c.62,.25,1.3,.23,1.91-.05l.61-.28c.1-.05,.22-.05,.32-.01l.97,.34c.53,.19,1.09,.19,1.62,0l1.28-.46c.09-.03,.19-.03,.28,0l.53,.18c.46,.15,.82-.46,.54-.93l-7.03-11.97c-.21-.36-.65-.34-.84,.02Z" style="fill: #c4dfef;"/>
        <path d="M1140.05,381.88l-6.58,12.66c-.26,.49,.15,1.11,.61,.93l.54-.21c.09-.04,.19-.04,.29-.01l1.34,.4c.55,.17,1.13,.14,1.66-.09l.97-.41c.11-.04,.22-.05,.33,0l.64,.25c.64,.26,1.33,.24,1.96-.05l.62-.29c.11-.05,.22-.05,.33-.02l.99,.35c.54,.19,1.12,.19,1.66,0l1.32-.47c.09-.03,.19-.03,.29,0l.55,.19c.47,.16,.84-.48,.56-.96l-7.22-12.3c-.21-.37-.67-.35-.86,.02Z" style="fill: #c4dfef;"/>
        <polygon points="1142.12 394.42 1141.04 394.45 1139.97 394.48 1138.49 400 1141.17 399.3 1143.87 399.86 1142.12 394.42" style="fill: #c4dfef;"/>
      </g>
      <polygon points="1211.91 400 1233.96 400 1227.45 258.94 1217.52 258.94 1211.91 400" style="fill: #c4dfef;"/>
      <polygon points="1239.22 400 1261.27 400 1254.76 258.94 1244.83 258.94 1239.22 400" style="fill: #c4dfef;"/>
      <polygon points="523.84 397.16 521.47 397.16 521.47 393.51 519.86 391.77 518.26 393.51 518.26 397.16 515.41 397.16 515.41 393.52 513.8 391.77 512.2 393.52 512.2 397.16 509.35 397.17 509.35 393.52 507.75 391.78 506.14 393.52 506.14 397.17 503.29 397.17 503.29 393.52 501.69 391.78 500.08 393.52 500.09 397.17 497.24 397.17 497.23 393.53 495.63 391.78 494.03 393.53 494.03 397.17 491.66 397.17 491.66 399.7 494.03 399.7 494.03 406.94 497.24 406.94 497.24 399.69 500.09 399.69 500.09 406.94 503.3 406.94 503.3 399.69 506.15 399.69 506.15 406.94 509.36 406.93 509.35 399.69 512.2 399.69 512.21 406.93 515.42 406.93 515.41 399.68 518.26 399.68 518.27 406.93 521.47 406.93 521.47 399.68 523.84 399.68 523.84 397.16" style="fill: #c4dfef;"/>
      <g>
        <polygon points="1122.33 352.1 1108.2 333.61 1056.6 333.41 1037.72 333.33 986.12 333.12 971.84 351.49 986.63 351.55 986.44 399.51 1043.6 399.74 1050.19 399.77 1107.35 400 1107.55 352.04 1122.33 352.1" style="fill: #c4dfef;"/>
        <polygon points="1055.49 338.68 1059.28 343.64 1073.14 343.7 1078.2 343.72 1092.05 343.77 1095.88 338.84 1091.92 338.83 1091.97 325.95 1076.63 325.89 1074.86 325.89 1059.51 325.82 1059.46 338.7 1055.49 338.68" style="fill: #c4dfef;"/>
        <polygon points="1070.75 337.03 1072.69 344.73 1079.84 344.76 1082.46 344.77 1089.61 344.8 1091.61 337.11 1089.56 337.11 1089.64 317.08 1081.72 317.05 1080.8 317.04 1072.88 317.01 1072.8 337.04 1070.75 337.03" style="fill: #c4dfef;"/>
        <polygon points="1017.72 382.99 995.66 382.9 1002.74 241.87 1012.67 241.91 1017.72 382.99" style="fill: #c4dfef;"/>
      </g>
      <polygon points="970.04 416.62 947.99 416.54 955.07 330.22 965 330.26 970.04 416.62" style="fill: #c4dfef;"/>
      <polygon points="946.54 400.03 924.48 399.94 931.59 251.52 941.52 251.56 946.54 400.03" style="fill: #c4dfef;"/>
      <polygon points="558.45 397.16 556.08 397.16 556.08 393.51 554.48 391.77 552.87 393.51 552.87 397.16 550.02 397.16 550.02 393.52 548.42 391.77 546.82 393.52 546.82 397.16 543.97 397.17 543.97 393.52 542.36 391.78 540.76 393.52 540.76 397.17 537.91 397.17 537.91 393.52 536.3 391.78 534.7 393.52 534.7 397.17 531.85 397.17 531.85 393.53 530.24 391.78 528.64 393.53 528.64 397.17 526.27 397.17 526.27 399.7 528.64 399.7 528.65 406.94 531.86 406.94 531.85 399.69 534.7 399.69 534.71 406.94 537.91 406.94 537.91 399.69 540.76 399.69 540.76 406.94 543.97 406.93 543.97 399.69 546.82 399.69 546.82 406.93 550.03 406.93 550.03 399.68 552.88 399.68 552.88 406.93 556.09 406.93 556.08 399.68 558.45 399.68 558.45 397.16" style="fill: #c4dfef;"/>
      <g>
        <polygon points="1725.71 394.14 1713.75 374.18 1662.5 368.17 1643.75 365.97 1592.5 359.96 1576.25 376.61 1590.93 378.33 1585.34 425.97 1642.12 432.63 1648.67 433.39 1705.44 440.05 1711.02 392.42 1725.71 394.14" style="fill: #c4dfef;"/>
        <polygon points="1660.81 373.29 1664.02 378.65 1677.77 380.26 1682.8 380.85 1696.56 382.46 1700.92 377.99 1696.98 377.53 1698.48 364.75 1683.24 362.96 1681.48 362.75 1666.25 360.97 1664.75 373.75 1660.81 373.29" style="fill: #c4dfef;"/>
        <polygon points="1676.15 373.37 1677.21 381.24 1684.31 382.07 1686.91 382.37 1694.02 383.21 1696.87 375.8 1694.83 375.56 1697.17 355.67 1689.3 354.74 1688.39 354.64 1680.52 353.71 1678.18 373.6 1676.15 373.37" style="fill: #c4dfef;"/>
        <polygon points="1618.28 413.07 1596.38 410.5 1619.28 271.16 1629.14 272.32 1618.28 413.07" style="fill: #c4dfef;"/>
      </g>
      <polygon points="1365.46 394.94 1363.09 394.78 1363.34 391.14 1361.85 389.29 1360.14 390.93 1359.89 394.57 1357.05 394.38 1357.29 390.74 1355.81 388.89 1354.09 390.53 1353.85 394.16 1351.01 393.98 1351.25 390.34 1349.76 388.49 1348.05 390.12 1347.81 393.76 1344.96 393.57 1345.2 389.93 1343.72 388.09 1342 389.72 1341.76 393.36 1338.92 393.17 1339.16 389.53 1337.67 387.69 1335.96 389.32 1335.72 392.96 1333.35 392.8 1333.18 395.32 1335.55 395.48 1335.07 402.7 1338.27 402.92 1338.75 395.69 1341.59 395.88 1341.11 403.11 1344.31 403.32 1344.79 396.09 1347.64 396.28 1347.16 403.51 1350.36 403.72 1350.84 396.49 1353.68 396.68 1353.2 403.91 1356.4 404.12 1356.88 396.89 1359.73 397.08 1359.25 404.31 1362.45 404.53 1362.93 397.3 1365.29 397.45 1365.46 394.94" style="fill: #c4dfef;"/>
      <polygon points="1400 397.25 1397.63 397.1 1397.87 393.46 1396.39 391.61 1394.67 393.24 1394.43 396.88 1391.59 396.69 1391.83 393.06 1390.34 391.21 1388.63 392.84 1388.39 396.48 1385.54 396.29 1385.79 392.65 1384.3 390.81 1382.58 392.44 1382.34 396.08 1379.5 395.89 1379.74 392.25 1378.26 390.4 1376.54 392.04 1376.3 395.68 1373.45 395.49 1373.7 391.85 1372.21 390 1370.5 391.64 1370.25 395.27 1367.89 395.12 1367.72 397.63 1370.09 397.79 1369.6 405.02 1372.81 405.23 1373.29 398 1376.13 398.19 1375.65 405.42 1378.85 405.64 1379.33 398.41 1382.17 398.6 1381.69 405.82 1384.89 406.04 1385.38 398.81 1388.22 399 1387.74 406.23 1390.94 406.44 1391.42 399.21 1394.26 399.4 1393.78 406.63 1396.98 406.84 1397.46 399.61 1399.83 399.77 1400 397.25" style="fill: #c4dfef;"/>
      <polygon points="1465.09 401.62 1462.72 401.46 1462.97 397.82 1461.48 395.97 1459.77 397.61 1459.52 401.25 1456.68 401.06 1456.92 397.42 1455.44 395.57 1453.72 397.21 1453.48 400.84 1450.64 400.66 1450.88 397.02 1449.39 395.17 1447.68 396.8 1447.43 400.44 1444.59 400.25 1444.83 396.62 1443.35 394.77 1441.63 396.4 1441.39 400.04 1438.55 399.85 1438.79 396.21 1437.3 394.37 1435.59 396 1435.35 399.64 1432.98 399.48 1432.81 402 1435.18 402.16 1434.7 409.38 1437.9 409.6 1438.38 402.37 1441.22 402.56 1440.74 409.79 1443.94 410 1444.42 402.77 1447.27 402.96 1446.79 410.19 1449.99 410.4 1450.47 403.17 1453.31 403.36 1452.83 410.59 1456.03 410.8 1456.51 403.57 1459.36 403.76 1458.87 410.99 1462.08 411.21 1462.56 403.98 1464.92 404.13 1465.09 401.62" style="fill: #c4dfef;"/>
      <g>
        <path d="M181.56,322.15l-29.65,44.47c-1.16,1.74,.5,3.97,2.5,3.36l2.32-.71c.4-.12,.83-.13,1.24-.02l5.72,1.56c2.35,.64,4.83,.59,7.15-.15l4.23-1.35c.46-.15,.96-.14,1.42,.02l2.71,.97c2.73,.97,5.7,.97,8.43,0l2.71-.97c.46-.16,.96-.17,1.42-.02l4.23,1.35c2.32,.74,4.8,.79,7.15,.15l5.72-1.56c.41-.11,.83-.1,1.24,.02l2.32,.71c2,.61,3.66-1.62,2.5-3.36l-29.65-44.47c-.88-1.32-2.82-1.32-3.7,0Z" style="fill: #c4dfef;"/>
        <path d="M180.31,334.56l-34.15,51.21c-1.34,2,.58,4.57,2.88,3.87l2.68-.82c.46-.14,.96-.15,1.42-.02l6.59,1.8c2.7,.74,5.56,.68,8.23-.18l4.87-1.56c.53-.17,1.11-.16,1.64,.03l3.12,1.11c3.14,1.12,6.57,1.12,9.71,0l3.12-1.11c.53-.19,1.1-.2,1.64-.03l4.87,1.56c2.67,.85,5.53,.91,8.23,.18l6.59-1.8c.47-.13,.96-.12,1.42,.02l2.68,.82c2.3,.7,4.21-1.87,2.88-3.87l-34.15-51.21c-1.01-1.52-3.25-1.52-4.26,0Z" style="fill: #c4dfef;"/>
        <path d="M181.18,346.86l-35.68,53.51c-1.4,2.09,.6,4.78,3.01,4.04l2.8-.85c.48-.15,1-.16,1.49-.02l6.88,1.88c2.82,.77,5.81,.71,8.6-.18l5.09-1.63c.56-.18,1.16-.17,1.71,.03l3.26,1.16c3.28,1.17,6.86,1.17,10.14,0l3.26-1.16c.55-.2,1.15-.21,1.71-.03l5.09,1.63c2.79,.89,5.77,.96,8.6,.18l6.88-1.88c.49-.13,1-.13,1.49,.02l2.8,.85c2.4,.73,4.4-1.95,3.01-4.04l-35.68-53.51c-1.06-1.59-3.39-1.59-4.45,0Z" style="fill: #c4dfef;"/>
        <path d="M181.12,357.99l-36.68,55c-1.43,2.15,.62,4.91,3.09,4.16l2.87-.88c.5-.15,1.03-.16,1.53-.02l7.07,1.93c2.9,.79,5.97,.73,8.84-.19l5.23-1.67c.57-.18,1.19-.17,1.76,.03l3.35,1.19c3.37,1.2,7.06,1.2,10.43,0l3.35-1.19c.57-.2,1.19-.21,1.76-.03l5.23,1.67c2.87,.92,5.94,.98,8.84,.19l7.07-1.93c.5-.14,1.03-.13,1.53,.02l2.87,.88c2.47,.76,4.53-2.01,3.09-4.16l-36.68-55c-1.09-1.63-3.49-1.63-4.58,0Z" style="fill: #c4dfef;"/>
        <polygon points="190.38 413.45 184.67 413.45 178.95 413.45 170.37 437.6 184.67 434.84 198.96 437.6 190.38 413.45" style="fill: #c4dfef;"/>
      </g>
      <g>
        <path d="M246.96,395.75l-9.3,16.82c-.36,.66,.16,1.5,.78,1.27l.73-.27c.13-.05,.26-.05,.39,0l1.79,.59c.74,.24,1.51,.22,2.24-.06l1.33-.51c.15-.06,.3-.05,.45,0l.85,.37c.86,.37,1.79,.37,2.64,0l.85-.37c.14-.06,.3-.06,.45,0l1.33,.51c.73,.28,1.5,.3,2.24,.06l1.79-.59c.13-.04,.26-.04,.39,0l.73,.27c.63,.23,1.15-.61,.78-1.27l-9.3-16.82c-.28-.5-.88-.5-1.16,0Z" style="fill: #c4dfef;"/>
        <path d="M246.57,400.44l-10.71,19.37c-.42,.76,.18,1.73,.9,1.46l.84-.31c.15-.05,.3-.06,.45,0l2.07,.68c.85,.28,1.74,.26,2.58-.07l1.53-.59c.17-.06,.35-.06,.51,0l.98,.42c.98,.42,2.06,.42,3.04,0l.98-.42c.17-.07,.35-.07,.51,0l1.53,.59c.84,.32,1.73,.35,2.58,.07l2.07-.68c.15-.05,.3-.05,.45,0l.84,.31c.72,.27,1.32-.71,.9-1.46l-10.71-19.37c-.32-.58-1.02-.58-1.34,0Z" style="fill: #c4dfef;"/>
        <path d="M246.85,405.1l-11.19,20.24c-.44,.79,.19,1.81,.94,1.53l.88-.32c.15-.06,.31-.06,.47,0l2.16,.71c.89,.29,1.82,.27,2.7-.07l1.6-.62c.18-.07,.36-.06,.54,.01l1.02,.44c1.03,.44,2.15,.44,3.18,0l1.02-.44c.17-.07,.36-.08,.54-.01l1.6,.62c.87,.34,1.81,.36,2.7,.07l2.16-.71c.15-.05,.31-.05,.47,0l.88,.32c.75,.28,1.38-.74,.94-1.53l-11.19-20.24c-.33-.6-1.06-.6-1.4,0Z" style="fill: #c4dfef;"/>
        <path d="M246.83,409.31l-11.5,20.81c-.45,.81,.19,1.86,.97,1.57l.9-.33c.16-.06,.32-.06,.48,0l2.22,.73c.91,.3,1.87,.28,2.77-.07l1.64-.63c.18-.07,.37-.07,.55,.01l1.05,.45c1.06,.45,2.21,.45,3.27,0l1.05-.45c.18-.08,.37-.08,.55-.01l1.64,.63c.9,.35,1.86,.37,2.77,.07l2.22-.73c.16-.05,.32-.05,.48,0l.9,.33c.78,.29,1.42-.76,.97-1.57l-11.5-20.81c-.34-.62-1.09-.62-1.44,0Z" style="fill: #c4dfef;"/>
        <polygon points="249.73 430.29 247.94 430.29 246.14 430.29 243.45 439.42 247.94 438.38 252.42 439.42 249.73 430.29" style="fill: #c4dfef;"/>
      </g>
      <g>
        <path d="M328.08,391.84l-5.75,10.41c-.22,.41,.1,.93,.49,.79l.45-.17c.08-.03,.16-.03,.24,0l1.11,.37c.46,.15,.94,.14,1.39-.04l.82-.32c.09-.03,.19-.03,.28,0l.53,.23c.53,.23,1.11,.23,1.64,0l.53-.23c.09-.04,.19-.04,.28,0l.82,.32c.45,.17,.93,.19,1.39,.04l1.11-.37c.08-.03,.16-.02,.24,0l.45,.17c.39,.14,.71-.38,.49-.79l-5.75-10.41c-.17-.31-.55-.31-.72,0Z" style="fill: #c4dfef;"/>
        <path d="M327.83,394.74l-6.63,11.99c-.26,.47,.11,1.07,.56,.91l.52-.19c.09-.03,.19-.03,.28,0l1.28,.42c.52,.17,1.08,.16,1.6-.04l.95-.36c.1-.04,.22-.04,.32,0l.61,.26c.61,.26,1.27,.26,1.88,0l.61-.26c.1-.04,.21-.05,.32,0l.95,.36c.52,.2,1.07,.21,1.6,.04l1.28-.42c.09-.03,.19-.03,.28,0l.52,.19c.45,.16,.82-.44,.56-.91l-6.63-11.99c-.2-.36-.63-.36-.83,0Z" style="fill: #c4dfef;"/>
        <path d="M328,397.62l-6.92,12.52c-.27,.49,.12,1.12,.58,.95l.54-.2c.09-.03,.19-.04,.29,0l1.34,.44c.55,.18,1.13,.17,1.67-.04l.99-.38c.11-.04,.23-.04,.33,0l.63,.27c.64,.27,1.33,.27,1.97,0l.63-.27c.11-.05,.22-.05,.33,0l.99,.38c.54,.21,1.12,.22,1.67,.04l1.34-.44c.09-.03,.19-.03,.29,0l.54,.2c.47,.17,.85-.46,.58-.95l-6.92-12.52c-.21-.37-.66-.37-.86,0Z" style="fill: #c4dfef;"/>
        <path d="M327.99,400.23l-7.12,12.87c-.28,.5,.12,1.15,.6,.97l.56-.21c.1-.04,.2-.04,.3,0l1.37,.45c.56,.19,1.16,.17,1.71-.04l1.02-.39c.11-.04,.23-.04,.34,0l.65,.28c.65,.28,1.37,.28,2.02,0l.65-.28c.11-.05,.23-.05,.34,0l1.02,.39c.56,.21,1.15,.23,1.71,.04l1.37-.45c.1-.03,.2-.03,.3,0l.56,.21c.48,.18,.88-.47,.6-.97l-7.12-12.87c-.21-.38-.68-.38-.89,0Z" style="fill: #c4dfef;"/>
        <polygon points="329.79 413.21 328.68 413.21 327.57 413.21 325.91 418.86 328.68 418.21 331.45 418.86 329.79 413.21" style="fill: #c4dfef;"/>
      </g>
      <g>
        <path d="M319.52,404.63l-3.68,6.66c-.14,.26,.06,.59,.31,.5l.29-.11s.1-.02,.15,0l.71,.23c.29,.1,.6,.09,.89-.02l.53-.2c.06-.02,.12-.02,.18,0l.34,.14c.34,.15,.71,.15,1.05,0l.34-.14c.06-.02,.12-.03,.18,0l.53,.2c.29,.11,.6,.12,.89,.02l.71-.23c.05-.02,.1-.02,.15,0l.29,.11c.25,.09,.45-.24,.31-.5l-3.68-6.66c-.11-.2-.35-.2-.46,0Z" style="fill: #c4dfef;"/>
        <path d="M319.36,406.49l-4.24,7.67c-.17,.3,.07,.69,.36,.58l.33-.12c.06-.02,.12-.02,.18,0l.82,.27c.34,.11,.69,.1,1.02-.03l.6-.23c.07-.03,.14-.02,.2,0l.39,.17c.39,.17,.82,.17,1.21,0l.39-.17c.07-.03,.14-.03,.2,0l.6,.23c.33,.13,.69,.14,1.02,.03l.82-.27c.06-.02,.12-.02,.18,0l.33,.12c.29,.11,.52-.28,.36-.58l-4.24-7.67c-.13-.23-.4-.23-.53,0Z" style="fill: #c4dfef;"/>
        <path d="M319.47,408.34l-4.43,8.01c-.17,.31,.07,.72,.37,.61l.35-.13c.06-.02,.12-.02,.18,0l.85,.28c.35,.12,.72,.11,1.07-.03l.63-.24c.07-.03,.14-.03,.21,0l.4,.17c.41,.17,.85,.17,1.26,0l.4-.17c.07-.03,.14-.03,.21,0l.63,.24c.35,.13,.72,.14,1.07,.03l.85-.28c.06-.02,.12-.02,.18,0l.35,.13c.3,.11,.55-.29,.37-.61l-4.43-8.01c-.13-.24-.42-.24-.55,0Z" style="fill: #c4dfef;"/>
        <path d="M319.46,410l-4.55,8.24c-.18,.32,.08,.74,.38,.62l.36-.13c.06-.02,.13-.02,.19,0l.88,.29c.36,.12,.74,.11,1.1-.03l.65-.25c.07-.03,.15-.03,.22,0l.42,.18c.42,.18,.88,.18,1.29,0l.42-.18c.07-.03,.15-.03,.22,0l.65,.25c.36,.14,.74,.15,1.1,.03l.88-.29c.06-.02,.13-.02,.19,0l.36,.13c.31,.11,.56-.3,.38-.62l-4.55-8.24c-.14-.24-.43-.24-.57,0Z" style="fill: #c4dfef;"/>
        <polygon points="320.61 418.31 319.9 418.31 319.19 418.31 318.13 421.93 319.9 421.51 321.68 421.93 320.61 418.31" style="fill: #c4dfef;"/>
      </g>
    </g>
  </g>
  <path d="M1920.35,635.12v-115.37c-266.41-43.67-599.12-69.61-960-69.61S266.77,476.08,.35,519.75v115.37H1920.35Z" style="fill: #a2c3e0;"/>
</svg>