<?xml version="1.0" encoding="UTF-8"?>
<svg width="44" height="44" id="_圖層_2" data-name="圖層 2" xmlns="http://www.w3.org/2000/svg" viewBox="0 0 44 44">
  <g id="_模擬置頂" data-name="模擬置頂">
    <g>
      <path d="M44,22c0,12.15-9.85,22-22,22S0,34.15,0,22,9.85,0,22,0s22,9.85,22,22h0Z" style="fill: #e83b2d;"/>
      <path d="M25.83,22.47l-6.06,3c-.24,.13-1.04-.04-1.04-.31v-6.15c0-.27,.81-.45,1.05-.31l5.8,3.15c.24,.14,.5,.49,.25,.62h0Zm7.94-3.62c0-2.92-2.37-5.28-5.28-5.28H14.99c-2.92,0-5.28,2.37-5.28,5.28v6.29c0,2.92,2.37,5.28,5.28,5.28h13.51c2.92,0,5.28-2.36,5.28-5.28v-6.29h0Z" style="fill: #fff;"/>
    </g>
  </g>
</svg>