<svg width="1413" height="1177" xmlns="http://www.w3.org/2000/svg" viewBox="0 0 1413.83 1177.2"><defs><style>.cls-1{fill:none;stroke:#fffde3;stroke-miterlimit:10;}</style></defs><g id="圖層_2" data-name="圖層 2"><g id="_01首頁" data-name="01首頁"><path class="cls-1" d="M213.71.18S84.08,332.61,396.61,625.29s301.47-118.64,1016.88,551.55"/><path class="cls-1" d="M190.66,9.13s-123.19,335,194.93,620.39c315.75,283.9,334-124.78,1026,530.46"/><path class="cls-1" d="M167.61,18.09s-116.76,337.54,207,615.65c319,275.14,366.49-130.91,1035.08,509.39"/><path class="cls-1" d="M144.56,27S34.23,367.14,363.56,638c322.19,266.36,399-137.06,1044.19,488.3"/><path class="cls-1" d="M121.51,36s-103.9,342.66,231,606.21C678,899.79,784.06,499,1405.84,1109.42"/><path class="cls-1" d="M98.46,44.94S1,390.15,341.53,646.43c328.63,248.81,464-149.34,1062.39,446.13"/><path class="cls-1" d="M75.41,53.9s-91,347.76,255.11,596.76C662.36,890.7,827.05,495.18,1402,1075.71"/><path class="cls-1" d="M52.36,62.85s-84.61,350.32,267.14,592c335.07,231.28,529-161.61,1080.6,404"/><path class="cls-1" d="M29.31,71.8S-48.86,424.68,308.48,659.11C646.77,881.61,870,491.35,1398.18,1042"/><path class="cls-1" d="M6.26,80.75S-65.48,436.19,297.47,663.34c341.51,213.73,594.06-173.9,1098.8,361.8"/></g></g></svg>