<?xml version="1.0" encoding="utf-8"?>
<!-- Generator: Adobe Illustrator 25.2.0, SVG Export Plug-In . SVG Version: 6.00 Build 0)  -->
<svg version="1.1" id="圖層_1" xmlns="http://www.w3.org/2000/svg" xmlns:xlink="http://www.w3.org/1999/xlink" x="0px" y="0px"
	 viewBox="0 0 942.9 384.3" style="enable-background:new 0 0 942.9 384.3;" xml:space="preserve">
<style type="text/css">
	.st0{fill:none;stroke:#C7E8FA;stroke-linecap:round;stroke-linejoin:round;stroke-miterlimit:10;}
	.st1{fill:none;stroke:#C7E8FA;stroke-width:5;stroke-linecap:round;stroke-linejoin:round;stroke-miterlimit:10;}
	.st2{fill:none;stroke:#C7E8FA;stroke-width:3;stroke-linecap:round;stroke-linejoin:round;stroke-miterlimit:10;}
</style>
<g>
	<g>
		<g>
			<line class="st0" x1="920.5" y1="288.2" x2="19.8" y2="288.2"/>
			<line class="st0" x1="920.5" y1="204.2" x2="19.8" y2="204.2"/>
			<line class="st0" x1="920.5" y1="119" x2="19.8" y2="119"/>
			<line class="st0" x1="920.5" y1="35" x2="19.8" y2="35"/>
		</g>
		<g>
			<line class="st0" x1="83.6" y1="359.8" x2="83.6" y2="35"/>
			<line class="st0" x1="167.6" y1="359.8" x2="167.6" y2="35"/>
			<line class="st0" x1="252.8" y1="359.8" x2="252.8" y2="35"/>
			<line class="st0" x1="336.8" y1="359.8" x2="336.8" y2="35"/>
			<g>
				<line class="st0" x1="414.9" y1="359.8" x2="414.9" y2="35"/>
				<line class="st0" x1="498.9" y1="359.8" x2="498.9" y2="35"/>
				<line class="st0" x1="584.1" y1="359.8" x2="584.1" y2="35"/>
				<line class="st0" x1="668.1" y1="359.8" x2="668.1" y2="35"/>
				<line class="st0" x1="751.3" y1="359.8" x2="751.3" y2="35"/>
				<line class="st0" x1="836.5" y1="359.8" x2="836.5" y2="35"/>
				<line class="st0" x1="920.5" y1="359.8" x2="920.5" y2="35"/>
			</g>
		</g>
	</g>
	<g>
		<polyline class="st1" points="19.8,2.5 19.8,360.7 940.4,360.7 		"/>
		<g>
			<line class="st2" x1="19.8" y1="203.8" x2="1.5" y2="203.8"/>
			<line class="st2" x1="19.8" y1="119.4" x2="1.5" y2="119.4"/>
			<line class="st2" x1="19.8" y1="288.2" x2="1.5" y2="288.2"/>
			<line class="st2" x1="19.8" y1="35" x2="1.5" y2="35"/>
		</g>
		<g>
			<line class="st2" x1="251.8" y1="364.5" x2="251.8" y2="382.8"/>
			<line class="st2" x1="167.4" y1="364.5" x2="167.4" y2="382.8"/>
			<line class="st2" x1="336.2" y1="364.5" x2="336.2" y2="382.8"/>
			<line class="st2" x1="83" y1="364.5" x2="83" y2="382.8"/>
			<line class="st2" x1="583.7" y1="364.5" x2="583.7" y2="382.8"/>
			<line class="st2" x1="499.3" y1="364.5" x2="499.3" y2="382.8"/>
			<line class="st2" x1="668.1" y1="364.5" x2="668.1" y2="382.8"/>
			<line class="st2" x1="414.9" y1="364.5" x2="414.9" y2="382.8"/>
			<line class="st2" x1="835.9" y1="364.5" x2="835.9" y2="382.8"/>
			<line class="st2" x1="751.5" y1="364.5" x2="751.5" y2="382.8"/>
			<line class="st2" x1="920.3" y1="364.5" x2="920.3" y2="382.8"/>
		</g>
	</g>
</g>
</svg>
