<svg width="150" height="50" id="圖層_1" data-name="圖層 1" xmlns="http://www.w3.org/2000/svg" viewBox="0 0 150 50"><defs><style>.cls-1,.cls-2{fill:#1f487e;}.cls-1{fill-rule:evenodd;}</style></defs><g id="Layer_1" data-name="Layer 1"><g id="_2090548371504" data-name=" 2090548371504"><path class="cls-1" d="M5.18,14.11C4.06,16.32,4.06,19.21,4.06,25s0,8.67,1.12,10.88A10.34,10.34,0,0,0,9.7,40.4c2.21,1.12,5.1,1.12,10.88,1.12s8.68,0,10.88-1.12A10.34,10.34,0,0,0,36,35.88C37.1,33.67,37.1,30.78,37.1,25s0-8.68-1.12-10.88A10.34,10.34,0,0,0,31.46,9.6c-2.21-1.12-5.1-1.12-10.88-1.12S11.9,8.48,9.7,9.6a10.34,10.34,0,0,0-4.52,4.52Zm23.61,3.25a1,1,0,0,1,.76.33,1,1,0,0,1,.33.76,71.75,71.75,0,0,1-.4,7.3,14.88,14.88,0,0,1-1.05,4.37A5.9,5.9,0,0,1,27.2,32,10.86,10.86,0,0,1,25,33.7c-.36.22-.69.4-1.08.61-.8.47-1.66.94-2.68,1.63a1,1,0,0,1-1.19,0c-1-.69-1.92-1.19-2.71-1.63a3.56,3.56,0,0,0-.54-.29,11.47,11.47,0,0,1-2.53-1.81A6,6,0,0,1,13,30.4a12.14,12.14,0,0,1-1-3.62,57.38,57.38,0,0,1-.51-8.28,1.1,1.1,0,0,1,.29-.76,1,1,0,0,1,.76-.33H13a11.27,11.27,0,0,0,7-2.17,1.08,1.08,0,0,1,1.3,0,11.4,11.4,0,0,0,7,2.17h.43l.07-.07Zm-2.39,12a11.38,11.38,0,0,0,.83-3,56.82,56.82,0,0,0,.47-6.91,13.2,13.2,0,0,1-7-2.13,13.41,13.41,0,0,1-7,2.13c.07,2.49.18,4.45.36,6a14.2,14.2,0,0,0,.87,3.76,5.1,5.1,0,0,0,.83,1.3,7.34,7.34,0,0,0,1.7,1.3c.29.18.65.36,1,.58.65.36,1.41.8,2.24,1.34.83-.51,1.55-.94,2.21-1.3.18-.11.4-.22.54-.33a8.5,8.5,0,0,0,2.06-1.45,5.28,5.28,0,0,0,.87-1.23l0-.07Z"/><path class="cls-2" d="M50.37,21.67H46.68V19.5h10v2.17H53V31H50.36V21.67Zm9.4,1.66a3,3,0,0,1,1.23-1A4.67,4.67,0,0,1,62.81,22v2.39a3.87,3.87,0,0,0-.58,0,2.54,2.54,0,0,0-1.74.61,2.33,2.33,0,0,0-.61,1.84V31H57.31V22.12h2.46v1.21Zm13.09-1.16v8.89H70.4V30a3.33,3.33,0,0,1-1.23.9,4.24,4.24,0,0,1-1.52.29,3.77,3.77,0,0,1-2.78-1,4,4,0,0,1-1-3v-5h2.57v4.63c0,1.45.61,2.13,1.81,2.13a1.9,1.9,0,0,0,1.48-.58,2.65,2.65,0,0,0,.59-1.81V22.16h2.55Zm4.84,9.11a8.8,8.8,0,0,1-2.13-.36,6.43,6.43,0,0,1-1.69-.69l.87-1.84a4.88,4.88,0,0,0,1.44.61,7.1,7.1,0,0,0,1.67.22c1.08,0,1.63-.25,1.63-.8a.56.56,0,0,0-.43-.54,6.3,6.3,0,0,0-1.38-.29c-.72-.11-1.33-.25-1.8-.36a2.7,2.7,0,0,1-1.24-.76,2.21,2.21,0,0,1-.51-1.55,2.3,2.3,0,0,1,.47-1.48,3,3,0,0,1,1.41-1,6,6,0,0,1,2.21-.36,8,8,0,0,1,1.88.22,5.35,5.35,0,0,1,1.55.58l-.87,1.84a5.28,5.28,0,0,0-2.57-.65,2.59,2.59,0,0,0-1.23.22.63.63,0,0,0-.4.58.57.57,0,0,0,.43.58,8.26,8.26,0,0,0,1.41.33,10.55,10.55,0,0,1,1.77.4,2.27,2.27,0,0,1,1.19.76,2.18,2.18,0,0,1,.51,1.52,2.41,2.41,0,0,1-.51,1.48,3.37,3.37,0,0,1-1.45,1,6.65,6.65,0,0,1-2.24.36h0Zm11-.69a3,3,0,0,1-.94.43,6.14,6.14,0,0,1-1.16.14,3.44,3.44,0,0,1-2.46-.8A3.13,3.13,0,0,1,83.3,28V24.32H81.93v-2H83.3V20.16h2.57v2.17h2.21v2H85.87v3.62a1.34,1.34,0,0,0,.29.87,1.16,1.16,0,0,0,.83.29A1.71,1.71,0,0,0,88,28.77l.69,1.81Zm22.78-11.13L107.71,31h-2.86l-2.53-7.81L99.68,31H96.82L93,19.46H95.8l2.6,8.13,2.71-8.13h2.46l2.64,8.17,2.68-8.17h2.62Zm3.8,2.42A4.56,4.56,0,0,1,118.42,23a3.8,3.8,0,0,1,1.12,3V31h-2.42V29.86a2.82,2.82,0,0,1-2.7,1.23,3.86,3.86,0,0,1-1.77-.36,2.39,2.39,0,0,1-1.12-.94,2.59,2.59,0,0,1-.41-1.37,2.35,2.35,0,0,1,.95-2,4.75,4.75,0,0,1,2.89-.72H117a1.69,1.69,0,0,0-.51-1.3A2.15,2.15,0,0,0,115,24a4.62,4.62,0,0,0-1.42.22,3.94,3.94,0,0,0-1.16.58L111.47,23a5.6,5.6,0,0,1,1.74-.8,7.77,7.77,0,0,1,2.1-.29Zm-.25,7.52a2.43,2.43,0,0,0,1.16-.29,1.69,1.69,0,0,0,.72-.9v-.9h-1.76c-1.06,0-1.59.36-1.59,1.05a1,1,0,0,0,.4.8,1.83,1.83,0,0,0,1.08.29v0Zm6.29-10.63h2.57V31h-2.57Zm4.48,0h2.57V31h-2.57ZM139,26.62s0,.25,0,.69h-6.72a2,2,0,0,0,.87,1.3,2.7,2.7,0,0,0,1.7.47A4.07,4.07,0,0,0,136,28.9a3.28,3.28,0,0,0,1-.65l1.37,1.48a4.65,4.65,0,0,1-3.65,1.45,5.55,5.55,0,0,1-2.64-.58,4.28,4.28,0,0,1-2.38-4,4.72,4.72,0,0,1,.61-2.35,4.29,4.29,0,0,1,1.7-1.63,4.87,4.87,0,0,1,2.42-.58,4.54,4.54,0,0,1,2.36.58,3.89,3.89,0,0,1,1.66,1.63,4.5,4.5,0,0,1,.51,2.35ZM134.41,24a2.27,2.27,0,0,0-1.48.51,2.05,2.05,0,0,0-.72,1.34h4.37a2,2,0,0,0-.72-1.34A2.17,2.17,0,0,0,134.41,24Zm11.53,6.62A3,3,0,0,1,145,31a6.14,6.14,0,0,1-1.17.14,3.44,3.44,0,0,1-2.46-.8A3.13,3.13,0,0,1,140.5,28V24.33h-1.36v-2h1.36V20.17h2.58v2.17h2.21v2h-2.21V28a1.39,1.39,0,0,0,.28.87,1.16,1.16,0,0,0,.83.29,1.76,1.76,0,0,0,1.06-.33l.69,1.81Z"/></g></g></svg>