<svg id="factory" xmlns="http://www.w3.org/2000/svg" xmlns:xlink="http://www.w3.org/1999/xlink"
  viewBox="0 0 630.32 545.43">
  <defs>
    <linearGradient id="未命名漸層_66" x1="331.05" y1="267.22" x2="462.11" y2="267.22" gradientUnits="userSpaceOnUse">
      <stop offset="0" stop-color="#c4e4f6" />
      <stop offset="0.03" stop-color="#d6ecf9" />
      <stop offset="0.44" stop-color="#c4e4f6" />
      <stop offset="1" stop-color="#a9d7ee" />
    </linearGradient>
    <linearGradient id="未命名漸層_66-2" x1="178.88" y1="236.27" x2="309.94" y2="236.27" xlink:href="#未命名漸層_66" />
    <linearGradient id="未命名漸層_66-3" x1="91.32" y1="406.68" x2="192.67" y2="406.68" xlink:href="#未命名漸層_66" />
  </defs>
  <g id="house">
    <path
      d="M523.45,267.08H13.1A13.08,13.08,0,0,1,2.78,246l64.29-82.55A1.17,1.17,0,0,1,68,163H568.13a1.15,1.15,0,0,1,1.06,1.62l-44.68,101.8A1.16,1.16,0,0,1,523.45,267.08Z"
      style="fill:#fdfce3" />
    <path
      d="M579.13,133.62h-492a1.17,1.17,0,0,0-.89.41l-15,17.87a1.16,1.16,0,0,0,.88,1.9h500a1.15,1.15,0,0,0,1.08-.73l7-17.88A1.15,1.15,0,0,0,579.13,133.62Z"
      style="fill:#fdfce3" />
    <rect x="49.97" y="262" width="476.46" height="256.5" rx="1.15" style="fill:#fdfce3" />
    <path
      d="M584.82,161.62v2.07a1.25,1.25,0,0,1-.09.46L539.42,267.8a1.18,1.18,0,0,0-.09.46V410a1.15,1.15,0,0,0,1.15,1.15h43.19a1.15,1.15,0,0,0,1.15-1.15h0A1.16,1.16,0,0,1,586,408.8h43.18a1.16,1.16,0,0,0,1.16-1.15V266a1,1,0,0,0-.1-.46Z"
      style="fill:#fdfce3" />
  </g>
  <g id="item2">
    <path d="M424.66,71.54h0c0-4.3-12.57-7.79-28.08-7.79s-28.08,3.49-28.08,7.79L331.05,470.68H462.11Z"
      style="fill:url(#未命名漸層_66)" />
    <ellipse cx="396.58" cy="73.64" rx="25.16" ry="6.54" style="fill:#e5f2fb" />
    <path
      d="M425,69.32c-4.42-11.64-27.91-8.32-28.4-8.25s-24-3.39-28.4,8.25c0,0-1.73,10.85,28.38,10.86h0C426.71,80.17,425,69.32,425,69.32Z"
      style="fill:none;stroke:#e5f2fb;stroke-miterlimit:10" />
    <path d="M353.56,230l.06-.64A3.47,3.47,0,0,0,353.56,230Z" style="fill:#70bae0" />
    <path
      d="M438.91,225.16l.34,3.35a3.65,3.65,0,0,1,.35,1.5c0,6.58-19.26,11.91-43,11.91s-43-5.33-43-11.91a3.47,3.47,0,0,1,.06-.64l.41-4.09c-3.41,1.82-5.35,3.89-5.35,6.08,0,7.32,21.45,13.25,47.9,13.25s47.89-5.93,47.89-13.25C444.47,229.12,442.46,227,438.91,225.16Z"
      style="fill:#70bae0" />
    <path d="M352.12,249l.06-.64A3.39,3.39,0,0,0,352.12,249Z" style="fill:#70bae0" />
    <path
      d="M440.33,244.16l.35,3.35A3.52,3.52,0,0,1,441,249c0,6.57-19.91,11.9-44.46,11.9s-44.46-5.33-44.46-11.9a3.39,3.39,0,0,1,.06-.64l.43-4.1c-3.53,1.83-5.53,3.89-5.53,6.09,0,7.32,22.16,13.25,49.5,13.25s49.5-5.93,49.5-13.25C446.08,248.12,444,246,440.33,244.16Z"
      style="fill:#70bae0" />
    <path d="M368,71.12l0-.46A2.38,2.38,0,0,0,368,71.12Z" style="fill:#70bae0" />
    <path
      d="M424.72,67.63,425,70a3,3,0,0,1,.23,1.08c0,4.74-12.8,8.59-28.6,8.59S368,75.86,368,71.12a2.38,2.38,0,0,1,0-.46l.27-3c-2.26,1.32-3.55,2.81-3.55,4.39,0,5.27,14.25,9.55,31.84,9.55s31.84-4.28,31.84-9.55C428.42,70.48,427.08,69,424.72,67.63Z"
      style="fill:#70bae0" />
    <path d="M368,85.15l0-.46A2.32,2.32,0,0,0,368,85.15Z" style="fill:#70bae0" />
    <path
      d="M424.72,81.65l.23,2.42a2.91,2.91,0,0,1,.23,1.08c0,4.74-12.8,8.58-28.6,8.58S368,89.89,368,85.15a2.32,2.32,0,0,1,0-.46l.27-3c-2.26,1.31-3.55,2.8-3.55,4.38,0,5.28,14.25,9.56,31.84,9.56s31.84-4.28,31.84-9.56C428.42,84.51,427.08,83,424.72,81.65Z"
      style="fill:#70bae0" />
    <polyline points="376.19 138.1 374.98 155.54 373.42 178.08"
      style="fill:none;stroke:#fff;stroke-linecap:round;stroke-linejoin:round;stroke-width:5px" />
    <line x1="377.26" y1="117.89" x2="376.68" y2="126.17"
      style="fill:none;stroke:#fff;stroke-linecap:round;stroke-linejoin:round;stroke-width:5px" />
  </g>
  <g id="item1">
    <path d="M272.49,11.46h0c0-4.3-12.57-7.79-28.08-7.79s-28.08,3.49-28.08,7.79l-37.45,457.4H309.94Z"
      style="fill:url(#未命名漸層_66-2)" />
    <path
      d="M269.57,13.56c0,3.61-11.26,6.54-25.16,6.54s-25.16-2.93-25.16-6.54S230.51,7,244.41,7,269.57,9.94,269.57,13.56Z"
      style="fill:#e5f2fb" />
    <path
      d="M272.81,9.24C268.4-2.4,244.9.92,244.41,1s-24-3.39-28.4,8.25c0,0-1.73,10.85,28.38,10.86h0C274.54,20.09,272.81,9.24,272.81,9.24Z"
      style="fill:none;stroke:#e5f2fb;stroke-miterlimit:10" />
    <path d="M201.39,187.93l.06-.64A3.55,3.55,0,0,0,201.39,187.93Z" style="fill:#70bae0" />
    <path
      d="M286.75,183.09l.33,3.34a3.73,3.73,0,0,1,.35,1.5c0,6.58-19.26,11.91-43,11.91s-43-5.33-43-11.91a3.55,3.55,0,0,1,.06-.64l.41-4.09c-3.41,1.82-5.34,3.89-5.34,6.08,0,7.32,21.44,13.26,47.89,13.26s47.9-5.94,47.9-13.26C292.31,187,290.29,184.94,286.75,183.09Z"
      style="fill:#70bae0" />
    <path d="M200,206.93l.07-.64A2.73,2.73,0,0,0,200,206.93Z" style="fill:#70bae0" />
    <path
      d="M288.16,202.08l.35,3.35a3.52,3.52,0,0,1,.36,1.5c0,6.57-19.9,11.9-44.46,11.9S200,213.5,200,206.93a2.73,2.73,0,0,1,.07-.64l.42-4.09c-3.52,1.82-5.53,3.88-5.53,6.08,0,7.32,22.16,13.25,49.5,13.25s49.5-5.93,49.5-13.25C293.91,206,291.83,203.93,288.16,202.08Z"
      style="fill:#70bae0" />
    <path d="M215.81,11.05l0-.47A2.49,2.49,0,0,0,215.81,11.05Z" style="fill:#70bae0" />
    <path
      d="M272.56,7.55l.22,2.41a2.81,2.81,0,0,1,.23,1.09c0,4.74-12.8,8.58-28.6,8.58s-28.6-3.84-28.6-8.58a2.49,2.49,0,0,1,0-.47l.27-2.95c-2.26,1.32-3.55,2.81-3.55,4.39,0,5.28,14.26,9.55,31.84,9.55S276.25,17.3,276.25,12C276.25,10.4,274.91,8.88,272.56,7.55Z"
      style="fill:#70bae0" />
    <path d="M215.81,25.07l0-.46A2.32,2.32,0,0,0,215.81,25.07Z" style="fill:#70bae0" />
    <path
      d="M272.56,21.57l.22,2.42a2.72,2.72,0,0,1,.23,1.08c0,4.74-12.8,8.58-28.6,8.58s-28.6-3.84-28.6-8.58a2.32,2.32,0,0,1,0-.46l.27-2.95c-2.26,1.31-3.55,2.8-3.55,4.38,0,5.28,14.26,9.56,31.84,9.56s31.84-4.28,31.84-9.56C276.25,24.43,274.91,22.91,272.56,21.57Z"
      style="fill:#70bae0" />
    <polyline points="224.03 78.03 222.81 95.47 221.25 118"
      style="fill:none;stroke:#fff;stroke-linecap:round;stroke-linejoin:round;stroke-width:5px" />
    <line x1="225.09" y1="57.81" x2="224.52" y2="66.09"
      style="fill:none;stroke:#fff;stroke-linecap:round;stroke-linejoin:round;stroke-width:5px" />
  </g>
  <g id="item3">
    <path d="M173.75,273.6h0c0-3.13-12.57-5.66-28.08-5.66s-28.08,2.53-28.08,5.66L80.13,545.43H211.19Z"
      style="fill:url(#未命名漸層_66-3)" />
    <path
      d="M170.83,275.12c0,2.63-11.27,4.76-25.17,4.76s-25.16-2.13-25.16-4.76,11.27-4.75,25.16-4.75S170.83,272.5,170.83,275.12Z"
      style="fill:#e5f2fb" />
    <path
      d="M174.06,272c-4.41-8.47-27.91-6.05-28.4-6s-24-2.47-28.4,6c0,0-1.73,7.88,28.38,7.89h.05C175.8,279.87,174.06,272,174.06,272Z"
      style="fill:none;stroke:#e5f2fb;stroke-miterlimit:10" />
    <path d="M102.64,388.82l.07-.47A1.53,1.53,0,0,0,102.64,388.82Z" style="fill:#70bae0" />
    <path
      d="M188,385.29l.33,2.44a2,2,0,0,1,.36,1.09c0,4.78-19.27,8.65-43,8.65s-43-3.87-43-8.65a1.53,1.53,0,0,1,.07-.47l.4-3c-3.4,1.32-5.34,2.83-5.34,4.42,0,5.32,21.44,9.64,47.89,9.64s47.9-4.32,47.9-9.64C193.56,388.17,191.54,386.64,188,385.29Z"
      style="fill:#70bae0" />
    <path d="M101.2,402.63l.07-.47A1.91,1.91,0,0,0,101.2,402.63Z" style="fill:#70bae0" />
    <path
      d="M189.42,399.1l.34,2.44a2,2,0,0,1,.36,1.09c0,4.78-19.9,8.65-44.46,8.65s-44.46-3.87-44.46-8.65a1.91,1.91,0,0,1,.07-.47l.42-3c-3.52,1.32-5.52,2.83-5.52,4.42,0,5.32,22.16,9.64,49.49,9.64s49.5-4.32,49.5-9.64C195.16,402,193.08,400.45,189.42,399.1Z"
      style="fill:#70bae0" />
    <path d="M117.06,273.3l0-.34A2,2,0,0,0,117.06,273.3Z" style="fill:#70bae0" />
    <path
      d="M173.81,270.76l.22,1.75a1.56,1.56,0,0,1,.23.79c0,3.44-12.8,6.24-28.6,6.24s-28.6-2.8-28.6-6.24a2,2,0,0,1,0-.34l.28-2.14c-2.27.95-3.56,2-3.56,3.19,0,3.83,14.26,6.94,31.84,6.94s31.84-3.11,31.84-6.94C177.5,272.83,176.16,271.73,173.81,270.76Z"
      style="fill:#70bae0" />
    <path d="M117.06,283.49l0-.33A1.86,1.86,0,0,0,117.06,283.49Z" style="fill:#70bae0" />
    <path
      d="M173.81,281l.22,1.76a1.56,1.56,0,0,1,.23.78c0,3.45-12.8,6.25-28.6,6.25s-28.6-2.8-28.6-6.25a1.86,1.86,0,0,1,0-.33l.28-2.15c-2.27,1-3.56,2-3.56,3.19,0,3.84,14.26,6.95,31.84,6.95S177.5,288,177.5,284.2C177.5,283,176.16,281.92,173.81,281Z"
      style="fill:#70bae0" />
    <polyline points="125.28 322 124.07 334.68 122.5 351.06"
      style="fill:none;stroke:#fff;stroke-linecap:round;stroke-linejoin:round;stroke-width:5px" />
    <line x1="126.34" y1="307.3" x2="125.77" y2="313.32"
      style="fill:none;stroke:#fff;stroke-linecap:round;stroke-linejoin:round;stroke-width:5px" />
  </g>
</svg>