<?xml version="1.0" encoding="UTF-8"?>
<svg width="72px" height="60px" id="_圖層_1" data-name="圖層 1" xmlns="http://www.w3.org/2000/svg" xmlns:xlink="http://www.w3.org/1999/xlink" viewBox="0 0 71.85 60.31">
  <defs>
    <style>
      .cls-1 {
        fill: url(#_未命名漸層_7);
      }

      .cls-2 {
        fill: url(#_未命名漸層_7-4);
      }

      .cls-3 {
        fill: url(#_未命名漸層_7-3);
      }

      .cls-4 {
        fill: url(#_未命名漸層_7-6);
      }

      .cls-5 {
        fill: url(#_未命名漸層_7-5);
      }

      .cls-6 {
        fill: url(#_未命名漸層_7-2);
      }

      .cls-7 {
        fill: url(#_未命名漸層_7-8);
      }

      .cls-8 {
        fill: url(#_未命名漸層_7-7);
      }

      .cls-9 {
        fill: url(#_未命名漸層_7-9);
      }

      .cls-10 {
        fill: url(#_未命名漸層_7-10);
      }
    </style>
    <linearGradient id="_未命名漸層_7" data-name="未命名漸層 7" x1="1.02" y1="60.3" x2="70.65" y2="60.3" gradientUnits="userSpaceOnUse">
      <stop offset="0" stop-color="#e4e1d2"/>
      <stop offset=".01" stop-color="#e2dfcf"/>
      <stop offset=".48" stop-color="#aca88d"/>
      <stop offset=".83" stop-color="#8a8663"/>
      <stop offset="1" stop-color="#7e7954"/>
    </linearGradient>
    <linearGradient id="_未命名漸層_7-2" data-name="未命名漸層 7" x1="1.02" y1="30.16" x2="70.65" y2="30.16" xlink:href="#_未命名漸層_7"/>
    <linearGradient id="_未命名漸層_7-3" data-name="未命名漸層 7" x1="1.02" y1=".01" x2="70.65" y2=".01" xlink:href="#_未命名漸層_7"/>
    <linearGradient id="_未命名漸層_7-4" data-name="未命名漸層 7" x1="1.02" y1="48.71" x2="70.65" y2="48.71" xlink:href="#_未命名漸層_7"/>
    <linearGradient id="_未命名漸層_7-5" data-name="未命名漸層 7" x1="1.02" y1="31.56" x2="70.65" y2="31.56" xlink:href="#_未命名漸層_7"/>
    <linearGradient id="_未命名漸層_7-6" data-name="未命名漸層 7" x1="1.03" x2="70.65" xlink:href="#_未命名漸層_7"/>
    <linearGradient id="_未命名漸層_7-7" data-name="未命名漸層 7" x1="1.02" y1="9.98" x2="70.65" y2="9.98" xlink:href="#_未命名漸層_7"/>
    <linearGradient id="_未命名漸層_7-8" data-name="未命名漸層 7" x1="1.02" y1="29.99" x2="70.65" y2="29.99" xlink:href="#_未命名漸層_7"/>
    <linearGradient id="_未命名漸層_7-9" data-name="未命名漸層 7" x1="1.02" y1="29.95" x2="70.65" y2="29.95" xlink:href="#_未命名漸層_7"/>
    <linearGradient id="_未命名漸層_7-10" data-name="未命名漸層 7" x1="1.02" y1="29.99" x2="70.65" y2="29.99" xlink:href="#_未命名漸層_7"/>
  </defs>
  <g>
    <g>
      <path class="cls-1" d="M30.33,60.31c.22,0,.43-.01,.65-.02-.24,0-.48,.02-.73,.02,.03,0,.05,0,.07,0Z"/>
      <path class="cls-6" d="M58.54,19.94C54.35,8.31,43.23,0,30.16,0,13.5,0,0,13.5,0,30.16s13.5,30.16,30.16,30.16c.03,0,.06,0,.09,0-12.99-.05-23.5-13.32-23.5-29.69S17.3,.92,30.33,.92c8.47,0,16.43,5.39,20.06,14.08,2.44,5.84,8.15,4.94,8.15,4.94Z"/>
    </g>
    <g>
      <path class="cls-3" d="M30.69,0s-.05,0-.07,0c.24,0,.48,.01,.73,.02-.22,0-.43-.02-.65-.02Z"/>
      <path class="cls-2" d="M38.69,57.06c4.68-1.4,7.07-3.76,12.06-11.75,3.36-5.36,8.15-4.94,8.15-4.94,0,0-4.71,16.69-20.22,16.69Z"/>
    </g>
    <path class="cls-5" d="M19.16,29.69c0,16.4,10.56,29.69,23.58,29.69,8.47,0,16.43-5.39,20.06-14.08,2.44-5.84,8.15-4.94,8.15-4.94-4.19,11.63-15.31,19.94-28.38,19.94-16.66,0-30.16-13.5-30.16-30.16,0-11.94,10.15-27.36,20.82-27.36,0,0-14.07,7.19-14.07,26.9Z"/>
    <g>
      <path class="cls-4" d="M43.11,60.31s-.05,0-.07,0c.24,0,.48-.01,.73-.02-.22,0-.43,.02-.65,.02Z"/>
      <path class="cls-8" d="M45.46,.02c4.68,1.4,12.71,6.99,17.71,14.98,3.36,5.36,8.15,4.94,8.15,4.94C71.32,19.94,60.97,.02,45.46,.02Z"/>
    </g>
  </g>
  <g>
    <path class="cls-7" d="M37.4,33.31h-6.34c-.11,.32-.23,.66-.35,1.03-.13,.37-.25,.73-.37,1.09-.12,.35-.23,.69-.34,.99-.11,.31-.2,.56-.26,.77-.22,.09-.48,.14-.78,.14-.25,0-.48-.07-.67-.2-.2-.13-.3-.35-.3-.65,0-.14,.02-.29,.07-.44,.05-.15,.1-.31,.17-.48,.24-.66,.54-1.51,.91-2.55,.37-1.04,.77-2.15,1.21-3.32,.43-1.17,.87-2.36,1.32-3.55,.45-1.19,.86-2.26,1.24-3.2,.13-.06,.31-.13,.57-.19,.25-.06,.51-.09,.78-.09,.32,0,.62,.05,.91,.14,.29,.09,.48,.25,.56,.47,.38,.91,.78,1.96,1.22,3.13,.43,1.17,.87,2.38,1.31,3.61,.44,1.23,.86,2.44,1.27,3.63,.4,1.19,.76,2.27,1.08,3.23-.13,.14-.28,.26-.45,.34-.17,.09-.37,.13-.59,.13-.3,0-.53-.07-.69-.2-.16-.13-.29-.36-.4-.67l-1.06-3.14Zm-3.17-9.05c-.17,.47-.37,1.01-.59,1.62-.22,.61-.45,1.24-.69,1.9-.24,.66-.47,1.33-.71,2.01-.24,.68-.46,1.32-.66,1.94h5.32c-.24-.71-.48-1.42-.73-2.14-.25-.72-.49-1.41-.72-2.07-.23-.66-.44-1.27-.64-1.83-.2-.56-.36-1.04-.48-1.43h-.09Z"/>
    <path class="cls-9" d="M45.25,37.26c-.69,0-1.04-.28-1.04-.85v-13.36c.28-.28,.71-.43,1.28-.43,.38,0,.7,.07,.97,.22,.27,.15,.51,.42,.73,.82l4.52,7.57c.19,.33,.39,.68,.59,1.05,.2,.37,.4,.74,.59,1.11,.19,.37,.37,.72,.53,1.04,.17,.32,.3,.6,.41,.82l.09-.02c-.13-1.28-.2-2.56-.22-3.85-.02-1.29-.04-2.55-.04-3.78v-4.78c.09-.03,.22-.07,.38-.11,.16-.04,.33-.06,.52-.06,.69,0,1.04,.28,1.04,.85v13.38c-.14,.13-.32,.22-.54,.3-.22,.07-.46,.11-.73,.11-.38,0-.7-.07-.97-.22-.27-.15-.51-.42-.73-.82l-4.49-7.57c-.19-.32-.39-.66-.6-1.04-.21-.38-.42-.75-.61-1.11-.2-.36-.38-.71-.54-1.04-.17-.33-.3-.61-.41-.83l-.09,.02c.08,.76,.14,1.62,.19,2.59,.05,.97,.07,1.89,.07,2.75v7.07c-.08,.03-.2,.07-.37,.11-.17,.04-.34,.06-.51,.06Z"/>
    <path class="cls-10" d="M68.66,33.31h-6.34c-.11,.32-.23,.66-.35,1.03-.13,.37-.25,.73-.37,1.09-.12,.35-.23,.69-.34,.99-.11,.31-.2,.56-.26,.77-.22,.09-.48,.14-.78,.14-.25,0-.48-.07-.67-.2-.2-.13-.3-.35-.3-.65,0-.14,.02-.29,.07-.44,.05-.15,.1-.31,.17-.48,.24-.66,.54-1.51,.91-2.55,.37-1.04,.77-2.15,1.21-3.32,.43-1.17,.87-2.36,1.32-3.55,.45-1.19,.86-2.26,1.24-3.2,.13-.06,.31-.13,.57-.19,.25-.06,.51-.09,.78-.09,.32,0,.62,.05,.91,.14,.29,.09,.48,.25,.56,.47,.38,.91,.78,1.96,1.22,3.13,.43,1.17,.87,2.38,1.31,3.61,.44,1.23,.86,2.44,1.27,3.63,.4,1.19,.76,2.27,1.08,3.23-.13,.14-.28,.26-.45,.34-.17,.09-.37,.13-.59,.13-.3,0-.53-.07-.69-.2-.16-.13-.29-.36-.4-.67l-1.06-3.14Zm-3.17-9.05c-.17,.47-.37,1.01-.59,1.62-.22,.61-.45,1.24-.69,1.9-.24,.66-.47,1.33-.71,2.01-.24,.68-.46,1.32-.66,1.94h5.32c-.24-.71-.48-1.42-.73-2.14-.25-.72-.49-1.41-.72-2.07-.23-.66-.44-1.27-.64-1.83-.2-.56-.36-1.04-.48-1.43h-.09Z"/>
  </g>
</svg>