<?xml version="1.0" encoding="utf-8"?>
<!-- Generator: Adobe Illustrator 16.0.0, SVG Export Plug-In . SVG Version: 6.00 Build 0)  -->
<!DOCTYPE svg PUBLIC "-//W3C//DTD SVG 1.1//EN" "http://www.w3.org/Graphics/SVG/1.1/DTD/svg11.dtd">
<svg version="1.1" id="圖層_1" xmlns="http://www.w3.org/2000/svg" xmlns:xlink="http://www.w3.org/1999/xlink" x="0px" y="0px"
	 width="72.1px" height="12.2px" viewBox="0 0 72.1 12.2" enable-background="new 0 0 72.1 12.2" xml:space="preserve">
<g>
	<g>
		<path fill="#FFFFFF" d="M2,5.9c0,0.7,0.1,1.4,0.3,1.9c0.2,0.6,0.5,1.1,0.9,1.5c0.4,0.4,0.8,0.7,1.3,0.9c0.5,0.2,1.1,0.3,1.7,0.3
			c0.4,0,0.7-0.1,1.1-0.2C7.7,10.2,8,10,8.3,9.8C8.6,9.5,8.8,9.3,9.1,9c0.2-0.3,0.4-0.6,0.6-0.9l0.7,0.5c-0.2,0.3-0.5,0.7-0.8,1
			c-0.3,0.3-0.6,0.6-1,0.8s-0.8,0.4-1.3,0.6s-1,0.2-1.6,0.2c-0.9,0-1.6-0.1-2.3-0.4s-1.3-0.7-1.8-1.2S0.7,8.6,0.4,8
			C0.1,7.3,0,6.6,0,5.9c0-0.5,0.1-1,0.2-1.4C0.3,4,0.5,3.6,0.7,3.2s0.5-0.8,0.9-1.1s0.7-0.6,1.2-0.9C3.2,1,3.6,0.8,4.1,0.7
			c0.5-0.1,1.1-0.2,1.6-0.2c0.5,0,1.1,0.1,1.5,0.2C7.8,0.9,8.2,1,8.6,1.3c0.4,0.2,0.7,0.5,1,0.8c0.3,0.3,0.6,0.7,0.8,1L9.6,3.6
			C9.2,2.8,8.7,2.2,8.1,1.8C7.6,1.4,7,1.2,6.3,1.2c-0.6,0-1.2,0.1-1.7,0.3c-0.5,0.2-1,0.5-1.4,0.9C2.9,2.9,2.6,3.4,2.4,4
			C2.1,4.5,2,5.2,2,5.9z"/>
		<path fill="#FFFFFF" d="M14.2,0.7h1.7v9.6h5.2V11h-6.9V0.7z"/>
		<path fill="#FFFFFF" d="M29.3,11.3c-0.8,0-1.5-0.1-2.2-0.4c-0.7-0.3-1.3-0.7-1.8-1.2c-0.5-0.5-0.9-1.1-1.2-1.7s-0.4-1.4-0.4-2.1
			c0-0.5,0.1-1,0.2-1.4c0.1-0.5,0.3-0.9,0.6-1.3c0.2-0.4,0.5-0.8,0.9-1.1c0.3-0.3,0.7-0.6,1.1-0.8s0.9-0.4,1.4-0.5s1-0.2,1.5-0.2
			c0.5,0,1,0.1,1.5,0.2s0.9,0.3,1.4,0.5C32.6,1.4,33,1.7,33.3,2c0.3,0.3,0.6,0.7,0.9,1.1c0.2,0.4,0.4,0.8,0.6,1.3
			C34.9,4.9,35,5.3,35,5.8c0,0.5-0.1,1-0.2,1.4c-0.1,0.5-0.3,0.9-0.6,1.3c-0.2,0.4-0.5,0.8-0.9,1.1c-0.3,0.3-0.7,0.6-1.1,0.9
			c-0.4,0.2-0.9,0.4-1.4,0.6S29.8,11.3,29.3,11.3z M29.3,10.8c0.6,0,1.1-0.1,1.6-0.4s0.8-0.6,1.1-1c0.3-0.4,0.5-1,0.7-1.6
			s0.2-1.3,0.2-2c0-0.7-0.1-1.4-0.2-2c-0.2-0.6-0.4-1.1-0.7-1.5c-0.3-0.4-0.7-0.8-1.1-1c-0.5-0.2-1-0.4-1.6-0.4
			c-0.6,0-1.1,0.1-1.6,0.4c-0.5,0.2-0.8,0.6-1.1,1c-0.3,0.4-0.5,0.9-0.7,1.5c-0.2,0.6-0.2,1.2-0.2,2c0,0.7,0.1,1.4,0.2,2
			s0.4,1.1,0.7,1.6c0.3,0.4,0.7,0.8,1.1,1C28.1,10.6,28.7,10.8,29.3,10.8z"/>
		<path fill="#FFFFFF" d="M42.1,10.6c0.3,0,0.5,0,0.8-0.1c0.2-0.1,0.5-0.2,0.7-0.3s0.4-0.3,0.5-0.5c0.1-0.2,0.2-0.4,0.2-0.7
			c0-0.3-0.1-0.6-0.2-0.8c-0.2-0.2-0.4-0.5-0.6-0.7c-0.3-0.2-0.6-0.4-0.9-0.6c-0.3-0.2-0.7-0.4-1-0.5s-0.7-0.4-1-0.6
			c-0.3-0.2-0.6-0.4-0.9-0.7s-0.5-0.5-0.6-0.8c-0.2-0.3-0.2-0.7-0.2-1c0-0.4,0.1-0.8,0.2-1.1c0.1-0.3,0.4-0.6,0.6-0.9
			s0.6-0.4,1.1-0.6c0.4-0.1,0.9-0.2,1.4-0.2c0.5,0,0.9,0.1,1.3,0.2c0.4,0.1,0.7,0.3,1,0.5c0.3,0.2,0.5,0.5,0.7,0.7
			c0.2,0.3,0.4,0.6,0.5,1l-0.9,0.4c-0.1-0.3-0.2-0.6-0.4-0.9c-0.2-0.3-0.4-0.5-0.6-0.7c-0.2-0.2-0.5-0.3-0.8-0.4
			c-0.3-0.1-0.6-0.2-1-0.2c-0.3,0-0.6,0-0.9,0.1c-0.2,0.1-0.4,0.2-0.6,0.4C40.1,1.8,40,2,39.9,2.1c-0.1,0.2-0.1,0.4-0.1,0.6
			c0,0.3,0.1,0.5,0.2,0.7c0.2,0.2,0.4,0.4,0.7,0.6c0.3,0.2,0.6,0.4,0.9,0.6C42,4.9,42.4,5,42.7,5.2c0.4,0.2,0.7,0.4,1.1,0.6
			c0.3,0.2,0.7,0.4,0.9,0.7C45,6.8,45.2,7,45.4,7.3s0.2,0.6,0.2,1c0,0.4-0.1,0.8-0.2,1.2c-0.2,0.4-0.4,0.7-0.7,0.9
			c-0.3,0.3-0.7,0.5-1.2,0.6c-0.5,0.2-1,0.2-1.6,0.2c-0.5,0-0.9-0.1-1.3-0.2c-0.4-0.1-0.7-0.3-1-0.5c-0.3-0.2-0.6-0.5-0.8-0.8
			c-0.2-0.3-0.4-0.6-0.5-1l0.9-0.4c0.1,0.3,0.3,0.6,0.4,0.9c0.2,0.3,0.4,0.5,0.6,0.7c0.2,0.2,0.5,0.3,0.8,0.4
			C41.4,10.6,41.7,10.6,42.1,10.6z"/>
		<path fill="#FFFFFF" d="M56.6,0.7v0.7h-5.4v3.7h3.6v0.7h-3.6v4.6h5.4V11h-7.2V0.7H56.6z"/>
	</g>
	<g>
		<g>
			
				<rect x="57.7" y="5.8" transform="matrix(0.7071 0.7071 -0.7071 0.7071 23.6521 -44.9368)" fill="#FFFFFF" width="16.7" height="0.5"/>
		</g>
		<g>
			
				<rect x="65.8" y="-2.3" transform="matrix(0.7071 0.7071 -0.7071 0.7071 23.6499 -44.9347)" fill="#FFFFFF" width="0.5" height="16.7"/>
		</g>
	</g>
</g>
</svg>
