<?xml version="1.0" encoding="utf-8"?>
<!-- Generator: Adobe Illustrator 16.0.0, SVG Export Plug-In . SVG Version: 6.00 Build 0)  -->
<!DOCTYPE svg PUBLIC "-//W3C//DTD SVG 1.1//EN" "http://www.w3.org/Graphics/SVG/1.1/DTD/svg11.dtd">
<svg version="1.1" id="圖層_1" xmlns="http://www.w3.org/2000/svg" xmlns:xlink="http://www.w3.org/1999/xlink" x="0px" y="0px"
	 width="41.8px" height="11.3px" viewBox="0 0 41.8 11.3" enable-background="new 0 0 41.8 11.3" xml:space="preserve">
<g>
	<path fill="#FFFFFF" d="M3.6,11.3c-0.5,0-1-0.1-1.4-0.3c-0.4-0.2-0.8-0.4-1.2-0.8C0.7,10,0.5,9.6,0.3,9.1C0.1,8.7,0,8.2,0,7.7
		c0-0.6,0.1-1.1,0.3-1.6C0.4,5.6,0.7,5.2,1,4.8c0.3-0.4,0.7-0.7,1.1-0.9s0.9-0.3,1.5-0.3c0.5,0,0.9,0.1,1.3,0.3
		c0.4,0.2,0.8,0.4,1,0.7c0.3,0.3,0.5,0.6,0.7,1c0.2,0.4,0.2,0.8,0.2,1.2H1.4c0,0.5,0.1,1,0.2,1.4c0.1,0.4,0.3,0.8,0.5,1.1
		C2.4,9.5,2.7,9.8,3,9.9c0.3,0.2,0.7,0.3,1,0.3c0.3,0,0.6-0.1,0.9-0.2s0.6-0.2,0.8-0.4C6,9.5,6.2,9.3,6.3,9.1s0.3-0.4,0.4-0.7
		l0.4,0.2C7,9,6.8,9.3,6.6,9.6c-0.2,0.3-0.5,0.6-0.8,0.9s-0.7,0.4-1,0.6S4,11.3,3.6,11.3z M5.1,6.2c0-0.3,0-0.5-0.1-0.8
		S4.7,4.9,4.5,4.7S4.2,4.4,3.9,4.3C3.7,4.2,3.4,4.2,3.2,4.2c-0.2,0-0.4,0-0.6,0.1S2.2,4.6,2,4.7C1.8,4.9,1.7,5.1,1.6,5.4
		C1.5,5.6,1.4,5.9,1.4,6.1L5.1,6.2z"/>
	<path fill="#FFFFFF" d="M11.6,3.6H12v1.5c0.2-0.2,0.4-0.4,0.6-0.6c0.2-0.2,0.5-0.3,0.7-0.5c0.3-0.1,0.5-0.3,0.8-0.3
		c0.2-0.1,0.5-0.1,0.7-0.1c0.2,0,0.4,0,0.7,0.1c0.2,0.1,0.4,0.2,0.6,0.3c0.2,0.1,0.4,0.3,0.5,0.5c0.1,0.2,0.2,0.4,0.3,0.6
		C17,5,17.1,4.8,17.4,4.6s0.5-0.4,0.7-0.5c0.3-0.1,0.5-0.3,0.8-0.3c0.3-0.1,0.6-0.1,0.9-0.1s0.5,0.1,0.8,0.2s0.5,0.3,0.6,0.5
		c0.2,0.2,0.3,0.5,0.4,0.7c0.1,0.3,0.2,0.6,0.2,0.9v5.2h-1.5v-5c0-0.2,0-0.4-0.1-0.6c-0.1-0.2-0.2-0.3-0.3-0.5
		c-0.1-0.1-0.3-0.2-0.4-0.3c-0.2-0.1-0.3-0.1-0.5-0.1c-0.2,0-0.4,0-0.6,0.1c-0.2,0.1-0.4,0.1-0.6,0.2c-0.2,0.1-0.4,0.2-0.5,0.3
		c-0.2,0.1-0.3,0.3-0.4,0.4v5.5h-1.5v-5c0-0.2,0-0.4-0.1-0.6S15.1,5.2,15,5.1c-0.1-0.1-0.3-0.2-0.4-0.3s-0.3-0.1-0.5-0.1
		c-0.2,0-0.4,0-0.6,0.1c-0.2,0.1-0.4,0.1-0.6,0.2c-0.2,0.1-0.4,0.2-0.5,0.3S12.1,5.5,12,5.7v5.5h-1.5V4L11.6,3.6z"/>
	<path fill="#FFFFFF" d="M30.3,11.2c-0.2-0.1-0.4-0.2-0.5-0.4c-0.1-0.2-0.2-0.4-0.2-0.6c-0.2,0.1-0.3,0.3-0.5,0.4
		c-0.2,0.1-0.3,0.3-0.5,0.4s-0.4,0.2-0.7,0.3c-0.2,0.1-0.5,0.1-0.8,0.1c-0.3,0-0.6,0-0.8-0.1s-0.4-0.2-0.6-0.4s-0.3-0.4-0.4-0.6
		c-0.1-0.2-0.1-0.5-0.1-0.7c0-0.3,0.1-0.6,0.2-0.9c0.1-0.3,0.3-0.5,0.5-0.7c0.2-0.2,0.5-0.4,0.8-0.5c0.3-0.2,0.6-0.3,0.9-0.4
		c0.3-0.1,0.7-0.2,1-0.3c0.3-0.1,0.7-0.2,1-0.3V5.9c0-0.3,0-0.6-0.1-0.9c0-0.2-0.1-0.4-0.2-0.6c-0.1-0.1-0.2-0.2-0.4-0.3
		c-0.2-0.1-0.3-0.1-0.6-0.1c-0.2,0-0.4,0-0.6,0.1s-0.3,0.2-0.5,0.3c-0.1,0.1-0.2,0.3-0.3,0.5c-0.1,0.2-0.1,0.4-0.2,0.6h-1.3
		c0-0.3,0.1-0.6,0.3-0.9c0.2-0.2,0.4-0.5,0.7-0.6c0.3-0.2,0.6-0.3,0.9-0.4s0.7-0.1,1.1-0.1c0.5,0,0.9,0,1.2,0.1
		C30,3.9,30.3,4,30.5,4.2c0.2,0.2,0.3,0.4,0.4,0.6C31,5,31.1,5.3,31.1,5.6v4.6c0,0.2,0.1,0.4,0.2,0.6s0.3,0.3,0.5,0.4H30.3z
		 M29.6,6.9c-0.2,0.1-0.4,0.1-0.7,0.2c-0.2,0.1-0.4,0.2-0.7,0.3c-0.2,0.1-0.4,0.2-0.6,0.3c-0.2,0.1-0.4,0.3-0.5,0.4
		c-0.1,0.1-0.3,0.3-0.4,0.5c-0.1,0.2-0.1,0.3-0.1,0.5c0,0.2,0,0.4,0.1,0.5c0.1,0.2,0.2,0.3,0.3,0.4c0.1,0.1,0.2,0.2,0.4,0.3
		c0.1,0.1,0.3,0.1,0.4,0.1c0.2,0,0.3,0,0.5-0.1s0.3-0.1,0.4-0.2S29,10,29.2,9.9c0.1-0.1,0.3-0.2,0.4-0.3V6.9z"/>
	<path fill="#FFFFFF" d="M34.7,0.9c0-0.1,0-0.2,0.1-0.3c0-0.1,0.1-0.2,0.2-0.3c0.1-0.1,0.2-0.1,0.3-0.2c0.1,0,0.2-0.1,0.3-0.1
		c0.1,0,0.2,0,0.3,0.1c0.1,0,0.2,0.1,0.3,0.2c0.1,0.1,0.1,0.2,0.2,0.3s0.1,0.2,0.1,0.3c0,0.1,0,0.2-0.1,0.3c0,0.1-0.1,0.2-0.2,0.3
		c-0.1,0.1-0.2,0.1-0.3,0.2c-0.1,0-0.2,0.1-0.3,0.1c-0.1,0-0.2,0-0.3-0.1S35.1,1.6,35,1.5c-0.1-0.1-0.1-0.2-0.2-0.3
		C34.8,1.2,34.7,1.1,34.7,0.9z M34.8,4.1l1-0.4h0.4v7.5h-1.5V4.1z"/>
	<path fill="#FFFFFF" d="M41.8,11.2h-1.5V0.4l1-0.4h0.4V11.2z"/>
</g>
</svg>
