<?xml version="1.0" encoding="utf-8"?>
<!-- Generator: Adobe Illustrator 16.0.0, SVG Export Plug-In . SVG Version: 6.00 Build 0)  -->
<!DOCTYPE svg PUBLIC "-//W3C//DTD SVG 1.1//EN" "http://www.w3.org/Graphics/SVG/1.1/DTD/svg11.dtd">
<svg version="1.1" id="圖層_1" xmlns="http://www.w3.org/2000/svg" xmlns:xlink="http://www.w3.org/1999/xlink" x="0px" y="0px"
	 width="19.3px" height="19.3px" viewBox="0 0 19.3 19.3" enable-background="new 0 0 19.3 19.3" xml:space="preserve">
<g id="gcEOe4.tif_3_">
	<g>
		<path fill-rule="evenodd" clip-rule="evenodd" fill="#FFFFFF" d="M9.6,0c5.3,0,9.7,4.3,9.6,9.7c0,5.3-4.3,9.6-9.6,9.6
			C4.3,19.3,0,14.9,0,9.6C0,4.3,4.3,0,9.6,0z M10.5,15.5c0-2,0-4,0-5.9c0.6,0,1.1,0,1.7,0c0.1-0.7,0.1-1.4,0.2-2.1
			c-0.6,0-1.3,0-1.9,0c0-0.4,0-0.8,0-1.2c0-0.5,0.2-0.7,0.6-0.7c0.4,0,0.8,0,1.2,0c0-0.7,0-1.4,0-2c-0.8,0-1.5,0-2.2,0
			c-1,0.1-1.7,0.7-2,1.7C8.1,5.7,8.1,6,8,6.3c0,0.4,0,0.8,0,1.2c-0.4,0-0.8,0-1.2,0c0,0.7,0,1.4,0,2.1c0.4,0,0.8,0,1.2,0
			c0,2,0,4,0,5.9C8.9,15.5,9.7,15.5,10.5,15.5z"/>
	</g>
</g>
</svg>
