<?xml version="1.0" encoding="utf-8"?>
<!-- Generator: Adobe Illustrator 16.0.0, SVG Export Plug-In . SVG Version: 6.00 Build 0)  -->
<!DOCTYPE svg PUBLIC "-//W3C//DTD SVG 1.1//EN" "http://www.w3.org/Graphics/SVG/1.1/DTD/svg11.dtd">
<svg version="1.1" id="圖層_1" xmlns="http://www.w3.org/2000/svg" xmlns:xlink="http://www.w3.org/1999/xlink" x="0px" y="0px"
	 width="9.2px" height="84.1px" viewBox="0 0 9.2 84.1" enable-background="new 0 0 9.2 84.1" xml:space="preserve">
<g>
	<path fill="#FFFFFF" d="M9,0v2.8C9,3.3,9,3.7,8.9,4.1S8.6,4.9,8.4,5.2S7.9,5.7,7.6,5.9S6.9,6.1,6.5,6.1c-0.4,0-0.8-0.1-1-0.2
		C5.2,5.7,4.9,5.5,4.7,5.2C4.5,4.9,4.4,4.6,4.3,4.3S4.2,3.6,4.2,3.2c0-0.2,0-0.3,0-0.5c0-0.2,0-0.3,0-0.5c0-0.2,0-0.3,0-0.4
		c0-0.1,0-0.2,0.1-0.3H0.2V0H9z M4.8,1.5C4.7,1.7,4.7,1.8,4.6,2c0,0.2-0.1,0.4-0.1,0.6c0,0.3,0,0.6,0.1,0.8C4.8,3.7,5,3.9,5.1,4.1
		c0.2,0.2,0.4,0.3,0.6,0.4c0.2,0.1,0.5,0.1,0.7,0.1c0.3,0,0.6-0.1,0.8-0.2S7.7,4.1,7.9,4C8,3.8,8.2,3.6,8.3,3.3s0.1-0.5,0.1-0.8V1.5
		H4.8z"/>
	<path fill="#FFFFFF" d="M0,13.6c0-0.7,0.1-1.3,0.4-1.9c0.2-0.6,0.6-1.1,1-1.5c0.4-0.4,0.9-0.8,1.5-1C3.4,8.8,4,8.7,4.7,8.7
		c0.4,0,0.8,0.1,1.2,0.2S6.6,9.1,7,9.4s0.6,0.5,0.9,0.8c0.3,0.3,0.5,0.6,0.7,1c0.2,0.4,0.3,0.8,0.5,1.2s0.2,0.9,0.2,1.3
		c0,0.5-0.1,0.9-0.2,1.3s-0.3,0.8-0.5,1.2c-0.2,0.4-0.4,0.7-0.7,1c-0.3,0.3-0.6,0.5-0.9,0.8s-0.7,0.4-1.1,0.5s-0.8,0.2-1.2,0.2
		c-0.4,0-0.8-0.1-1.2-0.2S2.7,18,2.3,17.8S1.7,17.3,1.4,17c-0.3-0.3-0.5-0.6-0.7-1c-0.2-0.4-0.4-0.8-0.5-1.2S0,14,0,13.6z M0.4,13.6
		c0,0.5,0.1,1,0.3,1.3s0.5,0.7,0.9,1s0.8,0.5,1.3,0.6c0.5,0.1,1.1,0.2,1.7,0.2c0.6,0,1.2-0.1,1.7-0.2c0.5-0.1,0.9-0.3,1.3-0.6
		c0.4-0.3,0.7-0.6,0.9-1c0.2-0.4,0.3-0.8,0.3-1.3c0-0.5-0.1-1-0.3-1.4c-0.2-0.4-0.5-0.7-0.9-1c-0.4-0.3-0.8-0.5-1.3-0.6
		c-0.5-0.1-1.1-0.2-1.7-0.2c-0.6,0-1.2,0.1-1.7,0.2c-0.5,0.1-1,0.3-1.3,0.6c-0.4,0.3-0.7,0.6-0.9,1S0.4,13.1,0.4,13.6z"/>
	<path fill="#FFFFFF" d="M9,21.7v3.1c0,0.5-0.1,1-0.2,1.4c-0.1,0.4-0.3,0.7-0.5,1c-0.2,0.3-0.4,0.5-0.7,0.6
		c-0.3,0.1-0.6,0.2-0.9,0.2c-0.3,0-0.5-0.1-0.8-0.2s-0.5-0.3-0.7-0.4c-0.2-0.2-0.4-0.4-0.5-0.7s-0.3-0.6-0.3-0.9L0.2,29v-1.7
		l4.2-3.1v-1H0.2v-1.5H9z M4.8,23.1V24c0,0.3,0,0.6,0.1,0.9c0.1,0.3,0.2,0.5,0.4,0.7c0.2,0.2,0.4,0.4,0.6,0.5
		c0.2,0.1,0.5,0.2,0.8,0.2c0.3,0,0.5,0,0.7-0.1C7.6,26.1,7.8,26,8,25.8c0.2-0.2,0.3-0.4,0.4-0.6c0.1-0.2,0.1-0.5,0.1-0.8v-1.3H4.8z"
		/>
	<path fill="#FFFFFF" d="M9,37.8H8.5v-3.2H0.2v-1.5h8.3v-3.2H9V37.8z"/>
	<path fill="#FFFFFF" d="M9,46.1H8.5v-4.3H5.3v3.1H4.7v-3.1H0.2v-1.5H9V46.1z"/>
	<path fill="#FFFFFF" d="M0,53.1c0-0.7,0.1-1.3,0.4-1.9c0.2-0.6,0.6-1.1,1-1.5c0.4-0.4,0.9-0.8,1.5-1c0.6-0.3,1.2-0.4,1.8-0.4
		c0.4,0,0.8,0.1,1.2,0.2s0.8,0.3,1.1,0.5s0.6,0.5,0.9,0.8c0.3,0.3,0.5,0.6,0.7,1C8.8,51,9,51.4,9.1,51.8s0.2,0.9,0.2,1.3
		c0,0.5-0.1,0.9-0.2,1.3s-0.3,0.8-0.5,1.2c-0.2,0.4-0.4,0.7-0.7,1c-0.3,0.3-0.6,0.5-0.9,0.8s-0.7,0.4-1.1,0.5S5.1,58,4.7,58
		c-0.4,0-0.8-0.1-1.2-0.2s-0.8-0.3-1.1-0.5s-0.7-0.5-0.9-0.8c-0.3-0.3-0.5-0.6-0.7-1c-0.2-0.4-0.4-0.8-0.5-1.2S0,53.5,0,53.1z
		 M0.4,53.1c0,0.5,0.1,1,0.3,1.3s0.5,0.7,0.9,1S2.5,55.9,3,56c0.5,0.1,1.1,0.2,1.7,0.2c0.6,0,1.2-0.1,1.7-0.2
		c0.5-0.1,0.9-0.3,1.3-0.6c0.4-0.3,0.7-0.6,0.9-1c0.2-0.4,0.3-0.8,0.3-1.3c0-0.5-0.1-1-0.3-1.4c-0.2-0.4-0.5-0.7-0.9-1
		c-0.4-0.3-0.8-0.5-1.3-0.6C5.8,50,5.3,50,4.7,50C4.1,50,3.5,50,3,50.2c-0.5,0.1-1,0.3-1.3,0.6c-0.4,0.3-0.7,0.6-0.9,1
		S0.4,52.6,0.4,53.1z"/>
	<path fill="#FFFFFF" d="M9,61.2v1.5H0.8v4.5H0.2v-5.9H9z"/>
	<path fill="#FFFFFF" d="M9,69.6v1.5H0.2v-1.5H9z"/>
	<path fill="#FFFFFF" d="M0,79.2c0-0.7,0.1-1.3,0.4-1.9c0.2-0.6,0.6-1.1,1-1.5c0.4-0.4,0.9-0.8,1.5-1c0.6-0.3,1.2-0.4,1.8-0.4
		c0.4,0,0.8,0.1,1.2,0.2S6.6,74.8,7,75s0.6,0.5,0.9,0.8c0.3,0.3,0.5,0.6,0.7,1c0.2,0.4,0.3,0.8,0.5,1.2s0.2,0.9,0.2,1.3
		c0,0.5-0.1,0.9-0.2,1.3s-0.3,0.8-0.5,1.2c-0.2,0.4-0.4,0.7-0.7,1C7.6,83,7.3,83.2,7,83.4s-0.7,0.4-1.1,0.5s-0.8,0.2-1.2,0.2
		c-0.4,0-0.8-0.1-1.2-0.2s-0.8-0.3-1.1-0.5S1.7,83,1.4,82.7c-0.3-0.3-0.5-0.6-0.7-1c-0.2-0.4-0.4-0.8-0.5-1.2S0,79.7,0,79.2z
		 M0.4,79.2c0,0.5,0.1,1,0.3,1.3s0.5,0.7,0.9,1S2.5,82,3,82.1c0.5,0.1,1.1,0.2,1.7,0.2c0.6,0,1.2-0.1,1.7-0.2
		c0.5-0.1,0.9-0.3,1.3-0.6c0.4-0.3,0.7-0.6,0.9-1c0.2-0.4,0.3-0.8,0.3-1.3c0-0.5-0.1-1-0.3-1.4c-0.2-0.4-0.5-0.7-0.9-1
		c-0.4-0.3-0.8-0.5-1.3-0.6c-0.5-0.1-1.1-0.2-1.7-0.2c-0.6,0-1.2,0.1-1.7,0.2c-0.5,0.1-1,0.3-1.3,0.6c-0.4,0.3-0.7,0.6-0.9,1
		S0.4,78.7,0.4,79.2z"/>
</g>
</svg>
