<?xml version="1.0" encoding="utf-8"?>
<!-- Generator: Adobe Illustrator 16.0.0, SVG Export Plug-In . SVG Version: 6.00 Build 0)  -->
<!DOCTYPE svg PUBLIC "-//W3C//DTD SVG 1.1//EN" "http://www.w3.org/Graphics/SVG/1.1/DTD/svg11.dtd">
<svg version="1.1" id="圖層_1" xmlns="http://www.w3.org/2000/svg" xmlns:xlink="http://www.w3.org/1999/xlink" x="0px" y="0px"
	 width="67.3px" height="10.9px" viewBox="0 0 67.3 10.9" enable-background="new 0 0 67.3 10.9" xml:space="preserve">
<g>
	<path fill="#FFFFFF" d="M1.1,0h0.4v1.5C1.7,1.3,1.9,1.1,2.1,1c0.2-0.2,0.5-0.3,0.7-0.5c0.3-0.1,0.5-0.3,0.8-0.3S4.1,0,4.3,0
		C4.5,0,4.7,0,5,0.1c0.2,0.1,0.4,0.2,0.6,0.3c0.2,0.1,0.4,0.3,0.5,0.5c0.1,0.2,0.2,0.4,0.3,0.6C6.5,1.3,6.6,1.1,6.9,1
		s0.5-0.4,0.7-0.5c0.3-0.1,0.5-0.2,0.8-0.3S9,0,9.2,0S9.8,0.1,10,0.2s0.5,0.3,0.6,0.5c0.2,0.2,0.3,0.5,0.4,0.7
		c0.1,0.3,0.2,0.6,0.2,0.9v5.2H9.8v-5c0-0.2,0-0.4-0.1-0.6C9.6,1.7,9.5,1.6,9.4,1.4C9.3,1.3,9.1,1.2,9,1.1C8.8,1,8.7,1,8.5,1
		C8.3,1,8.1,1,7.9,1.1C7.6,1.1,7.4,1.2,7.3,1.3C7.1,1.4,6.9,1.5,6.7,1.6C6.6,1.8,6.5,1.9,6.4,2v5.5H4.9v-5c0-0.2,0-0.4-0.1-0.6
		C4.7,1.7,4.6,1.6,4.5,1.4C4.4,1.3,4.3,1.2,4.1,1.1C3.9,1,3.8,1,3.6,1C3.4,1,3.2,1,3,1.1C2.8,1.1,2.6,1.2,2.4,1.3
		C2.2,1.4,2,1.5,1.9,1.6S1.6,1.9,1.5,2v5.5H0V0.4L1.1,0z"/>
	<path fill="#FFFFFF" d="M18.3,7.7c-0.5,0-1-0.1-1.4-0.3c-0.4-0.2-0.8-0.4-1.2-0.8s-0.6-0.7-0.8-1.1s-0.3-0.9-0.3-1.4
		c0-0.6,0.1-1.1,0.3-1.6c0.2-0.5,0.4-0.9,0.7-1.3c0.3-0.4,0.7-0.7,1.1-0.9S17.7,0,18.3,0c0.5,0,0.9,0.1,1.3,0.3s0.8,0.4,1,0.7
		c0.3,0.3,0.5,0.6,0.7,1c0.2,0.4,0.2,0.8,0.2,1.2h-5.5c0,0.5,0.1,1,0.2,1.4c0.1,0.4,0.3,0.8,0.5,1.1c0.2,0.3,0.5,0.5,0.8,0.7
		c0.3,0.2,0.7,0.3,1,0.3c0.3,0,0.6-0.1,0.9-0.2s0.6-0.2,0.8-0.4c0.2-0.2,0.4-0.4,0.6-0.6s0.3-0.4,0.4-0.7l0.4,0.2
		c-0.1,0.4-0.3,0.7-0.5,1.1c-0.2,0.3-0.5,0.6-0.8,0.9s-0.7,0.4-1,0.6C19,7.6,18.7,7.7,18.3,7.7z M19.7,2.5c0-0.3,0-0.5-0.1-0.8
		c-0.1-0.2-0.2-0.4-0.4-0.6s-0.4-0.3-0.6-0.4c-0.2-0.1-0.5-0.2-0.7-0.2c-0.2,0-0.4,0-0.6,0.1s-0.4,0.2-0.5,0.4
		c-0.2,0.2-0.3,0.4-0.4,0.6c-0.1,0.2-0.2,0.5-0.2,0.8L19.7,2.5z"/>
	<path fill="#FFFFFF" d="M27.4,7.2c0.2,0,0.4,0,0.5-0.1c0.2-0.1,0.3-0.1,0.4-0.2c0.1-0.1,0.2-0.2,0.3-0.4c0.1-0.1,0.1-0.3,0.1-0.4
		c0-0.2-0.1-0.4-0.2-0.6c-0.1-0.2-0.3-0.3-0.4-0.5s-0.4-0.3-0.6-0.4c-0.2-0.1-0.5-0.2-0.7-0.3c-0.2-0.1-0.5-0.2-0.7-0.4
		c-0.2-0.1-0.4-0.3-0.6-0.5S25.1,3.1,25,2.9c-0.1-0.2-0.2-0.5-0.2-0.8c0-0.3,0.1-0.6,0.2-0.8s0.3-0.5,0.5-0.7
		c0.2-0.2,0.5-0.3,0.8-0.4C26.6,0.1,27,0,27.4,0c0.2,0,0.5,0,0.7,0.1c0.2,0,0.4,0.1,0.6,0.2c0.2,0.1,0.4,0.2,0.6,0.4
		c0.2,0.2,0.4,0.4,0.6,0.7l-0.5,0.5c-0.3-0.5-0.6-0.8-0.9-1s-0.7-0.3-1.1-0.3c-0.2,0-0.4,0-0.6,0.1c-0.2,0.1-0.3,0.1-0.4,0.2
		C26.2,0.9,26.1,1,26,1.1s-0.1,0.2-0.1,0.4c0,0.2,0.1,0.4,0.2,0.6c0.1,0.2,0.3,0.3,0.5,0.4c0.2,0.1,0.4,0.3,0.7,0.4
		c0.3,0.1,0.5,0.2,0.8,0.3c0.3,0.1,0.5,0.2,0.8,0.4c0.3,0.1,0.5,0.3,0.7,0.5c0.2,0.2,0.4,0.4,0.5,0.6c0.1,0.2,0.2,0.5,0.2,0.8
		c0,0.3-0.1,0.6-0.2,0.9S29.8,6.8,29.5,7c-0.2,0.2-0.5,0.4-0.9,0.5c-0.4,0.1-0.8,0.2-1.2,0.2c-0.2,0-0.4,0-0.7,0
		c-0.2,0-0.5-0.1-0.7-0.2c-0.2-0.1-0.5-0.2-0.7-0.4c-0.2-0.2-0.5-0.4-0.7-0.7l0.6-0.5c0.2,0.2,0.3,0.5,0.5,0.6s0.3,0.3,0.5,0.4
		c0.2,0.1,0.3,0.2,0.5,0.2C27,7.2,27.2,7.2,27.4,7.2z"/>
	<path fill="#FFFFFF" d="M35.8,7.2c0.2,0,0.4,0,0.5-0.1c0.2-0.1,0.3-0.1,0.4-0.2c0.1-0.1,0.2-0.2,0.3-0.4c0.1-0.1,0.1-0.3,0.1-0.4
		c0-0.2-0.1-0.4-0.2-0.6c-0.1-0.2-0.3-0.3-0.4-0.5S36.2,4.8,36,4.7s-0.5-0.2-0.7-0.3C35,4.2,34.7,4.1,34.5,4s-0.4-0.3-0.6-0.5
		c-0.2-0.2-0.3-0.4-0.4-0.6c-0.1-0.2-0.2-0.5-0.2-0.8c0-0.3,0.1-0.6,0.2-0.8C33.6,1,33.7,0.8,34,0.6c0.2-0.2,0.5-0.3,0.8-0.4
		s0.6-0.2,1-0.2c0.2,0,0.5,0,0.7,0.1c0.2,0,0.4,0.1,0.6,0.2s0.4,0.2,0.6,0.4s0.4,0.4,0.6,0.7l-0.5,0.5c-0.3-0.5-0.6-0.8-0.9-1
		c-0.3-0.2-0.7-0.3-1.1-0.3c-0.2,0-0.4,0-0.6,0.1s-0.3,0.1-0.4,0.2c-0.1,0.1-0.2,0.2-0.3,0.3c-0.1,0.1-0.1,0.2-0.1,0.4
		c0,0.2,0.1,0.4,0.2,0.6c0.1,0.2,0.3,0.3,0.5,0.4s0.4,0.3,0.7,0.4C36,3,36.2,3.1,36.5,3.2c0.3,0.1,0.5,0.2,0.8,0.4
		C37.5,3.7,37.8,3.9,38,4s0.4,0.4,0.5,0.6c0.1,0.2,0.2,0.5,0.2,0.8c0,0.3-0.1,0.6-0.2,0.9S38.2,6.8,37.9,7s-0.5,0.4-0.9,0.5
		c-0.4,0.1-0.8,0.2-1.2,0.2c-0.2,0-0.4,0-0.7,0c-0.2,0-0.5-0.1-0.7-0.2C34.2,7.3,34,7.2,33.8,7c-0.2-0.2-0.5-0.4-0.7-0.7l0.6-0.5
		C33.9,6,34,6.2,34.2,6.4c0.2,0.2,0.3,0.3,0.5,0.4s0.3,0.2,0.5,0.2C35.4,7.2,35.6,7.2,35.8,7.2z"/>
	<path fill="#FFFFFF" d="M46.6,7.5c-0.2-0.1-0.4-0.2-0.5-0.4c-0.1-0.2-0.2-0.4-0.2-0.6c-0.2,0.1-0.3,0.3-0.5,0.4s-0.3,0.3-0.5,0.4
		c-0.2,0.1-0.4,0.2-0.6,0.3s-0.5,0.1-0.8,0.1c-0.3,0-0.5,0-0.8-0.1c-0.2-0.1-0.4-0.2-0.6-0.4c-0.2-0.2-0.3-0.4-0.4-0.6
		s-0.1-0.5-0.1-0.7c0-0.3,0.1-0.6,0.2-0.9c0.1-0.3,0.3-0.5,0.5-0.7c0.2-0.2,0.5-0.4,0.8-0.5c0.3-0.2,0.6-0.3,0.9-0.4
		c0.3-0.1,0.7-0.2,1-0.3c0.3-0.1,0.7-0.2,1-0.3V2.3c0-0.3,0-0.6-0.1-0.9c0-0.2-0.1-0.4-0.2-0.6c-0.1-0.1-0.2-0.2-0.4-0.3
		s-0.3-0.1-0.6-0.1c-0.2,0-0.4,0-0.6,0.1c-0.2,0.1-0.3,0.2-0.5,0.3c-0.1,0.1-0.2,0.3-0.3,0.5c-0.1,0.2-0.1,0.4-0.2,0.6h-1.3
		c0-0.3,0.1-0.6,0.3-0.9c0.2-0.2,0.4-0.5,0.7-0.6c0.3-0.2,0.6-0.3,0.9-0.4S44.5,0,44.9,0c0.5,0,0.9,0,1.2,0.1
		c0.3,0.1,0.6,0.2,0.8,0.4c0.2,0.2,0.3,0.4,0.4,0.6s0.1,0.5,0.1,0.8v4.6c0,0.2,0.1,0.4,0.2,0.6s0.3,0.3,0.5,0.4H46.6z M45.9,3.2
		c-0.2,0.1-0.4,0.1-0.7,0.2s-0.4,0.2-0.7,0.3C44.4,3.9,44.2,4,44,4.1c-0.2,0.1-0.4,0.3-0.5,0.4c-0.1,0.1-0.3,0.3-0.4,0.5
		S43,5.3,43,5.5c0,0.2,0,0.4,0.1,0.5c0.1,0.2,0.2,0.3,0.3,0.4c0.1,0.1,0.2,0.2,0.4,0.3c0.1,0.1,0.3,0.1,0.4,0.1c0.2,0,0.3,0,0.5-0.1
		s0.3-0.1,0.4-0.2s0.3-0.2,0.4-0.3c0.1-0.1,0.3-0.2,0.4-0.3V3.2z"/>
	<path fill="#FFFFFF" d="M58.1,0.5v0.6h-1.4c0.1,0.2,0.3,0.4,0.3,0.7c0.1,0.3,0.1,0.5,0.1,0.7c0,0.4-0.1,0.7-0.3,1
		c-0.2,0.3-0.4,0.6-0.7,0.8S55.5,4.8,55.1,5s-0.9,0.2-1.4,0.2c-0.2,0-0.4,0-0.6,0S52.8,5,52.6,5c-0.1,0.1-0.3,0.2-0.4,0.4
		c-0.1,0.2-0.1,0.3-0.1,0.5c0,0.1,0.1,0.3,0.2,0.4c0.2,0.1,0.4,0.1,0.7,0.2l2.7,0.1c0.4,0,0.8,0.1,1.1,0.2c0.3,0.1,0.5,0.2,0.7,0.3
		s0.3,0.3,0.4,0.5s0.1,0.4,0.1,0.7c0,0.4-0.1,0.8-0.3,1.2s-0.5,0.6-0.9,0.9c-0.4,0.2-0.8,0.4-1.4,0.6c-0.5,0.1-1.2,0.2-1.8,0.2
		c-0.6,0-1.1,0-1.6-0.1c-0.5-0.1-0.8-0.2-1.1-0.3c-0.3-0.1-0.5-0.3-0.7-0.5C50.1,9.9,50,9.7,50,9.4c0-0.2,0.1-0.4,0.2-0.6
		s0.2-0.4,0.4-0.5s0.3-0.3,0.5-0.5c0.2-0.2,0.4-0.3,0.6-0.5c-0.1,0-0.3-0.1-0.4-0.2C51.2,7.1,51.1,7.1,51,7
		c-0.1-0.1-0.2-0.2-0.2-0.2c0-0.1-0.1-0.2-0.1-0.3c0-0.2,0-0.3,0.1-0.5c0.1-0.2,0.2-0.3,0.3-0.5c0.1-0.1,0.3-0.3,0.5-0.4
		C51.8,5,52,4.9,52.2,4.8C51.7,4.6,51.3,4.3,51,4c-0.3-0.4-0.4-0.8-0.4-1.3c0-0.4,0.1-0.7,0.2-1C51,1.3,51.3,1,51.6,0.8
		c0.3-0.2,0.6-0.4,1-0.6S53.4,0,53.9,0c0.2,0,0.4,0,0.7,0c0.2,0,0.4,0.1,0.6,0.1c0.2,0,0.3,0.1,0.5,0.2c0.1,0.1,0.3,0.1,0.3,0.2
		H58.1z M52.1,7.5c-0.1,0.1-0.2,0.2-0.3,0.3c-0.1,0.1-0.2,0.2-0.2,0.3c-0.1,0.1-0.1,0.2-0.1,0.3c0,0.1,0,0.2,0,0.3
		c0,0.2,0.1,0.3,0.2,0.5s0.3,0.3,0.5,0.4c0.2,0.1,0.5,0.2,0.9,0.3c0.3,0.1,0.8,0.1,1.2,0.1c0.5,0,0.9,0,1.3-0.1
		c0.4-0.1,0.7-0.2,1-0.3c0.3-0.1,0.5-0.3,0.6-0.4c0.1-0.2,0.2-0.3,0.2-0.5c0-0.2,0-0.3-0.1-0.4C57.2,8.1,57,8,56.9,7.9
		c-0.2-0.1-0.4-0.1-0.6-0.2c-0.2,0-0.5-0.1-0.8-0.1c-0.4,0-0.7,0-1.1,0c-0.4,0-0.7,0-1-0.1s-0.6,0-0.8-0.1
		C52.4,7.5,52.2,7.5,52.1,7.5z M53.9,4.8c0.2,0,0.4,0,0.6-0.1c0.2-0.1,0.4-0.2,0.5-0.4c0.1-0.2,0.3-0.4,0.3-0.6
		c0.1-0.2,0.1-0.5,0.1-0.7c0-0.4-0.1-0.7-0.1-1c-0.1-0.3-0.2-0.6-0.4-0.8c-0.2-0.2-0.4-0.4-0.6-0.5c-0.2-0.1-0.5-0.2-0.7-0.2
		c-0.2,0-0.5,0.1-0.6,0.2c-0.2,0.1-0.3,0.2-0.4,0.4c-0.1,0.2-0.2,0.4-0.3,0.6c-0.1,0.2-0.1,0.5-0.1,0.8c0,0.3,0,0.6,0.1,0.9
		s0.2,0.5,0.3,0.8c0.2,0.2,0.3,0.4,0.5,0.5C53.5,4.7,53.7,4.8,53.9,4.8z"/>
	<path fill="#FFFFFF" d="M63.8,7.7c-0.5,0-1-0.1-1.4-0.3C62,7.2,61.6,7,61.3,6.6s-0.6-0.7-0.8-1.1c-0.2-0.4-0.3-0.9-0.3-1.4
		c0-0.6,0.1-1.1,0.3-1.6c0.2-0.5,0.4-0.9,0.7-1.3c0.3-0.4,0.7-0.7,1.1-0.9S63.3,0,63.9,0c0.5,0,0.9,0.1,1.3,0.3
		c0.4,0.2,0.8,0.4,1,0.7c0.3,0.3,0.5,0.6,0.7,1c0.2,0.4,0.2,0.8,0.2,1.2h-5.5c0,0.5,0.1,1,0.2,1.4c0.1,0.4,0.3,0.8,0.5,1.1
		c0.2,0.3,0.5,0.5,0.8,0.7c0.3,0.2,0.7,0.3,1,0.3c0.3,0,0.6-0.1,0.9-0.2s0.6-0.2,0.8-0.4c0.2-0.2,0.4-0.4,0.6-0.6s0.3-0.4,0.4-0.7
		l0.4,0.2c-0.1,0.4-0.3,0.7-0.5,1.1c-0.2,0.3-0.5,0.6-0.8,0.9s-0.7,0.4-1,0.6C64.6,7.6,64.2,7.7,63.8,7.7z M65.3,2.5
		c0-0.3,0-0.5-0.1-0.8s-0.2-0.4-0.4-0.6s-0.4-0.3-0.6-0.4c-0.2-0.1-0.5-0.2-0.7-0.2c-0.2,0-0.4,0-0.6,0.1s-0.4,0.2-0.5,0.4
		c-0.2,0.2-0.3,0.4-0.4,0.6c-0.1,0.2-0.2,0.5-0.2,0.8L65.3,2.5z"/>
</g>
</svg>
