<?xml version="1.0" encoding="utf-8"?>
<!-- Generator: Adobe Illustrator 16.0.0, SVG Export Plug-In . SVG Version: 6.00 Build 0)  -->
<!DOCTYPE svg PUBLIC "-//W3C//DTD SVG 1.1//EN" "http://www.w3.org/Graphics/SVG/1.1/DTD/svg11.dtd">
<svg version="1.1" id="圖層_1" xmlns="http://www.w3.org/2000/svg" xmlns:xlink="http://www.w3.org/1999/xlink" x="0px" y="0px"
	 width="40.9px" height="7.7px" viewBox="0 0 40.9 7.7" enable-background="new 0 0 40.9 7.7" xml:space="preserve">
<g>
	<path fill="#FFFFFF" d="M1.1,0h0.4v1.5C1.9,1,2.4,0.6,2.9,0.4S3.8,0,4.3,0c0.3,0,0.5,0.1,0.7,0.2s0.4,0.3,0.6,0.5
		C5.8,0.9,5.9,1.1,6,1.4c0.1,0.3,0.1,0.6,0.1,0.9v5.3H4.7v-5c0-0.2,0-0.5-0.1-0.6C4.6,1.7,4.5,1.5,4.4,1.4C4.3,1.2,4.2,1.2,4,1.1
		C3.9,1,3.7,1,3.5,1C3.4,1,3.2,1,3.1,1.1C2.9,1.1,2.7,1.2,2.5,1.3S2.2,1.5,2,1.6C1.8,1.8,1.6,1.9,1.5,2.1v5.5H0V0.4L1.1,0z"/>
	<path fill="#FFFFFF" d="M14.7,7.5c-0.2-0.1-0.4-0.2-0.5-0.4C14.1,6.9,14,6.7,14,6.5c-0.2,0.1-0.3,0.3-0.5,0.4
		c-0.2,0.1-0.3,0.3-0.5,0.4s-0.4,0.2-0.7,0.3c-0.2,0.1-0.5,0.1-0.8,0.1c-0.3,0-0.6,0-0.8-0.1s-0.4-0.2-0.6-0.4S9.8,6.8,9.7,6.6
		C9.6,6.4,9.6,6.1,9.6,5.8c0-0.3,0.1-0.6,0.2-0.9c0.1-0.3,0.3-0.5,0.5-0.7c0.2-0.2,0.5-0.4,0.8-0.5c0.3-0.2,0.6-0.3,0.9-0.4
		c0.3-0.1,0.7-0.2,1-0.3c0.3-0.1,0.7-0.2,1-0.3V2.3c0-0.3,0-0.6-0.1-0.9c0-0.2-0.1-0.4-0.2-0.6c-0.1-0.1-0.2-0.2-0.4-0.3
		c-0.2-0.1-0.3-0.1-0.6-0.1c-0.2,0-0.4,0-0.6,0.1s-0.3,0.2-0.5,0.3c-0.1,0.1-0.2,0.3-0.3,0.5c-0.1,0.2-0.1,0.4-0.2,0.6H9.9
		c0-0.3,0.1-0.6,0.3-0.9c0.2-0.2,0.4-0.5,0.7-0.6c0.3-0.2,0.6-0.3,0.9-0.4S12.6,0,12.9,0c0.5,0,0.9,0,1.2,0.1
		c0.3,0.1,0.6,0.2,0.8,0.4c0.2,0.2,0.3,0.4,0.4,0.6c0.1,0.2,0.1,0.5,0.1,0.8v4.6c0,0.2,0.1,0.4,0.2,0.6s0.3,0.3,0.5,0.4H14.7z
		 M14,3.2c-0.2,0.1-0.4,0.1-0.7,0.2c-0.2,0.1-0.4,0.2-0.7,0.3c-0.2,0.1-0.4,0.2-0.6,0.3c-0.2,0.1-0.4,0.3-0.5,0.4
		c-0.1,0.1-0.3,0.3-0.4,0.5c-0.1,0.2-0.1,0.3-0.1,0.5c0,0.2,0,0.4,0.1,0.5c0.1,0.2,0.2,0.3,0.3,0.4c0.1,0.1,0.2,0.2,0.4,0.3
		c0.1,0.1,0.3,0.1,0.4,0.1c0.2,0,0.3,0,0.5-0.1s0.3-0.1,0.4-0.2s0.3-0.2,0.4-0.3C13.7,6.2,13.9,6.1,14,6V3.2z"/>
	<path fill="#FFFFFF" d="M20.2,0h0.4v1.5c0.2-0.2,0.4-0.4,0.6-0.6c0.2-0.2,0.5-0.3,0.7-0.5c0.2-0.1,0.5-0.3,0.8-0.3
		C23,0,23.2,0,23.5,0c0.2,0,0.4,0,0.7,0.1c0.2,0.1,0.4,0.2,0.6,0.3c0.2,0.1,0.4,0.3,0.5,0.5c0.1,0.2,0.2,0.4,0.3,0.6
		c0.1-0.2,0.3-0.4,0.5-0.6c0.2-0.2,0.5-0.4,0.7-0.5c0.3-0.1,0.5-0.3,0.8-0.3C27.8,0,28.1,0,28.4,0s0.5,0.1,0.8,0.2s0.5,0.3,0.6,0.5
		c0.2,0.2,0.3,0.5,0.4,0.7c0.1,0.3,0.2,0.6,0.2,0.9v5.2h-1.5v-5c0-0.2,0-0.4-0.1-0.6c-0.1-0.2-0.2-0.3-0.3-0.5
		c-0.1-0.1-0.3-0.2-0.4-0.3C28,1,27.8,1,27.6,1c-0.2,0-0.4,0-0.6,0.1c-0.2,0.1-0.4,0.1-0.6,0.2c-0.2,0.1-0.4,0.2-0.5,0.3
		c-0.2,0.1-0.3,0.3-0.4,0.4v5.5h-1.5v-5c0-0.2,0-0.4-0.1-0.6c-0.1-0.2-0.2-0.3-0.3-0.5c-0.1-0.1-0.3-0.2-0.4-0.3S22.9,1,22.7,1
		c-0.2,0-0.4,0-0.6,0.1c-0.2,0.1-0.4,0.1-0.6,0.2c-0.2,0.1-0.4,0.2-0.5,0.3S20.7,1.9,20.6,2v5.5h-1.5V0.4L20.2,0z"/>
	<path fill="#FFFFFF" d="M37.4,7.7c-0.5,0-1-0.1-1.4-0.3c-0.4-0.2-0.8-0.4-1.2-0.8c-0.3-0.3-0.6-0.7-0.8-1.1
		c-0.2-0.4-0.3-0.9-0.3-1.4c0-0.6,0.1-1.1,0.3-1.6c0.2-0.5,0.4-0.9,0.7-1.3c0.3-0.4,0.7-0.7,1.1-0.9S36.9,0,37.4,0
		c0.5,0,0.9,0.1,1.3,0.3c0.4,0.2,0.8,0.4,1,0.7c0.3,0.3,0.5,0.6,0.7,1c0.2,0.4,0.2,0.8,0.2,1.2h-5.5c0,0.5,0.1,1,0.2,1.4
		c0.1,0.4,0.3,0.8,0.5,1.1c0.2,0.3,0.5,0.5,0.8,0.7c0.3,0.2,0.7,0.3,1,0.3c0.3,0,0.6-0.1,0.9-0.2s0.6-0.2,0.8-0.4
		c0.2-0.2,0.4-0.4,0.6-0.6s0.3-0.4,0.4-0.7l0.4,0.2c-0.1,0.4-0.3,0.7-0.5,1.1c-0.2,0.3-0.5,0.6-0.8,0.9s-0.7,0.4-1,0.6
		S37.8,7.7,37.4,7.7z M38.9,2.5c0-0.3,0-0.5-0.1-0.8s-0.2-0.4-0.4-0.6S38,0.8,37.7,0.7c-0.2-0.1-0.5-0.2-0.7-0.2
		c-0.2,0-0.4,0-0.6,0.1S36,0.9,35.8,1.1c-0.2,0.2-0.3,0.4-0.4,0.6c-0.1,0.2-0.2,0.5-0.2,0.8L38.9,2.5z"/>
</g>
</svg>
