<?xml version="1.0" encoding="utf-8"?>
<!-- Generator: Adobe Illustrator 16.0.0, SVG Export Plug-In . SVG Version: 6.00 Build 0)  -->
<!DOCTYPE svg PUBLIC "-//W3C//DTD SVG 1.1//EN" "http://www.w3.org/Graphics/SVG/1.1/DTD/svg11.dtd">
<svg version="1.1" id="圖層_1" xmlns="http://www.w3.org/2000/svg" xmlns:xlink="http://www.w3.org/1999/xlink" x="0px" y="0px"
	 width="47.9px" height="14.3px" viewBox="0 0 47.9 14.3" enable-background="new 0 0 47.9 14.3" xml:space="preserve">
<g>
	<path fill="#FFFFFF" d="M1.1,3.6h0.4v1.7C1.6,5.1,1.8,4.9,2,4.7c0.2-0.2,0.4-0.4,0.6-0.5C2.8,4,3,3.9,3.3,3.8
		c0.3-0.1,0.6-0.2,0.9-0.2c0.4,0,0.8,0.1,1.2,0.3C5.7,4.1,6,4.3,6.3,4.7C6.5,5,6.7,5.3,6.9,5.8s0.2,0.9,0.2,1.3
		c0,0.6-0.1,1.2-0.3,1.7s-0.4,1-0.7,1.3c-0.3,0.4-0.7,0.7-1.1,0.9S4,11.3,3.4,11.3c-0.2,0-0.4,0-0.6,0s-0.3-0.1-0.5-0.1
		c-0.2,0-0.3-0.1-0.5-0.2c-0.1-0.1-0.3-0.1-0.4-0.2v3.5H0V4L1.1,3.6z M1.5,9.2c0,0.2,0,0.4,0.1,0.6C1.7,10,1.8,10.2,2,10.3
		c0.2,0.1,0.4,0.3,0.6,0.3s0.5,0.1,0.8,0.1c0.3,0,0.5-0.1,0.8-0.2c0.2-0.1,0.5-0.3,0.6-0.6C5,9.7,5.2,9.4,5.3,9.1
		c0.1-0.4,0.2-0.8,0.2-1.2c0-0.5,0-1-0.1-1.4C5.2,6,5.1,5.7,4.9,5.4C4.7,5.2,4.5,5,4.3,4.8S3.8,4.6,3.5,4.6c-0.2,0-0.4,0-0.6,0.1
		C2.7,4.8,2.5,4.9,2.3,5C2.2,5.1,2,5.2,1.9,5.4S1.6,5.7,1.5,5.8V9.2z"/>
	<path fill="#FFFFFF" d="M11.9,5.1c0.4-0.5,0.9-0.9,1.4-1.1s1-0.4,1.5-0.4c0.3,0,0.5,0.1,0.7,0.2c0.2,0.1,0.4,0.3,0.6,0.5
		s0.3,0.4,0.4,0.7c0.1,0.3,0.1,0.6,0.1,0.9v5.3h-1.5v-5c0-0.5-0.1-0.9-0.3-1.1S14.3,4.6,14,4.6c-0.2,0-0.3,0-0.5,0.1
		c-0.2,0.1-0.3,0.1-0.5,0.2s-0.4,0.2-0.5,0.3c-0.2,0.1-0.3,0.3-0.5,0.4v5.5h-1.5V0.4L11.5,0h0.4V5.1z"/>
	<path fill="#FFFFFF" d="M24,11.3c-0.6,0-1.1-0.1-1.6-0.3s-0.9-0.5-1.2-0.8c-0.3-0.3-0.6-0.7-0.8-1.2C20.1,8.6,20,8.1,20,7.6
		C20,7,20.1,6.5,20.3,6c0.2-0.5,0.5-0.9,0.8-1.3c0.3-0.4,0.8-0.6,1.2-0.8s1-0.3,1.6-0.3c0.6,0,1.1,0.1,1.6,0.3
		c0.5,0.2,0.9,0.4,1.2,0.8c0.3,0.3,0.6,0.7,0.8,1.2s0.3,0.9,0.3,1.4c0,0.6-0.1,1.1-0.3,1.6s-0.5,0.9-0.8,1.3
		c-0.3,0.4-0.8,0.7-1.2,0.9C25,11.2,24.5,11.3,24,11.3z M24.2,10.8c0.3,0,0.6-0.1,0.8-0.2c0.2-0.1,0.4-0.4,0.6-0.6
		c0.2-0.3,0.3-0.5,0.4-0.9s0.1-0.7,0.1-1.1c0-0.5,0-1-0.1-1.5s-0.2-0.9-0.4-1.2s-0.5-0.6-0.8-0.8c-0.3-0.2-0.7-0.3-1.2-0.3
		c-0.2,0-0.5,0.1-0.7,0.2c-0.2,0.1-0.4,0.3-0.6,0.6S22,5.5,21.8,5.8c-0.1,0.3-0.2,0.7-0.2,1.1c0,0.5,0.1,1,0.2,1.5s0.3,0.9,0.5,1.2
		c0.2,0.4,0.5,0.6,0.8,0.8C23.5,10.7,23.8,10.8,24.2,10.8z"/>
	<path fill="#FFFFFF" d="M32.3,3.6h0.4v1.5c0.4-0.5,0.9-0.9,1.4-1.1c0.5-0.2,1-0.4,1.5-0.4c0.3,0,0.5,0.1,0.7,0.2
		c0.2,0.1,0.4,0.3,0.6,0.5s0.3,0.4,0.4,0.7c0.1,0.3,0.1,0.6,0.1,0.9v5.3H36v-5c0-0.2,0-0.5-0.1-0.6c-0.1-0.2-0.1-0.3-0.2-0.5
		c-0.1-0.1-0.2-0.2-0.4-0.3c-0.1-0.1-0.3-0.1-0.5-0.1c-0.2,0-0.3,0-0.5,0.1s-0.3,0.1-0.5,0.2c-0.2,0.1-0.4,0.2-0.5,0.3
		c-0.2,0.1-0.3,0.3-0.5,0.4v5.5h-1.5V4L32.3,3.6z"/>
	<path fill="#FFFFFF" d="M44.5,11.3c-0.5,0-1-0.1-1.4-0.3c-0.4-0.2-0.8-0.4-1.2-0.8c-0.3-0.3-0.6-0.7-0.8-1.1
		c-0.2-0.4-0.3-0.9-0.3-1.4c0-0.6,0.1-1.1,0.3-1.6c0.2-0.5,0.4-0.9,0.7-1.3c0.3-0.4,0.7-0.7,1.1-0.9s0.9-0.3,1.5-0.3
		c0.5,0,0.9,0.1,1.3,0.3s0.8,0.4,1,0.7c0.3,0.3,0.5,0.6,0.7,1c0.2,0.4,0.2,0.8,0.2,1.2h-5.5c0,0.5,0.1,1,0.2,1.4
		c0.1,0.4,0.3,0.8,0.5,1.1c0.2,0.3,0.5,0.5,0.8,0.7c0.3,0.2,0.7,0.3,1,0.3c0.3,0,0.6-0.1,0.9-0.2s0.6-0.2,0.8-0.4
		c0.2-0.2,0.4-0.4,0.6-0.6s0.3-0.4,0.4-0.7l0.4,0.2c-0.1,0.4-0.3,0.7-0.5,1.1s-0.5,0.6-0.8,0.9s-0.7,0.4-1,0.6
		C45.2,11.3,44.8,11.3,44.5,11.3z M45.9,6.2c0-0.3,0-0.5-0.1-0.8c-0.1-0.2-0.2-0.4-0.4-0.6S45,4.4,44.7,4.3
		c-0.2-0.1-0.5-0.2-0.7-0.2c-0.2,0-0.4,0-0.6,0.1S43,4.6,42.8,4.7c-0.2,0.2-0.3,0.4-0.4,0.6c-0.1,0.2-0.2,0.5-0.2,0.8L45.9,6.2z"/>
</g>
</svg>
