<?xml version="1.0" encoding="utf-8"?>
<!-- Generator: Adobe Illustrator 16.0.0, SVG Export Plug-In . SVG Version: 6.00 Build 0)  -->
<!DOCTYPE svg PUBLIC "-//W3C//DTD SVG 1.1//EN" "http://www.w3.org/Graphics/SVG/1.1/DTD/svg11.dtd">
<svg version="1.1" id="圖層_1" xmlns="http://www.w3.org/2000/svg" xmlns:xlink="http://www.w3.org/1999/xlink" x="0px" y="0px"
	 width="353.2px" height="327.2px" viewBox="0 0 353.2 327.2" enable-background="new 0 0 353.2 327.2" xml:space="preserve">
<g>
	<path fill="#FFFFFF" d="M177,327.2L177,327.2c-24.5-0.2-53.5-1.5-82-10.1c-46.8-14-76.3-45-87.6-92c-9.8-40.7-9.8-82,0-122.6
		c6.1-25,17.3-45.6,33.3-61.3c15.9-15.5,36.6-26.4,61.8-32.3C127.5,3,152.8,0,177.7,0c26.2,0,52.5,3.3,78.2,9.9
		c23.8,6.1,43.4,17,58.5,32.5c14.9,15.3,25.4,35.3,31.2,59.3c10.2,42.1,10.1,84.5-0.4,126c-6.4,25.4-18.2,46.1-35.1,61.7
		c-16.3,15-37.8,25.6-63.9,31.4C221.9,326,197.6,327,177,327.2z M177.7,0.5c-24.8,0-50.1,3-75.1,8.9C51.9,21.3,20.1,52.7,7.9,102.7
		C-2,143.2-2,184.4,7.9,225c11.3,46.8,40.7,77.7,87.3,91.6c28.4,8.5,57.3,9.9,81.8,10.1c20.6-0.2,44.9-1.2,69.1-6.5
		c26-5.7,47.4-16.2,63.7-31.2c16.8-15.5,28.6-36.2,35-61.4c10.5-41.4,10.6-83.7,0.4-125.7c-5.8-23.9-16.3-43.8-31.1-59
		c-15-15.4-34.6-26.3-58.2-32.4C230.1,3.8,203.9,0.5,177.7,0.5z"/>
</g>
</svg>
