<?xml version="1.0" encoding="utf-8"?>
<!-- Generator: Adobe Illustrator 16.0.0, SVG Export Plug-In . SVG Version: 6.00 Build 0)  -->
<!DOCTYPE svg PUBLIC "-//W3C//DTD SVG 1.1//EN" "http://www.w3.org/Graphics/SVG/1.1/DTD/svg11.dtd">
<svg version="1.1" id="圖層_1" xmlns="http://www.w3.org/2000/svg" xmlns:xlink="http://www.w3.org/1999/xlink" x="0px" y="0px"
	 width="38px" height="9.2px" viewBox="0 0 38 9.2" enable-background="new 0 0 38 9.2" xml:space="preserve">
<g>
	<path fill="#00B5DD" d="M3.2,8.7c0.2,0,0.4,0,0.6-0.1c0.2-0.1,0.4-0.1,0.6-0.3s0.3-0.3,0.4-0.4C5,7.7,5,7.5,5,7.3
		C5,7,4.9,6.8,4.8,6.6C4.7,6.4,4.5,6.2,4.3,6C4,5.8,3.8,5.7,3.5,5.5S2.9,5.2,2.6,5C2.3,4.9,2,4.7,1.7,4.5C1.4,4.4,1.1,4.2,0.9,4
		C0.7,3.8,0.5,3.5,0.4,3.3C0.2,3,0.2,2.7,0.2,2.4c0-0.3,0.1-0.7,0.2-0.9s0.3-0.5,0.6-0.8s0.5-0.4,0.9-0.5S2.6,0,3,0
		c0.4,0,0.8,0,1.1,0.1C4.5,0.2,4.8,0.4,5,0.5c0.2,0.2,0.5,0.4,0.6,0.6C5.8,1.4,6,1.7,6.1,2L5.3,2.4C5.2,2.1,5.1,1.9,5,1.7
		C4.8,1.4,4.7,1.2,4.5,1.1S4.1,0.8,3.8,0.7C3.6,0.6,3.3,0.6,3,0.6c-0.3,0-0.5,0-0.7,0.1C2,0.8,1.9,0.9,1.7,1
		C1.6,1.1,1.5,1.3,1.4,1.4C1.3,1.6,1.3,1.7,1.3,1.9c0,0.2,0.1,0.4,0.2,0.6c0.1,0.2,0.3,0.4,0.6,0.5c0.2,0.2,0.5,0.3,0.8,0.5
		s0.6,0.3,0.9,0.5c0.3,0.2,0.6,0.3,0.9,0.5C5,4.8,5.3,5,5.5,5.2s0.4,0.4,0.6,0.7c0.1,0.3,0.2,0.5,0.2,0.8c0,0.4-0.1,0.7-0.2,1
		C6,8,5.8,8.3,5.5,8.5C5.2,8.7,4.9,8.9,4.5,9C4.1,9.2,3.7,9.2,3.1,9.2c-0.4,0-0.8,0-1.1-0.1C1.7,9,1.4,8.9,1.1,8.7
		C0.8,8.5,0.6,8.3,0.4,8C0.3,7.8,0.1,7.5,0,7.2l0.8-0.3C0.9,7.1,1,7.4,1.2,7.6C1.3,7.8,1.5,8,1.7,8.2c0.2,0.2,0.4,0.3,0.7,0.4
		C2.7,8.6,2.9,8.7,3.2,8.7z"/>
	<path fill="#00B5DD" d="M15.7,0.2v0.6h-4.7v3.2h3.1v0.6h-3.1v4h4.7V9H9.6V0.2H15.7z"/>
	<path fill="#00B5DD" d="M18.7,0.2h0.8l5.8,6.5h0.1V0.2H26v9h-0.3l-6.3-7.2h-0.1v7h-0.7V0.2z"/>
	<path fill="#00B5DD" d="M29.6,0.2h2.9c0.9,0,1.7,0.1,2.3,0.3s1.2,0.4,1.6,0.8c0.5,0.4,0.9,0.9,1.1,1.5S38,3.9,38,4.5
		c0,0.6-0.1,1.2-0.3,1.8c-0.2,0.5-0.6,1-1,1.4c-0.4,0.4-1,0.7-1.6,1C34.5,8.9,33.7,9,32.9,9h-3.3V0.2z M31.1,8.4h1.6
		c0.5,0,1-0.1,1.4-0.2c0.4-0.2,0.8-0.4,1.2-0.7c0.3-0.3,0.6-0.7,0.8-1.2c0.2-0.5,0.3-1,0.3-1.6c0-0.5-0.1-1-0.3-1.5
		c-0.2-0.5-0.4-0.8-0.7-1.2c-0.3-0.3-0.7-0.6-1.1-0.8c-0.4-0.2-0.9-0.3-1.5-0.3h-1.6V8.4z"/>
</g>
</svg>
