<?xml version="1.0" encoding="UTF-8"?>
<svg width="410.8484" height="147.1141" id="_圖層_2" data-name="圖層 2" xmlns="http://www.w3.org/2000/svg" xmlns:xlink="http://www.w3.org/1999/xlink" viewBox="0 0 410.85 147.11">
  <defs>
    <linearGradient id="_未命名漸層_56" data-name="未命名漸層 56" x1="376.89" y1="90.57" x2="376.89" y2="127.49" gradientUnits="userSpaceOnUse">
      <stop offset="0" stop-color="#8fcdef"/>
      <stop offset="1" stop-color="#c7e8fa"/>
      <stop offset="1" stop-color="#b8e2f9"/>
    </linearGradient>
    <linearGradient id="_未命名漸層_25" data-name="未命名漸層 25" x1="366.58" y1="87.91" x2="366.58" y2="109.85" gradientUnits="userSpaceOnUse">
      <stop offset="0" stop-color="#9bd1f0"/>
      <stop offset="1" stop-color="#c7e8fa"/>
      <stop offset="1" stop-color="#c7e8fa"/>
    </linearGradient>
    <linearGradient id="_未命名漸層_56-2" data-name="未命名漸層 56" x1="51.79" x2="51.79" xlink:href="#_未命名漸層_56"/>
    <linearGradient id="_未命名漸層_25-2" data-name="未命名漸層 25" x1="41.48" x2="41.48" xlink:href="#_未命名漸層_25"/>
    <linearGradient id="_未命名漸層_77" data-name="未命名漸層 77" x1="147.54" y1="-38.28" x2="197.21" y2="39.86" gradientUnits="userSpaceOnUse">
      <stop offset="0" stop-color="#e6f4fd"/>
      <stop offset="1" stop-color="#c7e8fa"/>
      <stop offset="1" stop-color="#c7e8fa"/>
    </linearGradient>
    <linearGradient id="_未命名漸層_56-3" data-name="未命名漸層 56" x1="53.95" y1="54.68" x2="90.4" y2="54.68" xlink:href="#_未命名漸層_56"/>
    <linearGradient id="_未命名漸層_56-4" data-name="未命名漸層 56" x1="94.05" y1="59.84" x2="125.31" y2="59.84" xlink:href="#_未命名漸層_56"/>
    <linearGradient id="_未命名漸層_56-5" data-name="未命名漸層 56" x1="130.25" y1="59.53" x2="158.95" y2="59.53" xlink:href="#_未命名漸層_56"/>
    <linearGradient id="_未命名漸層_56-6" data-name="未命名漸層 56" x1="163.89" y1="59.84" x2="195.15" y2="59.84" xlink:href="#_未命名漸層_56"/>
    <linearGradient id="_未命名漸層_56-7" data-name="未命名漸層 56" x1="196.12" y1="59.84" x2="228.17" y2="59.84" xlink:href="#_未命名漸層_56"/>
    <linearGradient id="_未命名漸層_56-8" data-name="未命名漸層 56" x1="228.51" y1="59.84" x2="259.95" y2="59.84" xlink:href="#_未命名漸層_56"/>
    <linearGradient id="_未命名漸層_56-9" data-name="未命名漸層 56" x1="264.83" y1="59.53" x2="286.2" y2="59.53" xlink:href="#_未命名漸層_56"/>
    <linearGradient id="_未命名漸層_56-10" data-name="未命名漸層 56" x1="287.43" y1="59.84" x2="316.29" y2="59.84" xlink:href="#_未命名漸層_56"/>
    <linearGradient id="_未命名漸層_56-11" data-name="未命名漸層 56" x1="319.94" y1="59.84" x2="351.38" y2="59.84" xlink:href="#_未命名漸層_56"/>
  </defs>
  <g id="_01首頁" data-name="01首頁">
    <g>
      <rect x="5.52" y="6.23" width="405.33" height="96.88" rx="21.29" ry="21.29" style="fill: #9bd1f0;"/>
      <polygon points="366.54 89.96 387.25 89.96 387.25 134.95 366.54 135.03 366.54 89.96" style="fill: url(#_未命名漸層_56);"/>
      <rect x="356.27" y="86.71" width="20.62" height="60.4" style="fill: url(#_未命名漸層_25);"/>
      <polygon points="41.43 89.96 62.14 89.96 62.14 134.95 41.43 135.03 41.43 89.96" style="fill: url(#_未命名漸層_56-2);"/>
      <rect x="31.16" y="86.71" width="20.62" height="60.4" style="fill: url(#_未命名漸層_25-2);"/>
      <rect x="0" y="0" width="405.33" height="96.88" rx="21.29" ry="21.29" style="fill: url(#_未命名漸層_77);"/>
      <g>
        <g>
          <path d="M80.25,58.08l10.15,3.07c-.68,2.85-1.76,5.22-3.22,7.13-1.47,1.91-3.29,3.35-5.46,4.32-2.17,.97-4.94,1.46-8.29,1.46-4.07,0-7.4-.59-9.98-1.78-2.58-1.18-4.81-3.27-6.68-6.25-1.88-2.98-2.81-6.79-2.81-11.44,0-6.2,1.65-10.96,4.95-14.29,3.3-3.33,7.96-4.99,14-4.99,4.72,0,8.43,.95,11.13,2.86,2.7,1.91,4.71,4.84,6.02,8.79l-10.22,2.28c-.36-1.14-.73-1.98-1.12-2.51-.65-.89-1.44-1.57-2.38-2.04-.94-.48-1.99-.72-3.14-.72-2.62,0-4.64,1.06-6.03,3.17-1.06,1.57-1.58,4.03-1.58,7.38,0,4.15,.63,7,1.89,8.54,1.26,1.54,3.03,2.31,5.32,2.31s3.89-.62,5.02-1.87c1.13-1.24,1.96-3.05,2.47-5.42Z" style="fill: url(#_未命名漸層_56-3);"/>
          <path d="M104.81,55.06l-9.94-1.05c.38-1.74,.92-3.11,1.62-4.1,.71-1,1.72-1.86,3.05-2.59,.96-.53,2.27-.94,3.94-1.23,1.67-.29,3.48-.43,5.42-.43,3.12,0,5.62,.17,7.51,.52s3.47,1.08,4.73,2.19c.89,.77,1.59,1.85,2.1,3.26,.51,1.41,.77,2.75,.77,4.03v11.99c0,1.28,.08,2.28,.24,3,.16,.72,.51,1.65,1.06,2.77h-9.76c-.39-.7-.65-1.23-.77-1.6-.12-.37-.24-.94-.36-1.73-1.36,1.31-2.72,2.25-4.06,2.81-1.84,.75-3.98,1.12-6.42,1.12-3.24,0-5.7-.75-7.38-2.25s-2.52-3.35-2.52-5.55c0-2.06,.6-3.76,1.81-5.09,1.21-1.33,3.44-2.32,6.7-2.97,3.9-.78,6.43-1.33,7.59-1.65,1.16-.32,2.39-.73,3.68-1.24,0-1.28-.26-2.17-.79-2.68-.53-.51-1.46-.77-2.79-.77-1.7,0-2.98,.27-3.83,.82-.67,.43-1.2,1.23-1.61,2.4Zm9.02,5.47c-1.43,.51-2.92,.96-4.47,1.35-2.11,.56-3.45,1.12-4.01,1.66-.58,.56-.87,1.2-.87,1.92,0,.82,.29,1.49,.86,2.01,.57,.52,1.41,.78,2.52,.78s2.24-.28,3.23-.84c1-.56,1.7-1.25,2.12-2.06,.42-.81,.63-1.86,.63-3.16v-1.66Z" style="fill: url(#_未命名漸層_56-4);"/>
          <path d="M130.25,46.27h9.69v4.42c1.45-1.81,2.91-3.1,4.4-3.87,1.48-.77,3.29-1.16,5.42-1.16,2.88,0,5.13,.86,6.76,2.57,1.63,1.71,2.44,4.36,2.44,7.94v17.25h-10.45v-14.93c0-1.7-.32-2.91-.95-3.62-.63-.71-1.52-1.06-2.66-1.06-1.26,0-2.28,.48-3.07,1.43-.78,.95-1.18,2.67-1.18,5.14v13.04h-10.4v-27.15Z" style="fill: url(#_未命名漸層_56-5);"/>
          <path d="M174.65,55.06l-9.94-1.05c.38-1.74,.92-3.11,1.62-4.1,.71-1,1.72-1.86,3.05-2.59,.95-.53,2.27-.94,3.94-1.23,1.67-.29,3.48-.43,5.42-.43,3.12,0,5.62,.17,7.51,.52s3.47,1.08,4.73,2.19c.89,.77,1.58,1.85,2.1,3.26,.51,1.41,.77,2.75,.77,4.03v11.99c0,1.28,.08,2.28,.24,3,.16,.72,.51,1.65,1.06,2.77h-9.76c-.39-.7-.65-1.23-.77-1.6-.12-.37-.24-.94-.36-1.73-1.36,1.31-2.72,2.25-4.06,2.81-1.84,.75-3.98,1.12-6.42,1.12-3.24,0-5.7-.75-7.38-2.25s-2.52-3.35-2.52-5.55c0-2.06,.6-3.76,1.81-5.09s3.44-2.32,6.7-2.97c3.9-.78,6.43-1.33,7.59-1.65,1.16-.32,2.39-.73,3.68-1.24,0-1.28-.26-2.17-.79-2.68-.53-.51-1.46-.77-2.79-.77-1.7,0-2.98,.27-3.83,.82-.66,.43-1.2,1.23-1.61,2.4Zm9.02,5.47c-1.43,.51-2.92,.96-4.47,1.35-2.11,.56-3.45,1.12-4.01,1.66-.58,.56-.87,1.2-.87,1.92,0,.82,.29,1.49,.86,2.01s1.41,.78,2.52,.78,2.24-.28,3.23-.84c1-.56,1.7-1.25,2.12-2.06,.42-.81,.63-1.86,.63-3.16v-1.66Z" style="fill: url(#_未命名漸層_56-6);"/>
          <path d="M196.12,46.27h10.82l5.27,17.2,5.46-17.2h10.5l-11.54,27.15h-9.23l-11.29-27.15Z" style="fill: url(#_未命名漸層_56-7);"/>
          <path d="M259.95,62.42h-20.86c.19,1.67,.64,2.91,1.35,3.73,1.01,1.18,2.32,1.76,3.94,1.76,1.02,0,1.99-.26,2.91-.77,.56-.32,1.17-.89,1.82-1.71l10.25,.95c-1.57,2.73-3.46,4.68-5.67,5.87s-5.39,1.78-9.53,1.78c-3.6,0-6.42-.51-8.49-1.52-2.06-1.01-3.77-2.62-5.12-4.83-1.36-2.21-2.03-4.8-2.03-7.78,0-4.24,1.36-7.68,4.08-10.3,2.72-2.62,6.47-3.94,11.26-3.94,3.88,0,6.95,.59,9.2,1.76,2.25,1.18,3.96,2.88,5.14,5.11,1.18,2.23,1.76,5.14,1.76,8.72v1.18Zm-10.58-4.98c-.21-2.01-.75-3.45-1.62-4.32-.88-.87-2.03-1.3-3.46-1.3-1.65,0-2.97,.66-3.96,1.97-.63,.82-1.03,2.04-1.2,3.66h10.25Z" style="fill: url(#_未命名漸層_56-8);"/>
          <path d="M264.83,46.27h9.74v4.45c.94-1.93,1.9-3.25,2.9-3.98,1-.72,2.23-1.09,3.69-1.09s3.21,.48,5.04,1.43l-3.22,7.41c-1.23-.51-2.2-.77-2.91-.77-1.36,0-2.42,.56-3.17,1.69-1.07,1.58-1.61,4.55-1.61,8.9v9.1h-10.46v-27.15Z" style="fill: url(#_未命名漸層_56-9);"/>
          <path d="M287.43,65.87l10.33-.97c.43,1.23,1.02,2.1,1.79,2.63,.77,.53,1.79,.79,3.07,.79,1.4,0,2.48-.3,3.25-.89,.6-.44,.89-.99,.89-1.66,0-.75-.39-1.33-1.18-1.74-.56-.29-2.05-.65-4.47-1.07-3.61-.63-6.12-1.21-7.53-1.75-1.41-.54-2.59-1.44-3.55-2.72-.96-1.28-1.44-2.73-1.44-4.37,0-1.79,.52-3.33,1.56-4.62,1.04-1.29,2.47-2.26,4.29-2.9,1.82-.64,4.27-.96,7.34-.96,3.24,0,5.63,.25,7.17,.74s2.83,1.26,3.86,2.3c1.03,1.04,1.89,2.45,2.57,4.22l-9.87,.97c-.26-.87-.68-1.51-1.28-1.92-.82-.54-1.81-.82-2.96-.82s-2.03,.21-2.57,.63-.8,.92-.8,1.52c0,.66,.34,1.17,1.02,1.51,.68,.34,2.16,.65,4.45,.92,3.46,.39,6.03,.94,7.72,1.63,1.69,.7,2.98,1.69,3.87,2.99,.89,1.29,1.34,2.72,1.34,4.26s-.47,3.09-1.42,4.57c-.95,1.48-2.44,2.66-4.47,3.54-2.04,.88-4.81,1.31-8.32,1.31-4.96,0-8.49-.71-10.59-2.12-2.11-1.41-3.46-3.43-4.05-6.03Z" style="fill: url(#_未命名漸層_56-10);"/>
          <path d="M351.38,62.42h-20.86c.19,1.67,.64,2.91,1.35,3.73,1.01,1.18,2.32,1.76,3.94,1.76,1.02,0,1.99-.26,2.91-.77,.56-.32,1.17-.89,1.82-1.71l10.25,.95c-1.57,2.73-3.46,4.68-5.67,5.87s-5.39,1.78-9.53,1.78c-3.6,0-6.42-.51-8.49-1.52-2.06-1.01-3.77-2.62-5.12-4.83-1.36-2.21-2.03-4.8-2.03-7.78,0-4.24,1.36-7.68,4.08-10.3,2.72-2.62,6.47-3.94,11.26-3.94,3.88,0,6.95,.59,9.2,1.76,2.25,1.18,3.96,2.88,5.14,5.11,1.18,2.23,1.76,5.14,1.76,8.72v1.18Zm-10.58-4.98c-.21-2.01-.75-3.45-1.62-4.32-.88-.87-2.03-1.3-3.46-1.3-1.65,0-2.97,.66-3.96,1.97-.63,.82-1.03,2.04-1.2,3.66h10.25Z" style="fill: url(#_未命名漸層_56-11);"/>
        </g>
        <g>
          <path d="M79.25,55.21l10.15,3.07c-.68,2.85-1.76,5.22-3.22,7.13-1.47,1.91-3.29,3.35-5.46,4.32-2.17,.97-4.94,1.46-8.29,1.46-4.07,0-7.4-.59-9.98-1.78s-4.81-3.27-6.68-6.25-2.81-6.79-2.81-11.44c0-6.2,1.65-10.96,4.95-14.29,3.3-3.33,7.96-4.99,14-4.99,4.72,0,8.43,.95,11.13,2.86,2.7,1.91,4.71,4.84,6.02,8.79l-10.22,2.28c-.36-1.14-.73-1.98-1.12-2.51-.65-.89-1.44-1.57-2.38-2.04-.94-.48-1.99-.72-3.14-.72-2.62,0-4.64,1.06-6.03,3.17-1.06,1.57-1.58,4.03-1.58,7.38,0,4.15,.63,7,1.89,8.54,1.26,1.54,3.03,2.31,5.32,2.31s3.89-.62,5.02-1.87c1.13-1.24,1.96-3.05,2.47-5.42Z" style="fill: #fffde3;"/>
          <path d="M103.82,52.2l-9.94-1.05c.38-1.74,.92-3.11,1.62-4.1,.71-1,1.72-1.86,3.05-2.59,.96-.53,2.27-.94,3.94-1.23,1.67-.29,3.48-.43,5.42-.43,3.12,0,5.62,.17,7.51,.52s3.47,1.08,4.73,2.19c.89,.77,1.58,1.85,2.1,3.26,.51,1.41,.77,2.75,.77,4.03v11.99c0,1.28,.08,2.28,.24,3,.16,.72,.51,1.65,1.06,2.77h-9.76c-.39-.7-.65-1.23-.77-1.6-.12-.37-.24-.94-.36-1.73-1.36,1.31-2.72,2.25-4.06,2.81-1.84,.75-3.98,1.12-6.42,1.12-3.24,0-5.7-.75-7.38-2.25s-2.52-3.35-2.52-5.55c0-2.06,.6-3.76,1.81-5.09,1.21-1.33,3.44-2.32,6.7-2.97,3.9-.78,6.43-1.33,7.59-1.65s2.39-.73,3.68-1.24c0-1.28-.26-2.17-.79-2.68-.53-.51-1.46-.77-2.79-.77-1.7,0-2.98,.27-3.83,.82-.66,.43-1.2,1.23-1.61,2.4Zm9.02,5.47c-1.43,.51-2.92,.96-4.47,1.35-2.11,.56-3.45,1.12-4.01,1.66-.58,.56-.87,1.2-.87,1.92,0,.82,.29,1.49,.86,2.01,.57,.52,1.41,.78,2.52,.78s2.24-.28,3.23-.84c1-.56,1.7-1.25,2.12-2.06,.42-.81,.63-1.86,.63-3.16v-1.66Z" style="fill: #fffde3;"/>
          <path d="M129.25,43.4h9.69v4.42c1.45-1.81,2.91-3.1,4.4-3.87,1.48-.77,3.29-1.16,5.42-1.16,2.88,0,5.13,.86,6.76,2.57,1.63,1.71,2.44,4.36,2.44,7.94v17.25h-10.45v-14.93c0-1.7-.32-2.91-.95-3.62-.63-.71-1.52-1.06-2.66-1.06-1.26,0-2.28,.48-3.07,1.43-.78,.95-1.18,2.67-1.18,5.14v13.04h-10.4v-27.15Z" style="fill: #fffde3;"/>
          <path d="M173.66,52.2l-9.94-1.05c.38-1.74,.92-3.11,1.62-4.1,.71-1,1.72-1.86,3.05-2.59,.96-.53,2.27-.94,3.94-1.23,1.67-.29,3.48-.43,5.42-.43,3.12,0,5.62,.17,7.51,.52s3.47,1.08,4.73,2.19c.89,.77,1.59,1.85,2.1,3.26,.51,1.41,.77,2.75,.77,4.03v11.99c0,1.28,.08,2.28,.24,3,.16,.72,.51,1.65,1.06,2.77h-9.76c-.39-.7-.65-1.23-.77-1.6-.12-.37-.24-.94-.36-1.73-1.36,1.31-2.72,2.25-4.06,2.81-1.84,.75-3.98,1.12-6.42,1.12-3.24,0-5.7-.75-7.38-2.25s-2.52-3.35-2.52-5.55c0-2.06,.6-3.76,1.81-5.09,1.21-1.33,3.44-2.32,6.7-2.97,3.9-.78,6.43-1.33,7.59-1.65,1.16-.32,2.39-.73,3.68-1.24,0-1.28-.26-2.17-.79-2.68s-1.46-.77-2.79-.77c-1.7,0-2.98,.27-3.83,.82-.66,.43-1.2,1.23-1.61,2.4Zm9.02,5.47c-1.43,.51-2.92,.96-4.47,1.35-2.11,.56-3.45,1.12-4.01,1.66-.58,.56-.87,1.2-.87,1.92,0,.82,.29,1.49,.86,2.01,.57,.52,1.41,.78,2.52,.78s2.24-.28,3.23-.84c1-.56,1.7-1.25,2.12-2.06,.42-.81,.63-1.86,.63-3.16v-1.66Z" style="fill: #fffde3;"/>
          <path d="M195.13,43.4h10.82l5.27,17.2,5.46-17.2h10.5l-11.54,27.15h-9.23l-11.29-27.15Z" style="fill: #fffde3;"/>
          <path d="M258.95,59.56h-20.86c.19,1.67,.64,2.91,1.35,3.73,1.01,1.18,2.32,1.76,3.94,1.76,1.02,0,1.99-.26,2.91-.77,.56-.32,1.17-.89,1.82-1.71l10.25,.95c-1.57,2.73-3.46,4.68-5.67,5.87-2.21,1.18-5.39,1.78-9.53,1.78-3.6,0-6.42-.51-8.49-1.52-2.06-1.01-3.77-2.62-5.12-4.83-1.36-2.21-2.03-4.8-2.03-7.78,0-4.24,1.36-7.68,4.08-10.3,2.72-2.62,6.47-3.94,11.26-3.94,3.88,0,6.95,.59,9.2,1.76,2.25,1.18,3.96,2.88,5.14,5.11,1.18,2.23,1.76,5.14,1.76,8.72v1.18Zm-10.58-4.98c-.2-2.01-.75-3.45-1.62-4.32-.88-.87-2.03-1.3-3.46-1.3-1.65,0-2.97,.66-3.96,1.97-.63,.82-1.03,2.04-1.2,3.66h10.25Z" style="fill: #fffde3;"/>
          <path d="M263.84,43.4h9.74v4.45c.94-1.93,1.9-3.25,2.9-3.98,1-.72,2.23-1.09,3.69-1.09s3.21,.48,5.04,1.43l-3.22,7.41c-1.23-.51-2.2-.77-2.91-.77-1.36,0-2.42,.56-3.17,1.69-1.07,1.59-1.61,4.55-1.61,8.9v9.1h-10.46v-27.15Z" style="fill: #fffde3;"/>
          <path d="M286.43,63.01l10.33-.97c.43,1.23,1.02,2.1,1.79,2.63,.77,.53,1.79,.79,3.07,.79,1.4,0,2.48-.3,3.25-.89,.6-.44,.89-.99,.89-1.66,0-.75-.39-1.33-1.18-1.74-.56-.29-2.05-.65-4.47-1.07-3.61-.63-6.12-1.21-7.53-1.75-1.41-.54-2.59-1.44-3.55-2.72-.96-1.28-1.44-2.73-1.44-4.37,0-1.79,.52-3.33,1.56-4.62,1.04-1.29,2.47-2.26,4.29-2.9,1.82-.64,4.27-.96,7.34-.96,3.24,0,5.63,.25,7.17,.74,1.54,.49,2.83,1.26,3.86,2.3,1.03,1.04,1.89,2.45,2.57,4.22l-9.87,.97c-.26-.87-.68-1.51-1.28-1.92-.82-.54-1.81-.82-2.96-.82s-2.03,.21-2.57,.63c-.54,.42-.8,.92-.8,1.52,0,.66,.34,1.17,1.02,1.51,.68,.34,2.16,.65,4.45,.92,3.46,.39,6.03,.94,7.72,1.63,1.69,.7,2.98,1.69,3.87,2.99,.89,1.29,1.34,2.72,1.34,4.26s-.47,3.09-1.42,4.57c-.95,1.48-2.44,2.66-4.47,3.54-2.04,.88-4.81,1.31-8.32,1.31-4.96,0-8.49-.71-10.59-2.12-2.11-1.41-3.46-3.43-4.05-6.03Z" style="fill: #fffde3;"/>
          <path d="M350.39,59.56h-20.86c.19,1.67,.64,2.91,1.35,3.73,1.01,1.18,2.32,1.76,3.94,1.76,1.02,0,1.99-.26,2.91-.77,.56-.32,1.17-.89,1.82-1.71l10.25,.95c-1.57,2.73-3.46,4.68-5.67,5.87-2.21,1.18-5.39,1.78-9.53,1.78-3.6,0-6.42-.51-8.49-1.52-2.06-1.01-3.77-2.62-5.12-4.83-1.36-2.21-2.03-4.8-2.03-7.78,0-4.24,1.36-7.68,4.08-10.3,2.72-2.62,6.47-3.94,11.26-3.94,3.88,0,6.95,.59,9.2,1.76,2.25,1.18,3.96,2.88,5.14,5.11,1.18,2.23,1.76,5.14,1.76,8.72v1.18Zm-10.58-4.98c-.2-2.01-.75-3.45-1.62-4.32-.88-.87-2.03-1.3-3.46-1.3-1.65,0-2.97,.66-3.96,1.97-.63,.82-1.03,2.04-1.2,3.66h10.25Z" style="fill: #fffde3;"/>
        </g>
      </g>
    </g>
  </g>
</svg>