<?xml version="1.0" encoding="UTF-8"?>
<svg id="_圖層_1" data-name="圖層 1" xmlns="http://www.w3.org/2000/svg" xmlns:xlink="http://www.w3.org/1999/xlink" viewBox="0 0 1920 335.44">
  <defs>
    <linearGradient id="_未命名漸層_2" data-name="未命名漸層 2" x1="960.75" y1="266.55" x2="960.75" y2="4.95" gradientUnits="userSpaceOnUse">
      <stop offset=".07" stop-color="#9bd1f0"/>
      <stop offset=".21" stop-color="#9bd1f0"/>
      <stop offset=".7" stop-color="#c7e8fa"/>
    </linearGradient>
  </defs>
  <path d="M1864.37,0c-166.81,0-309.1,59.36-364.46,142.77-18.19-9.98-39.08-15.66-61.29-15.66-54.32,0-100.7,33.93-119.13,81.75-93.62-37.05-219.69-59.75-358.36-59.75-69.04,0-134.94,5.63-195.29,15.85-26.29-37.87-70.09-62.68-119.69-62.68-59.71,0-111.01,35.94-133.49,87.36-16.45-23.58-43.77-39.02-74.7-39.02s-60.38,16.66-76.57,41.81C298.36,100.86,192.81,40.82,73.22,40.82c-24.51,0-48.43,2.53-71.52,7.33V335.44H1919.79V2.22c-18.1-1.46-36.6-2.22-55.42-2.22Z" style="fill: url(#_未命名漸層_2);"/>
  <path d="M1864.37,51.6c-166.81,0-309.1,59.36-364.46,142.77-18.19-9.98-39.08-15.66-61.29-15.66-54.32,0-100.7,33.93-119.13,81.75-93.62-37.05-219.69-59.75-358.36-59.75-69.04,0-134.94,5.63-195.29,15.85-26.29-37.87-70.09-62.68-119.69-62.68-59.71,0-111.01,35.94-133.49,87.36-16.45-23.58-43.77-39.02-74.7-39.02s-60.38,16.66-76.57,41.81C298.36,152.46,192.81,92.41,73.22,92.41c-25.11,0-49.61,2.65-73.22,7.69v235.34H1920V53.83c-18.17-1.47-36.74-2.23-55.63-2.23Z" style="fill: #e6f4fd;"/>
</svg>