<?xml version="1.0" encoding="UTF-8"?>
<svg width="487.01" height="114.31" id="_圖層_2" data-name="圖層 2" xmlns="http://www.w3.org/2000/svg" xmlns:xlink="http://www.w3.org/1999/xlink" viewBox="0 0 487.01 114.31">
  <defs>
    <linearGradient id="_未命名漸層_36" data-name="未命名漸層 36" x1="-1343.93" y1="114.15" x2="-1343.93" y2="18.09" gradientTransform="translate(1587.43)" gradientUnits="userSpaceOnUse">
      <stop offset="0" stop-color="#fffde3" stop-opacity="0"/>
      <stop offset="1" stop-color="#fffde3"/>
    </linearGradient>
  </defs>
  <g id="_圖層_1-2" data-name="圖層 1">
    <path d="M63.22,54.52S60.5,7.5,113.28,.46c36.25-4.84,89.87,29.95,89.87,29.95,0,0,16.25-22.54,33.02-22.01,53.87,1.68,53.53,64.41,53.53,64.41,0,0,23.15-27.71,65.8,4.15l5.35,16.59s55.56,20.75,126.16,20.75H4.37s-12.73-5.94,5.25-23.92,36.83-19.09,36.83-19.09c0,0-23.33-12.06-8.2-26.51,15.53-14.83,24.97,9.74,24.97,9.74Z" style="fill: url(#_未命名漸層_36);"/>
  </g>
</svg>