<?xml version="1.0" encoding="UTF-8"?>
<svg width="44" height="44" id="_圖層_2" data-name="圖層 2" xmlns="http://www.w3.org/2000/svg" viewBox="0 0 44 44">
  <g id="_模擬置頂" data-name="模擬置頂">
    <g>
      <path d="M44,22c0,12.15-9.85,22-22,22S0,34.15,0,22,9.85,0,22,0s22,9.85,22,22h0Z"/>
      <path d="M33.42,19.47c-.23,.02-.45,.03-.68,.03-2.48,0-4.79-1.25-6.15-3.32v11.32c0,4.62-3.75,8.37-8.37,8.37s-8.37-3.75-8.37-8.37,3.75-8.37,8.37-8.37h0c.17,0,.34,.02,.52,.03v4.12c-.17-.02-.34-.05-.52-.05-2.36,0-4.27,1.91-4.27,4.27s1.91,4.27,4.27,4.27,4.44-1.86,4.44-4.22l.04-19.23h3.94c.37,3.54,3.22,6.3,6.77,6.56v4.58" style="fill: #fff;"/>
    </g>
  </g>
</svg>