<?xml version="1.0" encoding="UTF-8"?>
<svg width="44" height="44" id="_圖層_2" data-name="圖層 2" xmlns="http://www.w3.org/2000/svg" viewBox="0 0 44 44">
  <g id="_模擬置頂" data-name="模擬置頂">
    <g>
      <path d="M22,44h0C9.85,44,0,34.15,0,22H0C0,9.85,9.85,0,22,0h0c12.15,0,22,9.85,22,22h0c0,12.15-9.85,22-22,22h0Z" style="fill: #00a8e5;"/>
      <path d="M10.28,29.36c2.13,1.36,4.66,2.16,7.37,2.16,8.93,0,13.97-7.54,13.67-14.31,.94-.68,1.76-1.52,2.4-2.49-.86,.38-1.79,.64-2.76,.76,.99-.59,1.76-1.54,2.11-2.66-.93,.55-1.96,.95-3.05,1.17-.88-.93-2.13-1.52-3.51-1.52-3.1,0-5.39,2.9-4.68,5.91-4-.2-7.54-2.12-9.91-5.03-1.26,2.16-.65,4.99,1.49,6.42-.79-.02-1.53-.24-2.18-.6-.05,2.23,1.54,4.31,3.86,4.78-.68,.18-1.42,.23-2.17,.08,.61,1.91,2.39,3.3,4.49,3.34-2.02,1.59-4.57,2.29-7.12,1.99h0Z" style="fill: #fff;"/>
    </g>
  </g>
</svg>