<?xml version="1.0" encoding="UTF-8"?>
<svg width="565.0266" height="388.7936" id="_圖層_2" data-name="圖層 2" xmlns="http://www.w3.org/2000/svg" xmlns:xlink="http://www.w3.org/1999/xlink" viewBox="0 0 565.03 388.79">
  <defs>
    <linearGradient id="_未命名漸層_56" data-name="未命名漸層 56" x1="-114.31" y1="129.88" x2="-114.31" y2="154.95" gradientTransform="translate(364.06) rotate(-180) scale(1 -1)" gradientUnits="userSpaceOnUse">
      <stop offset="0" stop-color="#8fcdef"/>
      <stop offset="1" stop-color="#c7e8fa"/>
      <stop offset="1" stop-color="#b8e2f9"/>
    </linearGradient>
    <linearGradient id="_未命名漸層_56-2" data-name="未命名漸層 56" x1="-38.33" x2="-38.33" xlink:href="#_未命名漸層_56"/>
    <linearGradient id="_未命名漸層_56-3" data-name="未命名漸層 56" x1="37.64" x2="37.64" xlink:href="#_未命名漸層_56"/>
    <linearGradient id="_未命名漸層_56-4" data-name="未命名漸層 56" x1="113.61" x2="113.61" xlink:href="#_未命名漸層_56"/>
    <linearGradient id="_未命名漸層_56-5" data-name="未命名漸層 56" x1="189.58" x2="189.58" xlink:href="#_未命名漸層_56"/>
    <linearGradient id="_未命名漸層_56-6" data-name="未命名漸層 56" x1="265.56" x2="265.56" xlink:href="#_未命名漸層_56"/>
    <linearGradient id="_未命名漸層_56-7" data-name="未命名漸層 56" x1="-137.46" y1="126.24" x2="-137.46" y2="240.89" gradientTransform="translate(638.97 385.92) scale(1 -1)" xlink:href="#_未命名漸層_56"/>
    <linearGradient id="_未命名漸層_77" data-name="未命名漸層 77" x1="84.47" y1="13.89" x2="84.47" y2="108.89" gradientTransform="translate(364.06) rotate(-180) scale(1 -1)" gradientUnits="userSpaceOnUse">
      <stop offset="0" stop-color="#e6f4fd"/>
      <stop offset="1" stop-color="#c7e8fa"/>
      <stop offset="1" stop-color="#c7e8fa"/>
    </linearGradient>
    <linearGradient id="_未命名漸層_25" data-name="未命名漸層 25" x1="-200.97" y1="121.47" x2="293.13" y2="121.47" gradientTransform="translate(364.06) rotate(-180) scale(1 -1)" gradientUnits="userSpaceOnUse">
      <stop offset="0" stop-color="#9bd1f0"/>
      <stop offset="1" stop-color="#c7e8fa"/>
      <stop offset="1" stop-color="#c7e8fa"/>
    </linearGradient>
    <linearGradient id="_未命名漸層_25-2" data-name="未命名漸層 25" x1="-111.61" y1="6.1" x2="327.84" y2="6.1" xlink:href="#_未命名漸層_25"/>
  </defs>
  <g id="_01首頁" data-name="01首頁">
    <g style="opacity: .4;">
      <g>
        <path d="M497.23,148.39c-9.5,0-17.38-6.93-18.87-16.01-1.49,9.08-9.36,16.01-18.87,16.01-10.56,0-19.12-8.56-19.12-19.12h75.97c0,10.56-8.56,19.12-19.12,19.12Z" style="fill: url(#_未命名漸層_56);"/>
        <path d="M421.26,148.39c-9.5,0-17.38-6.93-18.87-16.01-1.49,9.08-9.36,16.01-18.87,16.01-10.56,0-19.12-8.56-19.12-19.12h75.97c0,10.56-8.56,19.12-19.12,19.12Z" style="fill: url(#_未命名漸層_56-2);"/>
        <path d="M345.29,148.39c-9.5,0-17.38-6.93-18.87-16.01-1.49,9.08-9.36,16.01-18.87,16.01-10.56,0-19.12-8.56-19.12-19.12h75.97c0,10.56-8.56,19.12-19.12,19.12Z" style="fill: url(#_未命名漸層_56-3);"/>
        <path d="M269.31,148.39c-9.5,0-17.38-6.93-18.87-16.01-1.49,9.08-9.36,16.01-18.87,16.01-10.56,0-19.12-8.56-19.12-19.12h75.97c0,10.56-8.56,19.12-19.12,19.12Z" style="fill: url(#_未命名漸層_56-4);"/>
        <path d="M193.34,148.39c-9.5,0-17.38-6.93-18.87-16.01-1.49,9.08-9.36,16.01-18.87,16.01-10.56,0-19.12-8.56-19.12-19.12h75.97c0,10.56-8.56,19.12-19.12,19.12Z" style="fill: url(#_未命名漸層_56-5);"/>
        <path d="M117.37,148.39c-9.5,0-17.38-6.93-18.87-16.01-1.49,9.08-9.36,16.01-18.87,16.01-10.56,0-19.12-8.56-19.12-19.12h75.97c0,10.56-8.56,19.12-19.12,19.12Z" style="fill: url(#_未命名漸層_56-6);"/>
      </g>
      <rect x="475.83" y="125.71" width="51.38" height="134.5" transform="translate(1003.03 385.92) rotate(180)" style="fill: url(#_未命名漸層_56-7);"/>
      <polygon points="521.18 246.02 476 224.22 99.9 224.22 103.86 249.48 521.18 246.02" style="fill: #e6f4fd;"/>
      <polygon points="559.17 115.37 0 115.37 0 3.34 471.72 3.34 559.17 115.37" style="fill: url(#_未命名漸層_77);"/>
      <rect x="72.96" y="121.3" width="486.21" height="8.83" transform="translate(632.13 251.43) rotate(180)" style="fill: #c7e8fa;"/>
      <rect x="516.35" y="129.66" width="13.02" height="247.55" transform="translate(1045.73 506.88) rotate(180)" style="fill: #c7e8fa;"/>
      <rect x="103.33" y="242.55" width="426.04" height="146.24" transform="translate(632.71 631.35) rotate(180)" style="fill: #c7e8fa;"/>
      <g>
        <path d="M540.05,148.39c-9.5,0-17.38-6.93-18.87-16.01-1.49,9.08-9.36,16.01-18.87,16.01-10.56,0-19.12-8.56-19.12-19.12h75.97c0,10.56-8.56,19.12-19.12,19.12Z" style="fill: #c7e8fa;"/>
        <path d="M464.08,148.39c-9.5,0-17.38-6.93-18.87-16.01-1.49,9.08-9.36,16.01-18.87,16.01-10.56,0-19.12-8.56-19.12-19.12h75.97c0,10.56-8.56,19.12-19.12,19.12Z" style="fill: #c7e8fa;"/>
        <path d="M388.1,148.39c-9.5,0-17.38-6.93-18.87-16.01-1.49,9.08-9.36,16.01-18.87,16.01-10.56,0-19.12-8.56-19.12-19.12h75.97c0,10.56-8.56,19.12-19.12,19.12Z" style="fill: #c7e8fa;"/>
        <path d="M312.13,148.39c-9.5,0-17.38-6.93-18.87-16.01-1.49,9.08-9.36,16.01-18.87,16.01-10.56,0-19.12-8.56-19.12-19.12h75.97c0,10.56-8.56,19.12-19.12,19.12Z" style="fill: #c7e8fa;"/>
        <path d="M236.16,148.39c-9.5,0-17.38-6.93-18.87-16.01-1.49,9.08-9.36,16.01-18.87,16.01-10.56,0-19.12-8.56-19.12-19.12h75.97c0,10.56-8.56,19.12-19.12,19.12Z" style="fill: #c7e8fa;"/>
        <path d="M160.19,148.39c-9.5,0-17.38-6.93-18.87-16.01-1.49,9.08-9.36,16.01-18.87,16.01-10.56,0-19.12-8.56-19.12-19.12h75.97c0,10.56-8.56,19.12-19.12,19.12Z" style="fill: #c7e8fa;"/>
      </g>
      <g>
        <path d="M74.99,115.37h485.96c2.25,0,4.07,1.82,4.07,4.07H70.93c0-2.25,1.82-4.07,4.07-4.07Z" style="fill: #e6f4fd;"/>
        <path d="M560.96,123.5H74.99c-2.25,0-4.07-1.82-4.07-4.07h494.1c0,2.25-1.82,4.07-4.07,4.07Z" style="fill: url(#_未命名漸層_25);"/>
      </g>
      <g>
        <path d="M39.84,0H472.05c2,0,3.62,1.82,3.62,4.07H36.22c0-2.25,1.62-4.07,3.62-4.07Z" style="fill: #e6f4fd;"/>
        <path d="M472.05,8.14H39.84c-2,0-3.62-1.82-3.62-4.07H475.67c0,2.25-1.62,4.07-3.62,4.07Z" style="fill: url(#_未命名漸層_25-2);"/>
      </g>
    </g>
  </g>
</svg>