<svg width="150" height="50" id="圖層_1" data-name="圖層 1" xmlns="http://www.w3.org/2000/svg" viewBox="0 0 150 50"><defs><style>.cls-1{fill:#1f487e;}</style></defs><path class="cls-1" d="M35.34,16.91h3.12v9a10.84,10.84,0,0,1-.28,2.53,6.31,6.31,0,0,1-.88,2.08,3.89,3.89,0,0,1-1.25,1.25,4.43,4.43,0,0,1-2.19.51,9.55,9.55,0,0,1-1.61-.15,3.28,3.28,0,0,1-1.46-.61,4.46,4.46,0,0,1-1.07-1.3,5.8,5.8,0,0,1-.67-1.74,13.37,13.37,0,0,1-.29-2.56v-9h3.12v9.22a3.44,3.44,0,0,0,.46,1.93,1.51,1.51,0,0,0,2.54,0,3.44,3.44,0,0,0,.46-1.94V16.92Z"/><path class="cls-1" d="M40.78,16.91H43.7l3.81,8.37V16.91h3V32h-3l-3.79-8.3V32H40.78Z"/><path class="cls-1" d="M52.22,27l3-.28a4.64,4.64,0,0,0,.39,1.65,1.5,1.5,0,0,0,1.38.92,1.22,1.22,0,0,0,1-.47,1.74,1.74,0,0,0,.36-1.09A1.68,1.68,0,0,0,58,26.71a3.38,3.38,0,0,0-1.6-.88A5.91,5.91,0,0,1,53.48,24a4.63,4.63,0,0,1-.88-2.92,5.45,5.45,0,0,1,.45-2.2,3.62,3.62,0,0,1,1.36-1.63,4.48,4.48,0,0,1,2.49-.59,3.88,3.88,0,0,1,3,1.08,5.57,5.57,0,0,1,1.21,3.43l-3,.26a3,3,0,0,0-.49-1.49,1.26,1.26,0,0,0-1-.46,1,1,0,0,0-.82.35,1.33,1.33,0,0,0-.28.84,1,1,0,0,0,.23.65,2.23,2.23,0,0,0,1.05.56,10.25,10.25,0,0,1,2.94,1.34A3.93,3.93,0,0,1,61,24.89a5.92,5.92,0,0,1,.4,2.24,6.58,6.58,0,0,1-.54,2.68,4.09,4.09,0,0,1-1.51,1.86,4.38,4.38,0,0,1-2.44.63c-1.72,0-2.91-.49-3.58-1.49A7.5,7.5,0,0,1,52.2,27Z"/><path class="cls-1" d="M62.5,16.91H72v3.73H68.82V32H65.69V20.64H62.5Z"/><path class="cls-1" d="M72.77,24.48a10.32,10.32,0,0,1,1.38-5.77A4.36,4.36,0,0,1,78,16.65a4.46,4.46,0,0,1,3.89,2,10.08,10.08,0,0,1,1.37,5.68,13.25,13.25,0,0,1-.6,4.35,5.87,5.87,0,0,1-1.73,2.64,4.22,4.22,0,0,1-2.81.94,4.73,4.73,0,0,1-2.83-.81,5.71,5.71,0,0,1-1.82-2.58,12,12,0,0,1-.7-4.41Zm3.13,0a7,7,0,0,0,.57,3.29,1.73,1.73,0,0,0,1.55,1,1.75,1.75,0,0,0,1.56-1,7.81,7.81,0,0,0,.55-3.52,6.37,6.37,0,0,0-.58-3.12,1.75,1.75,0,0,0-1.56-1,1.69,1.69,0,0,0-1.52,1,7.08,7.08,0,0,0-.57,3.31Z"/><path class="cls-1" d="M85.16,16.91h5.2a2.88,2.88,0,0,1,2.54,1.21,6,6,0,0,1,.85,3.43,6.2,6.2,0,0,1-.92,3.58A3.22,3.22,0,0,1,90,26.42H88.31V32H85.17V16.91Zm3.14,6.45h.77a1.53,1.53,0,0,0,1.27-.47,1.91,1.91,0,0,0,.37-1.2,2.18,2.18,0,0,0-.32-1.21A1.31,1.31,0,0,0,89.2,20h-.89v3.37Z"/><path class="cls-1" d="M95.6,16.91h5.2a2.88,2.88,0,0,1,2.54,1.21,6,6,0,0,1,.85,3.43,6.2,6.2,0,0,1-.92,3.58,3.22,3.22,0,0,1-2.81,1.29H98.75V32H95.61V16.91Zm3.14,6.45h.77a1.53,1.53,0,0,0,1.27-.47,1.91,1.91,0,0,0,.37-1.2,2.18,2.18,0,0,0-.32-1.21,1.31,1.31,0,0,0-1.19-.5h-.89v3.37Z"/><path class="cls-1" d="M111.08,29.54h-3.55L107,32h-3.19l3.81-15.12h3.41L114.87,32h-3.28Zm-.65-3.27-1.12-5.44-1.11,5.44h2.23Z"/><path class="cls-1" d="M116.09,16.91H122A2.6,2.6,0,0,1,124.2,18a4.47,4.47,0,0,1,.78,2.68,4.53,4.53,0,0,1-.56,2.3,2.61,2.61,0,0,1-1.09,1,2.85,2.85,0,0,1,1.61,1.35,5,5,0,0,1,.51,2.4,5.63,5.63,0,0,1-.37,2.11,3.69,3.69,0,0,1-1,1.49,2.48,2.48,0,0,1-1.19.49,9.09,9.09,0,0,1-1.4.21h-5.4Zm3.16,5.93h1.36a1.21,1.21,0,0,0,1-.38,1.77,1.77,0,0,0,.29-1.09,1.66,1.66,0,0,0-.29-1,1.18,1.18,0,0,0-1-.37h-1.38Zm0,5.94h1.6a1.34,1.34,0,0,0,1.14-.43,1.83,1.83,0,0,0,.33-1.15,1.66,1.66,0,0,0-.33-1.08,1.41,1.41,0,0,0-1.15-.41h-1.59v3.06Z"/><path class="cls-1" d="M127.31,16.91h3.13v11.4h4.88V32h-8Z"/><path class="cls-1" d="M137,16.91h8.38v3.23h-5.25v2.4H145v3.08h-4.87v3h5.4V32H137V16.9Z"/><path class="cls-1" d="M21.18,15.07h-2.4V25.74a3.64,3.64,0,0,1-3.85,3.85,3.64,3.64,0,0,1-3.85-3.85V15.07H9.18a4.68,4.68,0,0,0-4.67,4.67v11a4.68,4.68,0,0,0,4.67,4.67h12a4.68,4.68,0,0,0,4.67-4.67v-11a4.68,4.68,0,0,0-4.67-4.67Z"/><rect class="cls-1" x="14.01" y="14.61" width="1.83" height="11.13" rx="0.91"/></svg>