<svg width="150" height="50" id="圖層_1" data-name="圖層 1" xmlns="http://www.w3.org/2000/svg" viewBox="0 0 150 50"><defs><style>.cls-1{fill:#1f487e;}</style></defs><path class="cls-1" d="M8.93,35a6.67,6.67,0,0,0,1.16.2c-.27-.69-.42-1.16-.64-1.58a6.11,6.11,0,0,1,.5-6.81c.63-.89,1.27-1.78,2-2.63,2.31-2.85,2.08-5.28.26-8.78a1.31,1.31,0,0,0-.86-.66c-.6-.06-.44.53-.5.89a9.86,9.86,0,0,1-2.4,5.43,16.66,16.66,0,0,0-4.13,6.15,2.89,2.89,0,0,0-.21,1.33,3.8,3.8,0,0,0,.46,1.57S7.39,34.43,8.92,35Z"/><path class="cls-1" d="M96.65,28.53c.65-2.63,1.23-5,1.8-7.3a7.9,7.9,0,0,1,.2-.84c.2-.53.29-1.25,1.11-1.07,1.17.25,1.7.78,1.68,1.63a4.48,4.48,0,0,1-.23,1.19l-3,11.16c-.13.47,0,1.12-.77,1.16a2,2,0,0,1-2-.73A4.92,4.92,0,0,1,95,32.45c-.7-2.3-1.4-4.61-2.2-7.27-.81,2.7-1.52,5.05-2.22,7.4a2.62,2.62,0,0,1-.13.5c-.29.54-.06,1.46-1.16,1.4a1.82,1.82,0,0,1-2-1.35c-.31-.92-.53-1.88-.78-2.82Q85.19,25.14,83.86,20c-.06-.22-.06-.45-.11-.78.43,0,.82-.08,1.2-.06,1.38.09,1.78.43,2.12,1.81.48,1.95.93,3.91,1.4,5.86.12.5.28,1,.51,1.79L91.17,21a2.61,2.61,0,0,1,.24-.82c.27-.39.59-1,1-1a1.47,1.47,0,0,1,1.69.91,10.21,10.21,0,0,1,.32,1c.57,2,1.13,4,1.71,6,.12.42.29.82.55,1.53Z"/><path class="cls-1" d="M24.37,19.63a3.06,3.06,0,0,1,.41,1c0,1.44,0,2.87,0,4.56h6.11V19.61h2.72V34.2c-.13.06-.22.15-.32.16a2,2,0,0,1-2.37-2.3V27.69h-6c-.34,2.19.17,4.44-.33,6.73-.86-.21-1.71.36-2.32-.51V19.73l2.12-.1Z"/><path class="cls-1" d="M63.18,23a22,22,0,0,1,3.82,0,4.9,4.9,0,0,1,4.13,5v1c.14,5.19-5.32,6.55-8.29,4.74a4.41,4.41,0,0,1-2.4-3.58c-.12-3.67,0-7.35,0-11.12a9.32,9.32,0,0,1,1.09-.08c1.57,0,1.67.14,1.69,1.67,0,.86,0,1.72,0,2.32Zm5.14,5.75h0V28.1c-.06-1.79-.94-2.66-2.65-2.64s-2.45.89-2.49,2.6c0,.52,0,1,0,1.55a2.51,2.51,0,0,0,2.54,2.46,2.54,2.54,0,0,0,2.59-2.25,8.85,8.85,0,0,0,0-1Z"/><path class="cls-1" d="M58.33,28.92c.47,4.69-4.32,7.06-8,5.21A4.21,4.21,0,0,1,47.85,31a12.84,12.84,0,0,1-.13-3.76,5.13,5.13,0,0,1,5.83-4.19,5.07,5.07,0,0,1,4.79,5.15v.69Zm-2.8.12c0-.35,0-.69,0-1a2.5,2.5,0,0,0-2.38-2.47,2.54,2.54,0,0,0-2.75,2.28,11,11,0,0,0,0,2.07,2.45,2.45,0,0,0,3,2.3c1.59-.26,2.14-1.07,2.14-3.15Z"/><path class="cls-1" d="M108.49,26.72c-.35-1.57-.57-1.87-1.75-1.87s-2.61.18-4,.29v-2a11.85,11.85,0,0,1,5.42-.33,3.52,3.52,0,0,1,3.16,3.7c0,1.67,0,3.34,0,5A1.75,1.75,0,0,1,110,33.46a10.07,10.07,0,0,1-6.26,0,3.16,3.16,0,0,1-2.07-3.57A3.83,3.83,0,0,1,104.54,27l3.94-.3Zm0,1.87c-1.15.14-2.1.19-3,.39a1.4,1.4,0,0,0,.3,2.77c.88,0,1.77,0,2.72,0V28.58Z"/><path class="cls-1" d="M137.17,30.69c-1.07,2.34-2.46,3.42-5.43,3.17a4.67,4.67,0,0,1-4.22-3.48,6.52,6.52,0,0,1,.33-4.7,4.31,4.31,0,0,1,4.21-2.84c.56,0,1.14.1,1.7.15a4.19,4.19,0,0,1,3.53,3.51,8.08,8.08,0,0,1,.08.86c.11,1.68,0,1.78-1.62,1.78h-5.5c-.08,2.3,2.28,3,4,2.3.61-.26,1-.69,1.34-.75s0,0,1.56,0Zm-2.29-3.42c-.61-2-1.21-2.5-2.51-2.42s-2,.84-2.19,2.42Z"/><path class="cls-1" d="M15.5,22.69a7.49,7.49,0,0,1,2.33,6.8c-.31,2.75-2.24,4.28-4.39,5.63-1.85-1.58-2.31-3.38-1.41-6a13.77,13.77,0,0,1,1-2c.79-1.45,1.62-2.88,2.52-4.46Z"/><path class="cls-1" d="M115.73,31.05a.72.72,0,0,0,.45.45,5.29,5.29,0,0,0,1.27.33c1.58.13,1.59.1,1.6,1.74h0a.71.71,0,0,1-.71.69c-.71,0-1.39,0-2.07,0a3.32,3.32,0,0,1-3.1-2.48,2.53,2.53,0,0,1-.11-.66c0-3.56,0-7.12,0-10.83a.72.72,0,0,1,.75-.72l1,.05a.72.72,0,0,1,.68.72c0,3.22,0,6.45,0,9.67a3.17,3.17,0,0,0,.25,1Z"/><path class="cls-1" d="M73,23.51s.08-.1.12-.1c1.68-.15,2.52.59,2.52,2.21v8.72a15.29,15.29,0,0,1-1.59.07,1.13,1.13,0,0,1-1.23-1.3c0-3.1,0-6.2,0-9.3,0-.1.09-.2.14-.3Z"/><path class="cls-1" d="M141.83,22.7c1.31.15,4,.14,4.11.13v2.68c-1,0-1.93.08-2.89,0a1.19,1.19,0,0,0-1.2.7c0,1.37,0,2.74,0,4.11.09.24.18.48.26.72.46.94,1.34,1,2.19.9a1.49,1.49,0,0,1,1.62.83V34.5c-1,0-1.93,0-2.89-.08-1.59-.15-3-.61-3.58-2.37a4.49,4.49,0,0,1-.22-1c0-3.89,0-7.79,0-11.79,1,.06,1.67,0,2.62.07l0,3.35Z"/><path class="cls-1" d="M74.36,22.38a1.52,1.52,0,0,1-1.53-1.53,1.47,1.47,0,0,1,1.43-1.6A1.6,1.6,0,0,1,76,20.82a1.79,1.79,0,0,1-1.59,1.55Z"/><path class="cls-1" d="M24.37,19.63l-2.12.1V33.91a2.92,2.92,0,0,1-.24-.78q0-6.72,0-13.43a3.21,3.21,0,0,1,.15-.6c.76.16,1.66-.6,2.22.52Z"/><path class="cls-1" d="M45.82,24.34c0-.53,0-1-.68-1.2h-2c-.07.17-.15.27-.15.37,0,2.39,0,4.78,0,7.17-1,1.43-1.67,1.81-2.75,1.47s-1.47-1-1.48-2.76V24.56c0-.55.12-1.17-.62-1.41a3.4,3.4,0,0,0-2.23.17c.09,2.8.18,5.59.26,8.39A3.47,3.47,0,0,0,39,34.47c1.63.21,3.4.56,4.94-.53a4.29,4.29,0,0,0,1.84-3.55c.06-2,0-4,0-6.06Z"/><path class="cls-1" d="M141.87,30.33c.09.24.18.48.26.72C142,30.81,142,30.57,141.87,30.33Z"/><path class="cls-1" d="M123.39,31.05a.72.72,0,0,0,.45.45,5.29,5.29,0,0,0,1.27.33c1.58.13,1.59.1,1.6,1.74h0a.71.71,0,0,1-.71.69c-.71,0-1.39,0-2.07,0a3.32,3.32,0,0,1-3.1-2.48,2.53,2.53,0,0,1-.11-.66c0-3.56,0-7.12,0-10.83a.72.72,0,0,1,.75-.72l1,.05a.72.72,0,0,1,.68.72c0,3.22,0,6.45,0,9.67a3.17,3.17,0,0,0,.25,1Z"/></svg>