<svg width="150" height="50" id="圖層_1" data-name="圖層 1" xmlns="http://www.w3.org/2000/svg" viewBox="0 0 150 50"><defs><style>.cls-1{fill:#1f487e;}</style></defs><path class="cls-1" d="M21,41.91H9.68a5.38,5.38,0,0,1-5.6-5.57q0-11.46,0-22.93A5.33,5.33,0,0,1,9.51,8.13q11.51-.08,23,0a5.24,5.24,0,0,1,5.26,4.77,9.94,9.94,0,0,1,.11,1.33q0,10.88,0,21.76c0,3.16-1.77,5.36-4.67,5.86a6.37,6.37,0,0,1-1,.06H21Zm8.9-7.11A20.62,20.62,0,0,1,28,33.11a4.51,4.51,0,0,0-4.1-1.58c-1.67.14-3.36,0-5.18,0l2.25-3.32c-1.49,0-2.83,0-4.16,0a1.14,1.14,0,0,0-.82.38c-1.15,1.56-2.28,3.13-3.36,4.73-.61.91-.24,1.53.86,1.53h15.3c.28,0,.56,0,1.1-.09ZM12.26,15.16c1.76,2,3.35,3.89,6.23,3.26a3.47,3.47,0,0,1,.72,0h4.14L21,21.78c1.43,0,2.68,0,3.92,0A1.63,1.63,0,0,0,26,21.21c1.15-1.52,2.25-3.08,3.32-4.66.2-.29.42-.83.29-1a1.45,1.45,0,0,0-1.05-.42c-5.11,0-10.21,0-15.32,0-.26,0-.51,0-.93.07Z"/><path class="cls-1" d="M131.09,15.6c1.44,0,2.81,0,4.18,0a1.18,1.18,0,0,1,.76.59c1.83,3.11,3.62,6.23,5.43,9.35l.87,1.47V15.67h3.61V33.19c-1.24,0-2.46,0-3.67,0-.25,0-.56-.38-.72-.66-2.11-3.56-4.2-7.14-6.29-10.71-.15-.25-.31-.5-.59-.94V33.12H131.1V15.61Z"/><path class="cls-1" d="M126.09,24.39c0,5.27-3.76,9.1-8.87,9.09-5.63,0-9.32-3.65-9.3-9.19a8.82,8.82,0,0,1,9-9c5.41,0,9.16,3.7,9.15,9.08Zm-4.08,0a25,25,0,0,0-.49-2.61,4.51,4.51,0,0,0-4.1-3.3,4.56,4.56,0,0,0-4.76,2.76,7.67,7.67,0,0,0,0,6.24,4.74,4.74,0,0,0,7.48,1.64c1.4-1.24,1.68-2.95,1.81-4.74Z"/><path class="cls-1" d="M80.06,15.51c2.9.09,5.75,0,8.55.32,3.44.36,5.27,3.27,4.44,6.61C92.67,24,91.63,25,89.6,25.76l4.6,7.41c-1.45,0-2.76,0-4.08,0-.18,0-.38-.33-.52-.54-1.08-1.71-2.21-3.4-3.18-5.17a1.79,1.79,0,0,0-2.36-1v6.66h-4V15.52Zm4.07,8.15c1,0,2.05.07,3.05,0a2.25,2.25,0,0,0,2.11-2.17C89.4,20,89,19.1,87.81,18.88a32,32,0,0,0-3.68-.31v5.08Z"/><path class="cls-1" d="M74.76,15.65v3H67.31v4.09h5.94v3H67.31v4.34h7.83v3.08H63.35V15.65H74.76Z"/><path class="cls-1" d="M58.36,33.15h-14L53,18.79H45.6V15.7H58.91L50.46,30.07h7.89v3.08Z"/><path class="cls-1" d="M102.81,33.15H98.87V15.67h3.94Z"/></svg>