<?xml version="1.0" encoding="UTF-8"?>
<svg width="355.82" id="_圖層_2" data-name="圖層 2" xmlns="http://www.w3.org/2000/svg" xmlns:xlink="http://www.w3.org/1999/xlink" viewBox="0 0 355.82 124.95">
  <defs>
    <linearGradient id="_未命名漸層_36" data-name="未命名漸層 36" x1="177.91" y1="124.35" x2="177.91" y2="3.21" gradientUnits="userSpaceOnUse">
      <stop offset="0" stop-color="#fffde3" stop-opacity="0"/>
      <stop offset="1" stop-color="#fffde3"/>
    </linearGradient>
  </defs>
  <g id="_01首頁" data-name="01首頁">
    <path d="M26.63,124.95S-8.15,109.44,1.79,89.56c9.94-19.87,23.6-27.35,40.99-21.13,0,0,1.24-16.14,7.45-26.07,6.21-9.94,17.39,0,17.39,0,0,0-4.97-39.75,57.14-42.23,62.11-2.48,68.32,32.3,68.32,32.3,0,0,7.45-16.15,31.05-8.7s29.81,38.48,22.36,44.71c0,0,65.75-22.35,88.15,11.19,22.4,33.54,21.16,45.32,21.16,45.32H26.63Z" style="fill: url(#_未命名漸層_36);"/>
  </g>
</svg>