<?xml version="1.0" encoding="UTF-8"?>
<svg width="1008.85" height="1482.98" id="_圖層_1" data-name="圖層 1" xmlns="http://www.w3.org/2000/svg" viewBox="0 0 1008.85 1482.98">
  <path d="M578,54.21s306.37,23.94,306.37,151.09c0,376.46-759.67,430.86-759.67,1277.68h487.65s-557.71-308.77,.59-799.85C975.48,364.23,1112.89,88.4,578,54.21Z" style="fill: #1f487e;"/>
  <path d="M240.6,1066.36s-18.82-79.77-130.36-125.29c0,0,51.78,42.81,64.91,78.1,21.51,57.79,7.05,105.36,.29,137-6.46,30.24,65.16-89.81,65.16-89.81Z" style="fill: #1f487e;"/>
  <path d="M192.44,1005.78s-117.38-41.07-147.24-69.82c0,0,28.46,16.77,45.65,22.43,28.15,9.27,38.9,8.31,54.33,9.16,14.75,.81,47.25,38.23,47.25,38.23Z" style="fill: #1f487e;"/>
  <path d="M688.14,595.64s104.09-4.45,216.74-75.81c0,0-46.78,22.66-97.85,31.23-21.92,3.68-46.33,3.72-61.68,1.93-14.67-1.72-57.21,42.65-57.21,42.65Z" style="fill: #1f487e;"/>
  <path d="M782.58,569.44s125.32,83.03,226.27,61.97c0,0-43.42,9.23-129.79-26.95-21.34-8.94-54.15-28.53-68.13-36.7-13.37-7.81-28.36,1.68-28.36,1.68Z" style="fill: #1f487e;"/>
  <path d="M894.98,612.21s-8.4,56.46,60.4,78.43c0,0-29.74-9.41-42.03-42.69-3.04-8.22-2.68-22.43-2.68-28.44,0-5.74-15.68-7.3-15.68-7.3Z" style="fill: #1f487e;"/>
  <path d="M184.72,1120.58h0c-10.72-4.46-15.79-16.75-11.34-27.47l30.41-73.15c4.46-10.72,16.75-15.79,27.47-11.34h0c10.72,4.46,15.79,16.75,11.34,27.47l-30.41,73.15c-4.46,10.72-16.75,15.79-27.47,11.34Z" style="fill: #1f487e;"/>
  <path d="M450.3,1359.48h0c-10.05,5.8-22.9,2.36-28.7-7.69l-39.61-68.61c-5.8-10.05-2.36-22.9,7.69-28.7h0c10.05-5.8,22.9-2.36,28.7,7.69l39.61,68.61c5.8,10.05,2.36,22.9-7.69,28.7Z" style="fill: #1f487e;"/>
  <path d="M515.54,1237.81c49.42-28.16,111.07-83.93,181.88-190.28,0,0-31.2,151.67-260.69,292.46l-51.9-84.96s48.35,29.73,130.71-17.21" style="fill: #1f487e;"/>
  <path d="M453.9,1278.33s61-41.74,64.76-84l3.76-42.26s22.18,67.96-27.68,112.25l-40.84,14.02Z" style="fill: #1f487e;"/>
  <path d="M0,627.26s16.87,141.33,326.7,363.05l27.24-73.82S45.21,775.17,0,627.26Z" style="fill: #1f487e;"/>
  <path d="M868.99,130.88C917.93,114.85,986.69,59.82,1001.7,.12c0,0-10.12,84.51-113.05,149.92-22.38,14.22-4.53,9.24-26.81-10.14-6.2-5.39-.46-6.54,7.15-9.03Z" style="fill: #1f487e;"/>
  <g>
    <path d="M9.51,830.63s11.34-28.69,44.09-40.98c32.75-12.29,53.45,.55,53.45,.55,0,0-15.48,19.72-44.82,30.73-29.35,11.02-52.72,9.69-52.72,9.69Z" style="fill: #1f487e;"/>
    <path d="M84.96,858.54s-10.26-18.8-2.27-41.73c8-22.93,24.05-28.27,24.05-28.27,0,0,3.64,17.02-3.52,37.57s-18.26,32.43-18.26,32.43Z" style="fill: #1f487e;"/>
    <path d="M45.21,775.17s7.96-10.04,22.45-10.98,21.17,6.65,21.17,6.65c0,0-8.52,5.97-21.51,6.82-12.99,.85-22.12-2.49-22.12-2.49Z" style="fill: #1f487e;"/>
  </g>
  <g>
    <path d="M711.73,358.62s30.83,1.02,53.44,27.72c22.6,26.7,17.48,50.52,17.48,50.52,0,0-23.78-7.93-44.03-31.86-20.26-23.92-26.88-46.38-26.88-46.38Z" style="fill: #1f487e;"/>
    <path d="M710.85,439.06s14.25-15.99,38.53-16.19c24.29-.19,34.71,13.13,34.71,13.13,0,0-14.8,9.16-36.56,9.33s-36.69-6.27-36.69-6.27Z" style="fill: #1f487e;"/>
    <path d="M776.08,379.05s12.13,4.12,17.9,17.44,.87,22.18,.87,22.18c0,0-8.49-6.01-13.66-17.96-5.17-11.94-5.1-21.66-5.1-21.66Z" style="fill: #1f487e;"/>
  </g>
  <g>
    <path d="M909.56,191.64s4.16-32.09,34.65-30.72c30.49,1.37,61.21,18.67,61.21,18.67,0,0-27.3,24.49-95.86,12.06Z" style="fill: #1f487e;"/>
    <path d="M961.48,216.87s-38.42-2.01-46.54-22.16c-8.11-20.15,23.55,16.11,46.54,22.16Z" style="fill: #1f487e;"/>
    <path d="M946.79,132.8s2.26,19-12,35.36c-14.26,16.36-29.35,15.44-29.35,15.44,0,0,2.64-15.32,15.42-29.98,12.78-14.66,25.93-20.82,25.93-20.82Z" style="fill: #1f487e;"/>
  </g>
  <g>
    <g>
      <polygon points="839.93 101.77 832.82 104.87 805.55 66.51 812.67 63.41 839.93 101.77" style="fill: #1f487e;"/>
      <polygon points="841.85 101.36 833.29 101.99 826.98 60.69 835.54 60.07 841.85 101.36" style="fill: #1f487e;"/>
      <polygon points="916.08 96.92 908.58 93.23 933.87 57.98 941.36 61.67 916.08 96.92" style="fill: #1f487e;"/>
      <polygon points="870.25 94.41 861.92 96.02 848.5 55.67 856.82 54.06 870.25 94.41" style="fill: #1f487e;"/>
      <polygon points="873.98 93.88 866.29 90.49 889.35 54.2 897.05 57.59 873.98 93.88" style="fill: #1f487e;"/>
      <polygon points="919.79 86.42 915.67 80.14 960.5 61.67 964.61 67.95 919.79 86.42" style="fill: #1f487e;"/>
      <polygon points="842.4 93.99 839.12 101.27 794.44 91.42 797.71 84.14 842.4 93.99" style="fill: #1f487e;"/>
      <polygon points="813.62 104.04 816.75 90.29 875.72 101.19 872.59 114.94 813.62 104.04" style="fill: #1f487e;"/>
      <polygon points="787.34 74.17 792.91 68.97 831.89 96.78 826.33 101.99 787.34 74.17" style="fill: #1f487e;"/>
      <polygon points="857.46 120.51 855.95 113.48 905.87 109.38 907.39 116.41 857.46 120.51" style="fill: #1f487e;"/>
      <polyline points="938.39 89.97 901.73 105.08 897.62 98.8 942.44 80.33 946.55 86.61 938.39 89.97" style="fill: #1f487e;"/>
      <polygon points="903.28 99.28 900.97 92.14 949.07 86.13 951.38 93.27 903.28 99.28" style="fill: #1f487e;"/>
      <polygon points="846.78 101.16 837.81 104.86 803.81 52.93 812.79 49.23 846.78 101.16" style="fill: #1f487e;"/>
      <path d="M834.09,68.54l-32.27,15.72,36.7,17.43,32.14,12.29,60.3-13.78,9.19-23.43s-54.15-17.27-106.05-8.23Z" style="fill: #1f487e;"/>
    </g>
    <path d="M929.35,47.11c-2.02,22.13-7.56,43.12-31.5,40.93-22.71-2.07-25.59-23.84-23.57-45.96,2.02-22.13,17.84-43.28,31.6-42.03,13.79,1.26,25.49,24.93,23.47,47.06Z" style="fill: #1f487e;"/>
    <path d="M880.03,48.49c6.26,21.32,8.83,42.88-14.24,49.65-21.88,6.42-32.56-12.75-38.82-34.07-6.26-21.32,.67-46.81,13.93-50.71,13.28-3.9,32.87,13.81,39.13,35.13Z" style="fill: #1f487e;"/>
  </g>
  <g>
    <path d="M298.59,1112.59s-13.94,79.13-6.12,132.6c5.69,38.87,5.72,30.21,5.72,30.21" style="fill: none; opacity: .3; stroke: #e4f1fa; stroke-linecap: round; stroke-miterlimit: 10; stroke-width: 5px;"/>
    <path d="M339.97,1331.25s36.73,70.91,63.67,96.91" style="fill: none; opacity: .3; stroke: #e4f1fa; stroke-linecap: round; stroke-miterlimit: 10; stroke-width: 5px;"/>
    <path d="M296.46,948.12s-41.12,68.46-49.13,105.03" style="fill: none; opacity: .3; stroke: #e4f1fa; stroke-linecap: round; stroke-miterlimit: 10; stroke-width: 5px;"/>
    <path d="M287.21,1001.36s-31.8,73.25-34.95,110.56" style="fill: none; opacity: .3; stroke: #e4f1fa; stroke-linecap: round; stroke-miterlimit: 10; stroke-width: 5px;"/>
    <path d="M429.69,849.72s-26.05,15.2-43.05,51.56" style="fill: none; opacity: .3; stroke: #e4f1fa; stroke-linecap: round; stroke-miterlimit: 10; stroke-width: 5px;"/>
    <g style="opacity: .3;">
      <path d="M228.23,1191.08c-4,15.98-6.42,32.36-7.44,48.8s-.61,33.17,1.29,49.63c.94,8.22,2.23,16.4,3.93,24.49,1.5,7.17,3.26,14.36,6.58,20.94,2.5,4.94,6.63,10.54,12.74,10.59,6.56,.05,10.86-6.3,13.31-11.6,3.15-6.81,4.8-14.24,5.99-21.62s1.84-15.24,1.86-22.92c.03-15.13-2.12-30.46-6.92-44.83-1.14-3.42-2.45-6.79-3.91-10.09s-3.22-6.98-5.94-9.63c-2.46-2.41-5.99-3.67-9.15-1.75-2.89,1.76-4.34,5.21-5.26,8.31-1.09,3.68-1.55,7.54-1.99,11.33-.48,4.1-.78,8.23-.9,12.36-.24,8.16,.22,16.32,1.31,24.41s2.77,15.77,5.24,23.38c1.15,3.53,2.28,7.47,4.83,10.28,2.34,2.58,6.08,2.77,8.41,.07s2.98-6.32,3.45-9.64c.57-4.12,.94-8.27,1.04-12.43,.21-8.3-.51-16.64-2.16-24.78-.77-3.79-1.76-7.53-2.98-11.2-1.01-3.04-5.84-1.74-4.82,1.33,4.77,14.36,6.05,29.85,4.21,44.85-.33,2.71-.63,6.28-2.4,8.5,.08-.11-.28,.26-.34,.33,.18-.22-.3,.12,.04,0-.26,.09-.06,.16-.35,.05,.37,.14,.02-.05,0-.09-.26-.33-.72-.72-1.01-1.15-.46-.7-.85-1.45-1.2-2.22-1.44-3.17-2.39-6.64-3.32-9.98-1.01-3.58-1.85-7.2-2.55-10.86-2.82-14.77-3.24-30.11-1.28-45.02,.44-3.32,.96-6.69,2.13-9.85,.43-1.17,1.05-2.33,1.83-3.21,.55-.62,1.23-.93,1.91-.72,2.55,.77,4.38,4.5,5.52,6.76,1.42,2.84,2.62,5.8,3.71,8.77,4.78,13.03,7.22,26.89,7.75,40.75s-.64,28.4-4.76,41.78c-.96,3.12-2.14,6.19-3.77,9.03-1.23,2.15-2.81,4.35-4.88,5.54-.9,.51-1.67,.73-2.64,.72-.86,0-1.5-.19-2.26-.59-1.94-1.03-3.46-2.91-4.71-4.93-3.34-5.37-5.12-11.65-6.53-17.77-1.71-7.44-3.07-14.97-4.11-22.54-2.07-15.19-2.81-30.57-2.34-45.89s2.14-30.56,5.2-45.56c.74-3.63,1.56-7.25,2.47-10.84,.78-3.12-4.04-4.45-4.82-1.33h0Z" style="fill: #e4f1fa;"/>
    </g>
    <g style="opacity: .3;">
      <path d="M307.53,1310.24c7.62,16.17,15.24,32.34,22.86,48.52,.58,1.22,2.33,1.54,3.42,.9,1.25-.73,1.47-2.19,.9-3.42-7.62-16.17-15.24-32.34-22.86-48.52-.58-1.22-2.33-1.54-3.42-.9-1.25,.73-1.47,2.19-.9,3.42h0Z" style="fill: #e4f1fa;"/>
    </g>
  </g>
</svg>