<?xml version="1.0" encoding="UTF-8"?>
<svg width="49.5027" height="43.3391" id="_圖層_2" data-name="圖層 2" xmlns="http://www.w3.org/2000/svg" viewBox="0 0 49.5 43.83">
  <g id="_01首頁" data-name="01首頁">
    <g>
      <polyline points="16.61 32.87 16.61 42.78 12.4 43.34" style="fill: none; stroke: #fad1b0; stroke-miterlimit: 10;"/>
      <path d="M10.44,.4c11.31-2.46,16.25,6.78,22.6,19.2,6.35,12.42,16.46,5.2,16.46,5.2,0,0-8.53,11.98-29.03,11.98S-2.7,3.26,10.44,.4Z" style="fill: #fffde3;"/>
      <path d="M4.84,9.47L0,11.23l4.7,1.93c.68,.28,1.47,.11,1.98-.42l.74-.77c.41-.43,.48-1.09,.15-1.6h0c-.59-.9-1.72-1.28-2.73-.91Z" style="fill: #fad1b0;"/>
      <path d="M12.4,9.33c0,.54-.44,.98-.98,.98s-.98-.44-.98-.98,.44-.98,.98-.98,.98,.44,.98,.98Z" style="fill: #fad1b0;"/>
      <polyline points="25.09 32.87 25.09 42.78 20.87 43.34" style="fill: none; stroke: #fad1b0; stroke-miterlimit: 10;"/>
      <path d="M15.48,17.68s3.04,11.25,11.18,11.71c8.14,.46,9.51-2.52,9.51-2.52" style="fill: #fad1b0;"/>
    </g>
  </g>
</svg>