<svg id="圖層_1" data-name="圖層 1" xmlns="http://www.w3.org/2000/svg" xmlns:xlink="http://www.w3.org/1999/xlink" viewBox="0 0 942.88 384.28"><defs><style>.cls-1{fill:url(#未命名漸層_73);}.cls-2{fill:url(#未命名漸層_73-2);}.cls-3{fill:url(#未命名漸層_73-3);}.cls-4{fill:#fffde3;}.cls-5{fill:url(#未命名漸層_73-4);}.cls-6{fill:url(#未命名漸層_73-5);}.cls-7{fill:url(#未命名漸層_3);}.cls-8{fill:url(#未命名漸層_2);}.cls-9{fill:url(#未命名漸層_73-6);}.cls-10{fill:url(#未命名漸層_73-7);}.cls-11{fill:url(#未命名漸層_73-8);}.cls-12{fill:url(#未命名漸層_73-9);}.cls-13{fill:url(#未命名漸層_73-10);}.cls-14{fill:url(#未命名漸層_73-11);}</style><linearGradient id="未命名漸層_73" x1="42.86" y1="67.57" x2="42.86" y2="358.67" gradientUnits="userSpaceOnUse"><stop offset="0" stop-color="#9bd1f0"/><stop offset="1" stop-color="#c7e8fa"/><stop offset="1" stop-color="#b8e2f9"/></linearGradient><linearGradient id="未命名漸層_73-2" x1="76.13" y1="67.57" x2="76.13" y2="354.15" xlink:href="#未命名漸層_73"/><linearGradient id="未命名漸層_73-3" x1="109.39" y1="67.57" x2="109.39" y2="355.5" xlink:href="#未命名漸層_73"/><linearGradient id="未命名漸層_73-4" x1="209.17" y1="67.57" x2="209.17" y2="353.72" xlink:href="#未命名漸層_73"/><linearGradient id="未命名漸層_73-5" x1="741.35" y1="67.57" x2="741.35" y2="353.26" xlink:href="#未命名漸層_73"/><linearGradient id="未命名漸層_3" x1="475.26" y1="67.57" x2="475.26" y2="353.71" gradientUnits="userSpaceOnUse"><stop offset="0" stop-color="#9bd1f0"/><stop offset="1" stop-color="#b8e2f9"/></linearGradient><linearGradient id="未命名漸層_2" x1="342.21" y1="67.57" x2="342.21" y2="354.6" gradientUnits="userSpaceOnUse"><stop offset="0" stop-color="#9bd1f0"/><stop offset="1" stop-color="#c7e8fa"/></linearGradient><linearGradient id="未命名漸層_73-6" x1="674.82" y1="67.57" x2="674.82" y2="355.48" xlink:href="#未命名漸層_73"/><linearGradient id="未命名漸層_73-7" x1="841.13" y1="67.57" x2="841.13" y2="354.59" xlink:href="#未命名漸層_73"/><linearGradient id="未命名漸層_73-8" x1="774.61" y1="67.57" x2="774.61" y2="353.26" xlink:href="#未命名漸層_73"/><linearGradient id="未命名漸層_73-9" x1="508.52" y1="67.57" x2="508.52" y2="354.15" xlink:href="#未命名漸層_73"/><linearGradient id="未命名漸層_73-10" x1="641.56" y1="67.57" x2="641.56" y2="354.17" xlink:href="#未命名漸層_73"/><linearGradient id="未命名漸層_73-11" x1="907.65" y1="67.57" x2="907.65" y2="353.71" xlink:href="#未命名漸層_73"/></defs><path class="cls-1" d="M42.86,68.33h0A14.34,14.34,0,0,0,28.52,82.67V336.35a14.34,14.34,0,0,0,14.34,14.34h0a14.34,14.34,0,0,0,14.35-14.34V82.67A14.34,14.34,0,0,0,42.86,68.33Z"/><rect class="cls-2" x="61.78" y="148.86" width="28.68" height="201.83" rx="14.34"/><path class="cls-3" d="M109.39,311.85h0a14.34,14.34,0,0,0-14.34,14.34v10.16a14.34,14.34,0,0,0,14.34,14.34h0a14.34,14.34,0,0,0,14.34-14.34V326.19A14.34,14.34,0,0,0,109.39,311.85Z"/><path class="cls-4" d="M608.3,107.88h0A14.34,14.34,0,0,0,594,122.22V336.35a14.34,14.34,0,0,0,14.34,14.34h0a14.34,14.34,0,0,0,14.34-14.34V122.22A14.34,14.34,0,0,0,608.3,107.88Z"/><path class="cls-4" d="M442,10.8h0a14.35,14.35,0,0,0-14.34,14.35v311.2A14.34,14.34,0,0,0,442,350.69h0a14.34,14.34,0,0,0,14.34-14.34V25.15A14.35,14.35,0,0,0,442,10.8Z"/><path class="cls-4" d="M375.48,119h0a14.35,14.35,0,0,0-14.35,14.35v203a14.34,14.34,0,0,0,14.35,14.34h0a14.34,14.34,0,0,0,14.34-14.34v-203A14.35,14.35,0,0,0,375.48,119Z"/><rect class="cls-4" x="294.61" y="171.6" width="28.68" height="179.1" rx="14.34"/><path class="cls-4" d="M275.69,224.45h0a14.34,14.34,0,0,0-14.34,14.34v97.56a14.34,14.34,0,0,0,14.34,14.34h0A14.34,14.34,0,0,0,290,336.35V238.79A14.34,14.34,0,0,0,275.69,224.45Z"/><rect class="cls-4" x="228.09" y="239.17" width="28.68" height="111.52" rx="14.34"/><path class="cls-5" d="M209.17,294.93h0a14.34,14.34,0,0,0-14.34,14.34v27.08a14.34,14.34,0,0,0,14.34,14.34h0a14.34,14.34,0,0,0,14.34-14.34V309.27A14.34,14.34,0,0,0,209.17,294.93Z"/><path class="cls-4" d="M175.91,267.76h0a14.34,14.34,0,0,0-14.34,14.34v54.25a14.34,14.34,0,0,0,14.34,14.34h0a14.34,14.34,0,0,0,14.34-14.34V282.1A14.34,14.34,0,0,0,175.91,267.76Z"/><path class="cls-4" d="M142.65,245.73h0a14.34,14.34,0,0,0-14.34,14.34v76.28a14.34,14.34,0,0,0,14.34,14.34h0A14.34,14.34,0,0,0,157,336.35V260.07A14.34,14.34,0,0,0,142.65,245.73Z"/><path class="cls-6" d="M741.35,180.75h0A14.34,14.34,0,0,0,727,195.09V336.35a14.34,14.34,0,0,0,14.34,14.34h0a14.34,14.34,0,0,0,14.34-14.34V195.09A14.34,14.34,0,0,0,741.35,180.75Z"/><rect class="cls-7" x="460.92" y="158.74" width="28.68" height="191.95" rx="14.34"/><path class="cls-4" d="M408.74,95.26h0a14.35,14.35,0,0,0-14.35,14.34V336.35a14.35,14.35,0,0,0,14.35,14.34h0a14.34,14.34,0,0,0,14.34-14.34V109.6A14.34,14.34,0,0,0,408.74,95.26Z"/><path class="cls-8" d="M342.21,224.45h0a14.34,14.34,0,0,0-14.34,14.34v97.56a14.34,14.34,0,0,0,14.34,14.34h0a14.35,14.35,0,0,0,14.35-14.34V238.79A14.35,14.35,0,0,0,342.21,224.45Z"/><path class="cls-4" d="M807.87,224.45h0a14.34,14.34,0,0,0-14.34,14.34v97.56a14.34,14.34,0,0,0,14.34,14.34h0a14.34,14.34,0,0,0,14.34-14.34V238.79A14.34,14.34,0,0,0,807.87,224.45Z"/><rect class="cls-4" x="527.44" y="224.45" width="28.68" height="126.24" rx="14.34"/><path class="cls-9" d="M674.82,261.14h0a14.34,14.34,0,0,0-14.34,14.35v60.86a14.34,14.34,0,0,0,14.34,14.34h0a14.34,14.34,0,0,0,14.35-14.34V275.49A14.34,14.34,0,0,0,674.82,261.14Z"/><path class="cls-10" d="M841.13,322h0a14.34,14.34,0,0,0-14.34,14.34h0a14.34,14.34,0,0,0,14.34,14.34h0a14.34,14.34,0,0,0,14.34-14.34h0A14.34,14.34,0,0,0,841.13,322Z"/><path class="cls-4" d="M575,203.26h0A14.34,14.34,0,0,0,560.7,217.6V336.35A14.34,14.34,0,0,0,575,350.69h0a14.34,14.34,0,0,0,14.34-14.34V217.6A14.34,14.34,0,0,0,575,203.26Z"/><path class="cls-4" d="M708.09,144.56h0a14.35,14.35,0,0,0-14.35,14.34V336.35a14.35,14.35,0,0,0,14.35,14.34h0a14.34,14.34,0,0,0,14.34-14.34V158.9A14.34,14.34,0,0,0,708.09,144.56Z"/><rect class="cls-11" x="760.27" y="287.57" width="28.68" height="63.12" rx="14.34"/><path class="cls-12" d="M508.52,274.76h0a14.34,14.34,0,0,0-14.34,14.35v47.24a14.34,14.34,0,0,0,14.34,14.34h0a14.34,14.34,0,0,0,14.34-14.34V289.11A14.34,14.34,0,0,0,508.52,274.76Z"/><path class="cls-13" d="M641.56,249.78h0a14.34,14.34,0,0,0-14.34,14.34v72.23a14.34,14.34,0,0,0,14.34,14.34h0a14.35,14.35,0,0,0,14.35-14.34V264.12A14.35,14.35,0,0,0,641.56,249.78Z"/><path class="cls-4" d="M874.39,224.45h0a14.34,14.34,0,0,0-14.34,14.34v97.56a14.34,14.34,0,0,0,14.34,14.34h0a14.34,14.34,0,0,0,14.34-14.34V238.79A14.34,14.34,0,0,0,874.39,224.45Z"/><path class="cls-14" d="M907.65,292.94h0a14.34,14.34,0,0,0-14.34,14.34v29.07a14.34,14.34,0,0,0,14.34,14.34h0A14.34,14.34,0,0,0,922,336.35V307.28A14.34,14.34,0,0,0,907.65,292.94Z"/></svg>