<?xml version="1.0" encoding="utf-8"?>
<!-- Generator: Adobe Illustrator 27.0.0, SVG Export Plug-In . SVG Version: 6.00 Build 0)  -->
<svg version="1.1" id="圖層_1" xmlns="http://www.w3.org/2000/svg" xmlns:xlink="http://www.w3.org/1999/xlink" x="0px" y="0px"
	 viewBox="0 0 1920 520.7" style="enable-background:new 0 0 1920 520.7;" xml:space="preserve">
<style type="text/css">
	.st0{fill:url(#SVGID_1_);}
</style>
<linearGradient id="SVGID_1_" gradientUnits="userSpaceOnUse" x1="960" y1="561.2188" x2="960" y2="-90.1623">
	<stop  offset="0.2221" style="stop-color:#9BD1F0"/>
	<stop  offset="0.3502" style="stop-color:#A7D7F3"/>
	<stop  offset="0.5701" style="stop-color:#C4E7FA"/>
	<stop  offset="0.5902" style="stop-color:#C7E8FA"/>
</linearGradient>
<path class="st0" d="M1807.7,82.5c-31.7-10.1-66.4-15.7-102.8-15.7c-39,0-76.1,6.4-109.6,18C1575.9,35,1529.1,0,1474.4,0
	c-44.5,0-83.8,23.2-107.4,58.7c-66.3-29.9-151-47.8-243.2-47.8c-108,0-205.7,24.6-275.5,64.1c-38.7-13.2-82-20.6-127.8-20.6
	c-91.4,0-173.2,29.6-227.6,76.1c-20-13-43.6-20.5-69-20.5c-34.8,0-66.4,14.2-89.8,37.3c-43.5-27.6-106.4-44.9-176.3-44.9
	c-4.9,0-9.8,0.1-14.6,0.3C106.8,73.5,57.6,49.7,0,33.7v487h1920V34.3C1877.3,46.4,1839.2,62.8,1807.7,82.5z"/>
</svg>
