<svg width="150" height="50" id="圖層_1" data-name="圖層 1" xmlns="http://www.w3.org/2000/svg" viewBox="0 0 150 50"><defs><style>.cls-1{fill:#1f487e;fill-rule:evenodd;}</style></defs><path class="cls-1" d="M120.19,4.71h-5.67V36.27h5.67ZM28.68,21.49l3.47-1.32a.2.2,0,0,1,.23.29l-10.3,17a.56.56,0,0,1-.48.27H14.86a.59.59,0,0,1-.48-.27l-10.27-17a.2.2,0,0,1,.24-.29L7.8,21.5A.18.18,0,0,0,8,21.27l-3.87-9.4a.17.17,0,0,1,.22-.23l7.36,2.58a.49.49,0,0,1,.31.3l5,12.59a.2.2,0,0,1-.25.26l-3.12-1.14a.2.2,0,0,0-.24.29L18,34.3a.25.25,0,0,0,.44,0l4.58-7.78a.2.2,0,0,0-.24-.29l-3.12,1.14a.2.2,0,0,1-.25-.26l5-12.6a.54.54,0,0,1,.31-.3l7.36-2.58a.17.17,0,0,1,.22.23l-3.87,9.4a.18.18,0,0,0,.23.23Zm50.65-6.74a10.29,10.29,0,0,1,3.39,2.32A11.24,11.24,0,0,1,85,20.68a12.18,12.18,0,0,1,.85,4.62,4.57,4.57,0,0,1,0,.75,2.51,2.51,0,0,1,0,.27h0l-.06.44,0,.25q0,.25-.06.48H70.15a5.22,5.22,0,0,0,1.65,2.76,5,5,0,0,0,3.44,1.12,6.18,6.18,0,0,0,1.86-.24,5.65,5.65,0,0,0,1.28-.58,4.55,4.55,0,0,0,1-.87h5.81a10.24,10.24,0,0,1-1.33,2.52,10.79,10.79,0,0,1-2.18,2.25,11.55,11.55,0,0,1-2.91,1.62,9.64,9.64,0,0,1-3.51.63A10.3,10.3,0,0,1,71,35.8a11.54,11.54,0,0,1-6-6,11.35,11.35,0,0,1,0-8.86,11.74,11.74,0,0,1,2.42-3.61A11.43,11.43,0,0,1,71,14.84a10.36,10.36,0,0,1,4.28-.9,10.16,10.16,0,0,1,4.11.82Zm-7.68,5.76a5.72,5.72,0,0,0-1.77,3.1H80.53a5.69,5.69,0,0,0-1.77-3.1,5.66,5.66,0,0,0-7.12,0ZM52.41,32.12H51.6L46.42,13.91h-6l7.12,22.36h9l7.12-22.36h-6L52.43,32.12ZM95.66,16.84c.72-1.53,2.52-3.29,6.53-3.29,5.22,0,8.69,3.83,8.69,9.38V36.28h-5.67V23.38c0-3.38-1.71-5.05-4.78-5.05-3.47,0-5.5,2.43-5.5,6.58V36.27H89.26V13.91h5.59v2.93Zm44.6,8.43V13.91h5.67V40.24a4.71,4.71,0,0,1-5,5H126.92v-5h12.17c.81,0,1.26-.45,1.26-1.35V33.34h-.81c-.72,1.53-2.52,3.29-6.53,3.29-5.22,0-8.69-3.83-8.69-9.38V13.9H130V26.8c0,3.38,1.71,5.05,4.78,5.05,3.47,0,5.5-2.43,5.5-6.58Z"/></svg>