<svg width="150" height="50" id="圖層_1" data-name="圖層 1" xmlns="http://www.w3.org/2000/svg" viewBox="0 0 150 50"><defs><style>.cls-1{fill:#1f487e;}</style></defs><polygon class="cls-1" points="36.48 16.27 20.65 25.38 20.65 43.62 20.66 43.63 36.49 34.48 36.49 16.27 36.48 16.27"/><polygon class="cls-1" points="4.13 16.23 4.06 16.27 4.06 34.48 19.89 43.62 19.89 25.38 4.13 16.23"/><polygon class="cls-1" points="36.11 15.51 20.28 6.37 4.51 15.47 20.27 24.62 36.11 15.51"/><path class="cls-1" d="M145.92,33.25a2.22,2.22,0,0,1-2.49-.19L139,28.87v3.76c0,.74-.14.87-.85.88s-.87-.14-.87-.86V17.94c0-.85.14-1,.85-1s.88.16.88,1v9.51c.24-.17.41-.28.56-.4,1.1-.9,2.2-1.78,3.28-2.7a2.44,2.44,0,0,1,2-.3c.4,0,.39.47,0,.82-1.23,1-2.48,2-3.71,3l-.45.38,5.27,4.8v.26Z"/><path class="cls-1" d="M109.09,25l.43.26a4,4,0,0,1,2.25,4,4.23,4.23,0,0,1-3,3.81,7,7,0,0,1-2.13.38c-1.65.06-3.3,0-5,0-.83,0-1-.12-1-.91V17.84c0-.76.15-.92.9-.91,1.82,0,3.65,0,5.46.1a4.29,4.29,0,0,1,2.24,7.87l-.24.15Zm-6.44,1.14V31.8h4a2.87,2.87,0,0,0,3-2.55,2.68,2.68,0,0,0-2.36-3,36.09,36.09,0,0,0-4.66,0Zm0-1.92c1.43,0,2.78,0,4.12,0a2.62,2.62,0,0,0,2.37-2.85,2.51,2.51,0,0,0-2.53-2.66c-1.16,0-2.31,0-3.47,0a2.94,2.94,0,0,0-.49.08v5.44Z"/><path class="cls-1" d="M54.65,30.88V27.75H52.46c-.79,0-.88-.12-.88-1s.07-.87.89-.87c1.16,0,2.32,0,3.48,0,.49,0,.71.21.7.69,0,1.63,0,3.26,0,4.88a1.12,1.12,0,0,1-.46.84c-3.26,1.78-7.86,2.24-11.17-.6a8.5,8.5,0,0,1,4.87-14.93,8.25,8.25,0,0,1,6,1.8c.79.62.8.77.07,1.49l-.58.53c-2-1.65-4.15-2.63-6.76-1.78a6.34,6.34,0,0,0-3.4,2.62A7,7,0,0,0,46,30c2.36,2.5,6.36,2.22,8.63.94Z"/><path class="cls-1" d="M86.53,35.24c-2.07-1.19-2.09-2.8-.07-5A4.38,4.38,0,0,1,86,26.78a3.92,3.92,0,0,1,3.83-3c1.24,0,2.49,0,3.74,0,.43,0,.76.11.81.61s-.14.82-.7.86a2.9,2.9,0,0,0-.61.16c1.13,2.21,1.06,3.93-.21,5.38s-2.94,1.57-5.23.75c-.73.38-1,.91-.9,1.52s.61.85,1.42.85h3.41a3.14,3.14,0,0,1,3.14,1.91,3.35,3.35,0,0,1-1.09,3.7,6.2,6.2,0,0,1-6.65.58c-1.92-1.14-2.11-3.55-.49-4.65,0,0,.07-.1.11-.17Zm3.34-4.8a2.32,2.32,0,0,0,2.29-2.56,2.37,2.37,0,0,0-2.32-2.56,2.46,2.46,0,0,0-2.39,2.59,2.38,2.38,0,0,0,2.42,2.53Zm.25,5v0c-.41,0-.82,0-1.22,0a2,2,0,0,0-1.7,1.36,1.6,1.6,0,0,0,1,1.88,4.12,4.12,0,0,0,1.41.39,3.54,3.54,0,0,0,2.88-1,1.55,1.55,0,0,0,.41-1.6,1.36,1.36,0,0,0-1.23-1c-.51-.05-1-.07-1.54-.1Z"/><path class="cls-1" d="M126.24,28.72a4.82,4.82,0,0,1-4.7,5,5,5,0,1,1,4.7-5Zm-1.73,0a3,3,0,0,0-3.91-3.15,3.08,3.08,0,0,0-2.06,2.92,3.16,3.16,0,0,0,3.19,3.55,3.21,3.21,0,0,0,2.78-3.32Z"/><path class="cls-1" d="M76.78,24.72a20.22,20.22,0,0,1,2.73-.9A3.3,3.3,0,0,1,83.69,27c.13,1.94.09,3.89.12,5.84,0,.65-.44.73-1,.73s-.85-.2-.84-.79q0-2.28,0-4.56c0-2.46-1.52-3.37-3.75-2.3a1.85,1.85,0,0,0-1.27,2c.12,1.58,0,3.17,0,4.75,0,.71-.17.87-.87.88s-.86-.12-.86-.86V25c0-.4-.09-.85.49-1a.76.76,0,0,1,1,.71s0,.07,0,0Z"/><path class="cls-1" d="M134.49,26.71c-.11-.09-.26-.18-.38-.29a2.93,2.93,0,0,0-3.42-.63A3.31,3.31,0,0,0,129,29.12a3.15,3.15,0,0,0,2.09,2.77,2.82,2.82,0,0,0,3.2-.88.74.74,0,0,1,1.21,0c.43.37.25.7,0,1.06-1.88,2.58-6.15,2.12-7.72-.84a5,5,0,0,1,4-7.44,4,4,0,0,1,3.14,1.06c.94.85.84,1.38-.4,1.91Z"/><path class="cls-1" d="M113.43,25.19V17.88c0-.76.18-.95.87-1s.91.18.91.92V32.59c0,.76-.17.91-.91.91s-.87-.17-.87-.94V25.18Z"/><path class="cls-1" d="M61.21,24.17c1.1-.42,1.51-.26,1.9.63.85,2,1.71,3.92,2.63,6,.17-.33.28-.53.38-.75l2.48-5.36c.38-.82.77-1,1.74-.54a5.3,5.3,0,0,1-.18.74c-1.24,2.75-2.48,5.5-3.75,8.23a1,1,0,0,1-.68.51c-.19,0-.5-.29-.61-.52-1.26-2.74-2.49-5.49-3.72-8.25a3.9,3.9,0,0,1-.18-.73Z"/><path class="cls-1" d="M58.54,28.73V24.82c0-.59.24-.85.85-.85s1,.16,1,.82v8c0,.63-.34.79-.91.79s-.89-.2-.88-.82c0-1.32,0-2.65,0-4Z"/><path class="cls-1" d="M73,28.75c0,1.3,0,2.61,0,3.91,0,.6-.24.84-.84.86s-1-.16-1-.82v-8c0-.67.4-.8,1-.79s.82.24.81.82c0,1.32,0,2.65,0,4Z"/><path class="cls-1" d="M62.2,21.53h-.46v-4.1H60.23V17H63.7v.41H62.19v4.1Z"/><path class="cls-1" d="M64.37,19.05a.88.88,0,0,1,.4-.41,1.27,1.27,0,0,1,.6-.15,1,1,0,0,1,.85.34,1.32,1.32,0,0,1,.28.89v1.83h-.43V19.9a1.91,1.91,0,0,0,0-.43,1,1,0,0,0-.13-.33.58.58,0,0,0-.25-.21.87.87,0,0,0-.39-.08.75.75,0,0,0-.33.07,1,1,0,0,0-.29.21,1,1,0,0,0-.2.36,1.58,1.58,0,0,0-.08.52v1.53h-.43V16.73h.43v2.32Z"/><path class="cls-1" d="M70,20v.21H67.53a1,1,0,0,0,.09.42.89.89,0,0,0,.23.34,1.13,1.13,0,0,0,.34.23,1.11,1.11,0,0,0,1-.07,1.07,1.07,0,0,0,.37-.36l.32.25a1.55,1.55,0,0,1-.59.48,1.58,1.58,0,0,1-.69.15,1.51,1.51,0,0,1-.61-.12,1.63,1.63,0,0,1-.49-.33,1.43,1.43,0,0,1-.32-.5,1.59,1.59,0,0,1-.12-.62,1.8,1.8,0,0,1,.11-.62,1.53,1.53,0,0,1,.32-.5,1.48,1.48,0,0,1,1.07-.45,1.52,1.52,0,0,1,.62.12,1.12,1.12,0,0,1,.44.32,1.56,1.56,0,0,1,.27.47A1.79,1.79,0,0,1,70,20Zm-.44-.14a1.07,1.07,0,0,0-.27-.7,1,1,0,0,0-.72-.28,1.06,1.06,0,0,0-.4.08.87.87,0,0,0-.32.22,1.1,1.1,0,0,0-.22.31,1.13,1.13,0,0,0-.1.37Z"/></svg>