<svg width="150" height="50" id="圖層_1" data-name="圖層 1" xmlns="http://www.w3.org/2000/svg" viewBox="0 0 150 50"><defs><style>.cls-1{fill:#1f487e;}</style></defs><path class="cls-1" d="M4.08,9.92c.06-.24.09-.5.17-.73A3.85,3.85,0,0,1,7.57,6.4a5.66,5.66,0,0,1,2.58.17,4.33,4.33,0,0,1,2,1.47L24.69,23.09,35,35.46c.1.12.21.23.39.16s.21-.2.21-.37V14.56c0-.15,0-.29-.16-.36s-.28,0-.4.1l-5.85,5.09-1.71,1.49a.83.83,0,0,1-1.24-1.11Q30.14,14.06,34,8.33a4.23,4.23,0,0,1,2.37-1.82,4,4,0,0,1,5,3.19,5.67,5.67,0,0,1,.07.82V39.64A4,4,0,0,1,39,43.36a3.46,3.46,0,0,1-1.31.28,7.47,7.47,0,0,1-2.16-.15,3.92,3.92,0,0,1-1.87-1.22q-5.7-6.81-11.41-13.63l-11.75-14a1.31,1.31,0,0,0-.11-.12.3.3,0,0,0-.5.13.93.93,0,0,0,0,.24V35.46a.32.32,0,0,0,.18.33.34.34,0,0,0,.37-.09l4.68-4c1-.85,2-1.7,3-2.54a.82.82,0,0,1,1.36.42.86.86,0,0,1-.17.74c-.88,1.29-1.75,2.59-2.62,3.88-1.74,2.57-3.46,5.16-5.21,7.72a3.78,3.78,0,0,1-4,1.71,3.85,3.85,0,0,1-3.19-3.05c0-.14-.06-.29-.09-.43Z"/><path class="cls-1" d="M59.6,19v.48l.21,4.79c0,1.12.1,2.24.1,3.36,0,2.71,0,5.42,0,8.14,0,.42-.09.51-.51.51H56.74c-.4,0-.5-.09-.5-.5V14.33c0-.42.08-.5.51-.5h2a3.13,3.13,0,0,1,2.77,1.5l6,9.27,4,6.21c0,.05.07.11.14.19v-.43c-.06-1.42-.1-2.84-.18-4.26-.23-4-.1-8-.14-12,0-.4.09-.49.49-.49h2.75c.38,0,.46.08.46.47V35.76c0,.39-.09.48-.48.48H72.54a3.1,3.1,0,0,1-2.74-1.5l-3.44-5.31-6.6-10.18L59.59,19Z"/><path class="cls-1" d="M139.57,27.69l.92,1.18q2.65,3.39,5.3,6.77a.62.62,0,0,1,.11.17.27.27,0,0,1-.26.4h-2.36a2.9,2.9,0,0,1-2.3-1.16c-1.77-2.3-3.55-4.61-5.31-6.92a.52.52,0,0,0-.47-.23c-1,0-1.95,0-2.92,0h-.23v7.88c0,.35-.09.44-.45.44h-2.77c-.34,0-.43-.1-.43-.44V25.23c0-.4.16-.56.56-.56h8.16a6.59,6.59,0,0,0,2.07-.28,3.22,3.22,0,0,0,2.37-2.89,4.12,4.12,0,0,0-.24-2,3.27,3.27,0,0,0-2.34-2,6.72,6.72,0,0,0-1.84-.22h-5.91a3,3,0,0,1-2.87-2.49,3.88,3.88,0,0,1,0-.48.44.44,0,0,1,.46-.47H138a8.09,8.09,0,0,1,3.6.84,6,6,0,0,1,3.15,3.58,8.13,8.13,0,0,1,.11,4.95,6,6,0,0,1-4.16,4.16c-.37.12-.75.21-1.15.32Z"/><path class="cls-1" d="M122,36.2h-1.4c-.37,0-.4,0-.53-.36l-6.65-17.52a1.07,1.07,0,0,0-.1-.22.32.32,0,0,0-.55.13c-.39,1-.78,2-1.16,3.06q-2.76,7.26-5.51,14.53c-.12.3-.21.37-.53.37h-2.92c-.37,0-.49-.17-.35-.52l8.29-21.45a.52.52,0,0,1,.59-.41h3.73c.38,0,.45,0,.59.4q4.17,10.71,8.33,21.43l0,.1a.31.31,0,0,1-.31.44H122Z"/><path class="cls-1" d="M89.31,36.16h-6.8c-.42,0-.58-.16-.58-.58v-12c0-.4.17-.57.57-.57H95.35c.33,0,.44.11.44.44V26c0,.36-.11.47-.48.47H85.84a.29.29,0,0,0-.29.26,1.62,1.62,0,0,0,0,.22v5.28c0,.39.09.49.49.49H96.11c.37,0,.46.09.46.45v2.55c0,.29-.11.4-.4.4H89.31Z"/><path class="cls-1" d="M89.28,13.83h6.81c.39,0,.48.09.48.49v2.55c0,.29-.11.4-.4.4H84.87a3,3,0,0,1-2.93-2.74,2.41,2.41,0,0,1,0-.38.35.35,0,0,1,.35-.31h7Z"/></svg>