<?xml version="1.0" encoding="UTF-8"?>
<svg width="268.69" height="94.35" id="_圖層_2" data-name="圖層 2" xmlns="http://www.w3.org/2000/svg" xmlns:xlink="http://www.w3.org/1999/xlink" viewBox="0 0 268.69 94.35">
  <defs>
    <linearGradient id="_未命名漸層_36" data-name="未命名漸層 36" x1="2817.57" y1="93.9" x2="2817.57" y2="2.43" gradientTransform="translate(2951.91) rotate(-180) scale(1 -1)" gradientUnits="userSpaceOnUse">
      <stop offset="0" stop-color="#fffde3" stop-opacity="0"/>
      <stop offset="1" stop-color="#fffde3"/>
    </linearGradient>
  </defs>
  <g id="_圖層_1-2" data-name="圖層 1">
    <path d="M248.58,94.35s26.26-11.71,18.76-26.72c-7.5-15.01-17.82-20.65-30.95-15.96,0,0-.94-12.19-5.63-19.69-4.69-7.5-13.13,0-13.13,0,0,0,3.75-30.02-43.15-31.89-46.9-1.88-51.59,24.39-51.59,24.39,0,0-5.63-12.19-23.45-6.57-17.82,5.63-22.51,29.06-16.88,33.76,0,0-49.65-16.88-66.57,8.45C-.93,85.46,0,94.35,0,94.35H248.58Z" style="fill: url(#_未命名漸層_36);"/>
  </g>
</svg>