<svg width="150" height="50" id="圖層_1" data-name="圖層 1" xmlns="http://www.w3.org/2000/svg" viewBox="0 0 150 50"><defs><style>.cls-1{fill:#1f487e;}</style></defs><path class="cls-1" d="M59.17,18.7V15.23H72.63a5.54,5.54,0,0,1-1.28,5.09C68.86,23,66.64,26,64.09,29.08h8.79v3.58H59c-.28-2-.24-3.66,1.25-5.29,2.45-2.67,4.64-5.58,7.16-8.68H59.17Z"/><path class="cls-1" d="M89.69,20.31c1.41.53,3.16-1,4.07,1.16,3.08-2,6.09-1.86,8,.35a7.56,7.56,0,0,1,.18,9.31c-1.94,2.33-5,2.61-8.23.62v7H89.69V20.32Zm6.83,3a3.09,3.09,0,0,0-2.92,3.41,3.09,3.09,0,0,0,3.08,3.09,3.19,3.19,0,0,0,2.88-3.34,3.14,3.14,0,0,0-3-3.17Z"/><path class="cls-1" d="M110.28,31.8v6.94h-4V20.36c1.47.41,3.19-1,4.15,1.12,2.85-1.95,5.79-1.91,7.79.1a7.5,7.5,0,0,1,.63,9.27c-1.88,2.54-4.7,2.9-8.54,1Zm-.1-5.25a3,3,0,1,0,3.07-3.24,3.13,3.13,0,0,0-3.07,3.24Z"/><path class="cls-1" d="M135.08,27.7h-8.82c.68,2.65,3,3.08,5.8,1.18l2.49,1.57c-1.52,2.63-5.48,3.54-8.7,2.09a6.46,6.46,0,0,1-3.32-8.19,6.66,6.66,0,0,1,8-4.22c3.19.68,5,3.54,4.57,7.57Zm-3.63-2.58c-.23-1.59-1-2.37-2.47-2.32a2.62,2.62,0,0,0-2.85,2.32Z"/><path class="cls-1" d="M82.39,31.84a5.16,5.16,0,0,1-5,1,3.43,3.43,0,0,1-2.82-3.14A3.16,3.16,0,0,1,76.72,26a53.88,53.88,0,0,1,5.82-1.28c-.22-.39-.37-1-.76-1.28-1-.83-2.19-.62-4.52.56L75,22.16a8.41,8.41,0,0,1,8-1.9c2.48.58,3.26,2.58,3.34,4.83.1,2.49,0,5.31,0,8-1.5,0-2.65.3-4-1.26Zm-.52-4.49c-2.57.13-3.93.9-3.53,1.82a2.61,2.61,0,0,0,1.89,1.14,2.14,2.14,0,0,0,2.43-2.17C82.61,27.76,82,27.45,81.87,27.35Z"/><path class="cls-1" d="M141.94,32.72h-4V20.63c2.8-.61,3.55-.42,3.92.77l4-1.75V23.4c-3.45.43-4,1.06-4,4.5v4.82Z"/><path class="cls-1" d="M24.38,4.7A20.3,20.3,0,1,0,44.68,25,20.3,20.3,0,0,0,24.38,4.7ZM32,29.59a1.3,1.3,0,0,1-.92.28q-6.33,0-12.66,0a2.23,2.23,0,0,1-.61-.25l3-4.66h-8c1.32-1.9,2.33-3.39,3.4-4.84a1.28,1.28,0,0,1,.91-.3c4.32,0,8.65,0,13.4,0l-3.18,5h8C34,26.65,33,28.14,32,29.59Z"/></svg>