<svg width="235.0247" height="74.2173" xmlns="http://www.w3.org/2000/svg" xmlns:xlink="http://www.w3.org/1999/xlink" viewBox="0 0 235.02 74.22"><defs><style>.cls-1{fill:url(#未命名漸層_36);}</style><linearGradient id="未命名漸層_36" x1="117.51" y1="74.11" x2="117.51" y2="11.75" gradientUnits="userSpaceOnUse"><stop offset="0" stop-color="#fffde3" stop-opacity="0"/><stop offset="1" stop-color="#fffde3"/></linearGradient></defs><g id="圖層_2" data-name="圖層 2"><g id="_01首頁" data-name="01首頁"><path class="cls-1" d="M33.29,37.61S31.73,18.09,55.88,9.31C87-2,83.82,32.36,83.82,32.36S94.19-9.36,128.64,1.94c24.72,8.11,34.89,52.25,34.89,52.25s4.68-1.33,8,2a9.94,9.94,0,0,1,2.58,8,192.66,192.66,0,0,0,60.88,10H2.11S-4,71.35,4.64,62.67s14.17-5,14.17-5-7.66-10.06-.35-17C26,33.51,33.29,37.61,33.29,37.61Z"/></g></g></svg>