<?xml version="1.0" encoding="UTF-8"?>
<svg id="_圖層_1" data-name="圖層 1" xmlns="http://www.w3.org/2000/svg" viewBox="0 0 1920 262.14">
  <path d="M1920,362.69v-115.37c-266.41-43.67-599.12-69.61-960-69.61S266.41,203.65,0,247.32v115.37H1920Z" style="fill: #1f487e;"/>
  <g>
    <g>
      <path d="M966.48,206.21s-12.98-27.42,15.79-46.32c28.77-18.9,36.15-35.99,36.15-35.99,0,0,18.36,55.17-51.94,82.31Z" style="fill: #1f487e;"/>
      <path d="M965.5,139.81s12.19,26.52-3.01,39.92c0,0-14.22-4.71,3.01-39.92Z" style="fill: #1f487e;"/>
      <path d="M1023.79,157.78s8.44,16.21-.65,25.06c0,0-9.04-2.51,.65-25.06Z" style="fill: #1f487e;"/>
      <path d="M983.77,159.49s-5.23,21.14-21.88,21.64c0,0-6.97-9.5,21.88-21.64Z" style="fill: #1f487e;"/>
    </g>
    <g>
      <path d="M1467.8,236.04s-6.99-29.52,25.08-42.02,42.84-27.68,42.84-27.68c0,0,6.48,57.78-67.92,69.71Z" style="fill: #1f487e;"/>
      <path d="M1480.66,170.89s6.41,28.47-11.25,38.43c0,0-12.93-7.57,11.25-38.43Z" style="fill: #1f487e;"/>
      <path d="M1349.88,170.65s4.88,17.61-5.85,24.38c0,0-8.32-4.33,5.85-24.38Z" style="fill: #1f487e;"/>
      <path d="M1495.75,187.74s-9.52,19.58-25.9,16.61c0,0-4.84-10.75,25.9-16.61Z" style="fill: #1f487e;"/>
    </g>
    <ellipse cx="1128.34" cy="182.84" rx="22.65" ry="42.54" transform="translate(885.91 1299.89) rotate(-86.96)" style="fill: #1f487e;"/>
    <ellipse cx="502.09" cy="193.16" rx="38.7" ry="20.61" transform="translate(-35.51 173.44) rotate(-18.94)" style="fill: #1f487e;"/>
    <ellipse cx="1744.42" cy="225.5" rx="20.61" ry="38.7" transform="translate(1226.53 1906.47) rotate(-80.24)" style="fill: #1f487e;"/>
    <ellipse cx="1075.68" cy="177.28" rx="17.44" ry="10.59" style="fill: #1f487e;"/>
    <circle cx="1092.8" cy="167.05" r="8.72" transform="translate(679.14 1192.23) rotate(-76.72)" style="fill: #1f487e;"/>
    <g>
      <path d="M1308.78,187.17s3.33-28.65-12.93-41c-16.26-12.34-36.58-14.94-36.58-14.94,0,0,68.89,2.65,59.33,56.45-2.47,13.88-9.81-.52-9.81-.52Z" style="fill: #1f487e;"/>
      <path d="M1332.29,204.34s2.1-28.73,12.2-39.18c10.1-10.45,21.02-10.81,21.02-10.81,0,0-36.18-4.86-38.4,49.44-.57,14.01,5.17,.55,5.17,.55Z" style="fill: #1f487e;"/>
      <path d="M1314.26,199.19s-2.14-62.81-7.52-79.19c0,0,24.26,43.29,23.18,81.79-1.08,38.5-15.66-2.6-15.66-2.6Z" style="fill: #1f487e;"/>
      <path d="M1322.38,214.85s8.78-62.23,15.87-77.95c0,0-19.87,30.39-22.88,68.79-3,38.4,7.01,9.16,7.01,9.16Z" style="fill: #1f487e;"/>
      <path d="M1296.41,196.45s6.39-15.66-.85-25.19c-7.24-9.53-18.31-14.19-18.31-14.19,0,0,38.49,12.34,24.62,41.22-3.58,7.45-5.46-1.84-5.46-1.84Z" style="fill: #1f487e;"/>
      <path d="M1326.44,205.77s-2.6-79.87,1.55-100.86c0,0-21,55.81-17.02,104.69,3.99,48.88,15.46-3.83,15.46-3.83Z" style="fill: #1f487e;"/>
      <path d="M1311.06,180.9s6.76-51.02,7.26-60.47l.5-9.44s10.02,35.57,6.29,61.1c-3.74,25.53-14.05,8.81-14.05,8.81Z" style="fill: #1f487e;"/>
    </g>
    <g>
      <path d="M445.71,217.84s-.06-28.84-17.66-39.19c-17.6-10.35-38.09-10.53-38.09-10.53,0,0,68.72-5.46,65.55,49.09-.82,14.07-9.81,.64-9.81,.64Z" style="fill: #1f487e;"/>
      <path d="M470.58,220.6s-8.75-27.44-3.26-40.91c5.49-13.46,15.49-17.86,15.49-17.86,0,0-35.39,8.95-17.23,60.18,4.68,13.21,5.01-1.41,5.01-1.41Z" style="fill: #1f487e;"/>
      <path d="M470.06,220.33s-5.47-62.61-2.11-79.52c0,0-12.51,34.09-6.78,72.17,5.73,38.09,8.89,7.35,8.89,7.35Z" style="fill: #1f487e;"/>
      <path d="M442.86,214s2.7-16.7-6.51-24.35c-9.2-7.65-21.04-9.7-21.04-9.7,0,0,40.28,3.35,33.28,34.61-1.81,8.06-5.73-.56-5.73-.56Z" style="fill: #1f487e;"/>
      <path d="M461.69,194.3s-3.32-59.71-.58-75.49c0,0-14.75,42.12-10.93,78.62,3.82,36.5,11.5-3.13,11.5-3.13Z" style="fill: #1f487e;"/>
      <path d="M450.15,217.39s-4.91-51.23-6.55-60.55l-1.64-9.31s17.78,32.4,19.9,58.11c2.11,25.71-11.7,11.75-11.7,11.75Z" style="fill: #1f487e;"/>
      <path d="M418.43,206.04s-16.2-20.06-22.01-24.1c0,0,18.63,8.2,27.78,21.09,9.15,12.88-5.77,3.01-5.77,3.01Z" style="fill: #1f487e;"/>
    </g>
    <path d="M1376.42,190.85s-.25-2.7-2.7-4.91c-2.46-2.21,5.89,2.46,5.89,2.46,0,0,3.19-5.16,6.88-5.89,0,0-2.55,1.84-2.79,3.56-.25,1.72,4.76,.62,4.76,.62v2.21l7.12-5.22v5.22l2.46-2.21v2.46s4.42-4.17,3.68-7.61l1.23,9.33,3.68-3.19,1.23,5.4-31.43-2.21Z" style="fill: #1f487e;"/>
    <path d="M167.94,228.72s-1.7-5.95-8.15-9.86,14.26,2.99,14.26,2.99c0,0,4.96-12.92,12.9-16.14,0,0-4.93,5.2-4.74,9.16,.18,3.96,10.93-.64,10.93-.64l.94,4.95,13.74-14.73,2.22,11.7,4.56-6,1.05,5.5s8.13-11.24,5.02-18.63l6.73,20.39,6.9-8.72,5.05,11.59-71.39,8.43Z" style="fill: #1f487e;"/>
    <path d="M1596.04,208.1s-.25-2.7-2.7-4.91c-2.46-2.21,5.89,2.46,5.89,2.46,0,0,3.19-5.16,6.88-5.89,0,0-2.55,1.84-2.79,3.56-.25,1.72,4.76,.62,4.76,.62v2.21l7.12-5.22v5.22l2.46-2.21v2.46s4.42-4.17,3.68-7.61l1.23,9.33,3.68-3.19,1.23,5.4-31.43-2.21Z" style="fill: #1f487e;"/>
    <path d="M1420.22,194.05l-.57-3.44,1.72,1.72s2.75-4.36,8.02-5.04c0,0-6.64,3.1-5.84,7.68l-3.32-.92Z" style="fill: #1f487e;"/>
    <path d="M169.15,227.54s-.82-9.7,4.11-17.89l4.93-8.19s-14.79,12.47-15.61,14.87c-.82,2.39-7.4-6.68-7.4-6.68l-3.29,6.68s-12.33-12.4-17.26-14.87c0,0-1.64,8.36,0,14.87s-8.41-11.69-15.74-18.52c-5.72-5.33-10.56-4.57-10.56-4.57,0,0,4.28-2.31,9.29,16.89,1.46,5.59-20.85,25.19-20.85,25.19l72.36-7.79" style="fill: #1f487e;"/>
    <path d="M1343.62,177.71s.8,21.76-15.06,26.83c0,0-9.32-7.21,15.06-26.83Z" style="fill: #1f487e;"/>
    <path d="M586.83,202.11s-26.64-43.47-54.45-78.21c-27.82-34.74-72.71-50.8-72.71-50.8,0,0,75.03,58.77,75.61,133.64l51.55-4.63Z" style="fill: #1f487e;"/>
    <path d="M537.24,181.94s-13.2-26.69-24.98-34.41c-11.78-7.72-19.64-12.14-19.64-12.14,0,0,32.4,20.44,37.8,49.25s6.82-2.71,6.82-2.71Z" style="fill: #1f487e;"/>
    <path d="M1436.66,224S1458.89,43.63,1526.01,0c0,0-62.48,52.22-57.53,206.78,2.59,80.87-31.82,17.23-31.82,17.23Z" style="fill: #1f487e;"/>
    <circle cx="418.4" cy="201.82" r="8.03" transform="translate(-20.16 354.97) rotate(-45)" style="fill: #1f487e;"/>
  </g>
</svg>