<?xml version="1.0" encoding="UTF-8"?>
<svg id="_圖層_2" data-name="圖層 2" xmlns="http://www.w3.org/2000/svg" viewBox="0 0 375.94 2261.76">
  <g id="_02_白皮書01" data-name="02_白皮書01">
    <g>
      <path d="M375.94,0s-70.64,353.97-252.19,353.97C0,353.97,0,93.66,0,93.66V396.61s244.09-39.18,269.71,25.84c37.11,94.16-223.5,223.61-242.46,428.43-27.25,294.25,346.21,281.01,346.21,281.01L375.94,0Z" style="fill: #fff; opacity: .5;"/>
      <path d="M0,2261.76s70.64-353.97,252.19-353.97c123.75,0,123.75,260.31,123.75,260.31v-302.95s-244.09,39.18-269.71-25.84c-37.11-94.16,223.5-223.61,242.46-428.43C375.94,1116.63,2.48,1129.87,2.48,1129.87L0,2261.76Z" style="fill: #fff; opacity: .5;"/>
    </g>
  </g>
</svg>