<?xml version="1.0" encoding="UTF-8"?>
<svg id="_圖層_1" data-name="圖層 1" xmlns="http://www.w3.org/2000/svg" viewBox="0 0 534 523.32">
  <defs>
    <style>
      .cls-1 {
        fill: #046ba7;
      }
    </style>
  </defs>
  <g>
    <path class="cls-1" d="M342.87,65.15c-.75-.75-1.79-1.21-2.93-1.21-2.29,0-4.15,1.86-4.15,4.15,0,1.14,.46,2.18,1.21,2.93,.75,.75,1.79,1.21,2.93,1.21,2.29,0,4.15-1.86,4.15-4.15,0-1.15-.46-2.18-1.21-2.93Z"/>
    <path class="cls-1" d="M447.75,1.21c-.75-.75-1.79-1.21-2.93-1.21-2.29,0-4.15,1.86-4.15,4.15,0,1.14,.46,2.18,1.21,2.93,.75,.75,1.79,1.21,2.93,1.21,2.29,0,4.15-1.86,4.15-4.15,0-1.14-.46-2.18-1.21-2.93Z"/>
    <path class="cls-1" d="M302.87,205.15c-.75-.75-1.79-1.21-2.93-1.21-2.29,0-4.15,1.86-4.15,4.15,0,1.14,.46,2.18,1.21,2.93,.75,.75,1.79,1.21,2.93,1.21,2.29,0,4.15-1.86,4.15-4.15,0-1.15-.46-2.18-1.21-2.93Z"/>
    <path class="cls-1" d="M407.75,141.21c-.75-.75-1.79-1.21-2.93-1.21-2.29,0-4.15,1.86-4.15,4.15,0,1.14,.46,2.18,1.21,2.93,.75,.75,1.79,1.21,2.93,1.21,2.29,0,4.15-1.86,4.15-4.15,0-1.15-.46-2.18-1.21-2.93Z"/>
  </g>
  <g>
    <path class="cls-1" d="M427.9,259.93c-.75-.75-1.79-1.21-2.93-1.21-2.29,0-4.15,1.86-4.15,4.15,0,1.14,.46,2.18,1.21,2.93,.75,.75,1.79,1.21,2.93,1.21,2.29,0,4.15-1.86,4.15-4.15,0-1.14-.46-2.18-1.21-2.93Z"/>
    <path class="cls-1" d="M532.78,196c-.75-.75-1.79-1.21-2.93-1.21-2.29,0-4.15,1.86-4.15,4.15,0,1.14,.46,2.18,1.21,2.93,.75,.75,1.79,1.21,2.93,1.21,2.29,0,4.15-1.86,4.15-4.15,0-1.14-.46-2.18-1.21-2.93Z"/>
    <path class="cls-1" d="M387.9,399.93c-.75-.75-1.79-1.21-2.93-1.21-2.29,0-4.15,1.86-4.15,4.15,0,1.14,.46,2.18,1.21,2.93,.75,.75,1.79,1.21,2.93,1.21,2.29,0,4.15-1.86,4.15-4.15,0-1.14-.46-2.18-1.21-2.93Z"/>
    <path class="cls-1" d="M492.78,336c-.75-.75-1.79-1.21-2.93-1.21-2.29,0-4.15,1.86-4.15,4.15,0,1.14,.46,2.18,1.21,2.93,.75,.75,1.79,1.21,2.93,1.21,2.29,0,4.15-1.86,4.15-4.15,0-1.14-.46-2.18-1.21-2.93Z"/>
  </g>
  <g>
    <path class="cls-1" d="M47.08,181.46c-.75-.75-1.79-1.21-2.93-1.21-2.29,0-4.15,1.86-4.15,4.15,0,1.14,.46,2.18,1.21,2.93,.75,.75,1.79,1.21,2.93,1.21,2.29,0,4.15-1.86,4.15-4.15,0-1.14-.46-2.18-1.21-2.93Z"/>
    <path class="cls-1" d="M151.96,117.52c-.75-.75-1.79-1.21-2.93-1.21-2.29,0-4.15,1.86-4.15,4.15,0,1.14,.46,2.18,1.21,2.93,.75,.75,1.79,1.21,2.93,1.21,2.29,0,4.15-1.86,4.15-4.15,0-1.15-.46-2.18-1.21-2.93Z"/>
    <path class="cls-1" d="M7.08,321.46c-.75-.75-1.79-1.21-2.93-1.21-2.29,0-4.15,1.86-4.15,4.15,0,1.14,.46,2.18,1.21,2.93,.75,.75,1.79,1.21,2.93,1.21,2.29,0,4.15-1.86,4.15-4.15,0-1.14-.46-2.18-1.21-2.93Z"/>
    <path class="cls-1" d="M111.96,257.52c-.75-.75-1.79-1.21-2.93-1.21-2.29,0-4.15,1.86-4.15,4.15,0,1.14,.46,2.18,1.21,2.93,.75,.75,1.79,1.21,2.93,1.21,2.29,0,4.15-1.86,4.15-4.15,0-1.15-.46-2.18-1.21-2.93Z"/>
  </g>
  <g>
    <path class="cls-1" d="M132.11,376.24c-.75-.75-1.79-1.21-2.93-1.21-2.29,0-4.15,1.86-4.15,4.15,0,1.14,.46,2.18,1.21,2.93,.75,.75,1.79,1.21,2.93,1.21,2.29,0,4.15-1.86,4.15-4.15,0-1.14-.46-2.18-1.21-2.93Z"/>
    <path class="cls-1" d="M236.99,312.31c-.75-.75-1.79-1.21-2.93-1.21-2.29,0-4.15,1.86-4.15,4.15,0,1.14,.46,2.18,1.21,2.93,.75,.75,1.79,1.21,2.93,1.21,2.29,0,4.15-1.86,4.15-4.15,0-1.14-.46-2.18-1.21-2.93Z"/>
    <path class="cls-1" d="M92.11,516.24c-.75-.75-1.79-1.21-2.93-1.21-2.29,0-4.15,1.86-4.15,4.15,0,1.14,.46,2.18,1.21,2.93,.75,.75,1.79,1.21,2.93,1.21,2.29,0,4.15-1.86,4.15-4.15,0-1.15-.46-2.18-1.21-2.93Z"/>
    <path class="cls-1" d="M196.99,452.31c-.75-.75-1.79-1.21-2.93-1.21-2.29,0-4.15,1.86-4.15,4.15,0,1.14,.46,2.18,1.21,2.93,.75,.75,1.79,1.21,2.93,1.21,2.29,0,4.15-1.86,4.15-4.15,0-1.15-.46-2.18-1.21-2.93Z"/>
  </g>
</svg>