<?xml version="1.0" encoding="UTF-8"?>
<svg width="778.2243" height="555.1345" id="_圖層_2" data-name="圖層 2" xmlns="http://www.w3.org/2000/svg" xmlns:xlink="http://www.w3.org/1999/xlink" viewBox="0 0 778.22 555.13">
  <defs>
    <linearGradient id="_未命名漸層_56" data-name="未命名漸層 56" x1="127.54" y1="191.14" x2="127.54" y2="228.04" gradientUnits="userSpaceOnUse">
      <stop offset="0" stop-color="#8fcdef"/>
      <stop offset="1" stop-color="#c7e8fa"/>
      <stop offset="1" stop-color="#b8e2f9"/>
    </linearGradient>
    <linearGradient id="_未命名漸層_56-2" data-name="未命名漸層 56" x1="239.34" x2="239.34" xlink:href="#_未命名漸層_56"/>
    <linearGradient id="_未命名漸層_56-3" data-name="未命名漸層 56" x1="351.15" x2="351.15" xlink:href="#_未命名漸層_56"/>
    <linearGradient id="_未命名漸層_56-4" data-name="未命名漸層 56" x1="462.96" x2="462.96" xlink:href="#_未命名漸層_56"/>
    <linearGradient id="_未命名漸層_56-5" data-name="未命名漸層 56" x1="574.76" x2="574.76" xlink:href="#_未命名漸層_56"/>
    <linearGradient id="_未命名漸層_56-6" data-name="未命名漸層 56" x1="686.57" x2="686.57" xlink:href="#_未命名漸層_56"/>
    <linearGradient id="_未命名漸層_56-7" data-name="未命名漸層 56" x1="93.47" y1="185.78" x2="93.47" y2="354.52" xlink:href="#_未命名漸層_56"/>
    <linearGradient id="_未命名漸層_77" data-name="未命名漸層 77" x1="366.39" y1="20.44" x2="366.39" y2="160.25" gradientUnits="userSpaceOnUse">
      <stop offset="0" stop-color="#e6f4fd"/>
      <stop offset="1" stop-color="#c7e8fa"/>
      <stop offset="1" stop-color="#c7e8fa"/>
    </linearGradient>
    <linearGradient id="_未命名漸層_56-8" data-name="未命名漸層 56" x1="268.17" y1="199.88" x2="268.17" y2="351.88" xlink:href="#_未命名漸層_56"/>
    <linearGradient id="_未命名漸層_25" data-name="未命名漸層 25" x1="0" y1="178.76" x2="727.15" y2="178.76" gradientUnits="userSpaceOnUse">
      <stop offset="0" stop-color="#9bd1f0"/>
      <stop offset="1" stop-color="#c7e8fa"/>
      <stop offset="1" stop-color="#c7e8fa"/>
    </linearGradient>
    <linearGradient id="_未命名漸層_25-2" data-name="未命名漸層 25" x1="131.51" y1="8.98" x2="778.22" y2="8.98" xlink:href="#_未命名漸層_25"/>
    <linearGradient id="_未命名漸層_73" data-name="未命名漸層 73" x1="365.96" y1="358.81" x2="365.96" y2="470.88" gradientUnits="userSpaceOnUse">
      <stop offset="0" stop-color="#9bd1f0"/>
      <stop offset="1" stop-color="#c7e8fa"/>
      <stop offset="1" stop-color="#b8e2f9"/>
    </linearGradient>
  </defs>
  <g id="_01首頁" data-name="01首頁">
    <g>
      <g>
        <path d="M99.77,218.39c13.98,0,25.58-10.2,27.76-23.56,2.19,13.36,13.78,23.56,27.76,23.56,15.54,0,28.14-12.6,28.14-28.14H71.63c0,15.54,12.6,28.14,28.14,28.14Z" style="fill: url(#_未命名漸層_56);"/>
        <path d="M211.58,218.39c13.98,0,25.58-10.2,27.76-23.56,2.19,13.36,13.78,23.56,27.76,23.56,15.54,0,28.14-12.6,28.14-28.14h-111.81c0,15.54,12.6,28.14,28.14,28.14Z" style="fill: url(#_未命名漸層_56-2);"/>
        <path d="M323.39,218.39c13.98,0,25.58-10.2,27.76-23.56,2.19,13.36,13.78,23.56,27.76,23.56,15.54,0,28.14-12.6,28.14-28.14h-111.81c0,15.54,12.6,28.14,28.14,28.14Z" style="fill: url(#_未命名漸層_56-3);"/>
        <path d="M435.19,218.39c13.98,0,25.58-10.2,27.76-23.56,2.19,13.36,13.78,23.56,27.76,23.56,15.54,0,28.14-12.6,28.14-28.14h-111.81c0,15.54,12.6,28.14,28.14,28.14Z" style="fill: url(#_未命名漸層_56-4);"/>
        <path d="M547,218.39c13.98,0,25.58-10.2,27.76-23.56,2.19,13.36,13.78,23.56,27.76,23.56,15.54,0,28.14-12.6,28.14-28.14h-111.81c0,15.54,12.6,28.14,28.14,28.14Z" style="fill: url(#_未命名漸層_56-5);"/>
        <path d="M658.8,218.39c13.98,0,25.58-10.2,27.76-23.56,2.19,13.36,13.78,23.56,27.76,23.56,15.54,0,28.14-12.6,28.14-28.14h-111.81c0,15.54,12.6,28.14,28.14,28.14Z" style="fill: url(#_未命名漸層_56-6);"/>
      </g>
      <rect x="55.66" y="185.01" width="75.62" height="197.93" style="fill: url(#_未命名漸層_56-7);"/>
      <polygon points="64.52 362.06 131.02 329.98 684.51 329.98 678.68 367.15 64.52 362.06" style="fill: #e6f4fd;"/>
      <polygon points="8.62 169.78 724.16 169.78 724.16 4.92 137.31 4.92 8.62 169.78" style="fill: url(#_未命名漸層_77);"/>
      <rect x="8.62" y="178.51" width="715.54" height="12.99" style="fill: #c7e8fa;"/>
      <rect x="52.47" y="190.82" width="19.17" height="364.31" style="fill: #c7e8fa;"/>
      <rect x="52.47" y="356.96" width="626.99" height="22.27" style="fill: #c7e8fa;"/>
      <polygon points="257.81 197.37 278.52 197.37 278.52 343.45 257.81 382.94 257.81 197.37" style="fill: url(#_未命名漸層_56-8);"/>
      <g>
        <path d="M36.76,218.39c13.98,0,25.58-10.2,27.76-23.56,2.19,13.36,13.78,23.56,27.76,23.56,15.54,0,28.14-12.6,28.14-28.14H8.62c0,15.54,12.6,28.14,28.14,28.14Z" style="fill: #c7e8fa;"/>
        <path d="M148.57,218.39c13.98,0,25.58-10.2,27.76-23.56,2.19,13.36,13.78,23.56,27.76,23.56,15.54,0,28.14-12.6,28.14-28.14H120.43c0,15.54,12.6,28.14,28.14,28.14Z" style="fill: #c7e8fa;"/>
        <path d="M260.37,218.39c13.98,0,25.58-10.2,27.76-23.56,2.19,13.36,13.78,23.56,27.76,23.56,15.54,0,28.14-12.6,28.14-28.14h-111.81c0,15.54,12.6,28.14,28.14,28.14Z" style="fill: #c7e8fa;"/>
        <path d="M372.18,218.39c13.98,0,25.58-10.2,27.76-23.56,2.19,13.36,13.78,23.56,27.76,23.56,15.54,0,28.14-12.6,28.14-28.14h-111.81c0,15.54,12.6,28.14,28.14,28.14Z" style="fill: #c7e8fa;"/>
        <path d="M483.98,218.39c13.98,0,25.58-10.2,27.76-23.56,2.19,13.36,13.78,23.56,27.76,23.56,15.54,0,28.14-12.6,28.14-28.14h-111.81c0,15.54,12.6,28.14,28.14,28.14Z" style="fill: #c7e8fa;"/>
        <path d="M595.79,218.39c13.98,0,25.58-10.2,27.76-23.56,2.19,13.36,13.78,23.56,27.76,23.56,15.54,0,28.14-12.6,28.14-28.14h-111.81c0,15.54,12.6,28.14,28.14,28.14Z" style="fill: #c7e8fa;"/>
      </g>
      <rect x="250.73" y="190.82" width="19.17" height="364.31" style="fill: #c7e8fa;"/>
      <g>
        <path d="M721.16,169.78H5.99c-3.31,0-5.99,2.68-5.99,5.99H727.15c0-3.31-2.68-5.99-5.99-5.99Z" style="fill: #e6f4fd;"/>
        <path d="M5.99,181.76H721.16c3.31,0,5.99-2.68,5.99-5.99H0c0,3.31,2.68,5.99,5.99,5.99Z" style="fill: url(#_未命名漸層_25);"/>
      </g>
      <g>
        <path d="M772.9,0H136.83c-2.94,0-5.33,2.68-5.33,5.99H778.22c0-3.31-2.38-5.99-5.33-5.99Z" style="fill: #e6f4fd;"/>
        <path d="M136.83,11.97H772.9c2.94,0,5.33-2.68,5.33-5.99H131.51c0,3.31,2.38,5.99,5.33,5.99Z" style="fill: url(#_未命名漸層_25-2);"/>
      </g>
      <rect x="52.47" y="402.91" width="626.99" height="152.22" style="fill: url(#_未命名漸層_73);"/>
      <g>
        <polygon points="13.94 388.52 52.47 369.94 680.27 369.94 680.27 388.52 13.94 388.52" style="fill: #e6f4fd;"/>
        <path d="M680.27,417.3H42.71c-15.89,0-28.77-12.88-28.77-28.77H680.27v28.77Z" style="fill: #c7e8fa;"/>
      </g>
    </g>
  </g>
</svg>