<?xml version="1.0" encoding="UTF-8"?>
<svg width="385" id="icon-box" xmlns="http://www.w3.org/2000/svg" xmlns:xlink="http://www.w3.org/1999/xlink" viewBox="0 0 385 400">
  <defs>
    <linearGradient id="_未命名漸層" data-name="未命名漸層" x1="10.4" y1="232.7" x2="180.21" y2="232.7" gradientTransform="translate(0 402) scale(1 -1)" gradientUnits="userSpaceOnUse">
      <stop offset="0" stop-color="#c7e8fa"/>
      <stop offset=".3" stop-color="#c7e8fa" stop-opacity=".99"/>
      <stop offset=".43" stop-color="#c7e8fa" stop-opacity=".96"/>
      <stop offset=".54" stop-color="#c7e8fa" stop-opacity=".91"/>
      <stop offset=".63" stop-color="#c7e8fa" stop-opacity=".84"/>
      <stop offset=".71" stop-color="#c7e8fa" stop-opacity=".74"/>
      <stop offset=".78" stop-color="#c7e8fa" stop-opacity=".62"/>
      <stop offset=".84" stop-color="#c7e8fa" stop-opacity=".48"/>
      <stop offset=".91" stop-color="#c7e8fa" stop-opacity=".32"/>
      <stop offset=".96" stop-color="#c7e8fa" stop-opacity=".14"/>
      <stop offset="1" stop-color="#c7e8fa" stop-opacity="0"/>
    </linearGradient>
    <linearGradient id="_未命名漸層_2" data-name="未命名漸層 2" x1="346.04" y1="151.14" x2="68.57" y2="151.14" gradientTransform="translate(0 402) scale(1 -1)" gradientUnits="userSpaceOnUse">
      <stop offset="0" stop-color="#e6f4fd"/>
      <stop offset=".29" stop-color="#e5f3fc" stop-opacity=".99"/>
      <stop offset=".43" stop-color="#e4f3fc" stop-opacity=".96"/>
      <stop offset=".54" stop-color="#e3f2fc" stop-opacity=".91"/>
      <stop offset=".63" stop-color="#e1f2fc" stop-opacity=".84"/>
      <stop offset=".7" stop-color="#def0fc" stop-opacity=".74"/>
      <stop offset=".78" stop-color="#daeffb" stop-opacity=".63"/>
      <stop offset=".84" stop-color="#d6edfb" stop-opacity=".49"/>
      <stop offset=".9" stop-color="#d1ebfa" stop-opacity=".33"/>
      <stop offset=".96" stop-color="#cbe9fa" stop-opacity=".15"/>
      <stop offset="1" stop-color="#c7e8fa" stop-opacity="0"/>
    </linearGradient>
    <linearGradient id="_未命名漸層_3" data-name="未命名漸層 3" x1="273.25" y1="42.1" x2="74.86" y2="42.1" gradientTransform="translate(0 402) scale(1 -1)" gradientUnits="userSpaceOnUse">
      <stop offset="0" stop-color="#e6f4fd"/>
      <stop offset=".11" stop-color="#e5f3fc" stop-opacity=".98"/>
      <stop offset=".23" stop-color="#e4f3fc" stop-opacity=".94"/>
      <stop offset=".34" stop-color="#e1f2fc" stop-opacity=".86"/>
      <stop offset=".45" stop-color="#def0fc" stop-opacity=".75"/>
      <stop offset=".57" stop-color="#d9effb" stop-opacity=".6"/>
      <stop offset=".68" stop-color="#d4edfb" stop-opacity=".43"/>
      <stop offset=".79" stop-color="#cdeafa" stop-opacity=".22"/>
      <stop offset=".9" stop-color="#c7e8fa" stop-opacity="0"/>
    </linearGradient>
    <linearGradient id="_未命名漸層_4" data-name="未命名漸層 4" x1="330.44" y1="51.95" x2="222.08" y2="51.95" gradientTransform="translate(0 402) scale(1 -1)" gradientUnits="userSpaceOnUse">
      <stop offset="0" stop-color="#fffde3"/>
      <stop offset=".11" stop-color="#fefce3" stop-opacity=".98"/>
      <stop offset=".23" stop-color="#fbfbe4" stop-opacity=".94"/>
      <stop offset=".34" stop-color="#f7fae6" stop-opacity=".86"/>
      <stop offset=".45" stop-color="#f0f7e8" stop-opacity=".75"/>
      <stop offset=".56" stop-color="#e8f4ec" stop-opacity=".61"/>
      <stop offset=".68" stop-color="#dff1f0" stop-opacity=".43"/>
      <stop offset=".79" stop-color="#d3ecf4" stop-opacity=".23"/>
      <stop offset=".9" stop-color="#c7e8fa" stop-opacity="0"/>
    </linearGradient>
  </defs>
  <g id="icon">
    <g>
      <path d="M126.33,65.42v-13.74c0-9.13-8.8-16.53-19.65-16.53H24.83c-10.85,0-19.65,7.4-19.65,16.53v235.25c0,9.13,8.8,16.53,19.65,16.53H167.26c10.85,0,19.65-7.4,19.65-16.53V98.49c0-9.13-8.8-16.53-19.65-16.53h-21.27c-10.85,0-19.65-7.4-19.65-16.53h0Z" style="fill: url(#_未命名漸層);"/>
      <path d="M35.47,193.33h1.18c3.61,0,6.54,2.93,6.54,6.54v67.62c0,3.61-2.93,6.54-6.54,6.54h-1.18c-3.61,0-6.54-2.93-6.54-6.54v-67.62c0-3.61,2.93-6.54,6.54-6.54Z" style="fill: #fffde3;"/>
      <path d="M35.47,170.05h1.18c3.61,0,6.54,2.93,6.54,6.54v1.18c0,3.61-2.93,6.54-6.54,6.54h-1.18c-3.61,0-6.54-2.93-6.54-6.54v-1.18c0-3.61,2.93-6.54,6.54-6.54Z" style="fill: #fffde3;"/>
    </g>
    <circle cx="175.73" cy="211.59" r="111.68" style="fill: #204a83;"/>
    <path d="M326.67,163.52h-50.25c7.35,14.84,11.48,31.56,11.48,49.24,0,61.38-49.76,111.13-111.13,111.13s-111.13-49.76-111.13-111.13c0-17.47,4.04-34,11.22-48.71-7.37,1.85-12.84,8.49-12.84,16.44v140.75c0,9.37,7.6,16.96,16.96,16.96h245.68c9.37,0,16.96-7.6,16.96-16.96V180.48c0-9.37-7.6-16.96-16.96-16.96h.01Z" style="fill: url(#_未命名漸層_2);"/>
    <circle cx="176.77" cy="212.76" r="102.35" style="fill: #f18d00;"/>
    <circle cx="335.86" cy="333.18" r="43.97" style="fill: #fad1b0;"/>
    <path d="M50.45,359.9h0c0-2,1.62-3.61,3.61-3.61h227.36c2,0,3.61,1.62,3.61,3.61h0c0,2-1.62,3.61-3.61,3.61H54.06c-2,0-3.61-1.62-3.61-3.61Z" style="fill: url(#_未命名漸層_3);"/>
    <path d="M208.75,350.05h0c0-1.52,1.23-2.75,2.75-2.75h122.62c1.52,0,2.75,1.23,2.75,2.75h0c0,1.52-1.23,2.75-2.75,2.75h-122.62c-1.52,0-2.75-1.23-2.75-2.75Z" style="fill: url(#_未命名漸層_4);"/>
  </g>
  <g id="star">
    <path style="fill: #fffde3;">
      <animate id="animation-to-check" repeatCount="indefinite" attributeName="d" dur="1s"
    
    values="M291.37,104,289,82.31a.25.25,0,0,0-.5,0L286.21,104a.25.25,0,0,1-.21.22l-14.71,2.33a.25.25,0,0,0,0,.49L286,109.37a.25.25,0,0,1,.21.22l2.33,21.69a.25.25,0,0,0,.5,0l2.33-21.69a.25.25,0,0,1,.21-.22L306.29,107a.25.25,0,0,0,0-.49l-14.71-2.33A.25.25,0,0,1,291.37,104Z;
    
    M289.45,106.68l-2.56-23.86a.28.28,0,0,0-.55,0l-2.56,23.86a.28.28,0,0,1-.23.24l-16.18,2.57a.27.27,0,0,0,0,.54l16.18,2.56a.28.28,0,0,1,.23.24l2.56,23.86a.28.28,0,0,0,.55,0l2.56-23.86a.28.28,0,0,1,.23-.24L305.87,110a.27.27,0,0,0,0-.54l-16.19-2.57A.28.28,0,0,1,289.45,106.68Z;
    
    M291.37,104,289,82.31a.25.25,0,0,0-.5,0L286.21,104a.25.25,0,0,1-.21.22l-14.71,2.33a.25.25,0,0,0,0,.49L286,109.37a.25.25,0,0,1,.21.22l2.33,21.69a.25.25,0,0,0,.5,0l2.33-21.69a.25.25,0,0,1,.21-.22L306.29,107a.25.25,0,0,0,0-.49l-14.71-2.33A.25.25,0,0,1,291.37,104Z"/>
    </path>
    <path style="fill: #fffde3;">
      <animate id="animation-to-check" repeatCount="indefinite" attributeName="d" dur="1s"
    
    values="M324.22,60.18l-4-36.94a.42.42,0,0,0-.84,0l-4,36.94a.42.42,0,0,1-.36.37l-25.05,4a.43.43,0,0,0,0,.84l25.05,4a.42.42,0,0,1,.36.37l4,36.94a.42.42,0,0,0,.84,0l4-36.94a.42.42,0,0,1,.36-.37l25.05-4a.42.42,0,0,0,0-.84l-25.05-4A.42.42,0,0,1,324.22,60.18Z;
    
    M325.59,58.48l-4.37-40.63a.46.46,0,0,0-.92,0l-4.37,40.63a.48.48,0,0,1-.4.41L288,63.24a.47.47,0,0,0,0,.93l27.55,4.35a.48.48,0,0,1,.4.41l4.37,40.63a.46.46,0,0,0,.92,0l4.37-40.63a.48.48,0,0,1,.39-.41l27.56-4.35a.47.47,0,0,0,0-.93L326,58.89A.48.48,0,0,1,325.59,58.48Z;
    
    M324.22,60.18l-4-36.94a.42.42,0,0,0-.84,0l-4,36.94a.42.42,0,0,1-.36.37l-25.05,4a.43.43,0,0,0,0,.84l25.05,4a.42.42,0,0,1,.36.37l4,36.94a.42.42,0,0,0,.84,0l4-36.94a.42.42,0,0,1,.36-.37l25.05-4a.42.42,0,0,0,0-.84l-25.05-4A.42.42,0,0,1,324.22,60.18Z"/>
    </path>
  </g>
  <g id="logo">
    <g>
      <g>
        <g>
          <path d="M166.14,268.9c.41,0,.82-.03,1.24-.04-.46,.01-.92,.03-1.38,.03h.14Z" style="fill: #fffde3;"/>
          <path d="M219.75,192.18c-7.95-22.09-29.1-37.89-53.93-37.89-31.65,0-57.3,25.66-57.3,57.3s25.66,57.3,57.3,57.3h.18c-24.68-.1-44.66-25.32-44.66-56.42s20.06-56.43,44.81-56.43c16.1,0,31.21,10.24,38.12,26.75,4.64,11.09,15.49,9.38,15.49,9.38h0Z" style="fill: #fffde3;"/>
        </g>
        <g>
          <path d="M166.84,154.29h-.14c.46,0,.92,.02,1.38,.03-.41,0-.82-.04-1.24-.04h0Z" style="fill: #fffde3;"/>
          <path d="M182.03,262.72c8.89-2.67,13.43-7.15,22.92-22.33,6.38-10.19,15.49-9.38,15.49-9.38,0,0-8.94,31.72-38.42,31.72h0Z" style="fill: #fffde3;"/>
        </g>
        <path d="M144.92,210.72c0,31.16,20.06,56.43,44.81,56.43,16.1,0,31.21-10.24,38.12-26.75,4.64-11.09,15.49-9.38,15.49-9.38-7.95,22.09-29.1,37.89-53.93,37.89-31.65,0-57.3-25.66-57.3-57.3,0-22.69,19.29-51.99,39.55-51.99,0,0-26.73,13.66-26.73,51.11h-.01Z" style="fill: #fffde3;"/>
        <g>
          <path d="M190.42,268.9h-.14c.46,0,.92-.02,1.38-.03-.41,.01-.82,.04-1.24,.04h0Z" style="fill: #fffde3;"/>
          <path d="M194.9,154.33c8.89,2.67,24.15,13.29,33.64,28.47,6.38,10.19,15.49,9.38,15.49,9.38,0,0-19.66-37.85-49.14-37.85h0Z" style="fill: #fffde3;"/>
        </g>
      </g>
      <g>
        <path d="M179.58,217.58h-12.04c-.21,.6-.43,1.25-.67,1.95s-.47,1.39-.7,2.07c-.22,.67-.44,1.3-.65,1.89-.21,.58-.38,1.07-.49,1.46-.42,.18-.91,.27-1.48,.27-.48,0-.91-.13-1.28-.38-.38-.25-.56-.67-.56-1.24,0-.27,.05-.55,.13-.83,.09-.28,.19-.59,.31-.92,.45-1.26,1.03-2.88,1.73-4.85,.7-1.98,1.47-4.08,2.29-6.31,.82-2.23,1.66-4.48,2.52-6.74,.85-2.26,1.64-4.29,2.36-6.09,.24-.12,.6-.24,1.08-.36s.97-.18,1.48-.18c.6,0,1.17,.09,1.73,.27,.55,.18,.91,.48,1.06,.9,.72,1.74,1.49,3.72,2.31,5.95,.82,2.23,1.65,4.51,2.49,6.85,.84,2.34,1.64,4.64,2.4,6.9s1.44,4.31,2.04,6.13c-.24,.27-.52,.49-.85,.65-.33,.16-.7,.25-1.12,.25-.57,0-1-.13-1.3-.38s-.55-.68-.76-1.28l-2.02-5.97h0Zm-6.02-17.22c-.33,.9-.7,1.92-1.12,3.08-.42,1.15-.85,2.36-1.3,3.62s-.9,2.53-1.35,3.82c-.45,1.29-.87,2.52-1.26,3.68h10.11c-.45-1.35-.91-2.7-1.39-4.07-.48-1.36-.94-2.67-1.37-3.93s-.84-2.42-1.21-3.48c-.38-1.06-.68-1.97-.92-2.72h-.19Z" style="fill: #fffde3;"/>
        <path d="M194.5,225.09c-1.32,0-1.98-.54-1.98-1.62v-25.38c.54-.54,1.35-.81,2.43-.81,.72,0,1.33,.14,1.84,.43,.51,.28,.97,.8,1.39,1.55l8.58,14.38c.36,.63,.73,1.3,1.12,2s.76,1.41,1.12,2.11,.7,1.36,1.01,1.98c.31,.61,.58,1.13,.79,1.55l.18-.05c-.24-2.43-.38-4.87-.43-7.32-.05-2.46-.07-4.85-.07-7.19v-9.07c.18-.06,.42-.13,.72-.2,.3-.07,.63-.11,.99-.11,1.32,0,1.98,.54,1.98,1.62v25.43c-.27,.24-.61,.43-1.03,.56s-.88,.2-1.39,.2c-.72,0-1.33-.14-1.84-.43-.51-.28-.97-.8-1.39-1.55l-8.54-14.38c-.36-.6-.74-1.26-1.15-1.98-.4-.72-.79-1.42-1.17-2.11s-.72-1.35-1.03-1.98c-.31-.63-.58-1.15-.79-1.57l-.18,.04c.15,1.44,.27,3.08,.36,4.92s.13,3.59,.13,5.23v13.43c-.15,.06-.38,.13-.7,.2-.31,.07-.64,.11-.97,.11h.02Z" style="fill: #fffde3;"/>
        <path d="M238.97,217.58h-12.04c-.21,.6-.43,1.25-.67,1.95s-.47,1.39-.7,2.07c-.22,.67-.44,1.3-.65,1.89-.21,.58-.38,1.07-.49,1.46-.42,.18-.91,.27-1.48,.27-.48,0-.91-.13-1.28-.38-.38-.25-.56-.67-.56-1.24,0-.27,.05-.55,.13-.83,.09-.28,.19-.59,.31-.92,.45-1.26,1.03-2.88,1.73-4.85,.7-1.98,1.47-4.08,2.29-6.31,.82-2.23,1.66-4.48,2.52-6.74,.85-2.26,1.64-4.29,2.36-6.09,.24-.12,.6-.24,1.08-.36s.97-.18,1.48-.18c.6,0,1.18,.09,1.73,.27,.55,.18,.91,.48,1.06,.9,.72,1.74,1.49,3.72,2.31,5.95,.82,2.23,1.65,4.51,2.49,6.85,.84,2.34,1.64,4.64,2.4,6.9s1.44,4.31,2.04,6.13c-.24,.27-.52,.49-.85,.65-.33,.16-.7,.25-1.12,.25-.57,0-1-.13-1.3-.38s-.55-.68-.76-1.28l-2.02-5.97h0Zm-6.02-17.22c-.33,.9-.7,1.92-1.12,3.08-.42,1.15-.85,2.36-1.3,3.62s-.9,2.53-1.35,3.82c-.45,1.29-.87,2.52-1.26,3.68h10.11c-.45-1.35-.91-2.7-1.39-4.07-.48-1.36-.94-2.67-1.37-3.93s-.84-2.42-1.21-3.48c-.38-1.06-.68-1.97-.92-2.72h-.19Z" style="fill: #fffde3;"/>
      </g>
    </g>
  </g>
</svg>