<svg width="150" height="50" id="圖層_1" data-name="圖層 1" xmlns="http://www.w3.org/2000/svg" viewBox="0 0 150 50"><defs><style>.cls-1{fill:#1f487e;}</style></defs><polygon class="cls-1" points="37.17 10.18 4.07 34.85 37.33 21.78 37.17 10.18"/><path class="cls-1" d="M30.89,30.47a10.71,10.71,0,0,1-11.15,9.82,10.4,10.4,0,0,1-7.58-3.36,11.17,11.17,0,0,1-2.42-4,8.43,8.43,0,0,1-.27-1.47c0-3.48,0-7,0-10.45l5.8-3.08c.7.39.57.94.58,1.43,0,2.18,0,4.36,0,6.53-.07,1.57-.09,1.71-.15,3.28a12.79,12.79,0,0,0,.13,1.63,3.62,3.62,0,0,0,4.21,3,3.58,3.58,0,0,0,3.18-3.66c0-.91,0-1.83,0-2.75V20.68c0-1.52,0-3,0-4.55,0-3-.42-2.35,2.4-3.85,1.56-.83,3.08-1.71,4.62-2.57.19.12.51.22.54.38a7.7,7.7,0,0,1,.05,1.36q0,9.51,0,19Z"/><path class="cls-1" d="M82.6,37.74c-.53,0-.83.06-1.13,0a6.9,6.9,0,0,1-.73-.11c0-1.65,0-3.27,0-4.88a5.7,5.7,0,0,0-.23-1.64,1.6,1.6,0,0,0-2.5-1,2.3,2.3,0,0,0-1.23,2.13V37.7l-1.67.12a8,8,0,0,1-.17-1.06c0-1.37,0-2.75,0-4.12A6,6,0,0,0,74.65,31a1.56,1.56,0,0,0-2.19-1A2.3,2.3,0,0,0,71,32.29c0,1.27,0,2.54,0,3.81v1.6l-1.56.11c-.35-1.07-.45-6.45-.19-9q1.36-.39,1.89.57c2.22-1.66,3.65-1.57,5.32.39l.82-.78a3.37,3.37,0,0,1,3.3-.6,2.92,2.92,0,0,1,2,2.64,11.63,11.63,0,0,1,0,2.13v4.54Z"/><path class="cls-1" d="M124.84,22.75c0,1-.37,1.32-1.13,1.28s-1-.21-1-1c0-3.46,0-6.91,0-10.37a1,1,0,0,1,1.65-1,1.17,1.17,0,0,1,.41.88c0,1,0,2,0,3.25.43-.35.67-.58.94-.77a3.7,3.7,0,0,1,4.16-.21,3.92,3.92,0,0,1,2.27,3.52,10.52,10.52,0,0,1-.18,2.87c-.88,3.12-5.1,3.78-7.15,1.52Zm2.83-6.66c-1.81,0-2.79.89-2.87,2.55a7,7,0,0,0,0,1.52,2.83,2.83,0,0,0,1.8,2.28,2.51,2.51,0,0,0,2.57-.5,3.78,3.78,0,0,0,.33-5,2,2,0,0,0-1.86-.89Z"/><path class="cls-1" d="M54.7,29.72v-4h1.78v12L55,37.83l-.52-.93a4.68,4.68,0,0,0-.44.21c-2.13,1.47-4.27,1.28-5.87-.53-1.82-2.06-1.39-6.07.82-7.59a4.13,4.13,0,0,1,4.94.18c.15.12.32.23.77.55ZM54.45,33c0-.22,0-.58,0-.93a2.38,2.38,0,0,0-1.84-2.17,2.72,2.72,0,0,0-2.89.9A4,4,0,0,0,50,35.6a2.42,2.42,0,0,0,3.84,0A3.16,3.16,0,0,0,54.46,33Z"/><path class="cls-1" d="M93,23c0,.55,0,1.1,0,1.65s-.26.86-1,.88-1.08-.17-1.09-.9c0-1.52,0-3,0-4.56V15.7c0-.47,0-.93.61-1.07a1.14,1.14,0,0,1,1.46.66l.17.36a9.4,9.4,0,0,1,1.51-1,4.23,4.23,0,0,1,5.64,3.05,7.08,7.08,0,0,1-.25,3.89,3.94,3.94,0,0,1-3.47,2.53,4.6,4.6,0,0,1-3.58-1Zm2.72-6.95A2.45,2.45,0,0,0,93,18.64a12.88,12.88,0,0,0,0,1.52,3.08,3.08,0,0,0,1.9,2.33,2.66,2.66,0,0,0,3-1.19,4.21,4.21,0,0,0,.57-2.61,2.8,2.8,0,0,0-2.8-2.59Z"/><path class="cls-1" d="M84.57,31.22a3.12,3.12,0,0,1,3.13-2.89,8,8,0,0,1,1.83,0c1.73.29,2.77,1,2.85,3,0,1.12.05,2.24,0,3.36,0,.89.07,1.64,1.17,1.72v1.11c-.62.62-1.92.27-3.08-.8A3.81,3.81,0,0,1,86,37.83,2.73,2.73,0,0,1,84.11,35a2.54,2.54,0,0,1,1.83-2.67A11.4,11.4,0,0,1,87.88,32c.4-.05.82,0,1.22,0,.85-.05,1.16-.29,1.17-.88a1.23,1.23,0,0,0-1.12-1.23,2.45,2.45,0,0,0-2.35.75c-.83.93-.88.88-2.23.58ZM90.5,33a6.15,6.15,0,0,1-3.13.83c-.89,0-1.13.34-1.12,1.24a1.19,1.19,0,0,0,1,1.36A2.17,2.17,0,0,0,89.46,36,3.15,3.15,0,0,0,90.5,33Z"/><path class="cls-1" d="M103.7,22.84v2.61h-1.64a70.27,70.27,0,0,1,0-10.77h1.5c.1.33.19.65.3,1,.32-.27.58-.51.87-.71a4.12,4.12,0,0,1,6.3,2.85,6.23,6.23,0,0,1-.38,4,4.22,4.22,0,0,1-6.35,1.36l-.57-.4Zm2.57-6.75A2,2,0,0,0,104,17.35a4.09,4.09,0,0,0,0,3.79,2.65,2.65,0,0,0,4.62.12,4,4,0,0,0,.3-3.36c-.49-1.41-1.11-1.8-2.75-1.81Z"/><path class="cls-1" d="M120.53,22.06l1,.28c.06.09.16.17.16.26,0,1.41-.29,1.69-1.58,1.24a9.59,9.59,0,0,1-1.59-.93c-.88,1.18-2.22,1.29-3.64,1.17a2.93,2.93,0,0,1,0-5.83c.82,0,1.64,0,2.44-.05.49-.05,1-.2,1.07-.87a1.08,1.08,0,0,0-.84-1.27,1.62,1.62,0,0,0-.88-.17c-.79.15-1.62.3-2,1.17a3.16,3.16,0,0,1-.34.5h-1.63a2.75,2.75,0,0,1,2.16-2.94,5.67,5.67,0,0,1,3.29-.06,3,3,0,0,1,2.34,3.14c0,.71,0,1.42,0,2.14v2.24Zm-2-3.15a3.39,3.39,0,0,1-2.71.88,1.88,1.88,0,0,0-.74.11,1.2,1.2,0,0,0-.49,2.12,2.34,2.34,0,0,0,3.43-.41,3.47,3.47,0,0,0,.51-2.69Z"/><path class="cls-1" d="M145.8,19.87H139a2.58,2.58,0,0,0,1.74,2.55,2.25,2.25,0,0,0,2.83-.85c.43-.62.5-.58,1.92-.43a.8.8,0,0,1,0,1.09,4,4,0,0,1-3.31,1.86,5.28,5.28,0,0,1-3.09-.57,4,4,0,0,1-2-3.23c0-.56,0-1.12,0-1.68a3.94,3.94,0,0,1,2.49-3.84,4.45,4.45,0,0,1,5,.65c1.39,1.12,1.62,2.58,1.3,4.46Zm-1.74-1.7c-.58-1.55-1.44-2.33-2.43-2.32-1.28,0-2.17.77-2.63,2.32h5.06Z"/><path class="cls-1" d="M89.75,19.28a4.58,4.58,0,0,1-1.34,3.46,5.11,5.11,0,0,1-5.75.89,3.77,3.77,0,0,1-1.79-1.8A5.55,5.55,0,0,1,81,16.47a4.53,4.53,0,0,1,5-2,4.21,4.21,0,0,1,3.35,2.76,14.23,14.23,0,0,1,.37,2.07M88,19.12A17.34,17.34,0,0,0,87.16,17a2.8,2.8,0,0,0-2.48-1.17,2.89,2.89,0,0,0-2.35,2.48,6.93,6.93,0,0,0,0,1.82,2.9,2.9,0,0,0,2.14,2.33,2.61,2.61,0,0,0,2.78-1.15A12.31,12.31,0,0,0,88,19.12Z"/><path class="cls-1" d="M58.1,33.11a4.17,4.17,0,0,1,1.62-3.77,3.57,3.57,0,0,1,1.42-.81,5.38,5.38,0,0,1,4.38.52,4.58,4.58,0,0,1,2,4.2,4.26,4.26,0,0,1-.87,3A5,5,0,0,1,61,37.78c-1.87-.66-2.86-2.22-2.86-4.68Zm7.35.07c0-.3,0-.61,0-.91a2.89,2.89,0,0,0-2.26-2.38,2.54,2.54,0,0,0-2.76,1.44A3.76,3.76,0,0,0,60,34c.37,1.94,1.88,3.06,3.78,2.31,1.18-.47,1.69-1.4,1.67-3.1Z"/><path class="cls-1" d="M116.16,31.32l-1.87.1a7.94,7.94,0,0,1-.52-.76c-.6-1.16-2.25-.92-3-.36a.92.92,0,0,0,.26,1.67,13.58,13.58,0,0,0,2.4.31A2.76,2.76,0,0,1,116,34a2.67,2.67,0,0,1-1.53,3.61,8.75,8.75,0,0,1-2.67.45,3.6,3.6,0,0,1-3.39-3.15c.93-.26,1.65-.33,2.28.73a1.9,1.9,0,0,0,2.93.44,1.18,1.18,0,0,0,.53-1.32,1.2,1.2,0,0,0-1.11-.9c-.46,0-.92,0-1.37,0a4,4,0,0,1-1-.11c-1-.36-1.87-.82-2-2.05a2.76,2.76,0,0,1,1.55-3,4.5,4.5,0,0,1,5.14,1,11.27,11.27,0,0,1,.9,1.69Z"/><path class="cls-1" d="M65.92,20.83l1.57-.09a12.55,12.55,0,0,0,.88,1.2,2.16,2.16,0,0,0,3.21-.14,1,1,0,0,0-.45-1.68A6.21,6.21,0,0,0,69,19.84a2.62,2.62,0,0,1-3-2.06,2.93,2.93,0,0,1,2.24-3.19,4.06,4.06,0,0,1,4.47,1,1.72,1.72,0,0,1,.52,1.92l-1.46.11a5.4,5.4,0,0,0-.48-.93,2,2,0,0,0-2.94-.34c-.32.27-.66.62-.44,1a1.61,1.61,0,0,0,.86.77,4.53,4.53,0,0,0,1.52.07,4.26,4.26,0,0,1,2,.55,2.73,2.73,0,0,1,.08,4.66,5.38,5.38,0,0,1-4.27.41,3,3,0,0,1-2.29-3.05Z"/><path class="cls-1" d="M58.45,24c-.43,0-.67.07-.91.08-.64,0-.93-.3-.92-.93v-7c0-.44,0-.89.06-1.41h1.6c.09.32.19.64.3,1,.35-.28.64-.56,1-.78a3.2,3.2,0,0,1,3.18-.32,2.48,2.48,0,0,1,1.67,1.81,18.23,18.23,0,0,1,.4,2.53c.07,1.37,0,2.74,0,4.11,0,.78-.26,1-1,1s-1-.18-1-1c0-1.67,0-3.35,0-5,0-1.2-.32-1.72-1.09-1.91A2.34,2.34,0,0,0,58.8,17.3a5.92,5.92,0,0,0-.34,1.92c-.05,1.52,0,3,0,4.73Z"/><path class="cls-1" d="M47.13,14.68H49c0,1.23,0,2.39,0,3.54a24.79,24.79,0,0,0,.24,2.71,1.71,1.71,0,0,0,2.65,1.35,2.45,2.45,0,0,0,1.32-2.38c0-1.27,0-2.54,0-3.81,0-.44,0-.89.07-1.43l1.52-.07a46.27,46.27,0,0,1,.11,9.07c-.21,0-.45.09-.68.1s-.5,0-.79,0c-.13-.25-.26-.5-.43-.81a3.36,3.36,0,0,1-2.41,1.17A3.2,3.2,0,0,1,47.14,21c-.11-2.07,0-4.15,0-6.35Z"/><path class="cls-1" d="M106.75,37.76h-1.67a8.33,8.33,0,0,1-.16-1c0-1.52,0-3,0-4.57s-.63-2.24-1.84-2.32a2.29,2.29,0,0,0-2.41,2.22c-.07,1.11,0,2.23,0,3.35v2.23h-1.8c-.08-1.46,0-2.92,0-4.38V28.78l1.53-.36.46,1a1.77,1.77,0,0,0,.36-.2c.94-1.06,2.19-1,3.4-.81,1,.15,2.16,1.74,2.21,3,.07,2.07,0,4.14,0,6.36Z"/><path class="cls-1" d="M75.26,16.25,73.82,16v-1.3l1.31-.27.27-1H77c.1.38.18.7.29,1.1l2.48.14v1.26c-.12.06-.25.14-.38.19a.75.75,0,0,1-.3,0c-2.28-.11-1.92.31-1.93,2.07,0,.81,0,1.63,0,2.44,0,1.21.29,1.47,1.52,1.59q1.19.11,1,1.53c-.78,0-1.58,0-2.38,0a1.9,1.9,0,0,1-2-2.07c0-1.27,0-2.54,0-3.81V16.26Z"/><path class="cls-1" d="M135.35,23.92a4.1,4.1,0,0,1-1.23.07,1.36,1.36,0,0,1-.68-.66,1.68,1.68,0,0,1,0-.75V13c0-1.53.48-1.79,1.95-1.11v12Z"/><path class="cls-1" d="M94.89,37.69V28.76l1.38-.39c.15.24.34.4.34.57,0,2.88,0,5.77,0,8.76H94.89Z"/></svg>