<svg width="150" height="50" id="圖層_1" data-name="圖層 1" xmlns="http://www.w3.org/2000/svg" viewBox="0 0 150 50"><defs><style>.cls-1{fill:#1f487e;}</style></defs><g id="uqRI51.tif"><path class="cls-1" d="M22.61,13.6a3.28,3.28,0,0,1,1.95,1.79c1.52,2.69,3.05,5.35,4.63,8a2.78,2.78,0,0,1,0,3.2c-1.69,2.81-3.31,5.66-4.94,8.5A2.42,2.42,0,0,1,22,36.37H11.83A2.39,2.39,0,0,1,9.59,35.1c-1.71-3-3.44-6-5.16-8.92a7.59,7.59,0,0,1-.37-.82v-.72c.18-.38.33-.77.54-1.13,1.54-2.68,3.11-5.34,4.63-8a3.48,3.48,0,0,1,2-1.89H22.61ZM16.94,32.82l1-.09a7.78,7.78,0,0,0,6.62-9.48,7.45,7.45,0,0,0-5.91-5.86,7.49,7.49,0,0,0-7.89,2.81,7.76,7.76,0,0,0,.42,10.1.82.82,0,0,0,1.34.05c1.19-1.15,2.38-2.31,3.55-3.47a1,1,0,0,1,.8-.31A1.55,1.55,0,0,0,18.51,25a1.61,1.61,0,1,0-3.2.25.47.47,0,0,1-.06.31c-.31.37-.65.73-1,1.12a3.14,3.14,0,1,1,5.54-2.9,3.07,3.07,0,0,1,0,2.52,3.15,3.15,0,0,1-2.86,1.9v1.5a4.67,4.67,0,0,0,2.56-8.58,4.71,4.71,0,0,0-5.72.42,4.68,4.68,0,0,0-.8,6.05c-.37.44-.71.82-1.05,1.22a6.2,6.2,0,0,1-.31-7.18,6.29,6.29,0,0,1,11.56,3.78,6,6,0,0,1-1.48,3.68,6.33,6.33,0,0,1-4.79,2.24v1.55Z"/><path class="cls-1" d="M35.78,32.37V17.66h.45c1.74,0,3.48-.06,5.21,0a7.28,7.28,0,0,1,1.68,14.37,10.71,10.71,0,0,1-2.33.31c-1.59,0-3.18,0-4.77,0h-.24Zm3-2.78c.85,0,1.68.07,2.5,0A4.39,4.39,0,0,0,45.11,27a4.93,4.93,0,0,0,.37-2.68A4.07,4.07,0,0,0,43.18,21a9.36,9.36,0,0,0-4.35-.55v9.19Z"/><path class="cls-1" d="M92.14,27.2v5.17h-3V17.71c.06,0,.11,0,.16,0,1.88,0,3.77,0,5.65,0a5.15,5.15,0,0,1,3.79,1.56,4.69,4.69,0,0,1-1,7.17l-.36.22,4.18,5.78H98.32c-.12,0-.27-.15-.35-.27q-1.71-2.31-3.41-4.64A.57.57,0,0,0,94,27.2c-.6,0-1.2,0-1.85,0Zm0-2.69H94.5q.3,0,.6,0a1.93,1.93,0,0,0,1.77-1.9,1.87,1.87,0,0,0-1.58-2.16,29.47,29.47,0,0,0-3.12,0v4.11Z"/><path class="cls-1" d="M125.06,32.37h-2.74V31.21c-.09,0-.13,0-.15,0-1.44,1.72-4.56,1.85-6.49.43A5.4,5.4,0,0,1,113.49,28,6.06,6.06,0,0,1,115,22.73a5.27,5.27,0,0,1,6.11-1.1,10.36,10.36,0,0,1,1,.68V15.72h3V32.37Zm-8.57-5.53v.36a2.8,2.8,0,0,0,2.44,2.65,2.62,2.62,0,0,0,3-2,4,4,0,0,0,.11-1.34,2.68,2.68,0,0,0-1.75-2.5,2.82,2.82,0,0,0-3.84,2.83Z"/><path class="cls-1" d="M75.52,21.37h2.76v1.27a8.51,8.51,0,0,1,.64-.6,4.84,4.84,0,0,1,5.15-.44,5.29,5.29,0,0,1,3.12,4.77,5.86,5.86,0,0,1-1.68,4.81,5.06,5.06,0,0,1-6.83.3l-.13-.07v5h-3v-15Zm3,5.54a3,3,0,0,0,0,.38,2.74,2.74,0,0,0,2.25,2.56A2.81,2.81,0,0,0,84,28a3.67,3.67,0,0,0,.13-1.77,2.81,2.81,0,0,0-5.58.7Z"/><path class="cls-1" d="M62,36.36v-15h2.77v1.25c1.81-2.12,5.32-1.92,7.14-.16a5.71,5.71,0,0,1,1.73,3.6,6.09,6.09,0,0,1-1.36,4.78,5.11,5.11,0,0,1-7.25.53v5H62Zm5.74-12.53a2.57,2.57,0,0,0-2.64,2.1,5,5,0,0,0-.07,1.5,2.65,2.65,0,0,0,2.22,2.4,2.79,2.79,0,0,0,3.07-1.59,3.47,3.47,0,0,0,.25-1.91,2.76,2.76,0,0,0-2.82-2.51Z"/><path class="cls-1" d="M136.78,32.37H134v-1a3.3,3.3,0,0,0-.3.21,4.8,4.8,0,0,1-5.13.6,2.93,2.93,0,0,1-1.75-3.13,2.77,2.77,0,0,1,2-2.55,8.35,8.35,0,0,1,2.11-.38c.92-.06,1.84,0,2.76,0A1.8,1.8,0,0,0,132,23.73a3.43,3.43,0,0,0-2.76,1c-.14.14-.27.3-.44.5l-1.6-1.89a6,6,0,0,1,2-1.65,6.21,6.21,0,0,1,4.52-.41,3.94,3.94,0,0,1,3,3.86c.1,2.38,0,4.77,0,7.19Zm-3.06-4.25h-1.46c-.44,0-.88,0-1.32,0a1.08,1.08,0,0,0-.19,2.14,3.25,3.25,0,0,0,1,.09,2.08,2.08,0,0,0,1.94-2.26Z"/><path class="cls-1" d="M59.64,32.37H56.93c0-.3,0-.6,0-1l-.34.26a4.83,4.83,0,0,1-5.07.53A3,3,0,0,1,49.75,29a3,3,0,0,1,2.46-2.61,10.54,10.54,0,0,1,2.1-.22c.77,0,1.54,0,2.3,0a1.83,1.83,0,0,0-1.87-2.39,3.48,3.48,0,0,0-3,1.59c-.1-.14-.14-.21-.19-.27l-1.41-1.67a6,6,0,0,1,4.11-2.25,6.1,6.1,0,0,1,2.65.26,3.87,3.87,0,0,1,2.76,3.66c.11,2.41,0,4.82,0,7.24a.31.31,0,0,1,0,.09Zm-3-4.21H53.82a1.34,1.34,0,0,0-.27.07,1,1,0,0,0-.75.84,1,1,0,0,0,.53,1.08,2.27,2.27,0,0,0,2.33-.09,2,2,0,0,0,1-1.9Z"/><path class="cls-1" d="M102.11,23.36a6.08,6.08,0,0,1,4.35-2.26,5.79,5.79,0,0,1,2.82.44,3.86,3.86,0,0,1,2.36,3.54c.1,2.4,0,4.8,0,7.2a.31.31,0,0,1,0,.09h-2.71c0-.29,0-.59-.05-1l-.33.26a4.81,4.81,0,0,1-5.07.53,3.1,3.1,0,0,1,.72-5.84,10.91,10.91,0,0,1,2-.22c.81,0,1.62,0,2.43,0a1.83,1.83,0,0,0-1.86-2.39A3.61,3.61,0,0,0,104,24.91c-.1.09-.19.19-.29.29l-.07,0-.77-.9-.79-.94Zm6.54,4.79-.31,0-2.52,0a1.34,1.34,0,0,0-.27.07,1,1,0,0,0-.77.87,1,1,0,0,0,.59,1.09,2.31,2.31,0,0,0,2.29-.14,2,2,0,0,0,1-1.89Z"/><path class="cls-1" d="M142.16,32.37h-3v-11h2.75v1.12l.1.05a4.12,4.12,0,0,1,.28-.31,3.76,3.76,0,0,1,3.37-1,.46.46,0,0,1,.28.28c0,.81,0,1.59,0,2.42-.5,0-1,0-1.45.08a2.52,2.52,0,0,0-2.32,2.72c0,1.71,0,3.41,0,5.12v.48Z"/></g></svg>