<svg width="150" height="50" id="圖層_1" data-name="圖層 1" xmlns="http://www.w3.org/2000/svg" viewBox="0 0 150 50"><defs><style>.cls-1{fill:#1f487e;}</style></defs><path class="cls-1" d="M20,.47,17.3,11.64c-.12.48-.22,1-.36,1.53.79-.25,1.5-.43,2.19-.68,3.2-1.16,9,0,10.73,5.1C32.2,24.34,29.1,33.16,23,36.9a17,17,0,0,1-8.37,2.51,24,24,0,0,1-9.89-1.58c-.59-.23-.79-.47-.62-1.16Q8.24,19.45,12.29,2.2c.09-.38.22-.58.66-.64,2.14-.29,4.27-.63,6.4-.95a5.26,5.26,0,0,0,.53-.15H20ZM12.52,32.93A9,9,0,0,0,17,33a8.4,8.4,0,0,0,4.84-4.14,9.9,9.9,0,0,0,.89-8.94,2.17,2.17,0,0,0-1.33-1.32,5.84,5.84,0,0,0-5,.34,1.57,1.57,0,0,0-.8,1.1c-.67,2.86-1.37,5.72-2,8.57l-1,4.32Z"/><path class="cls-1" d="M145.93,12.18c-.42,1.49-.9,3-1.26,4.46C143,23.81,141.28,31,139.52,38.15a22.85,22.85,0,0,1-1.67,4.41,11.61,11.61,0,0,1-6.13,5.67,21.75,21.75,0,0,1-10.38,1.09c.23-1,.47-2,.7-2.93s.47-1.92.72-2.91c1.3,0,2.56.07,3.82,0a6.08,6.08,0,0,0,5.47-5l-.54.07a17.42,17.42,0,0,1-7.9-.09A5.9,5.9,0,0,1,119,32.89a23.45,23.45,0,0,1,.94-8.29q1.44-5.94,2.83-11.91a.83.83,0,0,1,1-.77c2,0,3.91,0,5.86,0h.76c-.29,1.27-.56,2.45-.85,3.63-1,4.11-2,8.2-3,12.32a8.45,8.45,0,0,0-.12,2.46,2.69,2.69,0,0,0,2.52,2.5,9.25,9.25,0,0,0,4.43-.31.92.92,0,0,0,.48-.61c1-4.12,2-8.25,3-12.38.59-2.47,1.18-5,1.78-7.5h7.3v.12Z"/><path class="cls-1" d="M70.8,39.13Q69.68,43.55,68.53,48h-7.2c0-.23.05-.43.1-.62l8.16-34.58c.08-.34.16-.6.62-.59,3.51,0,7,0,10.54.11a9.05,9.05,0,0,1,5.51,1.87A9.84,9.84,0,0,1,90,21a17.21,17.21,0,0,1-1.59,9.63c-2.85,5.78-7.7,8.48-14,8.72a31.48,31.48,0,0,1-3.54-.27ZM72,32.92a10.48,10.48,0,0,0,5.89-.51c4.5-2.09,5.76-7.39,4.84-11.14a3.57,3.57,0,0,0-3.73-3c-.85,0-1.7,0-2.55,0-.54,0-.75.16-.88.68-.8,3.23-1.64,6.46-2.47,9.69-.37,1.44-.73,2.88-1.1,4.36Z"/><path class="cls-1" d="M118.44,12.11c-1.13,5.08-2.17,10.12-3.4,15.1a18.79,18.79,0,0,0,.83,11.34c.07.19.13.38.23.66h-.74c-1.87,0-3.74,0-5.62,0a.92.92,0,0,1-1-.7c-.2-.61-.43-1.2-.64-1.78-.92.5-1.83,1-2.77,1.5a9.72,9.72,0,0,1-7.46.46,7.8,7.8,0,0,1-5.47-6.29c-1.63-7.74,1.48-15.22,9-19a12.1,12.1,0,0,1,5.47-1.3c3.76,0,7.53,0,11.29,0l.36,0Zm-8.53,6c-1.41.08-2.71.1-4,.23a5,5,0,0,0-2.74,1.24,11,11,0,0,0-3.56,5.44,9.28,9.28,0,0,0,.33,6.56A2.35,2.35,0,0,0,101.72,33a5.38,5.38,0,0,0,5.15-1.66,1,1,0,0,0,.25-.53c.25-1.45.41-2.91.74-4.34.62-2.72,1.33-5.42,2-8.33Z"/><path class="cls-1" d="M58.7,4.1c-.66,2.64-1.29,5.18-1.94,7.81h8.41c0,.24,0,.4,0,.55-.39,1.67-.81,3.34-1.18,5-.1.43-.28.55-.71.55-2.39,0-4.78,0-7.17,0-.43,0-.63.13-.73.55-.76,3.18-1.56,6.36-2.29,9.55a7.69,7.69,0,0,0-.1,2.09,2.68,2.68,0,0,0,2.46,2.63,5.32,5.32,0,0,0,3.36-.24,10.2,10.2,0,0,1,1.56-.38c-.18.8-.34,1.51-.51,2.22-.28,1.21-.57,2.42-.83,3.63a.61.61,0,0,1-.56.54,17.26,17.26,0,0,1-8.33,0,6,6,0,0,1-4.61-5.72,26.44,26.44,0,0,1,1-8.35q2.19-9.29,4.33-18.58a.66.66,0,0,1,.63-.61c2.38-.37,4.75-.79,7.24-1.21Z"/><path class="cls-1" d="M45.14,12.11l-1,4.22q-2.66,11.09-5.3,22.17c-.14.58-.35.75-.94.74-1.91,0-3.83,0-5.74,0h-.77c2.18-9.08,4.34-18.09,6.5-27.12h7.25Z"/><path class="cls-1" d="M46.94,4.1c-.35,1.47-.68,2.86-1,4.25,0,.16-.25.39-.38.39-2.28,0-4.57,0-7,0,.24-1,.46-2,.69-3,.14-.56.16-1.3.53-1.6s1.07-.09,1.63-.1h5.52Z"/></svg>