<svg  width="150" height="50" id="圖層_1" data-name="圖層 1" xmlns="http://www.w3.org/2000/svg" viewBox="0 0 150 50"><defs><style>.cls-1{fill:#1f487e;}</style></defs><g id="MIAUut"><path class="cls-1" d="M25,4.55C27.32,6.93,29.7,9.31,32,11.71a1.49,1.49,0,0,1,.38,1q0,12.32,0,24.62a2.44,2.44,0,0,1-.11.44H11.88v7.71c-.37-.3-.56-.44-.73-.61C9,42.7,6.84,40.57,4.74,38.39a2.43,2.43,0,0,1-.62-1.52c-.07-2.21,0-4.43,0-6.81h20.6V4.66L25,4.55Z"/><path class="cls-1" d="M125.73,21.85V18.73h3V33.17a2,2,0,0,0,1.83,2.21v2.25c-3,.56-4.26-.18-4.77-2.66-.07,0-.17,0-.2,0-2.27,3.13-5.39,3.86-8.94,2.93s-5.65-3.48-6.46-7a12.12,12.12,0,0,1,.51-7.07,8.57,8.57,0,0,1,15-2Zm-6.2-1a6,6,0,0,0-5,2.38,8.49,8.49,0,0,0-1.46,6.83,6.52,6.52,0,0,0,6,5.61,6.24,6.24,0,0,0,6.34-4.4,8.8,8.8,0,0,0-.32-6.79,6.05,6.05,0,0,0-5.51-3.63Z"/><path class="cls-1" d="M50.88,27.59V37.7H47.82V36.33c0-7.69,0-15.38,0-23.07C47.8,12.3,48,12,49,12c2.95.11,5.93-.06,8.86.23,4.07.4,6.5,3.67,6.33,8.08a7.42,7.42,0,0,1-6.92,7.22c-1.73.1-3.47.05-5.21.06h-1.2Zm0-2.71c2,0,4,.09,5.88,0a4.63,4.63,0,0,0,4.3-4.33c.25-2.76-1-5.08-3.34-5.52a54.71,54.71,0,0,0-6.84-.44V24.88Z"/><path class="cls-1" d="M96.21,37.67V35.3h3.7V12.73H96.22V10.27h6.66v25h3.87v2.41H96.21Z"/><path class="cls-1" d="M88.21,35.28h3.86v2.4H81.57V35.31h3.66V12.76H81.58V10.28H88.2v25Z"/><path class="cls-1" d="M14.34,19.71H4.15V9.57H14.34Z"/><path class="cls-1" d="M139.34,37.71h-2.89v-19h2.82v2.91c1.59-2.53,3.67-3.75,6.66-3.36V21.1h-1.07c-3.37,0-5.26,1.68-5.41,5.08s-.09,6.94-.12,10.41v1.13Z"/><path class="cls-1" d="M74.72,37.72H71.88V21.14H68.29v-2.4h6.42v19Z"/><path class="cls-1" d="M75.43,13.05a2.12,2.12,0,1,1-4.24.06,2.12,2.12,0,0,1,4.24-.06Z"/></g></svg>