<svg width="150" height="50" id="圖層_1" data-name="圖層 1" xmlns="http://www.w3.org/2000/svg" viewBox="0 0 150 50"><defs><style>.cls-1{fill:#1f487e;}</style></defs><path class="cls-1" d="M4.07,17.08H8.82V32.75H4.07Z"/><path class="cls-1" d="M16.36,24.81v7.8h-4.3V17.27h3.65l6.7,8v-8h4.26V32.75H23.08Z"/><path class="cls-1" d="M136.67,28.65c-.12,1.33-.22,2.49-.35,3.93h-4.48V17.16a82.07,82.07,0,0,1,8.74.06,5.6,5.6,0,0,1,5.33,6.26c-.15,3-2.41,5-6,5.17-1,.05-2.11,0-3.29,0Zm-.07-3.41c1,0,1.64,0,2.21,0a2.35,2.35,0,0,0,2.42-2.22v0a2.34,2.34,0,0,0-2.47-2.46c-.61,0-1.28.08-2.16.08Z"/><path class="cls-1" d="M102.21,30c-.43.91-.83,1.73-1.28,2.69H96.37c2.38-5.39,4.62-10.49,6.86-15.56h4.39c2.25,5.05,4.53,10.16,6.91,15.52H110L108.47,30Zm3.2-8.2c-.68,1.75-1.17,3-1.71,4.36h3.42l-1.72-4.36Z"/><path class="cls-1" d="M37.89,28.54a7.46,7.46,0,0,0-1.67-1.35c-1.1-.4-2.29-.53-3.41-.89-2.92-.95-4-2.39-3.8-4.76a5.29,5.29,0,0,1,4.46-4.42c2.68-.3,5.44-.57,8.15,1.22l-1.29,3.08c-2.37-.32-4.63-2-7,.29,2.7,2.63,8.27,1,9,6.17-1.34,5.39-7.24,7-13.48,3.49L30,28.48c2.58,0,5.07,2.57,7.86.06Z"/><path class="cls-1" d="M62.32,17.21h4.52c2.21,5,4.42,10,6.8,15.41H69L67.76,30H61.41L60,32.74H55.59C57.91,27.4,60.1,22.33,62.32,17.21Zm4.07,9.1-1.64-3.75-.65.19c-.34,1.12-.69,2.24-1.09,3.56Z"/><path class="cls-1" d="M129.29,25.42c-1.62,3.37-5.16,3.39-8.83,3.25-.15,1.42-.28,2.66-.42,4H116V17.37c7.38-.86,11.4-.22,13.15,2.85a5.65,5.65,0,0,1,.15,5.2Zm-8.91-.27c.86,0,1.54.08,2.21.12a2.26,2.26,0,0,0,2.4-2.13v-.05a2.26,2.26,0,0,0-2.22-2.39c-.76,0-1.52,0-2.4-.06v4.5Z"/><path class="cls-1" d="M85.08,34.74V30.3c2.69-.85,4.93-2.19,5-5.24.08-3.24-2.22-4.66-5-5.56V15.28a9.58,9.58,0,0,1,10,9.29c.25,5.3-3.9,9.71-10,10.16Z"/><path class="cls-1" d="M81.62,15.42V34.25a9.42,9.42,0,0,1-6.63-9C74.81,20.92,77,17.61,81.62,15.42Z"/><path class="cls-1" d="M52,32.71H47.48V21l-4.76-.4V17.29H56.51v3.32l-4.5.28V32.71Z"/></svg>