<svg width="235.0247" height="55.1626" xmlns="http://www.w3.org/2000/svg" xmlns:xlink="http://www.w3.org/1999/xlink" viewBox="0 0 235.02 55.16"><defs><style>.cls-1{fill:url(#未命名漸層_36);}</style><linearGradient id="未命名漸層_36" x1="11018.4" y1="55.09" x2="11018.4" y2="8.73" gradientTransform="matrix(-1, 0, 0, 1, 11135.91, 0)" gradientUnits="userSpaceOnUse"><stop offset="0" stop-color="#fffde3" stop-opacity="0"/><stop offset="1" stop-color="#fffde3"/></linearGradient></defs><g id="圖層_2" data-name="圖層 2"><g id="_01首頁" data-name="01首頁"><path class="cls-1" d="M204.52,26.31S205.83,3.62,180.36.22C162.86-2.11,137,14.68,137,14.68S129.15,3.8,121.05,4.05c-26,.82-25.83,31.09-25.83,31.09s-11.17-13.37-31.75,2l-2.59,8A192.66,192.66,0,0,1,0,55.16H232.91s6.15-2.87-2.53-11.54-17.77-9.22-17.77-9.22,11.26-5.82,3.95-12.79C209.07,14.46,204.52,26.31,204.52,26.31Z"/></g></g></svg>