<svg width="30" height="30" xmlns="http://www.w3.org/2000/svg" viewBox="0 0 30.33 30.32"><defs><style>.cls-1{fill:#204a83;}</style></defs><g id="圖層_2" data-name="圖層 2"><g id="_01首頁" data-name="01首頁"><path class="cls-1" d="M30.33,15.16A15.17,15.17,0,1,1,15.21,0,15.17,15.17,0,0,1,30.33,15.16ZM10.87,11.3c-.07.71-.17,1.4-.22,2.09a23.84,23.84,0,0,0,.22,5.47c0,.15.07.17.2.17h8.18c.14,0,.2-.05.21-.18.09-1,.21-2,.26-3a21,21,0,0,0-.14-3.54c0-.35-.1-.69-.15-1Zm-2.13,0H2.86c-.13,0-.16.05-.2.16a14.07,14.07,0,0,0-.47,2.41,13.29,13.29,0,0,0,.46,5c0,.15.11.19.26.19H8.74A27.05,27.05,0,0,1,8.74,11.3ZM21.58,19h5.84c.1,0,.2,0,.24-.13a13.72,13.72,0,0,0,.52-3,11.88,11.88,0,0,0-.13-2.6c-.11-.66-.26-1.31-.4-2H21.58A26.35,26.35,0,0,1,21.58,19ZM11.33,21.16c.13.46.24.88.37,1.31A23.62,23.62,0,0,0,14.24,28a.28.28,0,0,0,.26.16h1.26a.39.39,0,0,0,.36-.21,24.38,24.38,0,0,0,2.6-5.83c.09-.32.17-.65.27-1ZM19,9.16c-.34-1-.64-2-1-2.94a20.3,20.3,0,0,0-1.95-3.9.31.31,0,0,0-.31-.18c-.38,0-.77,0-1.15,0a.44.44,0,0,0-.45.25,23.6,23.6,0,0,0-2.36,5.1c-.18.55-.33,1.1-.5,1.67ZM18.75,27.7a13.05,13.05,0,0,0,8-6.53H21.41c-.2,0-.25.07-.29.24a26.51,26.51,0,0,1-1.76,5.05C19.16,26.85,19,27.25,18.75,27.7ZM3.58,21.16a13.07,13.07,0,0,0,3.34,4.1,12.86,12.86,0,0,0,4.66,2.44l-.11-.23a26.67,26.67,0,0,1-2.27-6.1c0-.17-.11-.22-.27-.22H3.58Zm5.57-12a26.76,26.76,0,0,1,2.43-6.51A12.59,12.59,0,0,0,6.06,5.83,12.88,12.88,0,0,0,3.59,9.16ZM18.8,2.63c.46,1.07,1,2.12,1.36,3.2S20.88,8,21.23,9.15h5.51A13.14,13.14,0,0,0,18.8,2.63Z"/></g></g></svg>