<?xml version="1.0" encoding="UTF-8"?>
<svg width="44" height="44" id="_圖層_2" data-name="圖層 2" xmlns="http://www.w3.org/2000/svg" viewBox="0 0 44 44">
  <g id="_模擬置頂" data-name="模擬置頂">
    <g>
      <circle cx="22" cy="22" r="22" transform="translate(-4.47 38.36) rotate(-76.72)" style="fill: #4d5faa;"/>
      <path d="M36.88,25.8v2.15c-.04,.43-.06,.86-.12,1.29-.02,.14-.1,.32-.21,.4-2.15,1.58-4.51,2.77-7.05,3.58-.2,.06-.32,.03-.43-.15-.41-.68-.84-1.35-1.24-2.03-.2-.34-.18-.34,.18-.5,.63-.29,1.25-.6,1.88-.9,.17-.08,.25-.16,.07-.34-.26-.25-.49-.29-.84-.13-4.74,2.04-9.48,2-14.21-.01-.41-.18-.68-.08-.92,.35,.09,.05,.17,.12,.26,.16,.64,.31,1.27,.61,1.91,.91,.19,.09,.27,.17,.14,.37-.45,.72-.89,1.45-1.34,2.17-.08,.14-.18,.17-.34,.12-2.57-.82-4.95-2.02-7.13-3.61-.09-.06-.16-.2-.18-.3-.2-2.01-.15-4.02,.13-6.01,.55-3.84,2-7.33,4.14-10.55,.08-.13,.22-.24,.36-.31,1.81-.83,3.7-1.4,5.66-1.76,.19-.04,.29,.02,.37,.18,.18,.37,.38,.72,.54,1.09,.1,.24,.23,.27,.47,.25,.86-.08,1.73-.21,2.6-.2,1.19,.01,2.37,.12,3.56,.2,.23,.02,.35-.03,.44-.25,.16-.37,.35-.73,.53-1.1,.08-.16,.17-.22,.36-.18,1.97,.36,3.86,.95,5.69,1.77,.12,.05,.23,.15,.3,.25,2,2.96,3.41,6.17,4.02,9.7,.19,1.12,.28,2.26,.41,3.39Zm-7.19-2.71c-.08-.38-.12-.76-.24-1.12-.62-1.78-2.63-2.43-4.03-1.31-1.47,1.18-1.5,3.61-.06,4.83,1.02,.87,2.43,.81,3.38-.13,.62-.62,.89-1.38,.95-2.26Zm-9.87,0c-.08-.38-.12-.77-.24-1.12-.61-1.75-2.59-2.41-3.98-1.34-1.53,1.17-1.56,3.69-.06,4.9,1.01,.82,2.38,.76,3.32-.16,.63-.62,.91-1.4,.97-2.28Z" style="fill: #fff;"/>
    </g>
  </g>
</svg>