<?xml version="1.0" encoding="UTF-8"?>
<svg width="44" height="44" id="_圖層_2" data-name="圖層 2" xmlns="http://www.w3.org/2000/svg" viewBox="0 0 44 44">
  <g id="_模擬置頂" data-name="模擬置頂">
    <g>
      <circle cx="22" cy="22" r="22" style="fill: #1f91d1;"/>
      <path d="M21.71,28.95c-.93,.89-1.81,1.77-2.72,2.61-.26,.24-.6,.37-.9,.56-.03-.04-.07-.07-.1-.11,.03-.5,.05-.99,.09-1.49,.09-1.25,.16-2.51,.28-3.76,.02-.22,.2-.46,.38-.62,3.16-2.87,6.34-5.73,9.51-8.6,.07-.07,.16-.12,.22-.2,.08-.12,.15-.25,.22-.38-.16-.03-.33-.11-.47-.07-.2,.05-.39,.18-.57,.29-3.98,2.5-7.96,5-11.93,7.52-.31,.2-.57,.22-.91,.11-1.6-.52-3.21-1.01-4.82-1.52-.41-.13-.91-.24-.95-.74-.04-.53,.44-.74,.84-.9,2.24-.89,4.49-1.75,6.74-2.62,4.79-1.85,9.58-3.7,14.38-5.54,.17-.07,.35-.13,.53-.17,.71-.16,1.31,.24,1.3,.96-.01,.66-.14,1.33-.27,1.98-1.1,5.22-2.21,10.44-3.32,15.66-.31,1.44-1.1,1.75-2.3,.86-1.56-1.15-3.13-2.31-4.69-3.46-.16-.12-.32-.23-.51-.37Z" style="fill: #fff;"/>
    </g>
  </g>
</svg>