<?xml version="1.0" encoding="UTF-8"?>
<svg width="44" height="44" id="_圖層_2" data-name="圖層 2" xmlns="http://www.w3.org/2000/svg" viewBox="0 0 44 44">
  <g id="_模擬置頂" data-name="模擬置頂">
    <g>
      <circle cx="22" cy="22" r="22" style="fill: #fff;"/>
      <g>
        <path d="M23.13,7.57c.35,.06,.69,.11,1.04,.17,2.61,.4,4.93,1.44,6.98,3.1,.01,.01,.02,.03,.05,.07-1.55,1.27-3.1,2.54-4.65,3.81-.9-.55-1.85-.93-2.88-1.13-4.07-.82-8.2,1.46-9.67,5.34-.03,.09-.07,.17-.11,.26-.52-.42-1.03-.83-1.55-1.25-1.05-.85-2.09-1.7-3.14-2.55,.02-.05,.04-.11,.07-.15,2.33-4.17,5.83-6.68,10.55-7.49,.35-.06,.71-.11,1.07-.17h2.25Z" style="fill: #e34537;"/>
        <path d="M9.2,15.38c1.05,.85,2.09,1.7,3.14,2.55,.52,.42,1.03,.83,1.55,1.25-.25,.84-.43,1.7-.45,2.59-.03,1.12,.17,2.19,.53,3.25-1.55,1.27-3.11,2.54-4.66,3.81-.87-1.59-1.4-3.28-1.62-5.08-.03-.23-.07-.45-.11-.68v-2.25s.05-.09,.06-.14c.08-.51,.13-1.02,.23-1.52,.26-1.32,.68-2.58,1.33-3.76Z" style="fill: #f1b618;"/>
        <path d="M26.33,29.41c1.15-.71,2.13-1.6,2.85-2.75,.32-.51,.58-1.06,.9-1.66h-7.74v-5.7h.31c4.4,0,8.8,0,13.21,0,.19,0,.31,0,.36,.26,.52,3.18,.06,6.2-1.41,9.06-.9,1.76-2.14,3.26-3.65,4.52-.04,.04-.09,.06-.14,.09-1.56-1.27-3.12-2.55-4.69-3.82Z" style="fill: #5684c3;"/>
        <path d="M26.33,29.41c1.56,1.27,3.12,2.55,4.69,3.82-.96,.81-2.03,1.44-3.17,1.95-2.29,1.02-4.7,1.44-7.19,1.17-5.05-.56-8.83-3.08-11.35-7.5,0,0,0-.02,0-.03,1.55-1.27,3.11-2.54,4.66-3.81,.54,1.33,1.32,2.5,2.41,3.45,2.71,2.36,6.59,2.78,9.74,1.06,.07-.04,.15-.08,.23-.11Z" style="fill: #33ac48;"/>
      </g>
    </g>
  </g>
</svg>