{
  "asset": {
    "version": "2.0",
    "generator": "THREE.GLTFExporter r164"
  },
  "scenes": [
    {
      "name": "Scene",
      "nodes": [
        31
      ]
    }
  ],
  "scene": 0,
  "nodes": [
    {
      "name": "char",
      "extras": {
        "name": "char"
      },
      "mesh": 0,
      "skin": 0
    },
    {
      "matrix": [
        0.9999999403953268,
        -4.448868955746985e-8,
        -2.342310184178473e-7,
        0,
        1.331726799013366e-15,
        0.9824361436903766,
        -0.18659910527349677,
        0,
        2.3841858204398915e-7,
        0.18659910527349144,
        0.9824361436903486,
        0,
        8.275480229788904e-36,
        0.06270135194063187,
        -4.0978193283081055e-8,
        1
      ],
      "name": "spine006",
      "extras": {
        "name": "spine.006"
      }
    },
    {
      "matrix": [
        0.9999999403953552,
        1.3109052487957714e-21,
        1.9965153781257405e-21,
        0,
        -9.102532490109351e-22,
        0.9820040427527081,
        -0.1888595776822766,
        0,
        -2.2081633202908494e-21,
        0.1888595776822766,
        0.9820040427527081,
        0,
        1.735493991486226e-29,
        0.06616324931383133,
        -1.0244548320770264e-8,
        1
      ],
      "name": "spine005",
      "extras": {
        "name": "spine.005"
      },
      "children": [
        1
      ]
    },
    {
      "matrix": [
        1,
        -1.6012306227240788e-22,
        -2.842171125446575e-14,
        0,
        1.1021512457734474e-14,
        0.9217498087841187,
        0.38778494250146833,
        0,
        2.6197708283272215e-14,
        -0.38778496561525344,
        0.9217498637246919,
        0,
        -7.940933880509066e-23,
        0.2679554224014282,
        -2.7939677238464355e-9,
        1
      ],
      "name": "spine004",
      "extras": {
        "name": "spine.004"
      },
      "children": [
        2
      ]
    },
    {
      "matrix": [
        0.9968096050172561,
        0.012998471522794292,
        -0.07875056496079146,
        0,
        -0.005955130896520583,
        0.9960118936607922,
        0.0890215962564742,
        0,
        0.07959364396469128,
        -0.08826861232689966,
        0.9929116299062515,
        0,
        1.965381670743227e-7,
        0.3440379202365875,
        -4.307366907596588e-9,
        1
      ],
      "name": "handL",
      "extras": {
        "name": "hand.L"
      }
    },
    {
      "matrix": [
        0.9290287490573313,
        -0.3398115977815408,
        0.14640239560241602,
        0,
        0.3381388114344337,
        0.9403709351003282,
        0.03694115077041904,
        0,
        -0.150225589120757,
        0.015184940951174047,
        0.988535123271617,
        0,
        0.002080786412112728,
        0.36012455787561815,
        0.0014383629671308946,
        1
      ],
      "name": "forearmL",
      "extras": {
        "name": "forearm.L"
      },
      "children": [
        4
      ]
    },
    {
      "matrix": [
        -0.17108857907665598,
        -0.19286731958498246,
        -0.966194149001239,
        0,
        0.3921659126346053,
        0.886291717701792,
        -0.2463602340839305,
        0,
        0.9038444944585057,
        -0.42105773222771253,
        -0.07599838410714697,
        0,
        0.004016559105366468,
        0.26225998997688293,
        -0.02038896642625332,
        1
      ],
      "name": "upper_armL",
      "extras": {
        "name": "upper_arm.L"
      },
      "children": [
        5
      ]
    },
    {
      "matrix": [
        0.3768158302500151,
        -0.019014188945046584,
        0.9260930316692324,
        0,
        0.92628823411184,
        0.007310608509795056,
        -0.3767451670053659,
        0,
        0.0003931907675038815,
        0.9997924963355338,
        0.020367363648821524,
        0,
        0.018300000578165054,
        0.21322865784168243,
        0.07869327068328857,
        1
      ],
      "name": "shoulderL",
      "extras": {
        "name": "shoulder.L"
      },
      "children": [
        6
      ]
    },
    {
      "matrix": [
        0.9968096048175105,
        -0.012998471960550725,
        0.07875056488844569,
        0,
        0.0059551308953272614,
        0.996011893408664,
        0.08902159628150708,
        0,
        -0.07959364396469128,
        -0.08826861228760138,
        0.9929116294641951,
        0,
        -1.965381670743227e-7,
        0.3440379202365875,
        -4.307366907596588e-9,
        1
      ],
      "name": "handR",
      "extras": {
        "name": "hand.R"
      }
    },
    {
      "matrix": [
        0.9274995512272792,
        0.3442973042607087,
        0.14561575722429443,
        0,
        -0.3375822289419902,
        0.9387382714622561,
        -0.06934476472390244,
        0,
        -0.1605702997934344,
        0.015159946268527711,
        0.9869079768921629,
        0,
        9.12696123123169e-8,
        0.38909146189689636,
        -2.3283064365386963e-8,
        1
      ],
      "name": "forearmR",
      "extras": {
        "name": "forearm.R"
      },
      "children": [
        8
      ]
    },
    {
      "matrix": [
        -0.17108857907665598,
        0.19286731958498246,
        0.966194149001239,
        0,
        -0.3921659126346053,
        0.886291717701792,
        -0.2463602340839305,
        0,
        -0.9038444944585057,
        -0.42105773222771253,
        -0.07599838410714697,
        0,
        -0.004016559105366468,
        0.26225998997688293,
        -0.02038896642625332,
        1
      ],
      "name": "upper_armR",
      "extras": {
        "name": "upper_arm.R"
      },
      "children": [
        9
      ]
    },
    {
      "matrix": [
        0.3768158302500151,
        0.019014188945046584,
        -0.9260930316692324,
        0,
        -0.92628823411184,
        0.007310608509795056,
        -0.3767451670053659,
        0,
        -0.0003931907675038815,
        0.9997924963355338,
        0.020367363648821524,
        0,
        -0.018300000578165054,
        0.21322865784168243,
        0.07869327068328857,
        1
      ],
      "name": "shoulderR",
      "extras": {
        "name": "shoulder.R"
      },
      "children": [
        10
      ]
    },
    {
      "matrix": [
        -1.0000000492351617,
        -8.740436358165673e-8,
        -1.7944358389022374e-9,
        0,
        -7.467069854718986e-15,
        -0.02052589681011288,
        0.9997895851843731,
        0,
        -8.742277656313836e-8,
        0.999789287223925,
        0.020525841457757613,
        0,
        0.18583382666110992,
        0.07015859335660934,
        -0.04116862639784813,
        1
      ],
      "name": "breastL",
      "extras": {
        "name": "breast.L"
      }
    },
    {
      "matrix": [
        -1.0000000492351617,
        -8.740436358165673e-8,
        -1.7944358389022374e-9,
        0,
        -7.467069854718986e-15,
        -0.02052589681011288,
        0.9997895851843731,
        0,
        -8.742277656313836e-8,
        0.999789287223925,
        0.020525841457757613,
        0,
        -0.18583382666110992,
        0.07015859335660934,
        -0.04116862639784813,
        1
      ],
      "name": "breastR",
      "extras": {
        "name": "breast.R"
      }
    },
    {
      "matrix": [
        0.9999999999999716,
        3.7881158013978304e-17,
        2.3841863614295345e-7,
        0,
        -5.076283208767412e-10,
        0.9999976737594057,
        0.0021291469571601373,
        0,
        -2.3841808152379563e-7,
        -0.002129146957160198,
        0.9999976737593773,
        0,
        1.3322676295501878e-15,
        0.2427777349948883,
        -5.587935447692871e-9,
        1
      ],
      "name": "spine003",
      "extras": {
        "name": "spine.003"
      },
      "children": [
        3,
        7,
        11,
        12,
        13
      ]
    },
    {
      "matrix": [
        0.9999999403953547,
        -3.4667199595902597e-8,
        2.5338720349957534e-9,
        0,
        3.4667208618799584e-8,
        0.9893723698083292,
        -0.14540479099496062,
        0,
        2.5338338523207993e-9,
        0.14540479099496062,
        0.9893723698083298,
        0,
        -1.8735013540549517e-16,
        0.13663677871227264,
        7.8580342233181e-10,
        1
      ],
      "name": "spine002",
      "extras": {
        "name": "spine.002"
      },
      "children": [
        14
      ]
    },
    {
      "matrix": [
        0.9999999999999996,
        -3.0680791781160345e-8,
        1.98227906561648e-9,
        0,
        3.0680785576760877e-8,
        0.9916855168894316,
        -0.12868456571437512,
        0,
        1.9823466710655266e-9,
        0.12868456571437512,
        0.9916855168894321,
        0,
        2.3693159567646684e-8,
        0.5376948669270111,
        -0.09937630595133141,
        1
      ],
      "name": "spine001",
      "extras": {
        "name": "spine.001"
      },
      "children": [
        15
      ]
    },
    {
      "matrix": [
        -0.4217724881225717,
        -0.05253225513922485,
        0.9051785008030275,
        0,
        0.536321913288775,
        0.7904895747241372,
        0.29577812865924247,
        0,
        -0.7310723306297984,
        0.6102183145444506,
        -0.305232681025176,
        0,
        1.0300005959681685e-8,
        0.16757574674450124,
        -0.043201341544835466,
        1
      ],
      "name": "pelvisL",
      "extras": {
        "name": "pelvis.L"
      }
    },
    {
      "matrix": [
        -0.42177211718235874,
        0.05253214198113554,
        -0.9051787702579928,
        0,
        -0.536322112978768,
        0.7904896734180035,
        0.29577785736056655,
        0,
        0.7310723554528353,
        0.6102182958189584,
        -0.3052323663449106,
        0,
        1.0343614714617053e-8,
        0.16828523871292192,
        -0.04338424990537897,
        1
      ],
      "name": "pelvisR",
      "extras": {
        "name": "pelvis.R"
      }
    },
    {
      "matrix": [
        -1.000000088024871,
        -2.0132650004145995e-8,
        -8.638093699404465e-7,
        0,
        1.8698587845481126e-7,
        0.9709955845368085,
        -0.23909742594161393,
        0,
        8.435687503811312e-7,
        -0.23909741169036908,
        -0.9709956742904846,
        0,
        -3.5155295563527034e-8,
        0.2864941358566284,
        1.0245457815472037e-9,
        1
      ],
      "name": "toeL",
      "extras": {
        "name": "toe.L"
      }
    },
    {
      "matrix": [
        8.705145421497047e-8,
        0.970995409492228,
        -0.23909767383226088,
        0,
        0.9999999510478039,
        8.705145940364209e-8,
        8.054222754952025e-7,
        0,
        8.054222754952025e-7,
        -0.2390976880835945,
        -0.97099547802052,
        0,
        -0.03800010681152344,
        -0.008467433974146843,
        0.08982999622821808,
        1
      ],
      "name": "heel02L",
      "extras": {
        "name": "heel.02.L"
      }
    },
    {
      "matrix": [
        0.9994859493933398,
        0.0318981255036495,
        -0.0031793432420312608,
        0,
        -0.004565142410757339,
        0.04346612235722014,
        -0.9990445527061236,
        0,
        -0.03172945940124556,
        0.9985457455166349,
        0.043589408394574515,
        0,
        -3.5332050174474716e-8,
        0.42976054549217224,
        -1.0652001947164536e-8,
        1
      ],
      "name": "footL",
      "extras": {
        "name": "foot.L"
      },
      "children": [
        19,
        20
      ]
    },
    {
      "matrix": [
        0.9836377722715671,
        0.18015715296289847,
        -0.00013085361008385852,
        0,
        -0.17239486022953598,
        0.9414669336021738,
        0.28968893435430043,
        0,
        0.05231273547841908,
        -0.28492648793818437,
        0.9571208295684017,
        0,
        -6.693881005048752e-9,
        0.43205317854881287,
        -7.2177499532699585e-9,
        1
      ],
      "name": "shinL",
      "extras": {
        "name": "shin.L"
      },
      "children": [
        21
      ]
    },
    {
      "matrix": [
        0.9774667671609665,
        0.2003646265419129,
        -0.0664284359538927,
        0,
        0.21100212709649005,
        -0.9183763888716436,
        0.33475783267290976,
        0,
        0.006067322384241046,
        -0.34123115686615796,
        -0.9399596502438476,
        0,
        0.14735203981399536,
        0.0708184614777565,
        0.025942284613847733,
        1
      ],
      "name": "thighL",
      "extras": {
        "name": "thigh.L"
      },
      "children": [
        22
      ]
    },
    {
      "matrix": [
        -1.0000001440405768,
        2.0549717408269763e-8,
        8.637587120662111e-7,
        0,
        -1.8656877205497313e-7,
        0.9709955881257564,
        -0.23909741114889685,
        0,
        -8.436192340204587e-7,
        -0.23909739689765247,
        -0.9709956742904846,
        0,
        -2.4425904854297187e-8,
        0.28649425506591797,
        -5.296271865518065e-9,
        1
      ],
      "name": "toeR",
      "extras": {
        "name": "toe.R"
      }
    },
    {
      "matrix": [
        9.162404079887665e-7,
        -0.9709955227059477,
        0.23909772325466427,
        0,
        -1.000000013190061,
        -7.573644200675744e-7,
        8.65093113588955e-7,
        0,
        -6.620712525499319e-7,
        -0.23909770900397778,
        -0.9709954780208753,
        0,
        0.038000062108039856,
        -0.008467414416372776,
        0.08983000367879868,
        1
      ],
      "name": "heel02R",
      "extras": {
        "name": "heel.02.R"
      }
    },
    {
      "matrix": [
        0.9994860080921981,
        -0.031898155351533536,
        0.0031793388300568725,
        0,
        0.004565144379020447,
        0.043466286742332216,
        -0.9990445494783305,
        0,
        0.031729486752159024,
        0.9985457414034836,
        0.043589572844930244,
        0,
        -2.537854015827179e-8,
        0.42976048588752747,
        -5.9371814131736755e-9,
        1
      ],
      "name": "footR",
      "extras": {
        "name": "foot.R"
      },
      "children": [
        24,
        25
      ]
    },
    {
      "matrix": [
        0.983637828085956,
        -0.18015716694454403,
        0.00013086602868450647,
        0,
        0.17239487529182856,
        0.9414670218170939,
        0.28968881749546443,
        0,
        -0.05231272466862556,
        -0.28492631845018884,
        0.9571207500873464,
        0,
        -3.0850060284137726e-8,
        0.43205323815345764,
        -4.773028194904327e-9,
        1
      ],
      "name": "shinR",
      "extras": {
        "name": "shin.R"
      },
      "children": [
        26
      ]
    },
    {
      "matrix": [
        0.9774666672104791,
        -0.20036470371595505,
        0.06642877846744255,
        0,
        -0.2110023298220752,
        -0.9183763992622309,
        0.3347577074177172,
        0,
        -0.006067007840838558,
        -0.3412310663380583,
        -0.9399595694902293,
        0,
        -0.14735203981399536,
        0.0708184614777565,
        0.025942213833332062,
        1
      ],
      "name": "thighR",
      "extras": {
        "name": "thigh.R"
      },
      "children": [
        27
      ]
    },
    {
      "matrix": [
        0.9999999999999716,
        5.9518714326185545e-8,
        -2.308699482696034e-7,
        0,
        -1.0624971226187024e-14,
        0.9683388297007105,
        0.24963956700656453,
        0,
        2.3841856129305731e-7,
        -0.24963956700655743,
        0.968338829700683,
        0,
        0,
        0.8645856976509094,
        -0.0551999993622303,
        1
      ],
      "name": "spine",
      "extras": {
        "name": "spine"
      },
      "children": [
        16,
        17,
        18,
        23,
        28
      ]
    },
    {
      "matrix": [
        1.3982776403427124,
        0,
        0,
        0,
        0,
        1.3982776403427124,
        0,
        0,
        0,
        0,
        1.3982776403427124,
        0,
        0,
        0,
        0,
        1
      ],
      "name": "rig",
      "extras": {
        "name": "rig"
      },
      "children": [
        0,
        29
      ]
    },
    {
      "name": "astronaut.glb",
      "children": [
        30
      ]
    }
  ],
  "bufferViews": [
    {
      "buffer": 0,
      "byteOffset": 0,
      "byteLength": 35048,
      "target": 34962,
      "byteStride": 8
    },
    {
      "buffer": 0,
      "byteOffset": 35048,
      "byteLength": 52572,
      "target": 34962,
      "byteStride": 12
    },
    {
      "buffer": 0,
      "byteOffset": 87620,
      "byteLength": 52572,
      "target": 34962,
      "byteStride": 12
    },
    {
      "buffer": 0,
      "byteOffset": 140192,
      "byteLength": 35048,
      "target": 34962,
      "byteStride": 8
    },
    {
      "buffer": 0,
      "byteOffset": 175240,
      "byteLength": 17524,
      "target": 34962,
      "byteStride": 4
    },
    {
      "buffer": 0,
      "byteOffset": 192764,
      "byteLength": 70096,
      "target": 34962,
      "byteStride": 16
    },
    {
      "buffer": 0,
      "byteOffset": 262860,
      "byteLength": 15144,
      "target": 34963
    },
    {
      "buffer": 0,
      "byteOffset": 278004,
      "byteLength": 1856
    }
  ],
  "buffers": [
    {
      "byteLength": 279860,
      "uri": "data:application/octet-stream;base64,"
    }
  ],
  "accessors": [
    {
      "bufferView": 0,
      "componentType": 5123,
      "count": 4381,
      "max": [
        65535,
        65535,
        65535,
        65535
      ],
      "min": [
        65535,
        65535,
        65535,
        65535
      ],
      "type": "VEC4",
      "normalized": true
    },
    {
      "bufferView": 1,
      "componentType": 5126,
      "count": 4381,
      "max": [
        1.7204114198684692,
        4.037200450897217,
        0.8954389095306396
      ],
      "min": [
        -1.7204114198684692,
        0.00004124641418457031,
        -0.9283084273338318
      ],
      "type": "VEC3"
    },
    {
      "bufferView": 2,
      "componentType": 5126,
      "count": 4381,
      "max": [
        1,
        1,
        1
      ],
      "min": [
        -1,
        -1,
        -1
      ],
      "type": "VEC3"
    },
    {
      "bufferView": 3,
      "componentType": 5126,
      "count": 4381,
      "max": [
        0.9843165874481201,
        0.9914879202842712
      ],
      "min": [
        0.014855805784463882,
        0.0158311128616333
      ],
      "type": "VEC2"
    },
    {
      "bufferView": 4,
      "componentType": 5121,
      "count": 4381,
      "max": [
        28,
        28,
        28,
        25
      ],
      "min": [
        0,
        0,
        0,
        0
      ],
      "type": "VEC4"
    },
    {
      "bufferView": 5,
      "componentType": 5126,
      "count": 4381,
      "max": [
        1,
        0.5,
        0.30670663714408875,
        0.24876762926578522
      ],
      "min": [
        0.251232385635376,
        0,
        0,
        0
      ],
      "type": "VEC4"
    },
    {
      "bufferView": 6,
      "componentType": 5123,
      "count": 7572,
      "max": [
        4380
      ],
      "min": [
        0
      ],
      "type": "SCALAR"
    },
    {
      "bufferView": 7,
      "componentType": 5126,
      "count": 29,
      "max": [
        0.7151656150817871,
        0.7151655554771423,
        0.5228376388549805,
        0,
        0.715084969997406,
        0.7151656150817871,
        0.7151656150817871,
        0,
        0.7151656150817871,
        0.7151656746864319,
        0.7151654958724976,
        0,
        1.5922257900238037,
        0.8716284036636353,
        0.6221134066581726,
        1
      ],
      "min": [
        -0.7151655554771423,
        -0.7151656150817871,
        -0.5228376984596252,
        0,
        -0.715084969997406,
        -0.7008451223373413,
        -0.6944226026535034,
        0,
        -0.7151657342910767,
        -0.2694856822490692,
        -0.7118647694587708,
        0,
        -1.5922257900238037,
        -1.7813000679016113,
        -1.6050963401794434,
        1
      ],
      "type": "MAT4"
    }
  ],
  "materials": [
    {
      "pbrMetallicRoughness": {
        "metallicFactor": 0,
        "roughnessFactor": 0.3272727131843567,
        "baseColorTexture": {
          "index": 0,
          "texCoord": 0
        }
      },
      "doubleSided": true,
      "name": "Material.001"
    }
  ],
  "textures": [
    {
      "sampler": 0,
      "source": 0,
      "name": "texture"
    }
  ],
  "samplers": [
    {
      "magFilter": 9729,
      "minFilter": 9987,
      "wrapS": 10497,
      "wrapT": 10497
    }
  ],
  "images": [
    {
      "mimeType": "image/png",
      "uri": "data:image/png;base64,"
    }
  ],
  "meshes": [
    {
      "primitives": [
        {
          "mode": 4,
          "attributes": {
            "COLOR_0": 0,
            "POSITION": 1,
            "NORMAL": 2,
            "TEXCOORD_0": 3,
            "JOINTS_0": 4,
            "WEIGHTS_0": 5
          },
          "indices": 6,
          "material": 0
        }
      ]
    }
  ],
  "skins": [
    {
      "inverseBindMatrices": 7,
      "joints": [
        29,
        16,
        15,
        14,
        3,
        2,
        1,
        7,
        6,
        5,
        4,
        11,
        10,
        9,
        8,
        12,
        13,
        17,
        18,
        23,
        22,
        21,
        19,
        20,
        28,
        27,
        26,
        24,
        25
      ],
      "skeleton": 29
    }
  ]
}