<?xml version="1.0" encoding="utf-8"?>
<!-- Generator: Adobe Illustrator 26.5.0, SVG Export Plug-In . SVG Version: 6.00 Build 0)  -->
<svg width="30" height="30" version="1.1" id="圖層_1" xmlns="http://www.w3.org/2000/svg" xmlns:xlink="http://www.w3.org/1999/xlink" x="0px" y="0px"
	viewBox="0 0 512 512" style="enable-background:new 0 0 512 512;" xml:space="preserve">
<style type="text/css">
	.st0{fill:#EC6500;}
</style>
<g>
	<circle class="st0" cx="426.7" cy="469.3" r="42.7"/>
	<path class="st0" d="M184.7,330.3c1.5-6.1,7-10.3,13.3-10.3h228.7c9.2,0,17.3-5.9,20.2-14.6l56.9-170.7
		c4.6-13.8-5.7-28.1-20.2-28.1H139.8c-6.4,0-12-4.1-14-10.1l-20.2-60.6c-2.9-8.7-11.1-14.6-20.2-14.6h-64C9.6,21.3,0,30.9,0,42.7
		C0,54.4,9.6,64,21.3,64h38c6.4,0,12,4.1,14,10.1l70.3,211c3.1,9.4,3.5,19.5,1.1,29l-5.8,23.2c-8.5,34,18,67.9,53,67.9h256
		c11.8,0,21.3-9.6,21.3-21.3s-9.6-21.3-21.3-21.3H192c-8.3,0-13.6-6.8-11.6-14.9L184.7,330.3z M242,221.4c3.2-3.8,8.9-4.3,12.7-1
		l49.7,42.1V148.9c0-5,4-9,9-9s9,4,9,9v113.6l49.7-42.1c3.8-3.2,9.5-2.7,12.7,1c3.2,3.8,2.7,9.5-1,12.7l-64.5,54.6
		c-0.3,0.2-0.5,0.4-0.8,0.6c-0.1,0-0.1,0.1-0.2,0.1c-0.3,0.2-0.7,0.4-1,0.6c0,0,0,0,0,0c0,0,0,0-0.1,0c-0.3,0.1-0.5,0.2-0.8,0.3
		c-0.1,0-0.2,0.1-0.3,0.1c-0.2,0.1-0.4,0.1-0.6,0.2c-0.1,0-0.2,0-0.3,0.1c-0.2,0-0.4,0.1-0.6,0.1c-0.1,0-0.2,0-0.3,0
		c-0.3,0-0.6,0-0.9,0c0,0,0,0,0,0c0,0,0,0,0,0s0,0,0,0c0,0,0,0,0,0c-0.3,0-0.6,0-0.9,0c-0.1,0-0.2,0-0.3,0c-0.2,0-0.4-0.1-0.6-0.1
		c-0.1,0-0.2,0-0.3-0.1c-0.2,0-0.4-0.1-0.6-0.2c-0.1,0-0.2-0.1-0.3-0.1c-0.3-0.1-0.5-0.2-0.8-0.3c0,0,0,0-0.1,0c0,0,0,0,0,0
		c-0.3-0.2-0.7-0.4-1-0.6c-0.1,0-0.1-0.1-0.2-0.1c-0.3-0.2-0.6-0.4-0.8-0.6l-64.5-54.6C239.3,230.9,238.8,225.2,242,221.4z"/>
	
		<ellipse transform="matrix(0.7071 -0.7071 0.7071 0.7071 -281.8817 258.1441)" class="st0" cx="170.7" cy="469.3" rx="42.7" ry="42.7"/>
</g>
</svg>
