<?xml version="1.0" encoding="utf-8"?>
<!-- Generator: Adobe Illustrator 25.2.0, SVG Export Plug-In . SVG Version: 6.00 Build 0)  -->
<svg width="379" height="100" version="1.1" id="Layer_1" xmlns="http://www.w3.org/2000/svg" xmlns:xlink="http://www.w3.org/1999/xlink" x="0px" y="0px"
	 viewBox="0 0 378.4 99.7" style="enable-background:new 0 0 378.4 99.7;" xml:space="preserve">
<style type="text/css">
	.logo_st0{fill:#952906;}
	.logo_st1{fill:#9D080D;}
	.logo_st2{fill-rule:evenodd;clip-rule:evenodd;fill:#9D080D;}
	.logo_st3{fill-rule:evenodd;clip-rule:evenodd;fill:#4E1E00;}
</style>
<g>
	<path class="logo_st0" d="M77.6,94.9c0-1.6,0-1.8,0-2.2c0-0.3-0.1-0.5-0.4-0.6c-0.1,0-0.2,0-0.3,0c0,0-0.1,0-0.1-0.1
		c0-0.1,0.1-0.1,0.2-0.1c0.4,0,1.1,0,1.1,0c0.1,0,0.7,0,1,0c0.1,0,0.2,0,0.2,0.1c0,0,0,0.1-0.1,0.1c-0.1,0-0.1,0-0.2,0
		c-0.3,0-0.3,0.2-0.4,0.6c0,0.3,0,0.6,0,2.2v1.4c0,1.4,0.3,2.1,0.7,2.5c0.5,0.5,0.9,0.5,1.5,0.5c0.6,0,1.2-0.3,1.6-0.7
		c0.5-0.6,0.6-1.4,0.6-2.4v-1.2c0-1.6,0-1.8,0-2.2c0-0.3-0.1-0.5-0.4-0.6c-0.1,0-0.2,0-0.3,0c0,0-0.1,0-0.1-0.1c0-0.1,0-0.1,0.2-0.1
		c0.5,0,1,0,1.1,0c0.1,0,0.5,0,0.8,0c0.1,0,0.2,0,0.2,0.1c0,0,0,0.1-0.1,0.1c-0.1,0-0.1,0-0.2,0c-0.3,0.1-0.3,0.2-0.4,0.6
		c0,0.3,0,0.6,0,2.2v1.1c0,1.1-0.1,2.3-0.9,3c-0.7,0.6-1.5,0.7-2.1,0.7c-0.3,0-1.3,0-2.1-0.7c-0.5-0.5-0.9-1.2-0.9-2.6V94.9z"/>
	<path class="logo_st0" d="M87,98.4c0,0.7,0.1,0.9,0.3,1c0.2,0,0.4,0,0.4,0c0,0,0.1,0,0.1,0.1c0,0-0.1,0.1-0.2,0.1c-0.5,0-0.8,0-0.9,0
		c-0.1,0-0.4,0-0.8,0c-0.1,0-0.1,0-0.1-0.1c0,0,0-0.1,0.1-0.1c0.1,0,0.2,0,0.4,0c0.2-0.1,0.2-0.3,0.2-1.1v-4.9
		c0-0.3,0.1-0.4,0.1-0.4c0.1,0,0.2,0.2,0.3,0.3c0.1,0.1,1.4,1.5,2.8,2.9c0.9,0.9,1.8,1.9,2.1,2.2l-0.1-4.3c0-0.5-0.1-0.7-0.3-0.8
		c-0.2,0-0.4,0-0.4,0c-0.1,0-0.1,0-0.1-0.1c0,0,0.1-0.1,0.2-0.1c0.4,0,0.8,0,0.9,0c0.1,0,0.4,0,0.7,0c0.1,0,0.2,0,0.2,0.1
		c0,0,0,0.1-0.1,0.1c0,0-0.1,0-0.2,0c-0.3,0.1-0.3,0.2-0.3,0.7l0,5c0,0.6,0,0.6-0.1,0.6c-0.1,0-0.2-0.1-0.7-0.5
		c-0.1-0.1-1.4-1.3-2.3-2.3c-1-1.1-2-2.1-2.3-2.4L87,98.4z"/>
	<path class="logo_st0" d="M95.7,98.7c-0.9-0.7-1.1-1.7-1.1-2.5c0-0.6,0.2-1.6,1-2.3c0.5-0.5,1.3-0.9,2.7-0.9c0.3,0,0.8,0,1.3,0.1
		c0.3,0.1,0.6,0.1,0.9,0.1c0.1,0,0.1,0,0.1,0.1c0,0.1,0,0.2,0,0.5c0,0.3,0,0.7,0,0.9c0,0.1,0,0.2-0.1,0.2c-0.1,0-0.1-0.1-0.1-0.2
		c0-0.3-0.1-0.7-0.4-0.8c-0.3-0.3-0.9-0.5-1.7-0.5c-1.1,0-1.7,0.3-2,0.6c-0.6,0.6-0.8,1.4-0.8,2.2c0,1.6,1.3,3.1,3.2,3.1
		c0.7,0,1.1,0,1.4-0.4c0.2-0.2,0.3-0.5,0.3-0.7c0-0.1,0-0.1,0.1-0.1c0,0,0.1,0.1,0.1,0.1c0,0.1-0.1,0.8-0.2,1.1
		c-0.1,0.2-0.1,0.2-0.2,0.2c-0.4,0.1-1,0.2-1.6,0.2C97.2,99.6,96.4,99.3,95.7,98.7z"/>
	<path class="logo_st0" d="M104.2,97.1c0,1.2,0,1.8,0.2,1.9c0.1,0.1,0.5,0.2,1.2,0.2c0.5,0,0.8,0,1.1-0.3c0.1-0.1,0.2-0.3,0.2-0.5
		c0-0.1,0-0.1,0.1-0.1c0,0,0.1,0,0.1,0.1c0,0.1-0.1,0.6-0.1,0.8c-0.1,0.2-0.1,0.2-0.6,0.2c-0.6,0-1.1,0-1.5,0c-0.4,0-0.7,0-1,0
		c0,0-0.2,0-0.4,0c-0.2,0-0.4,0-0.5,0c-0.1,0-0.1,0-0.1-0.1c0,0,0-0.1,0.1-0.1c0.1,0,0.2,0,0.3,0c0.2,0,0.2-0.2,0.2-0.5
		c0.1-0.4,0.1-1,0.1-1.8v-1.5c0-1.3,0-1.6,0-1.8c0-0.3-0.1-0.4-0.4-0.5c-0.1,0-0.2,0-0.3,0c0,0-0.1,0-0.1-0.1c0,0,0-0.1,0.1-0.1
		c0.4,0,0.9,0,1,0c0,0,0.7,0,1,0c0.1,0,0.1,0,0.1,0.1c0,0,0,0.1-0.1,0.1c-0.1,0-0.2,0-0.3,0c-0.3,0.1-0.3,0.2-0.3,0.5
		c0,0.3,0,0.5,0,1.8V97.1z"/>
	<path class="logo_st0" d="M109.5,95.5c0-1.3,0-1.6,0-1.8c0-0.3-0.1-0.4-0.4-0.5c-0.1,0-0.2,0-0.3,0c0,0-0.1,0-0.1-0.1c0,0,0-0.1,0.1-0.1
		c0.4,0,1,0,1,0c0.1,0,1.9,0,2.1,0c0.2,0,0.3,0,0.4-0.1c0,0,0.1,0,0.1,0c0,0,0,0,0,0.1c0,0.1-0.1,0.2-0.1,0.4c0,0.1,0,0.5,0,0.6
		c0,0,0,0.1-0.1,0.1c0,0-0.1,0-0.1-0.1c0-0.1,0-0.2,0-0.3c-0.1-0.1-0.1-0.2-0.6-0.3c-0.1,0-1.2,0-1.3,0c0,0,0,0,0,0.1v2.3
		c0,0.1,0,0.1,0,0.1c0.1,0,1.3,0,1.5,0c0.2,0,0.3,0,0.4-0.1c0.1-0.1,0.1-0.1,0.1-0.1c0,0,0,0,0,0.1c0,0,0,0.2-0.1,0.5
		c0,0.2,0,0.5,0,0.6c0,0.1,0,0.2-0.1,0.2c0,0-0.1,0-0.1-0.1c0-0.1,0-0.2,0-0.3c0-0.1-0.1-0.2-0.4-0.3c-0.2,0-1.2,0-1.3,0
		c0,0-0.1,0-0.1,0.1V97c0,0.3,0,1.3,0,1.4c0,0.6,0.2,0.7,1,0.7c0.2,0,0.6,0,0.9-0.1c0.2-0.1,0.3-0.2,0.4-0.6c0-0.1,0-0.1,0.1-0.1
		c0,0,0.1,0.1,0.1,0.1c0,0.1-0.1,0.6-0.1,0.8c-0.1,0.2-0.1,0.2-0.5,0.2c-0.7,0-1.2,0-1.5,0c-0.4,0-0.6,0-0.7,0c0,0-0.2,0-0.4,0
		c-0.2,0-0.4,0-0.5,0c-0.1,0-0.1,0-0.1-0.1c0,0,0-0.1,0.1-0.1c0.1,0,0.2,0,0.3,0c0.2,0,0.2-0.2,0.2-0.5c0.1-0.4,0.1-1,0.1-1.8V95.5z
		"/>
	<path class="logo_st0" d="M120.9,96.6c0,1.5,0,2.1,0.2,2.3c0.2,0.2,0.4,0.2,1.2,0.2c0.5,0,1,0,1.2-0.3c0.1-0.2,0.2-0.4,0.3-0.6
		c0-0.1,0-0.1,0.1-0.1c0.1,0,0.1,0,0.1,0.1c0,0.1-0.1,0.7-0.1,1c-0.1,0.2-0.1,0.3-0.6,0.3c-0.7,0-1.2,0-1.7,0c-0.4,0-0.7,0-1,0
		c0,0-0.2,0-0.4,0c-0.2,0-0.4,0-0.6,0c-0.1,0-0.2,0-0.2-0.1c0,0,0-0.1,0.1-0.1c0.1,0,0.2,0,0.3,0c0.2,0,0.2-0.3,0.3-0.6
		c0-0.4,0-1.2,0-2.2v-1.8c0-1.6,0-1.8,0-2.2c0-0.3-0.1-0.5-0.4-0.6c-0.1,0-0.2,0-0.3,0c0,0-0.1,0-0.1-0.1c0-0.1,0-0.1,0.2-0.1
		c0.4,0,1.1,0,1.1,0c0,0,0.8,0,1.1,0c0.1,0,0.2,0,0.2,0.1c0,0,0,0.1-0.1,0.1c-0.1,0-0.2,0-0.3,0c-0.3,0.1-0.4,0.2-0.4,0.6
		c0,0.3,0,0.6,0,2.2V96.6z"/>
	<path class="logo_st0" d="M127.3,97c0,0.8,0,1.5,0,1.8c0,0.2,0.1,0.4,0.3,0.5c0.1,0,0.3,0,0.4,0c0,0,0.1,0,0.1,0.1c0,0,0,0.1-0.1,0.1
		c-0.5,0-1.1,0-1.1,0c0,0-0.6,0-0.9,0c-0.1,0-0.1,0-0.1-0.1c0,0,0-0.1,0.1-0.1c0.1,0,0.2,0,0.3,0c0.2,0,0.2-0.2,0.2-0.5
		c0-0.4,0.1-1,0.1-1.8v-1.5c0-1.3,0-1.6,0-1.8c0-0.3-0.1-0.4-0.3-0.5c-0.1,0-0.2,0-0.3,0c0,0-0.1,0-0.1-0.1c0,0,0-0.1,0.1-0.1
		c0.3,0,0.8,0,0.9,0c0,0,0.6,0,0.9,0c0.1,0,0.1,0,0.1,0.1c0,0,0,0.1-0.1,0.1c-0.1,0-0.1,0-0.2,0c-0.2,0-0.3,0.2-0.3,0.5
		c0,0.3,0,0.5,0,1.8V97z"/>
	<path class="logo_st0" d="M130.7,95.5c0-1.3,0-1.6,0-1.8c0-0.3-0.1-0.4-0.4-0.5c-0.1,0-0.2,0-0.3,0c0,0-0.1,0-0.1-0.1c0,0,0-0.1,0.1-0.1
		c0.4,0,0.9,0,1,0c0.1,0,0.6,0,0.9,0c0.1,0,0.1,0,0.1,0.1c0,0,0,0.1-0.1,0.1c-0.1,0-0.1,0-0.2,0c-0.2,0-0.3,0.2-0.3,0.5
		c0,0.3,0,0.5,0,1.8v1.2c0,1.2,0.3,1.7,0.6,2.1c0.4,0.4,0.8,0.5,1.3,0.5c0.5,0,1.1-0.2,1.4-0.6c0.4-0.5,0.5-1.2,0.5-2.1v-1.1
		c0-1.3,0-1.6,0-1.8c0-0.3-0.1-0.4-0.3-0.5c-0.1,0-0.2,0-0.3,0c0,0-0.1,0-0.1-0.1c0,0,0-0.1,0.1-0.1c0.4,0,0.9,0,0.9,0
		c0.1,0,0.5,0,0.7,0c0.1,0,0.1,0,0.1,0.1c0,0,0,0.1-0.1,0.1c-0.1,0-0.1,0-0.2,0c-0.2,0-0.3,0.2-0.3,0.5c0,0.3,0,0.5,0,1.8v0.9
		c0,0.9-0.1,1.9-0.8,2.5c-0.6,0.5-1.3,0.6-1.8,0.6c-0.3,0-1.2,0-1.8-0.6c-0.4-0.4-0.8-1-0.8-2.2V95.5z"/>
	<path class="logo_st0" d="M138.3,91.5c-0.1-0.1-0.1-0.1-0.1-0.2c0,0,0.1-0.1,0.1-0.1c0.2,0,0.5,0.1,0.7,0.2c0.1,0.1,0.2,0.1,0.2,0.3
		c0,0.7-0.5,1.5-0.9,2c0,0.1-0.1,0.1-0.1,0.1c0,0-0.1,0-0.1,0c0,0,0-0.1,0-0.1c0.1-0.3,0.3-0.9,0.3-1.4
		C138.5,91.9,138.3,91.6,138.3,91.5z"/>
	<path class="logo_st0" d="M140.8,99.4c-0.1-0.1-0.1-0.1-0.1-0.3c0-0.4,0-0.8,0-0.9c0-0.1,0-0.1,0.1-0.1c0.1,0,0.1,0,0.1,0.1
		c0,0.1,0,0.2,0,0.3c0.1,0.6,0.8,0.8,1.4,0.8c0.9,0,1.3-0.5,1.3-1.1c0-0.6-0.3-0.9-1.1-1.5l-0.4-0.3c-0.9-0.7-1.3-1.2-1.3-1.8
		c0-1,0.8-1.6,1.9-1.6c0.4,0,0.7,0,0.9,0.1c0.2,0,0.2,0,0.3,0c0.1,0,0.1,0,0.1,0.1c0,0,0,0.3,0,0.9c0,0.1,0,0.2-0.1,0.2
		c-0.1,0-0.1,0-0.1-0.1c0-0.1-0.1-0.3-0.1-0.4c-0.1-0.1-0.4-0.4-1.1-0.4c-0.6,0-1.2,0.3-1.2,0.9c0,0.5,0.3,0.8,1.1,1.4l0.2,0.2
		c1.1,0.7,1.4,1.3,1.4,2c0,0.5-0.2,1-0.8,1.4c-0.4,0.2-0.9,0.3-1.4,0.3C141.7,99.6,141.2,99.6,140.8,99.4z"/>
	<path class="logo_st0" d="M157.8,96.6c0,1,0,1.7,0,2.2c0,0.3,0.1,0.5,0.4,0.6c0.1,0,0.4,0,0.4,0c0.1,0,0.1,0,0.1,0.1c0,0,0,0.1-0.2,0.1
		c-0.5,0-1.2,0-1.2,0s-0.7,0-1,0c-0.1,0-0.2,0-0.2-0.1c0,0,0-0.1,0.1-0.1c0.1,0,0.2,0,0.3,0c0.2,0,0.2-0.3,0.3-0.6
		c0-0.4,0-1.2,0-2.2v-1c0,0,0-0.1-0.1-0.1h-4.2c0,0-0.1,0-0.1,0.1v1c0,1,0,1.7,0,2.2c0,0.3,0.1,0.5,0.4,0.6c0.1,0,0.4,0,0.5,0
		c0.1,0,0.1,0,0.1,0.1c0,0,0,0.1-0.2,0.1c-0.5,0-1.2,0-1.2,0c0,0-0.7,0-1,0c-0.1,0-0.2,0-0.2-0.1c0,0,0-0.1,0.1-0.1
		c0.1,0,0.2,0,0.3,0c0.2,0,0.2-0.3,0.3-0.6c0-0.4,0-1.2,0-2.2v-1.8c0-1.6,0-1.8,0-2.2c0-0.3-0.1-0.5-0.4-0.6c-0.1,0-0.2,0-0.3,0
		c0,0-0.1,0-0.1-0.1c0-0.1,0-0.1,0.2-0.1c0.4,0,1.1,0,1.1,0c0,0,0.7,0,1,0c0.1,0,0.2,0,0.2,0.1c0,0,0,0.1-0.1,0.1
		c-0.1,0-0.1,0-0.2,0c-0.3,0.1-0.3,0.2-0.4,0.6c0,0.3,0,0.6,0,2.2v0.2c0,0,0,0.1,0.1,0.1h4.2c0,0,0.1,0,0.1-0.1v-0.2
		c0-1.6,0-1.8,0-2.2c0-0.3-0.1-0.5-0.4-0.6c-0.1,0-0.2,0-0.3,0c0,0-0.1,0-0.1-0.1c0-0.1,0.1-0.1,0.2-0.1c0.4,0,1.1,0,1.1,0
		s0.7,0,1,0c0.1,0,0.2,0,0.2,0.1c0,0,0,0.1-0.1,0.1c-0.1,0-0.1,0-0.2,0c-0.3,0.1-0.4,0.2-0.4,0.6c0,0.3,0,0.6,0,2.2V96.6z"/>
	<path class="logo_st0" d="M163.2,93.3c0.1-0.3,0.2-0.3,0.2-0.3c0.1,0,0.1,0.1,0.2,0.3c0.2,0.4,1.6,3.9,2.1,5.2c0.3,0.8,0.6,0.9,0.7,0.9
		c0.1,0,0.3,0,0.4,0c0,0,0.1,0,0.1,0.1c0,0-0.1,0.1-0.2,0.1c-0.1,0-0.8,0-1.4,0c-0.2,0-0.3,0-0.3-0.1c0,0,0,0,0.1-0.1
		c0,0,0.1-0.1,0.1-0.2l-0.8-1.9c0,0,0-0.1-0.1-0.1h-2c0,0-0.1,0-0.1,0.1l-0.5,1.4c-0.1,0.2-0.1,0.4-0.1,0.6c0,0.2,0.1,0.2,0.3,0.2
		h0.1c0.1,0,0.1,0,0.1,0.1c0,0-0.1,0.1-0.1,0.1c-0.2,0-0.7,0-0.8,0c-0.1,0-0.5,0-0.9,0c-0.1,0-0.2,0-0.2-0.1c0,0,0-0.1,0.1-0.1
		c0.1,0,0.2,0,0.3,0c0.4,0,0.6-0.3,0.7-0.8L163.2,93.3z M164.2,96.8C164.3,96.8,164.3,96.8,164.2,96.8l-0.8-2.4c0-0.1-0.1-0.1-0.1,0
		l-0.8,2.3c0,0,0,0.1,0,0.1H164.2z"/>
	<path class="logo_st0" d="M169.3,98.4c0,0.7,0.1,0.9,0.3,1c0.2,0,0.4,0,0.4,0c0,0,0.1,0,0.1,0.1c0,0-0.1,0.1-0.2,0.1c-0.5,0-0.8,0-0.9,0
		c-0.1,0-0.4,0-0.8,0c-0.1,0-0.1,0-0.1-0.1c0,0,0-0.1,0.1-0.1c0.1,0,0.2,0,0.4,0c0.2-0.1,0.2-0.3,0.2-1.1v-4.9
		c0-0.3,0.1-0.4,0.1-0.4c0.1,0,0.2,0.2,0.3,0.3c0.1,0.1,1.4,1.5,2.8,2.9c0.9,0.9,1.8,1.9,2.1,2.2l-0.1-4.3c0-0.5-0.1-0.7-0.3-0.8
		c-0.2,0-0.4,0-0.4,0c-0.1,0-0.1,0-0.1-0.1c0,0,0.1-0.1,0.2-0.1c0.4,0,0.8,0,0.9,0c0.1,0,0.4,0,0.7,0c0.1,0,0.2,0,0.2,0.1
		c0,0,0,0.1-0.1,0.1c0,0-0.1,0-0.2,0c-0.3,0.1-0.3,0.2-0.3,0.7l0,5c0,0.6,0,0.6-0.1,0.6c-0.1,0-0.2-0.1-0.7-0.5
		c-0.1-0.1-1.4-1.3-2.3-2.3c-1-1.1-2-2.1-2.3-2.4L169.3,98.4z"/>
	<path class="logo_st0" d="M177.8,95.5c0-1.3,0-1.6,0-1.8c0-0.3-0.1-0.4-0.4-0.5c-0.1,0-0.2,0-0.3,0c0,0-0.1,0-0.1-0.1c0,0,0-0.1,0.1-0.1
		c0.4,0,1,0,1,0c0.1,0,0.7,0,1.2,0c0.9,0,2.5-0.1,3.5,1c0.4,0.4,0.9,1.1,0.9,2.2c0,1.1-0.5,1.9-0.9,2.4c-0.4,0.4-1.2,1-2.7,1
		c-0.4,0-0.8,0-1.2-0.1c-0.4,0-0.7,0-0.7,0c0,0-0.2,0-0.4,0c-0.2,0-0.4,0-0.5,0c-0.1,0-0.1,0-0.1-0.1c0,0,0-0.1,0.1-0.1
		c0.1,0,0.2,0,0.3,0c0.2,0,0.2-0.2,0.2-0.5c0.1-0.4,0.1-1,0.1-1.8V95.5z M178.6,96.5c0,0.9,0,1.7,0,1.8c0,0.2,0,0.5,0.1,0.6
		c0.1,0.2,0.4,0.3,1.5,0.3c0.8,0,1.5-0.3,2.1-0.8c0.5-0.4,0.7-1.2,0.7-2c0-1.1-0.5-1.8-0.8-2.1c-0.8-0.8-1.8-0.9-2.8-0.9
		c-0.2,0-0.4,0-0.5,0.1c-0.1,0-0.1,0.1-0.1,0.2V96.5z"/>
	<path class="logo_st0" d="M193.1,98.4c0,0.3,0.1,0.8,0.4,0.9c0.2,0.1,0.5,0.1,0.6,0.1c0,0,0.1,0,0.1,0.1c0,0-0.1,0.1-0.2,0.1
		c-0.2,0-1.2,0-1.5-0.1c-0.2,0-0.2,0-0.2-0.1c0,0,0-0.1,0.1-0.1c0,0,0.1-0.1,0-0.3l-0.4-4.3h0l-2.1,4.3c-0.2,0.4-0.2,0.5-0.3,0.5
		c-0.1,0-0.1-0.1-0.3-0.4c-0.2-0.4-0.8-1.5-1-2c-0.3-0.5-1-2-1.1-2.3h0l-0.3,3.8c0,0.1,0,0.3,0,0.4c0,0.1,0.1,0.2,0.2,0.2
		c0.1,0,0.3,0,0.3,0c0,0,0.1,0,0.1,0.1c0,0.1-0.1,0.1-0.2,0.1c-0.3,0-0.7,0-0.8,0c-0.1,0-0.5,0-0.7,0c-0.1,0-0.1,0-0.1-0.1
		c0,0,0-0.1,0.1-0.1c0.1,0,0.1,0,0.3,0c0.3-0.1,0.3-0.4,0.3-0.7l0.6-5.5c0-0.1,0-0.2,0.1-0.2c0.1,0,0.1,0,0.2,0.1l2.7,5.3l2.6-5.3
		c0-0.1,0.1-0.1,0.1-0.1c0.1,0,0.1,0.1,0.1,0.2L193.1,98.4z"/>
	<path class="logo_st0" d="M198.1,93.3c0.1-0.3,0.1-0.3,0.2-0.3c0.1,0,0.1,0.1,0.2,0.3c0.2,0.4,1.6,3.9,2.1,5.2c0.3,0.8,0.6,0.9,0.7,0.9
		c0.1,0,0.3,0,0.4,0c0,0,0.1,0,0.1,0.1c0,0-0.1,0.1-0.2,0.1c-0.1,0-0.8,0-1.4,0c-0.2,0-0.3,0-0.3-0.1c0,0,0,0,0.1-0.1
		c0,0,0.1-0.1,0.1-0.2l-0.8-1.9c0,0,0-0.1-0.1-0.1h-2c0,0-0.1,0-0.1,0.1l-0.5,1.4c-0.1,0.2-0.1,0.4-0.1,0.6c0,0.2,0.1,0.2,0.3,0.2
		h0.1c0.1,0,0.1,0,0.1,0.1c0,0-0.1,0.1-0.1,0.1c-0.2,0-0.7,0-0.8,0c-0.1,0-0.5,0-0.9,0c-0.1,0-0.2,0-0.2-0.1c0,0,0-0.1,0.1-0.1
		c0.1,0,0.2,0,0.3,0c0.4,0,0.6-0.3,0.7-0.8L198.1,93.3z M199,96.8C199.1,96.8,199.1,96.8,199,96.8l-0.8-2.4c0-0.1-0.1-0.1-0.1,0
		l-0.8,2.3c0,0,0,0.1,0,0.1H199z"/>
	<path class="logo_st0" d="M203.7,95.5c0-1.3,0-1.6,0-1.8c0-0.3-0.1-0.4-0.4-0.5c-0.1,0-0.2,0-0.3,0c0,0-0.1,0-0.1-0.1c0,0,0-0.1,0.1-0.1
		c0.4,0,1,0,1,0c0.1,0,0.7,0,1.2,0c0.9,0,2.5-0.1,3.5,1c0.4,0.4,0.9,1.1,0.9,2.2c0,1.1-0.5,1.9-0.9,2.4c-0.4,0.4-1.2,1-2.7,1
		c-0.4,0-0.8,0-1.2-0.1c-0.4,0-0.7,0-0.7,0c0,0-0.2,0-0.4,0c-0.2,0-0.4,0-0.5,0c-0.1,0-0.1,0-0.1-0.1c0,0,0-0.1,0.1-0.1
		c0.1,0,0.2,0,0.3,0c0.2,0,0.2-0.2,0.2-0.5c0.1-0.4,0.1-1,0.1-1.8V95.5z M204.5,96.5c0,0.9,0,1.7,0,1.8c0,0.2,0,0.5,0.1,0.6
		c0.1,0.2,0.4,0.3,1.5,0.3c0.8,0,1.5-0.3,2.1-0.8c0.5-0.4,0.7-1.2,0.7-2c0-1.1-0.5-1.8-0.8-2.1c-0.8-0.8-1.8-0.9-2.8-0.9
		c-0.2,0-0.4,0-0.5,0.1c-0.1,0-0.1,0.1-0.1,0.2V96.5z"/>
	<path class="logo_st0" d="M212.5,95.5c0-1.3,0-1.6,0-1.8c0-0.3-0.1-0.4-0.4-0.5c-0.1,0-0.2,0-0.3,0c0,0-0.1,0-0.1-0.1c0,0,0-0.1,0.1-0.1
		c0.4,0,1,0,1,0c0.1,0,1.9,0,2.1,0c0.2,0,0.3,0,0.4-0.1c0,0,0.1,0,0.1,0c0,0,0,0,0,0.1c0,0.1-0.1,0.2-0.1,0.4c0,0.1,0,0.5,0,0.6
		c0,0,0,0.1-0.1,0.1c0,0-0.1,0-0.1-0.1c0-0.1,0-0.2,0-0.3c-0.1-0.1-0.1-0.2-0.6-0.3c-0.1,0-1.2,0-1.3,0c0,0-0.1,0-0.1,0.1v2.3
		c0,0.1,0,0.1,0.1,0.1c0.1,0,1.3,0,1.5,0c0.2,0,0.3,0,0.4-0.1c0.1-0.1,0.1-0.1,0.1-0.1c0,0,0,0,0,0.1c0,0,0,0.2-0.1,0.5
		c0,0.2,0,0.5,0,0.6c0,0.1,0,0.2-0.1,0.2c0,0-0.1,0-0.1-0.1c0-0.1,0-0.2,0-0.3c0-0.1-0.1-0.2-0.4-0.3c-0.2,0-1.2,0-1.3,0
		c0,0-0.1,0-0.1,0.1V97c0,0.3,0,1.3,0,1.4c0,0.6,0.2,0.7,1,0.7c0.2,0,0.6,0,0.9-0.1c0.2-0.1,0.3-0.2,0.4-0.6c0-0.1,0-0.1,0.1-0.1
		c0,0,0.1,0.1,0.1,0.1c0,0.1-0.1,0.6-0.1,0.8c-0.1,0.2-0.1,0.2-0.5,0.2c-0.7,0-1.2,0-1.5,0c-0.4,0-0.6,0-0.7,0c0,0-0.2,0-0.4,0
		c-0.2,0-0.4,0-0.5,0c-0.1,0-0.1,0-0.1-0.1c0,0,0-0.1,0.1-0.1c0.1,0,0.2,0,0.3,0c0.2,0,0.2-0.2,0.2-0.5c0.1-0.4,0.1-1,0.1-1.8V95.5z
		"/>
	<path class="logo_st0" d="M223,94.9c0-1.6,0-1.8,0-2.2c0-0.3-0.1-0.5-0.4-0.6c-0.1,0-0.2,0-0.3,0c0,0-0.1,0-0.1-0.1c0-0.1,0-0.1,0.2-0.1
		c0.4,0,1,0,1.1,0c0.2,0,0.8,0,1.3,0c1.2,0,1.7,0.4,1.9,0.6c0.2,0.2,0.5,0.7,0.5,1.2c0,1.4-1,2.4-2.5,2.4c0,0-0.2,0-0.2,0
		c-0.1,0-0.1,0-0.1-0.1c0-0.1,0.1-0.1,0.3-0.1c1,0,1.7-0.7,1.7-1.6c0-0.3,0-1-0.6-1.5c-0.5-0.5-1.1-0.5-1.4-0.5
		c-0.2,0-0.3,0-0.4,0.1c-0.1,0-0.1,0.1-0.1,0.2v4.1c0,1,0,1.7,0,2.2c0,0.3,0.1,0.5,0.4,0.6c0.1,0,0.4,0,0.4,0c0.1,0,0.1,0,0.1,0.1
		c0,0,0,0.1-0.2,0.1c-0.5,0-1.2,0-1.2,0c0,0-0.7,0-1,0c-0.1,0-0.2,0-0.2-0.1c0,0,0-0.1,0.1-0.1c0.1,0,0.2,0,0.3,0
		c0.2,0,0.2-0.3,0.3-0.6c0-0.4,0-1.2,0-2.2V94.9z"/>
	<path class="logo_st0" d="M229.7,95.5c0-1.3,0-1.6,0-1.8c0-0.3-0.1-0.4-0.4-0.5c-0.1,0-0.2,0-0.3,0c0,0-0.1,0-0.1-0.1c0,0,0-0.1,0.1-0.1
		c0.4,0,1,0,1,0c0.1,0,1.9,0,2.1,0c0.2,0,0.3,0,0.4-0.1c0,0,0.1,0,0.1,0c0,0,0,0,0,0.1c0,0.1-0.1,0.2-0.1,0.4c0,0.1,0,0.5,0,0.6
		c0,0,0,0.1-0.1,0.1c0,0-0.1,0-0.1-0.1c0-0.1,0-0.2,0-0.3c-0.1-0.1-0.1-0.2-0.6-0.3c-0.1,0-1.2,0-1.3,0c0,0-0.1,0-0.1,0.1v2.3
		c0,0.1,0,0.1,0.1,0.1c0.1,0,1.3,0,1.5,0c0.2,0,0.3,0,0.4-0.1c0.1-0.1,0.1-0.1,0.1-0.1c0,0,0,0,0,0.1c0,0,0,0.2-0.1,0.5
		c0,0.2,0,0.5,0,0.6c0,0.1,0,0.2-0.1,0.2c0,0-0.1,0-0.1-0.1c0-0.1,0-0.2,0-0.3c0-0.1-0.1-0.2-0.4-0.3c-0.2,0-1.2,0-1.3,0
		c0,0-0.1,0-0.1,0.1V97c0,0.3,0,1.3,0,1.4c0,0.6,0.2,0.7,1,0.7c0.2,0,0.6,0,0.9-0.1c0.2-0.1,0.3-0.2,0.4-0.6c0-0.1,0-0.1,0.1-0.1
		c0,0,0.1,0.1,0.1,0.1c0,0.1-0.1,0.6-0.1,0.8c-0.1,0.2-0.1,0.2-0.5,0.2c-0.7,0-1.2,0-1.5,0c-0.4,0-0.6,0-0.7,0c0,0-0.2,0-0.4,0
		c-0.2,0-0.4,0-0.5,0c-0.1,0-0.1,0-0.1-0.1c0,0,0-0.1,0.1-0.1c0.1,0,0.2,0,0.3,0c0.2,0,0.2-0.2,0.2-0.5c0.1-0.4,0.1-1,0.1-1.8V95.5z
		"/>
	<path class="logo_st0" d="M237.3,93.3c0.1-0.3,0.2-0.3,0.2-0.3c0.1,0,0.1,0.1,0.2,0.3c0.2,0.4,1.6,3.9,2.1,5.2c0.3,0.8,0.6,0.9,0.7,0.9
		c0.1,0,0.3,0,0.4,0c0,0,0.1,0,0.1,0.1c0,0-0.1,0.1-0.2,0.1c-0.1,0-0.8,0-1.4,0c-0.2,0-0.3,0-0.3-0.1c0,0,0,0,0.1-0.1
		c0,0,0.1-0.1,0.1-0.2l-0.8-1.9c0,0,0-0.1-0.1-0.1h-2c0,0-0.1,0-0.1,0.1l-0.5,1.4c-0.1,0.2-0.1,0.4-0.1,0.6c0,0.2,0.1,0.2,0.3,0.2
		h0.1c0.1,0,0.1,0,0.1,0.1c0,0-0.1,0.1-0.1,0.1c-0.2,0-0.7,0-0.8,0c-0.1,0-0.5,0-0.9,0c-0.1,0-0.2,0-0.2-0.1c0,0,0-0.1,0.1-0.1
		c0.1,0,0.2,0,0.3,0c0.4,0,0.6-0.3,0.7-0.8L237.3,93.3z M238.3,96.8C238.4,96.8,238.4,96.8,238.3,96.8l-0.8-2.4c0-0.1-0.1-0.1-0.1,0
		l-0.8,2.3c0,0,0,0.1,0,0.1H238.3z"/>
	<path class="logo_st0" d="M243.4,98.4c0,0.7,0.1,0.9,0.3,1c0.2,0,0.4,0,0.4,0c0,0,0.1,0,0.1,0.1c0,0-0.1,0.1-0.2,0.1c-0.5,0-0.8,0-0.9,0
		c-0.1,0-0.4,0-0.8,0c-0.1,0-0.1,0-0.1-0.1c0,0,0-0.1,0.1-0.1c0.1,0,0.2,0,0.4,0c0.2-0.1,0.2-0.3,0.2-1.1v-4.9
		c0-0.3,0.1-0.4,0.1-0.4c0.1,0,0.2,0.2,0.3,0.3c0.1,0.1,1.4,1.5,2.8,2.9c0.9,0.9,1.8,1.9,2.1,2.2l-0.1-4.3c0-0.5-0.1-0.7-0.3-0.8
		c-0.2,0-0.4,0-0.4,0c-0.1,0-0.1,0-0.1-0.1c0,0,0.1-0.1,0.2-0.1c0.4,0,0.8,0,0.9,0c0.1,0,0.4,0,0.7,0c0.1,0,0.2,0,0.2,0.1
		c0,0,0,0.1-0.1,0.1c0,0-0.1,0-0.2,0c-0.3,0.1-0.3,0.2-0.3,0.7l0,5c0,0.6,0,0.6-0.1,0.6c-0.1,0-0.2-0.1-0.7-0.5
		c-0.1-0.1-1.4-1.3-2.3-2.3c-1-1.1-2-2.1-2.3-2.4L243.4,98.4z"/>
	<path class="logo_st0" d="M251.6,95.5c0-1.3,0-1.6,0-1.8c0-0.3-0.1-0.4-0.4-0.5c-0.1,0-0.2,0-0.3,0c0,0-0.1,0-0.1-0.1c0,0,0-0.1,0.1-0.1
		c0.4,0,0.9,0,1,0c0.1,0,0.6,0,0.9,0c0.1,0,0.1,0,0.1,0.1c0,0,0,0.1-0.1,0.1c-0.1,0-0.1,0-0.2,0c-0.2,0-0.3,0.2-0.3,0.5
		c0,0.3,0,0.5,0,1.8v1.2c0,1.2,0.3,1.7,0.6,2.1c0.4,0.4,0.8,0.5,1.3,0.5c0.5,0,1.1-0.2,1.4-0.6c0.4-0.5,0.5-1.2,0.5-2.1v-1.1
		c0-1.3,0-1.6,0-1.8c0-0.3-0.1-0.4-0.3-0.5c-0.1,0-0.2,0-0.3,0c0,0-0.1,0-0.1-0.1c0,0,0-0.1,0.1-0.1c0.4,0,0.9,0,0.9,0
		c0.1,0,0.5,0,0.7,0c0.1,0,0.1,0,0.1,0.1c0,0,0,0.1-0.1,0.1c-0.1,0-0.1,0-0.2,0c-0.2,0-0.3,0.2-0.3,0.5c0,0.3,0,0.5,0,1.8v0.9
		c0,0.9-0.1,1.9-0.8,2.5c-0.6,0.5-1.3,0.6-1.8,0.6c-0.3,0-1.2,0-1.8-0.6c-0.4-0.4-0.8-1-0.8-2.2V95.5z"/>
	<path class="logo_st0" d="M262.1,97c0,0.8,0,1.5,0,1.8c0,0.2,0.1,0.4,0.3,0.5c0.1,0,0.3,0,0.4,0c0.1,0,0.1,0,0.1,0.1c0,0,0,0.1-0.1,0.1
		c-0.5,0-1,0-1.1,0c0,0-0.6,0-0.9,0c-0.1,0-0.1,0-0.1-0.1c0,0,0-0.1,0.1-0.1c0.1,0,0.2,0,0.3,0c0.2,0,0.2-0.2,0.3-0.5
		c0-0.4,0-1,0-1.8v-3.6l-1.3,0c-0.5,0-0.8,0.1-0.9,0.3C259,93.9,259,94,259,94c0,0.1,0,0.1-0.1,0.1c0,0-0.1,0-0.1-0.1
		c0-0.1,0.2-0.8,0.2-0.9c0,0,0.1-0.2,0.1-0.2c0.1,0,0.1,0.1,0.4,0.1c0.2,0,0.6,0,0.7,0h3.3c0.3,0,0.5,0,0.6,0c0.1,0,0.2,0,0.2,0
		c0,0,0,0,0,0.1c0,0.3,0,0.9,0,1c0,0.1,0,0.1-0.1,0.1c0,0-0.1,0-0.1-0.1l0-0.1c0-0.3-0.2-0.5-1.1-0.5l-1.1,0V97z"/>
	<path class="logo_st0" d="M266.1,99.4c-0.1-0.1-0.1-0.1-0.1-0.3c0-0.4,0-0.8,0-0.9c0-0.1,0-0.1,0.1-0.1c0,0,0.1,0,0.1,0.1
		c0,0.1,0,0.2,0,0.3c0.1,0.6,0.8,0.8,1.4,0.8c0.9,0,1.3-0.5,1.3-1.1c0-0.6-0.3-0.9-1.1-1.5l-0.4-0.3c-0.9-0.7-1.3-1.2-1.3-1.8
		c0-1,0.8-1.6,1.9-1.6c0.4,0,0.7,0,0.9,0.1c0.2,0,0.2,0,0.3,0c0.1,0,0.1,0,0.1,0.1c0,0,0,0.3,0,0.9c0,0.1,0,0.2-0.1,0.2
		c-0.1,0-0.1,0-0.1-0.1c0-0.1-0.1-0.3-0.1-0.4c-0.1-0.1-0.4-0.4-1.1-0.4c-0.6,0-1.2,0.3-1.2,0.9c0,0.5,0.3,0.8,1.1,1.4l0.2,0.2
		c1.1,0.7,1.4,1.3,1.4,2c0,0.5-0.2,1-0.8,1.4c-0.4,0.2-0.9,0.3-1.4,0.3C267,99.6,266.5,99.6,266.1,99.4z"/>
</g>
<g>
	<path class="logo_st1" d="M345.1,89.2c-10.8,0-19.3-4.1-25-10.7l0,0c-5.6-6.6-8.4-15.7-8.4-25.5l0,0c0-8.7,1.7-16.7,5.8-23.2l0,0
		c4.1-6.4,10.8-11,20-12.5l0,0c8-1.3,10.1-4.1,10.4-4.4l0,0h0c0.6-0.7,1.1-1.4,1.7-1.4c0.7,0,1,0.7,1.3,1.2c0,0,0.5,1.6,1.4,2.8
		c0.9,1.2,1.5,1.9,2.5,2.2l0,0c8.4,1.9,14.5,6.6,18.2,12.8l0,0c3.8,6.3,5.3,14,5.3,22.3l0,0h0c0,9.8-2.8,18.9-8.4,25.5l0,0
		C364.4,85.1,355.9,89.2,345.1,89.2L345.1,89.2C345.1,89.2,345.1,89.2,345.1,89.2L345.1,89.2z M338,20.1
		c-8.5,1.4-14.1,5.3-17.8,10.9l0,0c-3.6,5.6-5.3,13-5.3,21.2l0,0c0,9.2,2.6,17.4,7.6,23.2l0,0c5,5.8,12.4,9.4,22.5,9.5l0,0
		c10.1,0,17.4-3.6,22.5-9.5l0,0c5-5.8,7.6-14,7.6-23.2l0,0c0-7.9-1.5-15-4.9-20.5l0,0c-3.4-5.5-7.2-9.6-14.9-11.4c0,0-2.8-1.2-4-2.5
		c-1-1.4-1.7-3-2-4.5C349.4,13.4,346.8,18.7,338,20.1L338,20.1z"/>
	<path class="logo_st2" d="M315.1,64.2c0,0,10.9,9.5,29.4,9.5c19.9,0,30.8-8.1,30.8-8.1s-6.3,21.2-30.2,21.2S315.1,64.2,315.1,64.2z"/>
	<path class="logo_st1" d="M328.6,37.1c0-9.3,7.5-16.8,16.8-16.8l0,0c9.3,0,16.8,7.5,16.8,16.8l0,0c0,9.3-7.5,16.8-16.8,16.8l0,0
		C336.1,53.9,328.6,46.4,328.6,37.1L328.6,37.1z M332.4,37.1c0,7.2,5.8,13,13,13l0,0c7.2,0,13-5.8,13-13l0,0c0-7.2-5.8-13-13-13l0,0
		C338.2,24.1,332.4,29.9,332.4,37.1L332.4,37.1z"/>
	<g>
		<path class="logo_st1" d="M330.9,66.1c-3.6-0.7-13.1-3.6-17.9-13.1l-0.4,0.1l-0.3,0.4c-0.5-0.9-0.7-2.4,0.2-2.8l0,0
			c0.9-0.5,2.1-0.1,2.5,0.9l0,0c3.6,7.6,13.3,10.3,16.5,10.8l0,0c0.3,0.1,0.7,0.1,1,0.1l0,0c1,0,1.8-0.3,2.3-0.7l0,0
			c0.5-0.4,0.7-0.8,0.7-1.2l0,0c0-0.3-0.1-0.8-0.8-1.3l0,0c-0.2-0.2-0.8-0.5-1.1-0.4l0,0c-0.3,0.1-0.5-0.1-1.2,1.2l0,0
			c-0.5,0.9-1.6,1.3-2.5,0.9l0,0c-0.9-0.5-1.3-1.6-0.9-2.5l0,0c1-2.2,2.9-3.3,4.6-3.3l0,0c1.6,0,2.7,0.7,3.4,1.2l0,0
			c1.4,1.1,2.3,2.7,2.2,4.3l0,0c0,3.3-3.1,5.7-6.7,5.7l0,0C332.1,66.3,331.5,66.2,330.9,66.1L330.9,66.1z"/>
		<path class="logo_st1" d="M325.8,56.7c-4.5-3.1-7.1-8.3-8.8-12.7l0,0c-1.7-4.4-2.1-6.9-2.2-7l0.4,0.4c-0.2-1-0.1-3.5,0.9-3.7l0,0
			c1-0.2,2,0.5,2.2,1.5l0,0c0,0,0.1,0.8,0.5,2.1l0,0c0.3,1.3,0.9,3.2,1.7,5.2l0,0c1.5,4,3.7,8.9,7.1,11.2l0,0
			c0.9,0.6,1.4,1.6,0.8,2.5c0,0-0.4,0.6-1.5,0.7l0,0C326.5,57,326.1,56.9,325.8,56.7L325.8,56.7z"/>
	</g>
	<g>
		<path class="logo_st1" d="M350.8,60.6c0-1.6,0.8-3.2,2.3-4.4l0,0c0.7-0.5,1.8-1.2,3.3-1.2l0,0c1.7-0.1,3.6,1.1,4.6,3.3l0,0
			c0.5,0.9,0.1,2.1-0.8,2.6l0,0c-0.9,0.5-2.1,0.1-2.5-0.8l0,0c-0.7-1.3-1-1.1-1.2-1.2l0,0c-0.3,0-0.8,0.2-1,0.4l0,0
			c-0.7,0.6-0.8,1-0.8,1.3l0,0c0,0.4,0.2,0.8,0.7,1.2l0,0c0.5,0.4,1.2,0.7,2.3,0.7l0,0c0.3,0,0.6,0,1-0.1l0,0
			c3.2-0.5,12.8-3.2,16.5-10.8l0,0c0.5-0.9,1.6-1.3,2.5-0.9l0,0c0.9,0.5-0.3,1.8-0.8,2.7l0.1,0.8c-4.8,9.6-14.1,11.3-17.7,12l0,0
			c-0.6,0.1-1.1,0.2-1.7,0.2l0,0C353.8,66.3,350.8,63.9,350.8,60.6L350.8,60.6z"/>
		<path class="logo_st1" d="M361.7,56.2c-0.6-0.9,0.1-1.7,0.9-2.3c0,0,7.1-7.7,8.7-16.4l0,0c0.3-1.3,0.5-2.1,0.5-2.1l0,0l0,0
			c0.2-1,1.2-1.7,2.2-1.5l0,0c1,0.2,1.4,2.4,1.2,3.4l0.3-1.2c0,0.1-0.7,3.7-2.4,8l0,0c-1.7,4.4-4.4,9.5-8.8,12.7l0,0
			c-0.3,0.2-0.7,0.3-1.1,0.3l0,0C362.6,57,362,56.7,361.7,56.2L361.7,56.2z"/>
	</g>
	<path class="logo_st1" d="M330.6,71.6c0-2.5,2-4.5,4.5-4.5l0,0c2.5,0,4.5,2,4.5,4.5l0,0c0,2.5-2,4.5-4.5,4.5l0,0
		C332.6,76.2,330.6,74.1,330.6,71.6L330.6,71.6z M333.4,71.6c0,0.9,0.8,1.7,1.7,1.7l0,0c0.9,0,1.7-0.8,1.7-1.7l0,0
		c0-0.9-0.7-1.7-1.7-1.7l0,0C334.2,70,333.4,70.7,333.4,71.6L333.4,71.6z"/>
	<path class="logo_st1" d="M349.7,71.6c0-2.5,2-4.5,4.5-4.5l0,0c2.5,0,4.5,2,4.5,4.5l0,0c0,2.5-2,4.5-4.5,4.5l0,0
		C351.7,76.2,349.7,74.1,349.7,71.6L349.7,71.6z M352.6,71.6c0,0.9,0.8,1.7,1.7,1.7l0,0c0.9,0,1.7-0.7,1.7-1.7l0,0
		c0-0.9-0.8-1.7-1.7-1.7l0,0C353.3,70,352.6,70.7,352.6,71.6L352.6,71.6z"/>
	<path class="logo_st1" d="M336.9,72.1c0-2.5,2-4.5,4.5-4.5l0,0c2.5,0,4.5,2,4.5,4.5l0,0c0,2.5-2,4.5-4.5,4.5l0,0
		C339,76.6,336.9,74.6,336.9,72.1L336.9,72.1z M339.8,72.1c0,0.9,0.7,1.7,1.7,1.7l0,0c0.9,0,1.7-0.8,1.7-1.7l0,0
		c0-0.9-0.8-1.7-1.7-1.7l0,0C340.5,70.5,339.8,71.2,339.8,72.1L339.8,72.1z"/>
	<path class="logo_st1" d="M343.3,72.1c0-2.5,2-4.5,4.5-4.5l0,0c2.5,0,4.5,2,4.5,4.5l0,0c0,2.5-2,4.5-4.5,4.5l0,0
		C345.4,76.6,343.3,74.6,343.3,72.1L343.3,72.1z M346.2,72.1c0,0.9,0.7,1.7,1.7,1.7l0,0c0.9,0,1.7-0.8,1.7-1.7l0,0
		c0-0.9-0.7-1.7-1.7-1.7l0,0C346.9,70.5,346.2,71.2,346.2,72.1L346.2,72.1z"/>
	<path class="logo_st1" d="M340.4,65.8c0-2.5,2-4.5,4.5-4.5l0,0c2.5,0,4.5,2,4.5,4.5l0,0c0,2.5-2,4.5-4.5,4.5l0,0
		C342.4,70.3,340.4,68.3,340.4,65.8L340.4,65.8z M343.3,65.8c0,0.9,0.7,1.7,1.7,1.7l0,0c0.9,0,1.7-0.7,1.7-1.7l0,0
		c0-0.9-0.8-1.7-1.7-1.7l0,0C344,64.1,343.3,64.8,343.3,65.8L343.3,65.8z"/>
	<path class="logo_st1" d="M326.1,43.5c-1.8-0.8-3.4-2.8-3.4-5.6l0,0c0-2.6,1.3-4.5,2.9-5.3l0,0c1.6-0.9,3.2-1,4.3-1l0,0
		c0.8,0,1.3,0.1,1.3,0.1l0,0v0l-0.4,2.8c0,0-0.1,0-0.3,0l0,0c-0.2,0-0.4,0-0.6,0l0,0c-0.8,0-2.1,0.1-2.9,0.6l0,0
		c-0.8,0.5-1.4,1.1-1.4,2.9l0,0c0,1.9,0.7,2.5,1.8,3.1l0,0c1.1,0.5,2.5,0.7,3.3,0.7l0,0c0.4,0,0.6,0,0.6,0l0,0l0.3,2.8
		c0,0-0.4,0-0.9,0l0,0C329.6,44.5,327.8,44.4,326.1,43.5L326.1,43.5z"/>
	<path class="logo_st1" d="M358.8,44.4l0.3-2.8c0,0,0.2,0,0.6,0l0,0c0.8,0,2.3-0.1,3.3-0.7l0,0c1.1-0.6,1.8-1.2,1.8-3.1l0,0
		c0-1.8-0.6-2.4-1.4-2.9l0,0c-0.8-0.5-2.1-0.6-2.9-0.6l0,0c-0.3,0-0.5,0-0.7,0l0,0c-0.1,0-0.2,0-0.2,0l0,0l-0.4-2.8
		c0.1,0,0.6-0.1,1.3-0.1l0,0c1.1,0,2.8,0.1,4.3,1l0,0c1.6,0.9,2.9,2.7,2.9,5.3l0,0c0,2.9-1.6,4.8-3.4,5.6l0,0c-1.8,0.9-3.6,1-4.6,1
		l0,0C359.1,44.5,358.8,44.4,358.8,44.4L358.8,44.4z M359.5,34.4L359.5,34.4L359.5,34.4L359.5,34.4L359.5,34.4L359.5,34.4z"/>
	<g>
		<polygon class="logo_st1" points="319.6,46 326.1,41.6 327.7,43.9 321.2,48.3 319.6,46 		"/>
		<polygon class="logo_st1" points="317.3,36.7 323.9,35.2 324.5,38 318.2,40.1 317.3,36.7 		"/>
		<path class="logo_st1" d="M321,27c0.4-0.3,6-0.6,11,1l-0.1-0.2l-0.1,2.8c-4.8-1-11.8,0.2-11.8,0.2c-1.4,0.4-1.1,0.6-1.1,0.6L321,27z"/>
		<path class="logo_st1" d="M327.2,24c-0.4,0-0.7,0-0.7,0l0,0v-2.9c0.1,0,6.1-0.3,8.5,3.9l0.8-0.4l-2,2.1C331.8,24.7,328.6,24.1,327.2,24
			L327.2,24z M326.5,24C326.5,24,326.5,24,326.5,24L326.5,24L326.5,24L326.5,24L326.5,24z"/>
	</g>
	<g>
		<polygon class="logo_st1" points="363.3,43.4 365.2,41.6 371.7,46 370.1,48.3 		"/>
		<polygon class="logo_st1" points="366.8,38.4 367.4,35.6 373.7,36.2 372.9,39.1 366.8,38.4 		"/>
		<path class="logo_st1" d="M371.9,32.1C371.9,32.1,371.9,32.1,371.9,32.1L371.9,32.1c-0.1,0-0.1-0.1-0.2-0.1l0,0
			c-0.2-0.1-0.7-0.3-1.4-0.5l0,0c-5-2.4-9.7-0.8-10.7-0.8l0,0l-1.5-2.1c1,0,2.6-1.4,6.2-1.8c3.6-0.4,7.1,1.8,7.5,2l0.8,1.3l-0.1,1.3
			L371.9,32.1L371.9,32.1L371.9,32.1z"/>
		<path class="logo_st1" d="M355,25.6c3.6-4.6,8.3-4.1,8.4-4.1l0,0l0,0l0.8,2.5c0,0-1,0.3-1.5,0.4l0,0c-0.5,0-1.1,0.1-1.9,0.3l0,0
			c-1.5,0.4-3.4,1.1-4.8,2.4l0,0l-2-2.1L355,25.6z"/>
	</g>
	<path class="logo_st1" d="M336,41.8c-0.3-0.7,0-1.6,0.7-1.9l0,0c0.7-0.3,1.6,0,1.9,0.7l0,0c1.1,2.6,3.7,4.4,6.7,4.4l0,0
		c3,0,5.6-1.8,6.7-4.5l0,0h0c0.3-0.7,1.1-1.1,1.9-0.8l0,0c0.7,0.3,1.1,1.1,0.8,1.9l0,0c-1.5,3.6-5.1,6.2-9.3,6.2l0,0
		C341.2,47.9,337.6,45.4,336,41.8L336,41.8z"/>
	<path class="logo_st1" d="M340,36.7c-1-1.3-1.6-1.5-2.1-1.5l0,0c-0.4,0-0.9,0.2-1.4,0.5l0,0c-0.5,0.3-0.9,0.7-1.4,1.1l0,0
		c-0.2,0.1-0.4,0.3-1,0.3l0,0c-0.3,0-0.9,0-1.4,0l0,0c-0.5,0-0.9-0.2-0.9-0.2v0.2c-0.8,0-1.4-0.6-1.4-1.4l0,0c0-0.8,0.7-0.8,1.5-0.8
		c0,0,1.1,0.1,1.9-0.6l0,0c0.2-0.2,0.5-0.4,0.9-0.7l0,0c0.7-0.5,1.8-1.2,3.3-1.2l0,0c1.5,0,3.1,0.9,4.4,2.7l0,0
		c0.5,0.6,0.3,1.5-0.3,2l0,0c-0.3,0.2-0.5,0.3-0.8,0.3l0,0C340.7,37.3,340.3,37.1,340,36.7L340,36.7z"/>
	<path class="logo_st1" d="M348.5,37c-0.6-0.5-0.8-1.4-0.3-2l0,0c1.3-1.8,2.8-2.7,4.4-2.7l0,0c1.3,0,2.3,0.5,3,1l0,0
		c0.5,0.3,0.9,0.7,1.2,0.9l0,0c0.6,0.6,2,0.6,2,0.6l0-0.6c0.8,0,1.4,0.6,1.4,1.4l0,0c0,0.8-0.6,1.4-1.4,1.4l0,0c0,0-1.7,0-2.4,0l0,0
		c-0.6,0-0.8-0.2-1-0.3l0,0c-0.2-0.1-0.3-0.2-0.4-0.3l0,0c-0.3-0.2-0.5-0.4-0.8-0.6l0,0c-0.6-0.4-1.1-0.7-1.6-0.7l0,0
		c-0.4,0-1.1,0.2-2.1,1.5l0,0c-0.3,0.4-0.7,0.6-1.2,0.6l0,0C349,37.3,348.7,37.2,348.5,37L348.5,37z"/>
</g>
<g>
	<path class="logo_st1" d="M294.1,7.9c0.1,0.3,0.2,0.5,0.2,0.7c0.2,0,0.5,0,0.9,0c0.4,0,0.8,0,1.4-0.1c0.1-0.1,0.1-0.3,0.2-0.7
		C297,7.5,297,7.2,297,7c-0.1-0.1-0.1-0.2-0.2-0.3c-0.5,0-1,0-1.7,0.1c-0.7,0.1-1.1,0.2-1.3,0.2C294,7.2,294,7.5,294.1,7.9z"/>
	<path class="logo_st1" d="M308.7,0H293c-1.9,0-3.5,1.6-3.5,3.5v15.4c0,1.9,1.6,3.5,3.5,3.5h15.6c1.9,0,3.5-1.6,3.5-3.5V3.5
		C312.1,1.6,310.6,0,308.7,0z M301.9,1.8c0.6,0.1,1.2,0.3,1.6,0.5c0.2,0.1,0.4,0.2,0.6,0.3c0.3,0.2,0.4,0.3,0.4,0.4
		c0,0.1-0.1,0.2-0.2,0.3c-0.1,0.2-0.2,0.3-0.3,0.5c-0.1,0.2-0.2,0.4-0.3,0.5l-0.1,0C303.2,3.3,302.6,2.5,301.9,1.8L301.9,1.8z
		 M300.8,4c0.6,0.1,1.1,0.3,1.6,0.5c0.2,0.1,0.4,0.2,0.6,0.3c0.3,0.2,0.4,0.3,0.4,0.3c0,0.1-0.1,0.2-0.2,0.3
		c-0.1,0.2-0.3,0.4-0.4,0.5c-0.1,0.2-0.2,0.4-0.4,0.5l-0.1,0c-0.4-0.8-1-1.6-1.6-2.3L300.8,4z M290.7,4.9c-0.1-0.3-0.1-0.5-0.2-0.7
		c-0.1-0.2-0.1-0.3-0.1-0.4c0.1,0,0.4,0,0.9,0c0.4,0,0.8,0,1.2-0.1c0.9,0,1.7-0.1,2.3-0.2c0-0.8-0.1-1.5-0.1-2.1
		c0-0.1,0.1-0.1,0.2-0.1c0.3,0.1,0.8,0.3,1.5,0.4c0.1,0,0.2,0.1,0.2,0.3c-0.1,0.3-0.2,0.7-0.3,1.4c0.6-0.1,1.2-0.2,2-0.3
		c1.1-0.2,1.8-0.3,1.9-0.3c0.1,0.1,0.2,0.3,0.2,0.7c0,0.3,0.1,0.5,0.1,0.7c0,0.1,0,0.2-0.1,0.2c-0.1,0-0.3-0.1-0.5-0.1
		c-0.6,0-1.1,0-1.7,0c-0.8,0-1.5,0.1-2.1,0.1c-0.1,0.4-0.1,0.7-0.2,1.1c0.9-0.2,1.4-0.3,1.4-0.4c0,0.1,0.3,0.2,0.7,0.5
		c0.5,0.3,0.8,0.5,0.9,0.6c0,0.1-0.2,0.7-0.6,1.8c-0.4,1-0.6,1.5-0.7,1.6c-0.1,0-0.4,0-0.7-0.1l-1.1,0c-0.1,0-0.6,0-1.3,0.1
		c-0.4,0.1-0.7,0.1-1,0.2c-0.1-0.1-0.4-0.6-0.7-1.4c-0.3-0.9-0.5-1.4-0.6-1.5c0.1-0.1,0.3-0.2,0.7-0.5c0.3-0.3,0.5-0.4,0.6-0.5
		c0.3,0,0.8,0,1.4-0.2c0-0.4,0-0.8,0-1.2c-0.8,0.1-1.6,0.2-2.5,0.4c-0.9,0.2-1.4,0.3-1.5,0.3C290.8,5.3,290.8,5.2,290.7,4.9z
		 M301,16.7c-0.1,0-0.3,0-0.4-0.1c-0.6,0-1.1,0-1.7,0c-0.7,0-1.4,0-1.9,0.1c0,0.4,0,0.8,0,1.2c0,1.5-0.1,2.4-0.2,2.9
		c0,0.1-0.1,0.2-0.2,0.2c-0.1,0-0.3-0.1-0.4-0.2c-0.2-0.2-0.4-0.4-0.7-0.6c-1-0.6-1.7-1.1-2.1-1.4c-0.1-0.1-0.1-0.2-0.1-0.2
		c1,0.2,1.7,0.3,2.3,0.3c0.2,0,0.3-0.3,0.3-1c0-0.4,0-0.8,0-1.1c-0.9,0.1-1.8,0.2-2.8,0.3c-0.9,0.2-1.3,0.2-1.4,0.2
		c-0.1,0-0.1-0.1-0.2-0.3c-0.1-0.3-0.1-0.5-0.2-0.6c-0.1-0.1-0.1-0.3-0.1-0.4c0.1,0,0.4,0,0.9,0c0.4,0,0.7,0,1.1,0
		c1.1,0,1.9-0.1,2.6-0.1c0-0.4,0-0.8-0.1-1.1c-0.6,0.1-1.1,0.1-1.8,0.2c-0.6,0.1-1,0.2-1,0.2c-0.1,0-0.1-0.1-0.1-0.3
		c-0.1-0.3-0.1-0.5-0.2-0.6c-0.1-0.1-0.1-0.3-0.1-0.3c0.1,0,0.3,0,0.7,0c0.3,0,0.5,0,0.8,0c0.7,0,1.2-0.1,1.6-0.1
		c-0.1-0.4-0.1-0.8-0.2-1.1c-1.2,0.1-1.9,0.2-2.2,0.2c-0.1,0-0.2-0.1-0.3-0.3c1.1-0.2,2.1-0.5,3-0.9c1.5-0.6,2.2-1,2.2-1.3l0.2,0
		c0,0.1,0,0.3,0.1,0.5c0,0.1,0.1,0.3,0.1,0.5c0.2,0.4,0.2,0.6,0.2,0.6c0,0.1-0.1,0.2-0.2,0.2c-0.5,0.1-1.3,0.2-2.2,0.3
		c0.1,0,0.1,0,0.2,0c0.3,0.1,0.5,0.1,0.5,0.3c0,0.1,0,0.3-0.1,0.7c0.3,0,0.7-0.1,1-0.1c0.8-0.1,1.3-0.2,1.4-0.2
		c0.1,0.1,0.2,0.3,0.2,0.6c0,0.2,0.1,0.4,0.1,0.6c0,0.1,0,0.1-0.1,0.2c-0.1,0-0.3,0-0.4-0.1c-0.4,0-0.8,0-1.2,0c-0.4,0-0.8,0-1.1,0
		c0,0,0,0.1,0,0.1c0,0.3-0.1,0.6-0.1,1c0.6,0,1.2-0.1,2-0.2c1.1-0.1,1.7-0.2,1.9-0.2c0.1,0.1,0.2,0.3,0.2,0.6c0,0.2,0.1,0.4,0.1,0.6
		C301,16.6,301,16.7,301,16.7z M311.1,18.9c-0.1,0-0.3-0.1-0.5-0.1c-0.5,0-1.1,0-1.6,0c-1.1,0-2,0.1-2.7,0.1
		c-0.8,0.1-1.7,0.2-2.7,0.3c-0.8,0.2-1.3,0.3-1.3,0.2c-0.1,0-0.2-0.1-0.2-0.4c-0.1-0.3-0.2-0.6-0.2-0.8c-0.1-0.2-0.1-0.3-0.1-0.4
		c0.1,0,0.4,0,0.9,0c0.3,0,0.7,0,1.1-0.1c0.8,0,1.5-0.1,2-0.1c0-1.1,0-2.1-0.1-3c-0.5,0.1-1,0.2-1.5,0.3c-0.6,0.2-0.9,0.3-1,0.2
		c-0.1,0-0.1-0.1-0.2-0.4c-0.1-0.3-0.1-0.5-0.2-0.7c-0.1-0.2-0.1-0.3-0.1-0.4c0.1,0,0.3,0,0.6,0c0.2,0,0.5,0,0.8-0.1
		c0.9-0.1,1.6-0.2,2.1-0.3c0.5-0.1,1.2-0.2,2-0.3c0.8-0.2,1.2-0.3,1.3-0.3c0.1,0.1,0.2,0.3,0.2,0.8c0,0.3,0.1,0.5,0.1,0.7
		c0,0.1,0,0.2-0.1,0.2c-0.2,0-0.3-0.1-0.5-0.1c-0.4,0-0.8,0-1.2,0c-0.4,0-0.7,0-1,0.1c0,0.9-0.1,1.9-0.1,3c0.6,0,1.2-0.1,2-0.2
		c1.1-0.1,1.7-0.2,1.8-0.2c0.1,0.1,0.2,0.3,0.2,0.7c0,0.3,0.1,0.5,0.1,0.7C311.1,18.8,311.1,18.8,311.1,18.9z M311.1,6.9
		c-0.1-0.1-0.5-0.1-1-0.2c-0.8,0-1.6,0-2.4,0.1l-1,1.8c0.7-0.1,1.4-0.1,2.1-0.2c-0.1-0.2-0.2-0.4-0.3-0.6c-0.2-0.3-0.3-0.6-0.3-0.6
		c0,0,0,0,0.1-0.1c0.5,0.3,1.1,0.7,1.7,1.3c0.2,0.2,0.3,0.4,0.4,0.5c0.1,0.2,0.2,0.3,0.2,0.4c0,0.1-0.1,0.2-0.2,0.3
		c-0.2,0.2-0.3,0.3-0.4,0.5c-0.2,0.2-0.3,0.3-0.5,0.5l-0.2-0.1c0-0.4-0.1-0.8-0.3-1.4c-0.3,0.1-0.6,0.1-1,0.2
		c-0.3,0.1-0.6,0.1-0.8,0.2c-0.3,0.1-0.6,0.2-1,0.3c-0.3,0.1-0.5,0.1-0.7,0.2c-0.1,0.1-0.3,0.2-0.4,0.2c-0.1,0-0.2-0.1-0.2-0.2
		c-0.1-0.2-0.2-0.4-0.3-0.6c-0.1-0.2-0.2-0.4-0.3-0.4l0.1-0.2c0.3,0,0.6,0,1-0.1l0.7-1.7c-0.2,0-0.5,0.1-0.7,0.1
		c-0.4,0.1-0.7,0.1-0.8,0.2c-0.2,0.1-0.3,0.1-0.4,0.1c-0.1,0-0.2-0.2-0.3-0.7c-0.1-0.2-0.2-0.4-0.2-0.5c-0.1,0.7-0.3,1.3-0.4,2
		c-0.4,1.5-0.6,2.2-0.7,2.2c-0.2,0-0.3,0-0.3-0.1c-0.1,0-0.1-0.1-0.2-0.3c-0.1-0.2-0.3-0.4-0.5-0.6c-0.2-0.3-0.4-0.4-0.5-0.4
		l0.1-0.2c0.2,0,0.3,0,0.4,0c0.1,0,0.3-0.3,0.8-1c0.3-0.5,0.8-1.3,1.4-2.5l0.1,0.1c0,0.2-0.1,0.5-0.1,0.7c0.2,0,0.5,0,0.7,0
		c0.2,0,0.4,0,0.7,0c0.6,0,1.2-0.1,1.6-0.1V4.6c-0.4,0.1-0.7,0.1-1.1,0.2c-0.4,0.1-0.7,0.2-0.7,0.2C305,5,305,4.8,305,4.6
		c-0.1-0.3-0.1-0.5-0.2-0.6c-0.1-0.1-0.1-0.3-0.1-0.3c0,0,0.2,0,0.5,0c0.2,0,0.4,0,0.6-0.1c0.5,0,0.8-0.1,1.2-0.1V2.6
		c-0.1-0.6-0.1-1.1-0.2-1.3l0.1-0.1c0.2,0.1,0.5,0.2,1.1,0.3c0.2,0,0.3,0.1,0.4,0.1c0.1,0,0.1,0.1,0.2,0.1c0,0.1-0.1,0.3-0.1,0.4
		c-0.1,0.2-0.1,0.4-0.1,0.6c0,0.2,0,0.4-0.1,0.6c0.2,0,0.4-0.1,0.6-0.1c0.6-0.1,0.9-0.1,1-0.2c0.1,0.1,0.2,0.3,0.2,0.6
		c0,0.2,0.1,0.4,0.1,0.6c0,0.1,0,0.1-0.1,0.2c-0.1,0-0.3,0-0.4-0.1c-0.3,0-0.6,0-0.8,0c-0.2,0-0.4,0-0.6,0c0,0.4-0.1,0.9-0.1,1.3
		c0.4,0,0.8-0.1,1.3-0.1c0.8-0.1,1.3-0.1,1.5-0.2c0.1,0,0.2,0.2,0.2,0.5C311,6.4,311.1,6.7,311.1,6.9C311.2,6.9,311.2,7,311.1,6.9z"
		/>
</g>
<g>
	<g>
		<path class="logo_st3" d="M113.3,17.3c-1.4,2.4-1.8,5.7-2.4,8.9c2.3-0.6,5-1.4,7.4-2.6c0.4-0.2,0.6-0.5,1-0.7c0.3-0.1,0.7-0.1,1-0.2
			c0.6-0.2,1.1-0.6,1.6-0.6c0.6,0.1,1.6,1.3,1.7,2c0.1,0.6-0.1,1.4,0,2.4c0.2,1.4,1.3,3.6,0.6,4.6c-0.7,1.1-2.5,0.4-3.7,1.2
			c-4.2-0.1-8.3,0.7-12.8,0.4c-2.1-0.2-4.2,0.4-6.2,0.7c-0.9,0.1-2.1,0.3-3.1,0.5c-1.5,0.3-2.9,1.2-3.9,0.1c-0.3-2.5-1-4.4-1.7-6.4
			c0.3-0.4,0.9-0.3,1.3-0.5c0.4-0.1,0.9-0.4,1.3-0.5c0.4-0.1,0.8,0.1,1.3,0.2c2.1,0.2,4.6,0.1,6.5,0.4c0.4-1.1,0.2-2.2,0.1-3.3
			c-0.1-1.1,0-2.3-0.3-3.3c-0.3-1-1.6-1.9-1.8-2.6c-0.1-0.4,0.1-0.7,0.1-1.1c0-0.6-0.6-1-0.3-1.5c2.4-0.5,5.4,0.1,8,0.5
			C110.9,16.1,112.6,16,113.3,17.3z"/>
		<path class="logo_st3" d="M152.1,48.8c0.1,0.3,0.1,0.6,0.2,0.9c-0.6,1-0.6,2.5-1.3,3.4c-0.8,0-1.8,0.4-2.5,0.5c-0.6,0-1.1-0.3-1.8-0.4
			c-1.3-0.2-2.9,0.5-4.3,0.4c-1.8-0.1-5,0.7-6.8,1c-0.9,0.1-1.7,0.3-2.3,1c-0.4,4.9-0.7,11.8-0.3,17.1c3.7-0.4,7.6,0.2,11.4-0.2
			c0.6-0.1,1.1-0.4,1.6-0.5c2.5-0.3,5.1,0.4,7.1-1c2.2,0.3,4.4-0.6,6.3-1c1.2-0.3,2.5,0,3.5-0.4c0.7-0.3,1.3-0.9,2-0.9
			c0.4,0,0.3-0.6,0.7-0.6c1.3,0,2.5,0.5,2.6,1.5c0.1,0.8-1.1,1.8-1.6,2.7c-0.8,1.3-1.1,1.1-1.2,2.8c-1.5,2-2.2,3.4-2.5,6.7
			c-0.9,0.9-2.1,0-3.3-0.2c-1.1-0.2-2.3,0-3.5-0.1c-1.7-0.2-3.9,0.7-5.7,0.5c-0.5-0.1-0.9-0.4-1.3-0.5c-1.4-0.3-3.1-0.5-4.5-0.6
			c-1.5-0.1-2.9,0.6-4.3,0.6c-2,0.1-3.7-1-5.7-1c-0.8,0-1.6,0.5-2.4,0.6c-2.3,0.3-5.9-0.2-8.2,0.1c-0.6-0.2-1.6-1.8-1.6-2.6
			c0-0.7,0.5-1.3,0.4-2.4c0-0.4-0.4-0.8-0.4-1.2c0-0.7,0.4-1.5,0.5-2.2c0.4-2.9,1.1-6.4,1.1-9.7c0-0.7-0.3-1.4-0.3-2
			c-0.1-1.6,0.6-3.2,0.7-5c0-1.1-0.1-2.2,0-3.2c0.2-1.8,0.4-3.2,0.4-4.8c0.9-1,3.3-1.2,5.1-1.5c2.4-0.5,4.1,0.1,6.4-0.1
			c2.2-0.2,5.7-0.6,7.6-0.7c0.3-0.2,0.4-0.7,0.8-0.7c-0.5-0.8,0.5-1.6,0.6-2.4c0.2-1.3-0.3-2.8,1-3.5c0-1.7,0.7-3.7,0.8-5.2
			c-0.8-0.1-2.4,0.4-3,0.9c-0.8-0.5-4.1,0.2-4.8,1.1c-1.6-0.4-3.5,0.6-5.4,0.6c-0.6,0-1.2-0.2-1.8-0.2c-1.6,0.1-3.5,0.5-4.5-0.3
			c-0.4-1.3-0.5-2.7-0.9-4c-0.3-1.2-1.2-2.2-1.1-3.4c0.5-0.5,1,0.1,1.7,0.1c2.5,0.1,6.1-1,9.1-1.4c0.9-0.1,1.9,0.1,2.6-0.1
			c0.4-0.1,2.2-0.5,2.7-0.6c0.5-0.1,0.9,0.3,1.5,0.2c0.4,0,1-0.4,1.7-0.5c0.6-0.1,1.3-0.2,1.8-0.3c0.5-0.1,1.4-0.3,1.7-0.5
			c1.5-0.8,1-3.9,3.4-3.2c0.9,0.2,1.8,0.9,2.8,1.2c0.6,0.2,1.2,0.1,1.8,0.3c0.4,0.1,2,2.9,2.1,3.6c0.1,0.5-0.4,1-0.6,1.5
			c-0.5,1.3-0.5,2.6-0.8,4c-0.2,0.9-0.2-0.1-0.5,0.7c-0.2,0.9-0.7,1.6-1,2.5c-0.4,1-0.5,2.2-0.9,3.3C153.6,42,153.1,45.5,152.1,48.8
			z"/>
		<path class="logo_st3" d="M119.9,43.8c-1.6,0.7-3.5-0.3-5.4-0.4c-0.9,0-2.8,0.3-3.8,0.6c-0.7,0.2-1.3,0.8-2.3,0.3
			c-1.9,0.2-3.5,1.6-5.5,1.7c-1.2,0.1-2.4-0.3-3.3,0.6c-0.5-0.2-1-0.6-1.5-0.8c0-2.5-1.5-4.3-2.1-6.4c0.4-0.5,1.1-0.2,1.4,0.1
			c1.8,0,3.2-0.3,4.4-0.9c2.1-0.1,4.7-0.6,6.4-1.3c1.6,0.5,4,0,6.1-0.3c1-0.2,2.1-0.3,2.8-0.5c1.1-0.3,1.9-1,3.1-0.8
			c1.3,0.9-0.1,3.5-0.2,5.4C120,42.2,120.3,43,119.9,43.8z"/>
		<path class="logo_st3" d="M117.4,54.9c-2.1-0.1-4.9,0.2-7.2,0.6c-0.8,0.1-1.6,0.2-2.2,0.4c-0.8,0.3-1,0.5-2.1,0.5
			c-0.7,0-1.5,0.3-2.3,0.4c-1,0.1-1.9,0-2.6,0.1c-1.1,0.1-2,0.5-2.7-0.3c-0.9-1.1-0.3-3.3-1.4-4.2c0.2-0.6-0.2-1.4,0.2-1.8
			c2.3-0.1,5.8-0.1,7.6-1.4c3.1-0.2,6.6-1.8,10-1.8c1,0,1.7,0.4,2.7,0.3c0.9-0.1,2.3-0.9,2.7,0.3c0.3,0.8-0.6,0.9-1,1.5
			C118.2,50.6,117.9,53.1,117.4,54.9z"/>
		<path class="logo_st3" d="M120,60.7c0-0.4,0.3-0.9,0.3-1.3c-0.1-0.4-0.6-1-1.1-1.2c0,0-1.4-0.3-1.5-0.2c-1.1,0.5-2.6,1-4.1,1.3
			c-1.5,0.3-3.1,0.8-4.5,1c-0.7,0.1-1.4-0.1-2,0c-0.4,0.1-0.8,0.4-1.3,0.5c-1.8,0.4-4.2,0.4-5.4-0.1c-0.8,0.1-1.7,0.6-3.1,0.7
			c-1.3,0.1-2.9-0.9-3.4,0c-0.3,0.5,0.6,0.6,0,1.3c1.1,0.4,0.8,1.3,0.9,2.4c0,1.1,0.3,2.3,0.6,3.5c0.6,3.1,1.1,6.9,0.9,9.9
			c0.8,0.7,0.5,1.3,0.7,2.2c1.5,0.7,3.1-0.1,4.6-0.4c0.8-0.1,1.6,0,2.5-0.1c0.7-0.1,1.3-0.3,2-0.4c1-0.1,2.1,0,3.1,0.1
			c2.6,0.2,4.7,1.1,6.7,0.5c0.1-0.6,0.3-1.2,0.8-1.4c0.5-2,0.6-3.8,1.1-5.7c0.3-1.2,0.8-2.4,1.2-3.7c0.4-1.6,0.5-3.6,1.2-5.1
			c0.2-0.4,0.4-0.6,0.5-1C120.6,62.9,119.9,61.9,120,60.7z M110.5,73.6c-0.7,0.3-1.1-0.4-1.7-0.4c-1.1-0.1-2.4,1.3-4,1.1
			c-0.2-2-1-4.3-0.6-6.4c2.4-0.6,4.7-1.3,7.3-1.7C111.5,68.7,111,71.2,110.5,73.6z"/>
	</g>
	<g>
		<path class="logo_st3" d="M33.2,14.6c0.6,0,1.2,0,1.7,0c0.8,1.3,1.5,2.7,2.5,3.7c0.3,0.3,0.5,0.6,0.8,1.1c0.4,0.7,1.6,1.6,1.4,2.4
			c-0.2,1.1-1.9,1.1-2.9,1.6c-1.3,0.7-4.9,2.5-6.4,3.5c0.9-0.6-1.4-0.1-4.3,2.7c0.4,1.4,0.3,3.2,0.9,4.4c1,0,5.2-1.2,5.3-1.7
			c0.3-1-0.4-2.7-0.2-3.9c0.7-0.6,2.4-1,3-1.5c0.6-0.5,0.9,0.2,1.9,0.3c0.9,0.1,1.3,1.9,1.9,2.6c0.9,1-0.1,1.2,0.6,2.2
			c0.8,1,1.7,2.8,2.7,3.8c0.5,0.5,0.9,0.7,0.8,1.3c-0.2,0.6-1.2,0.7-1.9,1.1c-1.6,0.9-2.4,1.3-3.8,2.3c-0.8,0.6-1,1.1-2,0.8
			c-1.4-0.4-0.7-2.3-1.7-3.3c-1.2,0.1-4.7,2.1-6.2,2.8c-0.5,0.2-1.2,0.3-1.6,0.6c-1,0.5-2.7,2-3.5,1.8c-0.1,0-0.1,0-0.2,0
			c-1.1,0-1.6-0.6-2.4-1.5c0.2-0.7,0.2-1.3,0.1-2c-0.3-2,0-4.9-0.8-7.3c-0.4-1.1-0.6-2.3-1.3-3.4c-0.6-1-1.8-1.9-1.4-3
			c0.2-0.5,1.1-0.8,1.9-1.2c2.2-1.3,4-2.5,6-3.7c2.1-1.2,6.4-3.2,7.9-4.7C32.4,16.1,32.7,15.2,33.2,14.6z"/>
		<path class="logo_st3" d="M84.6,63.2c0,0.3-0.2,0.5-0.3,0.7c0.3,3.1,0,6.9,0.6,10.4c-0.1,0.5,0.5,0.4,0.5,0.7c-0.7,1.2-0.9,2.8-2,3.6
			c-0.4,1.6-1.2,2.8-1.9,4.2c0,0.4,0.2,0.6,0.1,1.1c-0.5,0.4-1,0.7-1,1.6c-1.1,0-2.5,0.3-3.8,0c-0.9-0.3-1.9-1.3-3-1.9
			c-0.4-0.2-1.1-0.3-1.4-0.5c-0.5-0.3-0.9-1.1-1.4-1.6c-3-3-6-6-8.9-9.2c-0.5-0.5-0.9-1.2-1.3-1.6c-0.4-0.4-1.1-0.4-1.2-0.8
			c-0.1-0.5,1.1-2.1,1.6-2.2c0.5-0.1,1.2,0.5,1.9,0.7c0.8,0.2,1.5,0.3,2,0.5c0.8,0.3,1.5,0.8,2.4,1.1c0.8,0.3,1.9,0.5,2.6,0.8
			c1.6,0.8,3,2.1,4.7,2.2c0.3-4,0.6-7.9,0.8-12.2c0.1-1.4,0.2-2.9,0.1-4.2c0-0.4-0.3-0.8-0.3-1.2c0-0.3,0.3-0.7,0.4-1
			c0.2-1.4-0.2-2.9-0.3-4.4c-0.1-1.5,0.5-3.2,0.6-4.8c0.2-3.2-0.7-6.4,0.7-8.9c0.1-2.3-0.5-5.1-0.7-7.7c0.6-0.7,0.2-1.8,0.1-2.8
			c-0.2-2.7,0.4-5.7,0.1-8.4c-0.5-0.3-0.8-1.9,0.4-1.7c2.7,0.5,6.5,2.4,8.9,3.2c0.4,0,0.7,0,1-0.1c0.5,0.5,1.5,0.6,1.5,1.3
			c0,0.4-0.4,0.6-0.6,1.1c-0.2,0.6-0.3,1.4-0.6,2.2c-0.2,0.7-0.6,1.4-0.7,2c-0.2,1.1-0.2,2.1-0.5,2.9c-0.1,0.3-0.3,0.6-0.4,0.8
			c-0.4,1.7,0.1,3.9,0.1,5.8c0,1.5-0.4,3.1-0.5,4.8c-0.2,2.4-0.3,4.7-0.4,7.2c0,0.8-0.2,1.6-0.2,2.3c0.1,1.2,0.2,3,0.2,4.7
			c0,1.4-0.1,2.5,0,3.7C84.7,59.7,84,61.5,84.6,63.2z"/>
		<path class="logo_st3" d="M65.4,19.9c0,0.4-0.6,0.4-0.7,0.7c-1.8,5-2.5,11-4.2,16.1c0.2,0.5,0.8,0.4,0.8,0.9c0,0.6-1,0.9-1.3,1.8
			c-0.2,0.7,0.3,1-0.2,1.6c-1.6,0.4-3.1-0.6-4.6-0.8c-1.6-0.3-2.7-0.1-3.6-1.7c1.5-2.3,3.4-9.2,4.3-12.1c-0.5-0.4-1.6-1.6-2.3-0.6
			c-1,2.8-2.8,8.7-3.8,9.8c0,0.3-0.1,0.6-0.2,0.9c-1.1,0.1-1.7,1.5-3.2,0.7c-0.9-1.9-2.3-3.1-3.6-4.6c0.1-1.6,2.1-2.8,3-4.1
			c0.9-1.3,0.4-2.6,1.6-3.5c-1.2-1.2-3.2,0.6-4.6-0.2c-0.3-1.5-0.1-3.8-0.5-5.4c-0.1-0.4-0.5-0.7-0.4-1.1c1.4-1.4,4.2-0.7,7.2-0.5
			c3,0.2,5.6,0.5,8.2,0.7c2.1,0.2,4.2-0.1,6.1,0.1C64.3,18.7,65.1,19,65.4,19.9z"/>
		<path class="logo_st3" d="M70.7,56c0.1,0.5-0.3,0.5-0.4,0.9c-0.3,1.3,0,3.4-0.1,5c-0.1,1,0.1,2.2-0.5,3.1c-1.8,0-3.2-0.9-4.7-1.3
			c-1.1-0.3-2.5,0-3.3-0.8c-0.3-1.3,0.4-2.5,0.7-3.4c0.3-1.1,0.2-2.5,0.3-3.7c0.3-3.4,1.1-6.5,0.6-10.1c0.4-2,0-5.5-0.4-8.1
			c-0.1-0.8-0.4-1.7-0.4-2.2c0.1-0.1,0.2-0.2,0.3-0.3c3.3-0.1,5.5,1.7,8.4,1.4c0.4,0.2,1.3,0.3,1.4,0.8c0.1,0.5-0.6,1-0.8,1.4
			c-0.3,0.6-0.6,2-0.7,2.7C70.5,45.8,70.4,51.8,70.7,56z"/>
		<path class="logo_st3" d="M62,44.5c0.3,1-0.5,1.4-0.9,2.2c-0.3,0.6-0.5,1.4-0.8,2.2c-0.5,1.3-1.1,2.5-1.6,4c-0.9,0.6-1.9,0-2.2-0.8
			c-2.7-0.8-5.1-1.8-7.8-2.6c-0.6,1.6,1.8,2.7,1.6,3.8c-0.2,0.8-1.7,0.5-2.2,1.2c-3,0.6-5.5,0.9-7.7,2.2c0,0.4,0.1,1.9,0.1,2.3
			c1.9-0.1,3.8-1.1,5.2-2.1c0.8-0.1,1.4,0,2-0.2c0.4-0.1,0.7-0.5,1.2-0.7c0.5-0.2,1.1,0,1.5-0.4c1.2-0.1,1.4,0.8,2,1.5
			c0.8,1,2.9,1.8,2.6,3.4c-0.5,0.5-1.3,0.5-2.2,0.8c-0.5,0.2-0.8,0.7-1.3,0.8c-0.3,0-0.7-0.3-1-0.3c-0.6,0-1.3,0.6-2.1,0.7
			c-0.4,0.1-0.9,0-1.3,0.1c-2.4,0.4-4.8,1.7-6.9,2.2c0.2,2.8-0.4,6-0.1,8.5c0.5,0.1,1-0.2,1.5-0.3c3.1-0.4,6.9-0.9,9.8-1.8
			c0.4-0.1,1.3,0.2,1.6,0.1c1.1-0.3,2.2,0.1,3,0.2c0.1,0.3,0.4,0.5,0.5,0.8c-0.8,2.3-1.3,4.9-2.5,6.8c-2.6,0.6-5.2-0.7-8-0.7
			c-2.5,0-5.1,0.1-7.4,0.6c-1.7,1.1-4.6-0.2-6.7,1c-2,1.1-4.3,1.7-6.5,2.6c-1,0.4-2.5,1.2-3.4,1.1c-1-0.1-1.1-1.2-1.7-1.7
			c-0.4-1.1-0.9-2.5-1.4-3.3c-0.3-0.4-0.8-0.6-0.8-1c0-1,3.1-1.1,4.1-1.4c0.7-0.2,1.4-0.5,2-0.7c2.7-1,6.4-0.7,8.7-1.6
			c0.5-1.3-0.1-6.7,0.1-7.9c-0.2-0.3-0.7-0.4-1.1-0.4c-1.9-0.1-5.1,1.5-7.2,1.5c-1.3,0-2.2,0-2.9-0.8c0.4-2.1-1.9-2.1-1.1-3.9
			c0.5-0.4,1.2-0.2,1.7-0.2c3.4-0.1,6.3-1.5,10.2-1.7c0.1-0.4,0-2.3-0.2-2.7c-2.1,0.2-5.9,1.6-6.9,1.1c0.3-1.8-1.3-2.7-2.2-3.9
			c-1.9,1.3-3.3,3.1-5.5,4c-0.2,0.4-0.5,0.6-0.7,0.9c-2.5,1.4-4.5,3.3-6.4,5.3c-1.1,0-1.9,0.4-2.7,0.8c-0.6-0.2-1-0.6-1.6-0.8
			c-1-1.9-2.8-3.1-4.3-4.4c0-0.9-2.3-1.9-2.2-2.8c0.1-0.6,0.7-0.6,1.5-0.8c1.2-0.8,3.1-0.6,4.6-1c0.7-0.2,1.1-0.8,1.8-0.7
			c0.9-0.5,1.9-1,2.7-1.7c1.3,0.1,1.8-0.9,2.8-1.3c0.2-0.1,0.5,0,0.7-0.1c1.5-0.7,2.9-1.9,4.1-2.8c1.4-0.1,2.2-1.2,3.4-1.8
			c1.8-0.9,3.8-1.8,5.5-2.8c1.3-0.8,2.4-1.9,3.5-3c1-0.2,1.5-0.9,2.4-1.2c0.8,0.1,1.3,1.1,1.9,1.7c0.6,0.6,1.5,1.4,0.7,2.4
			c-0.9,1.1-2.8,2.1-3.3,3.5c-0.3,0.1-0.5,0.2-0.8,0.3c-2.1,1.7-4.7,2.9-6.4,4.9c1.9,0.3,3.3-0.5,4.9-0.9c2-0.6,4.1-0.9,6.1-1.4
			c1.1-0.3,2.1-0.7,3.2-0.9c2.1-0.5,4.2-0.8,5.6-2c0.7-0.1,1.1-0.4,1.6-0.6c-1-0.9-2.4-1.8-3.6-2.8c-0.7-0.7-1.4-1.3-2.1-1.7
			c-0.5-0.2-1.3-0.3-1.5-0.7c-0.4-1,1.2-1.7,1.3-2.9c1.5,0,3.5,0.4,5.4,0.7c3.3,0.7,6.7,2,9.9,2.4c0.6,0.1,1.1,0.5,1.7,0.7
			C59,44.1,60.6,43.7,62,44.5z"/>
		<path class="logo_st3" d="M41.2,69.5c0.1-0.8,0.5-1.3,0.6-2.1c1.5-0.4,2.8-1.4,4.4-2.2c1.3-0.7,2.8-1.2,3.8-1.8
			c0.8-0.4,2.2-1.6,2.9-0.1c-0.6,2.1,2,3.3,1.4,4.9C54,69,53.2,68.8,52.5,69c-1.7,0.5-0.8,0.5-2.1,1.4c-3,0.2-5.3-0.2-8.4-0.3
			C41.8,69.9,41.4,69.8,41.2,69.5z"/>
		<path class="logo_st3" d="M20.7,74.9c0-0.6-0.7-1-0.8-1.7c-0.1-0.2,0.1-0.6,0-0.8c-0.4-1.4-1.6-2.8-1.3-3.9c0.1-0.2,0.4-0.3,0.4-0.5
			c2,0.4,5,0.6,7.9,0.4c1.3-0.1,3.4-0.7,3.5,0.8c0,0.3-0.7,1.9-1.1,2.1c-0.2,0.1-0.8,0.2-1,0.3c-1.2,0.5-3,2.1-4.3,2.9
			C22.8,75.2,21.7,75.9,20.7,74.9z"/>
	</g>
	<g>
		<path class="logo_st3" d="M210.6,26.4c1.3-0.1,2.7,0.3,4.1,0.3c0.8,0,1.5-0.4,2.3-0.4c0.7,0,1.3,0.3,2,0.2c0.7-0.2,1.1-1.1,2-0.9
			c0.4-1.2,2.7-0.7,4.1-1.1c0.8-0.2,1.3-0.9,2.4-0.7c0.4,0.1,1.2,1,1.2,1.4c0,0.6-1.7,1.8-2.1,2.5c-0.4,0.6-0.6,1.3-0.9,1.9
			c-0.8,1.2-1.6,2.4-2.4,3.7c0.1,0.3,0,0.3,0,0.7c-0.9,0.8-0.9,2.2-1.8,2.9c-1.2-0.1-2.2-1.2-3.3-1.5c-0.3-0.1-0.6,0.1-0.9,0
			c-0.8-0.2-1.6-0.7-2.7-0.8c-0.6-0.1-1.3,0.1-2,0.1c-1.5-0.1-2.9-0.8-4.3-0.8c-0.5,0.2-0.8,0.5-1.5,0.6c-1.4,1.2-2.1,2.9-3.2,4.3
			c-3,1.7-5.4,4-8.7,5.5c-0.5,0.1-0.8,1.1-1.4,1.2c-0.8,0.2-2-0.5-2.1-1.1c-0.2-1,0.9-1.8,1.7-2.2c0.6-1.4,1.9-2.6,2.4-4.1
			c0.3-0.8,0.3-1.5,1-1.9c0.8-1.2,0.8-2.5,1.5-4.2c0.3-0.7,0.8-1.8,0.9-2.7c0.1-0.9-0.1-1.9,0.7-2.6c0.9-3.6,2.3-7,2.9-10.6
			c0.1-0.6,0.2-1.3,0.2-1.7c-0.1-0.5-0.6-0.9-0.5-1.4c0-0.1,1.5-1.1,2-1c1.1,0.2,1.9,0.8,2.8,1.1c0.5,0.2,1,0.1,1.3,0.2
			c0.3,0.1,0.5,0.4,0.8,0.6c0.6,0.3,1.4,0.5,2.1,0.9c1.4,0.6,2.8,1,4.1,1.5c0.3,0.3,1.1,0.8,1,1.5c-0.1,0.5-0.5,0.4-1,0.9
			c-0.8,0.7-1.3,1.8-1.8,2.7c-0.2,0.4-0.6,0.6-0.8,0.9c-0.3,0.6-0.6,1.3-0.8,1.9c-0.1,0.4,0,0.8-0.2,1.2
			C211.5,26.3,210.7,25.5,210.6,26.4z"/>
		<path class="logo_st3" d="M187.5,20.7c-0.7,1.7-0.2,4.1,0,6.5c0.2,2.4,0.4,4.8,0.7,6.8c-0.9,1.5-0.6,5.1,0.3,6.4
			c-0.6,0.9-0.1,3-0.8,3.8c-2.3,0.1-3-1.5-4.6-2.1c-1-1.8-2.1-3.6-2.7-5.8c-2.2,0.5-4,1.3-5.7,2.2c-0.3,0.2-0.4,0.5-0.6,0.8
			c-0.4,0.1-0.6,0.3-1,0.4c-0.4,0.4-0.6,0.9-0.9,1.3c-1.8,0.5-2.2-1.4-2.9-2.6c-0.5-0.7-1.2-1.5-1.8-2.4c-1-1.6-1.3-2.7-2.5-3.5
			c0-0.3,0-0.5,0-0.8c1.7-0.7,3.5,0.4,5.5,0.1c2.7-0.4,5.4-1.5,7.8-2c-0.2-0.8-1-1-1.3-1.7c-0.1-1.9-0.2-4.2-0.9-5.7
			c-0.3-0.6-0.8-0.7-0.7-1.4c0.3-1.1,3.7-1.2,5.7-1.3c1.1-0.1,2.3,0.2,3.3,0.1C185.5,19.8,186.9,19.4,187.5,20.7z"/>
		<path class="logo_st3" d="M224.2,51.2c-0.7,0.5-1.4,0.9-1.9,1.5c-2.4,1.2-4.3,3-6.8,4c-0.6,0.3-1.3,0.3-1.8,0.9
			c-2.3,0.5-4.4-0.1-6.1,0.9c-1.5-0.5-3.3,0.1-4.8-0.1c-0.1,0.6-0.4,0.9-0.6,1.3c-0.2,3.8,0,8.2,0,11.7c0,0.9-0.4,2.5-0.1,2.8
			c0.4,0.5,3.6-0.4,4.6-0.5c1.3-0.1,2.5,0,3.5-0.1c1.6-0.1,3-0.8,4.6-1c0.9-0.1,1.9,0.1,2.8-0.1c0.7-0.2,1.1-0.8,1.7-1.1
			c0.5-0.3,1.4-0.5,2-0.7c0.7-0.2,1.3-0.5,1.9-0.7c0.5-0.1,1,0,1.4-0.1c1.6-0.4,2.5-1.7,3.7-2.5c0.8-0.6,2.9-0.6,2.9,0.8
			c0,0.7-0.8,1.2-1,1.8c-0.3,0.7-0.3,1.3-0.5,2.1c-0.9,3.4-2.4,6.2-3.3,9.7c-1.2,2.6-4.9-0.1-6.8,1.1c-1.2,0-2.4-0.7-3.6-0.8
			c-1.5-0.1-3,0.4-4.5,0.3c-0.5,0-1-0.3-1.5-0.4c-0.5-0.1-1.1,0.1-1.6,0.1c-1.1,0-2.1-0.4-3.1-0.4c-0.4,0-0.9,0.2-1.3,0.2
			c-1.5,0-3.3-0.5-5-0.4c-0.6,0-1.1,0.4-1.6,0.5c-1.3,0.2-2.7,0.2-3.9-0.1c-0.6-1-0.3-2.9-0.4-4.5c-0.3-3.4-0.3-7.3,0.7-9.7
			c-0.3-1.2,0.2-2.4,0.2-3.8c0-1.1-0.4-2.2-0.4-3.3c0.1-3.1,0.5-6.2,0.7-9.1c0.1-1.9-0.6-3.6-0.8-5.2c0.2-0.8,1.5-0.4,2.2-0.7
			c1.8,1,4.8,0.4,7.3,1.1c0.6,0.1,1.4,0.7,1.5,1.2c0.1,0.4-0.3,0.7-0.4,1.2c-0.1,0.9,0.2,1.6,0.4,2.4c0.9-0.4,1.9-0.5,2.7-0.8
			c0.3-0.1,0.6-0.4,0.9-0.6c1-0.4,2-0.7,2.9-1.2c0.8-0.5,1.7-1.1,2.5-1.6c0.8-0.5,1.6-1.1,2.3-1.7c1-0.9,1.5-2.2,2.7-3
			c0-0.4,0.1-0.7,0.2-1.1c0.7-0.8,1.8-0.5,2.5,0c0.3,0.6,0.2,1.1,0.2,1.6c0.8,2.2,1.7,4.3,2.8,6.1C224.3,50.2,224.2,50.5,224.2,51.2
			z"/>
		<path class="logo_st3" d="M183.8,55.9c0,3.2,0.2,6.4,0.5,9.5c0,0.4,0.3,0.8,0.3,1.3c0,1-0.3,2.5-0.2,4c0.2,3.9-0.5,8.3-0.8,12.3
			c-1,0.6-1.6-0.1-2.5-0.5c-1.6-0.6-3.6-1.1-5.3-1.3c-1.1-0.1-2.1,0.1-2.7-0.7c-0.4-0.8,0.6-1.3,0.7-2c0.3-4.1,1.2-8.8,0.9-12.9
			c0-0.7-0.4-1.5-0.5-2.2c-0.1-1.1,0.2-2.4-0.1-3.5c-0.6-0.2-1.3,0.4-2.1,0.6c-1.2,0.2-2.1,0.4-3.2,0.8c-0.8,0.3-1.8,0.5-2.4,0.8
			c-0.4,0.2-0.6,0.7-1,0.8c-0.2,0-1.8-0.7-2.4-0.8c-0.9-0.2-2.2-0.4-2.1-1.3c0.1-1,1.4-0.5,1.9-1.3c3.1-0.8,5.9-2.7,8-4.8
			c0.7-0.7,1.2-1.6,2-2.2c0.6-0.5,1.4-0.8,2.1-1.3c0.8-0.6,1.7-1.5,2.5-2.2c0.9-0.8,1.9-1.4,2.5-2.1c0.8-0.9,2-3.5,3.1-3.3
			c0.9,0.2,1.7,2,2.3,2.8c0.6,0.7,1.5,1.7,2.3,2.5c0.4,0.5,2.3,1.8,2.1,2.7c-0.1,0.5-0.7,0.4-1.1,0.7c-0.6,0.4-1.2,1-1.9,1.4
			C185.7,54.5,185,55.4,183.8,55.9z"/>
	</g>
	<g>
		<path class="logo_st3" d="M273.4,36.2c2.2,0,5.1-0.8,7.4-1.5c0.3-0.1,0.5-0.3,0.8-0.4c0.8-0.2,1.5,0,2.2,0c0.7,0-0.1,0.1,0.8,0.1
			c0.4,0,1.2,0.2,2,0c0.7-0.1,1.4-0.3,2-0.5c0.7-0.2,1.6-0.3,2.1-0.6c1-0.4,1.8-1.2,3-0.9c0.7,0.2,1.5,0.9,1.5,1.5
			c0,0.5-0.5,0.8-0.8,1.3c-0.6,1.3-1,3-1.7,4.6c-0.4,1.1-1.4,3.4-2.6,3.7c-1,0.2-2.6-0.3-3.6-0.4c-0.6,0-1.3,0.1-1.9,0.1
			c-1.3,0-0.7-0.9-1.9-0.9c-1.8,0.1-3.4,0.8-5.7,0.8c-1.4,0-2.8-0.4-4.4-0.6c-0.6,0.8-0.9,2.2-0.8,3.6c0.2,2.4,0.4,5.2,0.8,6.8
			c4.5-0.3,9-0.9,13.3-1.8c2.1-0.2,4.8,0.5,6.1,1.8c0.4-0.2,1,0,1.3,0.2c0.6,0.8-0.7,1.6-1.1,2.6c-0.4,0.9-0.3,1.5-0.4,2.2
			c-1.7,0.7-2.3,2.5-3.4,3.9c-0.4-0.2-1.1-0.1-1.3-0.6c-0.3,0-0.4,0.3-0.7,0.4c-4.1-0.5-9.6-0.7-14.3-0.4c-0.8,3.7-0.2,7.5,0,11.4
			c1.6,0.4,4.2,0.1,5.9,0.2c1.6,0.1,3.3,0.6,4.9,0.6c0.3,0,0.6-0.2,0.9-0.2c0.8,0,1.6,0.4,2.5,0.5c1.4,0.1,4.6-0.4,5.8,0.1
			c1.3-0.5,3.2-0.4,4.7-0.9c0.4-0.1,0.8-0.5,1.1-0.6c1-0.2,2,0.3,2.5,1c-1,1.7-2.4,3.1-2.7,5.4c-1.5,1.3-2,5-5,4.5
			c-0.4-0.1-0.9-0.3-1.4-0.5c-0.5-0.1-1.1-0.1-1.5-0.2c-1.8-0.5-4.9-1.2-7.2-1.7c-2.1-0.4-4.6-0.1-6.8-0.4c-1.6-0.2-4.8-1.1-6.3-0.9
			c-0.9,0.1-1.8,1-3.1,0.9c-2.1-0.1-4.1-0.9-6.2-0.6c-0.8,0.1-1.3,0.4-2.5,0.5c-1,0.1-2.1,0.5-3,0.6c-0.6,0-1.1-0.1-1.7,0
			c-0.4,0.1-0.7,0.4-1.1,0.6c-0.7,0.2-1.7,0.2-2.6,0.4c-1.3,0.2-2.2,0.8-3.4,0.4c-1,0.6-2.5,0.5-4.2,0.9c-1.6,0.5-2.9,1.4-4,0.1
			c-0.6-0.8-1-2.2-1.6-3.4c-0.6-1.2-1.2-2.5-1.8-3.2c-0.3-0.5-1-0.9-1-1.2c-0.1-1.3,3.7-1.6,5-1.5c0.6,0,1.1,0.4,1.8,0.5
			c2.1,0.3,4.4,0.1,6-0.1c4.2,0.2,8-1.4,12.3-1.5c1.5,0,3.4-0.2,5,0c0.6-4.1-0.2-8.5,0.4-12.2c-1.6-0.8-3-0.4-4.5-0.2
			c-0.5,0.1-1-0.1-1.6-0.1c-0.5,0-1,0.3-1.6,0.4c-0.3,0-0.7-0.1-1.1,0c-0.8,0.1-1.8,0.5-2.7,0.9c-0.9,0.3-1.9,0.8-2.4,1
			c-0.4,0.2-1,0.7-1.3,0.8c-0.3,0-1-0.4-1.3-0.7c-0.2-0.2-0.1-0.7-0.3-0.9c-0.3-0.4-0.9-0.4-1.1-0.9c-0.1-0.4,0.1-0.5,0.1-0.9
			c-0.3-0.6-0.9-0.9-1.3-1.3c0-1.1-0.4-1.9-0.9-2.9c-0.2-0.3-1.1-1.4-1.1-1.7c0.1-0.6,1.3-0.8,1.9-0.9c0.9,0,1.7,0.4,2.6,0.5
			c0.6,0.1,1.4,0,2,0.1c1.3,0.2,2.7,0.4,4.5,0.3c1.9-0.2,3.8-1,5.6-1c1.4-0.1,2.9-0.2,4.3-0.5c-0.2-0.7-0.3-1.4-0.5-2.1
			c-0.2-0.6-0.6-1.3-0.6-1.9c0-0.9,0.7-1.7,0.9-2.7c0.2-1.1,0-2.1,0.4-3.1c-2.4-0.4-5.6,0.7-8.5,1.1c-0.6,0.1-1.4,0-2.1,0.2
			c-1.2,0.2-2.3,0.6-2.9-0.4c-0.1-0.1,0-0.5-0.2-0.7c-0.2-0.2-0.7-0.2-1.1-0.5c-0.3-0.2-0.5-0.6-0.8-0.8c-0.6-0.3-1.3-0.3-1.8-0.8
			c-1.7,1.6-3.3,3.4-5,5.1c-1.5,0.5-2.9,1.1-4.4,1.9c-0.8,0.4-1,0.5-2.1,0.8c-1.4,0.3-2.4,1.6-4.6,1.2c-0.3-0.3-0.6-0.5-0.9-0.9
			c0.2-1,0-1.7,0-2.5c0.4-0.4,0.9-0.3,1.5-0.4c1.9-1.3,3.5-2.9,5.1-4.5c2.8-1.1,3.1-4.5,5-6.4c0.7-2.9,1.5-5.6,2.2-8.5
			c-0.1-1-1.4-2-1.4-2.8c0-0.7,0.7-1.1,1.1-1.7c2.4,0.2,4.9,0.8,7.3,1c0.5,0,0.9-0.1,1.4,0c0.5,0.1,0.9,0.4,1.5,0.6
			c1.1,0.3,2.8,0.3,2.7,1.5c0,0.5-0.7,0.9-1,1.3c-0.3,0.5-0.2,1.1-0.4,1.7c-0.7,2.3-2,4.9-2.3,7c3.8,1.3,7.3,0.9,11.3,0.8
			c0.7-2.6-0.6-5-0.3-7.6c0.2-1.1,0.7-2.1,0.8-3.2c0.1-1.3,0.1-2.9,0.2-4.3c0-0.9,0.1-0.5,0-1.4c-0.2-1.5-1.6-2.9-1.6-4.5
			c0-0.3,0.3-0.5,0.3-0.9c0.1-0.5-0.4-1.1,0.2-1.6c2.4-0.5,4.6,0.8,6.4,1.6c1.6,0.7,3.2,1.2,4.5,2.1c0.7,0.1,2.2,0.5,2.3,1.3
			c0.1,0.4-0.7,1.6-0.9,2.2c-0.2,0.7-0.6,0.2-0.7,0.9c0,0.2,0.1,0.8,0.1,1c-0.2,2-1,4.3-1.2,6.5C273.9,31.1,273.5,33.8,273.4,36.2z"
			/>
	</g>
</g>
</svg>
