<?xml version="1.0" encoding="utf-8"?>
<!-- Generator: Adobe Illustrator 25.2.0, SVG Export Plug-In . SVG Version: 6.00 Build 0)  -->
<svg width="117" height="353" version="1.1" id="圖層_1" xmlns="http://www.w3.org/2000/svg" xmlns:xlink="http://www.w3.org/1999/xlink" x="0px" y="0px"
	 viewBox="0 0 116.4 352.5" style="enable-background:new 0 0 116.4 352.5;" xml:space="preserve">
<style type="text/css">
	.logo_vertical_st0{clip-path:url(#SVGID_2_);fill:#8B0C02;}
	.logo_vertical_st1{clip-path:url(#SVGID_2_);fill-rule:evenodd;clip-rule:evenodd;fill:#8B0C02;}
	.logo_vertical_st2{clip-path:url(#SVGID_2_);fill:#FFF0D8;}
	.logo_vertical_st3{clip-path:url(#SVGID_2_);fill-rule:evenodd;clip-rule:evenodd;fill:#572600;}
</style>
<g>
	<defs>
		<rect id="SVGID_1_" width="116.4" height="352.5"/>
	</defs>
	<clipPath id="SVGID_2_">
		<use xlink:href="#SVGID_1_"  style="overflow:visible;"/>
	</clipPath>
	<path class="logo_vertical_st0" d="M23,209.1c0-1.4,0-1.7,0-1.9c0-0.3-0.1-0.5-0.4-0.5c-0.1,0-0.2,0-0.3,0c0,0-0.1,0-0.1-0.1c0-0.1,0-0.1,0.1-0.1
		c0.4,0,1,0,1,0c0.1,0,0.6,0,0.9,0c0.1,0,0.1,0,0.1,0.1c0,0,0,0.1-0.1,0.1c-0.1,0-0.1,0-0.2,0c-0.2,0-0.3,0.2-0.3,0.5
		c0,0.3,0,0.5,0,1.9v1.3c0,1.3,0.3,1.9,0.7,2.2c0.4,0.4,0.8,0.5,1.4,0.5c0.5,0,1.1-0.3,1.4-0.6c0.4-0.5,0.5-1.3,0.5-2.2v-1.1
		c0-1.4,0-1.7,0-1.9c0-0.3-0.1-0.5-0.4-0.5c-0.1,0-0.2,0-0.3,0c0,0-0.1,0-0.1-0.1c0-0.1,0-0.1,0.1-0.1c0.4,0,0.9,0,1,0
		c0.1,0,0.5,0,0.8,0c0.1,0,0.1,0,0.1,0.1c0,0,0,0.1-0.1,0.1c-0.1,0-0.1,0-0.2,0c-0.2,0.1-0.3,0.2-0.3,0.5c0,0.3,0,0.5,0,1.9v1
		c0,1-0.1,2.1-0.8,2.7c-0.6,0.6-1.3,0.7-1.9,0.7c-0.3,0-1.2,0-1.9-0.6c-0.4-0.4-0.8-1.1-0.8-2.4V209.1z"/>
	<path class="logo_vertical_st0" d="M31.3,212.2c0,0.6,0.1,0.8,0.3,0.9c0.1,0,0.3,0,0.4,0c0,0,0.1,0,0.1,0.1c0,0-0.1,0.1-0.1,0.1
		c-0.4,0-0.8,0-0.8,0c-0.1,0-0.4,0-0.8,0c-0.1,0-0.1,0-0.1-0.1c0,0,0-0.1,0.1-0.1c0.1,0,0.2,0,0.3,0c0.2-0.1,0.2-0.3,0.2-1v-4.4
		c0-0.3,0-0.4,0.1-0.4c0.1,0,0.2,0.2,0.3,0.2c0.1,0.1,1.3,1.3,2.5,2.6c0.8,0.8,1.6,1.7,1.9,2l-0.1-3.8c0-0.5-0.1-0.7-0.3-0.7
		c-0.1,0-0.3,0-0.4,0c-0.1,0-0.1,0-0.1-0.1c0,0,0.1-0.1,0.2-0.1c0.4,0,0.7,0,0.8,0s0.4,0,0.7,0c0.1,0,0.1,0,0.1,0.1
		c0,0,0,0.1-0.1,0.1c0,0-0.1,0-0.2,0c-0.3,0.1-0.3,0.2-0.3,0.7l0,4.5c0,0.5,0,0.5-0.1,0.5c-0.1,0-0.2-0.1-0.6-0.5
		c-0.1-0.1-1.2-1.2-2.1-2.1c-0.9-1-1.8-1.9-2.1-2.2L31.3,212.2z"/>
	<path class="logo_vertical_st0" d="M38.8,212.6c-0.8-0.7-1-1.5-1-2.3c0-0.5,0.2-1.4,0.9-2.1c0.5-0.5,1.2-0.8,2.4-0.8c0.3,0,0.8,0,1.2,0.1
		c0.3,0.1,0.5,0.1,0.8,0.1c0.1,0,0.1,0,0.1,0.1c0,0.1,0,0.2,0,0.4c0,0.3,0,0.7,0,0.8c0,0.1,0,0.2-0.1,0.2c-0.1,0-0.1-0.1-0.1-0.2
		c0-0.3-0.1-0.6-0.3-0.8c-0.3-0.2-0.9-0.4-1.6-0.4c-1,0-1.5,0.3-1.8,0.5c-0.6,0.5-0.7,1.2-0.7,2c0,1.5,1.2,2.8,2.9,2.8
		c0.6,0,1,0,1.3-0.4c0.2-0.2,0.3-0.5,0.3-0.6c0-0.1,0-0.1,0.1-0.1c0,0,0.1,0.1,0.1,0.1s-0.1,0.7-0.2,1c0,0.1-0.1,0.2-0.2,0.2
		c-0.3,0.1-0.9,0.2-1.4,0.2C40.2,213.4,39.4,213.1,38.8,212.6"/>
	<path class="logo_vertical_st0" d="M46.3,211.1c0,1.1,0,1.6,0.2,1.7c0.1,0.1,0.4,0.2,1.1,0.2c0.4,0,0.8,0,1-0.2c0.1-0.1,0.2-0.3,0.2-0.4
		c0-0.1,0-0.1,0.1-0.1c0,0,0.1,0,0.1,0.1c0,0.1-0.1,0.5-0.1,0.8c-0.1,0.2-0.1,0.2-0.5,0.2c-0.6,0-1,0-1.4,0c-0.4,0-0.6,0-0.9,0
		c0,0-0.2,0-0.3,0c-0.2,0-0.3,0-0.5,0c-0.1,0-0.1,0-0.1-0.1c0,0,0-0.1,0.1-0.1c0.1,0,0.2,0,0.2,0c0.2,0,0.2-0.2,0.2-0.4
		c0-0.3,0-0.9,0-1.7v-1.4c0-1.2,0-1.4,0-1.6c0-0.3-0.1-0.4-0.3-0.4c-0.1,0-0.2,0-0.3,0c0,0-0.1,0-0.1-0.1c0,0,0-0.1,0.1-0.1
		c0.4,0,0.9,0,0.9,0c0,0,0.6,0,0.9,0c0.1,0,0.1,0,0.1,0.1c0,0,0,0.1-0.1,0.1c-0.1,0-0.2,0-0.3,0c-0.2,0-0.3,0.2-0.3,0.4
		c0,0.2,0,0.5,0,1.6V211.1z"/>
	<path class="logo_vertical_st0" d="M50.8,209.7c0-1.2,0-1.4,0-1.6c0-0.3-0.1-0.4-0.3-0.4c-0.1,0-0.2,0-0.3,0c0,0-0.1,0-0.1-0.1c0,0,0-0.1,0.1-0.1
		c0.4,0,0.9,0,0.9,0c0.1,0,1.7,0,1.9,0c0.2,0,0.3,0,0.4,0c0,0,0.1,0,0.1,0c0,0,0,0,0,0.1c0,0.1,0,0.1-0.1,0.4c0,0.1,0,0.4,0,0.5
		c0,0,0,0.1-0.1,0.1c0,0-0.1,0-0.1-0.1c0-0.1,0-0.2,0-0.3c-0.1-0.1-0.1-0.2-0.6-0.2c-0.1,0-1.1,0-1.1,0c0,0,0,0,0,0.1v2.1
		c0,0.1,0,0.1,0,0.1c0.1,0,1.1,0,1.3,0c0.2,0,0.3,0,0.4-0.1c0.1-0.1,0.1-0.1,0.1-0.1c0,0,0,0,0,0.1s0,0.2-0.1,0.4c0,0.2,0,0.4,0,0.5
		c0,0.1,0,0.1-0.1,0.1c0,0-0.1,0-0.1-0.1c0-0.1,0-0.2,0-0.3c0-0.1-0.1-0.2-0.4-0.2c-0.2,0-1.1,0-1.2,0c0,0-0.1,0-0.1,0.1v0.6
		c0,0.3,0,1.2,0,1.3c0,0.5,0.2,0.6,0.9,0.6c0.2,0,0.6,0,0.8-0.1c0.2-0.1,0.3-0.2,0.4-0.5c0-0.1,0-0.1,0.1-0.1s0.1,0.1,0.1,0.1
		c0,0.1-0.1,0.6-0.1,0.7c-0.1,0.2-0.1,0.2-0.4,0.2c-0.6,0-1.1,0-1.4,0c-0.3,0-0.5,0-0.7,0c0,0-0.2,0-0.3,0c-0.2,0-0.3,0-0.5,0
		c-0.1,0-0.1,0-0.1-0.1c0,0,0-0.1,0.1-0.1c0.1,0,0.2,0,0.2,0c0.2,0,0.2-0.2,0.2-0.4c0-0.3,0-0.9,0-1.7V209.7z"/>
	<path class="logo_vertical_st0" d="M60.6,210.7c0,1.3,0,1.9,0.2,2.1c0.1,0.1,0.4,0.2,1.1,0.2c0.5,0,0.9,0,1.1-0.3c0.1-0.1,0.2-0.4,0.2-0.5
		c0-0.1,0-0.1,0.1-0.1c0,0,0.1,0,0.1,0.1c0,0.1-0.1,0.6-0.1,0.9c-0.1,0.2-0.1,0.2-0.6,0.2c-0.6,0-1.1,0-1.5,0c-0.4,0-0.7,0-0.9,0
		c0,0-0.2,0-0.4,0c-0.2,0-0.4,0-0.5,0c-0.1,0-0.1,0-0.1-0.1c0,0,0-0.1,0.1-0.1c0.1,0,0.2,0,0.3,0c0.2,0,0.2-0.2,0.3-0.5
		c0-0.4,0-1.1,0-2v-1.6c0-1.4,0-1.7,0-1.9c0-0.3-0.1-0.5-0.4-0.5c-0.1,0-0.2,0-0.3,0c0,0-0.1,0-0.1-0.1c0-0.1,0-0.1,0.1-0.1
		c0.4,0,1,0,1,0c0,0,0.7,0,1,0c0.1,0,0.1,0,0.1,0.1c0,0,0,0.1-0.1,0.1c-0.1,0-0.2,0-0.3,0c-0.3,0-0.3,0.2-0.4,0.5c0,0.3,0,0.5,0,1.9
		V210.7z"/>
	<path class="logo_vertical_st0" d="M66.1,211.1c0,0.7,0,1.3,0,1.7c0,0.2,0.1,0.4,0.3,0.4c0.1,0,0.3,0,0.4,0c0,0,0.1,0,0.1,0.1c0,0,0,0.1-0.1,0.1
		c-0.4,0-1,0-1,0c0,0-0.5,0-0.8,0c-0.1,0-0.1,0-0.1-0.1c0,0,0-0.1,0.1-0.1c0.1,0,0.2,0,0.2,0c0.2,0,0.2-0.2,0.2-0.4
		c0-0.3,0-0.9,0-1.7v-1.4c0-1.2,0-1.4,0-1.6c0-0.3-0.1-0.4-0.3-0.4c-0.1,0-0.2,0-0.2,0c0,0-0.1,0-0.1-0.1c0,0,0-0.1,0.1-0.1
		c0.3,0,0.8,0,0.8,0c0,0,0.5,0,0.8,0c0.1,0,0.1,0,0.1,0.1c0,0,0,0.1-0.1,0.1c-0.1,0-0.1,0-0.2,0c-0.2,0-0.3,0.2-0.3,0.4
		c0,0.2,0,0.5,0,1.6V211.1z"/>
	<path class="logo_vertical_st0" d="M68.9,209.7c0-1.2,0-1.4,0-1.6c0-0.2-0.1-0.4-0.3-0.4c-0.1,0-0.2,0-0.3,0c0,0-0.1,0-0.1-0.1c0,0,0-0.1,0.1-0.1
		c0.4,0,0.8,0,0.9,0c0.1,0,0.6,0,0.8,0c0.1,0,0.1,0,0.1,0.1c0,0,0,0.1-0.1,0.1c-0.1,0-0.1,0-0.2,0c-0.2,0-0.3,0.2-0.3,0.4
		c0,0.2,0,0.5,0,1.6v1.1c0,1.1,0.2,1.6,0.6,1.9c0.4,0.4,0.7,0.4,1.2,0.4c0.5,0,1-0.2,1.2-0.5c0.4-0.4,0.4-1.1,0.4-1.9v-1
		c0-1.2,0-1.4,0-1.6c0-0.2-0.1-0.4-0.3-0.4c-0.1,0-0.2,0-0.3,0c0,0-0.1,0-0.1-0.1c0,0,0-0.1,0.1-0.1c0.4,0,0.8,0,0.9,0
		c0.1,0,0.4,0,0.7,0c0.1,0,0.1,0,0.1,0.1c0,0,0,0.1-0.1,0.1c-0.1,0-0.1,0-0.2,0c-0.2,0-0.3,0.2-0.3,0.4c0,0.2,0,0.5,0,1.6v0.8
		c0,0.8-0.1,1.8-0.7,2.3c-0.6,0.5-1.2,0.6-1.7,0.6c-0.3,0-1.1,0-1.6-0.5c-0.4-0.4-0.7-0.9-0.7-2V209.7z"/>
	<path class="logo_vertical_st0" d="M75.6,206.1c-0.1-0.1-0.1-0.1-0.1-0.2c0,0,0-0.1,0.1-0.1c0.1,0,0.5,0.1,0.6,0.2c0.1,0.1,0.2,0.1,0.2,0.2
		c0,0.6-0.5,1.4-0.8,1.8c0,0.1-0.1,0.1-0.1,0.1c0,0,0,0,0,0c0,0,0-0.1,0-0.1c0.1-0.3,0.3-0.8,0.3-1.3
		C75.7,206.4,75.6,206.2,75.6,206.1"/>
	<path class="logo_vertical_st0" d="M77.6,213.2c-0.1-0.1-0.1-0.1-0.1-0.3c0-0.4,0-0.7,0-0.8c0-0.1,0-0.1,0.1-0.1s0.1,0,0.1,0.1c0,0.1,0,0.2,0,0.3
		c0.1,0.6,0.7,0.8,1.3,0.8c0.8,0,1.2-0.4,1.2-1c0-0.5-0.3-0.8-1-1.3l-0.4-0.3c-0.9-0.6-1.1-1.1-1.1-1.6c0-0.9,0.7-1.4,1.8-1.4
		c0.3,0,0.6,0,0.8,0.1c0.2,0,0.2,0,0.3,0c0.1,0,0.1,0,0.1,0.1c0,0,0,0.3,0,0.8c0,0.1,0,0.2-0.1,0.2c-0.1,0-0.1,0-0.1-0.1
		c0-0.1-0.1-0.3-0.1-0.4c-0.1-0.1-0.3-0.4-1-0.4c-0.6,0-1.1,0.3-1.1,0.8c0,0.5,0.2,0.8,1,1.3l0.2,0.2c1,0.7,1.3,1.2,1.3,1.8
		c0,0.4-0.2,0.9-0.7,1.3c-0.3,0.2-0.8,0.3-1.3,0.3C78.4,213.4,78,213.3,77.6,213.2"/>
	<path class="logo_vertical_st0" d="M6.2,219.7c0,0.9,0,1.6,0,2c0,0.3,0.1,0.5,0.4,0.5c0.1,0,0.3,0,0.4,0c0.1,0,0.1,0,0.1,0.1c0,0,0,0.1-0.1,0.1
		c-0.5,0-1.1,0-1.1,0s-0.6,0-0.9,0c-0.1,0-0.1,0-0.1-0.1c0,0,0-0.1,0.1-0.1c0.1,0,0.2,0,0.3,0c0.2,0,0.2-0.2,0.3-0.5
		c0-0.4,0-1.1,0-2v-0.9c0,0,0-0.1-0.1-0.1H1.6c0,0-0.1,0-0.1,0.1v0.9c0,0.9,0,1.6,0,2c0,0.3,0.1,0.5,0.4,0.5c0.1,0,0.3,0,0.4,0
		c0.1,0,0.1,0,0.1,0.1c0,0,0,0.1-0.1,0.1c-0.5,0-1.1,0-1.1,0s-0.6,0-0.9,0c-0.1,0-0.1,0-0.1-0.1c0,0,0-0.1,0.1-0.1
		c0.1,0,0.2,0,0.3,0c0.2,0,0.2-0.2,0.3-0.5c0-0.4,0-1.1,0-2v-1.6c0-1.4,0-1.7,0-1.9c0-0.3-0.1-0.5-0.4-0.5c-0.1,0-0.2,0-0.3,0
		c0,0-0.1,0-0.1-0.1c0-0.1,0-0.1,0.1-0.1c0.4,0,1,0,1,0s0.6,0,0.9,0c0.1,0,0.1,0,0.1,0.1c0,0,0,0.1-0.1,0.1c-0.1,0-0.1,0-0.2,0
		c-0.2,0-0.3,0.2-0.3,0.5c0,0.3,0,0.5,0,1.9v0.2c0,0,0,0.1,0.1,0.1h3.8c0,0,0.1,0,0.1-0.1v-0.2c0-1.4,0-1.7,0-1.9
		c0-0.3-0.1-0.5-0.4-0.5c-0.1,0-0.2,0-0.3,0c0,0-0.1,0-0.1-0.1c0-0.1,0-0.1,0.1-0.1c0.4,0,1,0,1,0s0.6,0,0.9,0c0.1,0,0.1,0,0.1,0.1
		c0,0,0,0.1-0.1,0.1c-0.1,0-0.1,0-0.2,0c-0.2,0-0.3,0.2-0.3,0.5c0,0.3,0,0.5,0,1.9V219.7z"/>
	<path class="logo_vertical_st0" d="M10.9,216.7c0.1-0.3,0.1-0.3,0.2-0.3c0.1,0,0.1,0.1,0.2,0.3c0.1,0.3,1.4,3.5,1.9,4.6c0.3,0.7,0.5,0.8,0.7,0.8
		c0.1,0,0.2,0,0.3,0c0,0,0.1,0,0.1,0.1c0,0-0.1,0.1-0.2,0.1c-0.1,0-0.7,0-1.3,0c-0.2,0-0.3,0-0.3-0.1c0,0,0,0,0.1-0.1
		c0,0,0.1-0.1,0.1-0.2l-0.7-1.8c0,0,0,0-0.1,0H10c0,0-0.1,0-0.1,0.1l-0.5,1.2c-0.1,0.2-0.1,0.4-0.1,0.5c0,0.2,0.1,0.2,0.3,0.2h0.1
		c0.1,0,0.1,0,0.1,0.1c0,0,0,0.1-0.1,0.1c-0.2,0-0.6,0-0.7,0c-0.1,0-0.5,0-0.8,0c-0.1,0-0.2,0-0.2-0.1c0,0,0-0.1,0.1-0.1
		c0.1,0,0.2,0,0.2,0c0.4,0,0.5-0.3,0.7-0.7L10.9,216.7z M11.8,219.8C11.8,219.8,11.8,219.8,11.8,219.8l-0.8-2.2c0-0.1-0.1-0.1-0.1,0
		l-0.7,2.1c0,0,0,0.1,0,0.1H11.8z"/>
	<path class="logo_vertical_st0" d="M16.1,221.2c0,0.6,0.1,0.8,0.3,0.9c0.1,0,0.3,0,0.4,0c0,0,0.1,0,0.1,0.1c0,0-0.1,0.1-0.1,0.1
		c-0.5,0-0.8,0-0.8,0c-0.1,0-0.4,0-0.8,0c-0.1,0-0.1,0-0.1-0.1c0,0,0-0.1,0.1-0.1c0.1,0,0.2,0,0.3,0c0.2-0.1,0.2-0.3,0.2-1v-4.4
		c0-0.3,0-0.4,0.1-0.4c0.1,0,0.2,0.2,0.3,0.2c0.1,0.1,1.3,1.3,2.5,2.6c0.8,0.8,1.6,1.7,1.9,2l-0.1-3.8c0-0.5-0.1-0.7-0.3-0.7
		c-0.1,0-0.3,0-0.4,0c-0.1,0-0.1,0-0.1-0.1c0,0,0.1-0.1,0.2-0.1c0.4,0,0.7,0,0.8,0s0.4,0,0.7,0c0.1,0,0.1,0,0.1,0.1
		c0,0,0,0.1-0.1,0.1c0,0-0.1,0-0.2,0c-0.3,0.1-0.3,0.2-0.3,0.7l0,4.5c0,0.5,0,0.5-0.1,0.5c-0.1,0-0.2-0.1-0.6-0.5
		c-0.1-0.1-1.2-1.2-2.1-2.1c-0.9-1-1.8-1.9-2.1-2.2L16.1,221.2z"/>
	<path class="logo_vertical_st0" d="M23.5,218.7c0-1.2,0-1.4,0-1.6c0-0.3-0.1-0.4-0.3-0.4c-0.1,0-0.2,0-0.3,0c0,0-0.1,0-0.1-0.1c0,0,0-0.1,0.1-0.1
		c0.4,0,0.9,0,0.9,0c0.1,0,0.6,0,1.1,0c0.8,0,2.2-0.1,3.2,0.9c0.4,0.4,0.8,1,0.8,1.9c0,1-0.4,1.7-0.9,2.2c-0.3,0.4-1.1,0.9-2.4,0.9
		c-0.3,0-0.8,0-1.1,0c-0.3,0-0.6,0-0.6,0c0,0-0.2,0-0.3,0c-0.2,0-0.4,0-0.5,0c-0.1,0-0.1,0-0.1-0.1c0,0,0-0.1,0.1-0.1
		c0.1,0,0.2,0,0.2,0c0.2,0,0.2-0.2,0.2-0.4c0-0.3,0-0.9,0-1.7V218.7z M24.2,219.5c0,0.8,0,1.5,0,1.7c0,0.2,0,0.5,0.1,0.6
		c0.1,0.1,0.4,0.3,1.3,0.3c0.7,0,1.4-0.2,1.9-0.7c0.4-0.4,0.6-1.1,0.6-1.8c0-1-0.4-1.6-0.7-1.9c-0.7-0.8-1.6-0.9-2.6-0.9
		c-0.2,0-0.4,0-0.5,0.1c-0.1,0-0.1,0.1-0.1,0.2V219.5z"/>
	<path class="logo_vertical_st0" d="M37.1,221.3c0,0.3,0.1,0.7,0.4,0.8c0.2,0.1,0.4,0.1,0.5,0.1c0,0,0.1,0,0.1,0.1c0,0-0.1,0.1-0.2,0.1
		c-0.2,0-1.1,0-1.3,0c-0.2,0-0.2,0-0.2-0.1c0,0,0-0.1,0.1-0.1c0,0,0.1-0.1,0-0.3l-0.4-3.9h0l-1.9,3.9c-0.2,0.3-0.2,0.4-0.3,0.4
		c-0.1,0-0.1-0.1-0.3-0.4c-0.2-0.4-0.7-1.4-0.9-1.8c-0.2-0.5-0.9-1.8-1-2.1h0l-0.3,3.5c0,0.1,0,0.3,0,0.4c0,0.1,0.1,0.2,0.2,0.2
		c0.1,0,0.3,0,0.3,0c0,0,0.1,0,0.1,0.1c0,0.1-0.1,0.1-0.1,0.1c-0.3,0-0.7,0-0.7,0c-0.1,0-0.5,0-0.7,0c-0.1,0-0.1,0-0.1-0.1
		c0,0,0-0.1,0.1-0.1c0.1,0,0.1,0,0.2,0c0.3,0,0.3-0.3,0.3-0.6l0.6-5c0-0.1,0-0.1,0.1-0.1c0.1,0,0.1,0,0.2,0.1l2.4,4.8l2.3-4.7
		c0-0.1,0.1-0.1,0.1-0.1c0.1,0,0.1,0.1,0.1,0.2L37.1,221.3z"/>
	<path class="logo_vertical_st0" d="M41.3,216.7c0.1-0.3,0.1-0.3,0.2-0.3c0.1,0,0.1,0.1,0.2,0.3c0.1,0.3,1.4,3.5,1.9,4.6c0.3,0.7,0.5,0.8,0.7,0.8
		c0.1,0,0.2,0,0.3,0c0,0,0.1,0,0.1,0.1c0,0-0.1,0.1-0.2,0.1c-0.1,0-0.7,0-1.3,0c-0.2,0-0.3,0-0.3-0.1c0,0,0,0,0.1-0.1
		c0,0,0.1-0.1,0.1-0.2l-0.7-1.8c0,0,0,0-0.1,0h-1.8c0,0-0.1,0-0.1,0.1l-0.4,1.2c-0.1,0.2-0.1,0.4-0.1,0.5c0,0.2,0.1,0.2,0.3,0.2h0.1
		c0.1,0,0.1,0,0.1,0.1c0,0,0,0.1-0.1,0.1c-0.2,0-0.6,0-0.7,0c-0.1,0-0.5,0-0.8,0c-0.1,0-0.2,0-0.2-0.1c0,0,0-0.1,0.1-0.1
		c0.1,0,0.2,0,0.2,0c0.4,0,0.5-0.3,0.7-0.7L41.3,216.7z M42.2,219.8C42.2,219.8,42.2,219.8,42.2,219.8l-0.8-2.2c0-0.1-0.1-0.1-0.1,0
		l-0.7,2.1c0,0,0,0.1,0,0.1H42.2z"/>
	<path class="logo_vertical_st0" d="M46.2,218.7c0-1.2,0-1.4,0-1.6c0-0.3-0.1-0.4-0.3-0.4c-0.1,0-0.2,0-0.3,0c0,0-0.1,0-0.1-0.1c0,0,0-0.1,0.1-0.1
		c0.4,0,0.9,0,0.9,0c0.1,0,0.6,0,1.1,0c0.8,0,2.2-0.1,3.2,0.9c0.4,0.4,0.8,1,0.8,1.9c0,1-0.4,1.7-0.9,2.2c-0.3,0.4-1.1,0.9-2.4,0.9
		c-0.3,0-0.8,0-1.1,0c-0.3,0-0.6,0-0.6,0c0,0-0.2,0-0.3,0c-0.2,0-0.4,0-0.5,0c-0.1,0-0.1,0-0.1-0.1c0,0,0-0.1,0.1-0.1
		c0.1,0,0.2,0,0.2,0c0.2,0,0.2-0.2,0.2-0.4c0-0.3,0-0.9,0-1.7V218.7z M46.9,219.5c0,0.8,0,1.5,0,1.7c0,0.2,0,0.5,0.1,0.6
		c0.1,0.1,0.4,0.3,1.3,0.3c0.7,0,1.4-0.2,1.9-0.7c0.4-0.4,0.6-1.1,0.6-1.8c0-1-0.4-1.6-0.7-1.9c-0.7-0.8-1.6-0.9-2.6-0.9
		c-0.2,0-0.4,0-0.5,0.1c-0.1,0-0.1,0.1-0.1,0.2V219.5z"/>
	<path class="logo_vertical_st0" d="M53.8,218.7c0-1.2,0-1.4,0-1.6c0-0.3-0.1-0.4-0.3-0.4c-0.1,0-0.2,0-0.3,0c0,0-0.1,0-0.1-0.1c0,0,0-0.1,0.1-0.1
		c0.4,0,0.9,0,0.9,0c0.1,0,1.7,0,1.9,0c0.2,0,0.3,0,0.4,0c0,0,0.1,0,0.1,0c0,0,0,0,0,0.1c0,0.1,0,0.1-0.1,0.4c0,0.1,0,0.4,0,0.5
		c0,0,0,0.1-0.1,0.1c0,0-0.1,0-0.1-0.1c0-0.1,0-0.2,0-0.3c-0.1-0.1-0.1-0.2-0.6-0.2c-0.1,0-1.1,0-1.1,0c0,0,0,0,0,0.1v2.1
		c0,0.1,0,0.1,0,0.1c0.1,0,1.1,0,1.3,0c0.2,0,0.3,0,0.4-0.1c0.1-0.1,0.1-0.1,0.1-0.1c0,0,0,0,0,0.1s0,0.2-0.1,0.4c0,0.2,0,0.4,0,0.5
		c0,0.1,0,0.1-0.1,0.1c0,0-0.1,0-0.1-0.1c0-0.1,0-0.2,0-0.3c0-0.1-0.1-0.2-0.4-0.2c-0.2,0-1.1,0-1.2,0c0,0-0.1,0-0.1,0.1v0.6
		c0,0.3,0,1.2,0,1.3c0,0.5,0.2,0.6,0.9,0.6c0.2,0,0.6,0,0.8-0.1c0.2-0.1,0.3-0.2,0.4-0.5c0-0.1,0-0.1,0.1-0.1c0,0,0.1,0.1,0.1,0.1
		c0,0.1-0.1,0.6-0.1,0.7c-0.1,0.2-0.1,0.2-0.4,0.2c-0.6,0-1.1,0-1.4,0c-0.3,0-0.5,0-0.7,0c0,0-0.2,0-0.3,0c-0.2,0-0.3,0-0.5,0
		c-0.1,0-0.1,0-0.1-0.1c0,0,0-0.1,0.1-0.1c0.1,0,0.2,0,0.2,0c0.2,0,0.2-0.2,0.2-0.4c0-0.3,0-0.9,0-1.7V218.7z"/>
	<path class="logo_vertical_st0" d="M62.8,218.1c0-1.4,0-1.7,0-1.9c0-0.3-0.1-0.5-0.4-0.5c-0.1,0-0.2,0-0.3,0c0,0-0.1,0-0.1-0.1
		c0-0.1,0-0.1,0.1-0.1c0.4,0,0.9,0,1,0c0.2,0,0.7,0,1.1,0c1.1,0,1.5,0.4,1.7,0.5c0.2,0.2,0.4,0.6,0.4,1.1c0,1.3-0.9,2.1-2.2,2.1
		c0,0-0.1,0-0.2,0c0,0-0.1,0-0.1-0.1c0-0.1,0.1-0.1,0.2-0.1c0.9,0,1.6-0.6,1.6-1.5c0-0.3,0-0.9-0.5-1.4c-0.5-0.5-1-0.4-1.2-0.4
		c-0.2,0-0.3,0-0.4,0.1c-0.1,0-0.1,0.1-0.1,0.2v3.7c0,0.9,0,1.6,0,2c0,0.3,0.1,0.5,0.4,0.5c0.1,0,0.3,0,0.4,0c0.1,0,0.1,0,0.1,0.1
		c0,0,0,0.1-0.1,0.1c-0.5,0-1.1,0-1.1,0c0,0-0.6,0-0.9,0c-0.1,0-0.1,0-0.1-0.1c0,0,0-0.1,0.1-0.1c0.1,0,0.2,0,0.3,0
		c0.2,0,0.2-0.2,0.3-0.5c0-0.4,0-1.1,0-2V218.1z"/>
	<path class="logo_vertical_st0" d="M68.7,218.7c0-1.2,0-1.4,0-1.6c0-0.3-0.1-0.4-0.3-0.4c-0.1,0-0.2,0-0.3,0c0,0-0.1,0-0.1-0.1c0,0,0-0.1,0.1-0.1
		c0.4,0,0.9,0,0.9,0c0.1,0,1.7,0,1.9,0c0.2,0,0.3,0,0.4,0c0,0,0.1,0,0.1,0c0,0,0,0,0,0.1c0,0.1,0,0.1-0.1,0.4c0,0.1,0,0.4,0,0.5
		c0,0,0,0.1-0.1,0.1c0,0-0.1,0-0.1-0.1c0-0.1,0-0.2,0-0.3c-0.1-0.1-0.1-0.2-0.6-0.2c-0.1,0-1.1,0-1.1,0c0,0,0,0,0,0.1v2.1
		c0,0.1,0,0.1,0,0.1c0.1,0,1.1,0,1.3,0c0.2,0,0.3,0,0.4-0.1c0.1-0.1,0.1-0.1,0.1-0.1c0,0,0,0,0,0.1s0,0.2-0.1,0.4c0,0.2,0,0.4,0,0.5
		c0,0.1,0,0.1-0.1,0.1c0,0-0.1,0-0.1-0.1c0-0.1,0-0.2,0-0.3c0-0.1-0.1-0.2-0.4-0.2c-0.2,0-1.1,0-1.2,0c0,0-0.1,0-0.1,0.1v0.6
		c0,0.3,0,1.2,0,1.3c0,0.5,0.2,0.6,0.9,0.6c0.2,0,0.6,0,0.8-0.1c0.2-0.1,0.3-0.2,0.4-0.5c0-0.1,0-0.1,0.1-0.1c0,0,0.1,0.1,0.1,0.1
		c0,0.1-0.1,0.6-0.1,0.7c-0.1,0.2-0.1,0.2-0.4,0.2c-0.6,0-1.1,0-1.4,0c-0.3,0-0.5,0-0.7,0c0,0-0.2,0-0.3,0c-0.2,0-0.3,0-0.5,0
		c-0.1,0-0.1,0-0.1-0.1c0,0,0-0.1,0.1-0.1c0.1,0,0.2,0,0.2,0c0.2,0,0.2-0.2,0.2-0.4c0-0.3,0-0.9,0-1.7V218.7z"/>
	<path class="logo_vertical_st0" d="M75.3,216.7c0.1-0.3,0.1-0.3,0.2-0.3c0.1,0,0.1,0.1,0.2,0.3c0.1,0.3,1.4,3.5,1.9,4.6c0.3,0.7,0.5,0.8,0.7,0.8
		c0.1,0,0.2,0,0.3,0c0,0,0.1,0,0.1,0.1c0,0-0.1,0.1-0.2,0.1c-0.1,0-0.7,0-1.3,0c-0.2,0-0.3,0-0.3-0.1c0,0,0,0,0.1-0.1
		c0,0,0.1-0.1,0.1-0.2l-0.7-1.8c0,0,0,0-0.1,0h-1.8c0,0-0.1,0-0.1,0.1l-0.4,1.2c-0.1,0.2-0.1,0.4-0.1,0.5c0,0.2,0.1,0.2,0.3,0.2h0.1
		c0.1,0,0.1,0,0.1,0.1c0,0,0,0.1-0.1,0.1c-0.2,0-0.6,0-0.7,0c-0.1,0-0.5,0-0.8,0c-0.1,0-0.2,0-0.2-0.1c0,0,0-0.1,0.1-0.1
		c0.1,0,0.2,0,0.2,0c0.4,0,0.5-0.3,0.7-0.7L75.3,216.7z M76.2,219.8C76.2,219.8,76.2,219.8,76.2,219.8l-0.8-2.2c0-0.1-0.1-0.1-0.1,0
		l-0.7,2.1c0,0,0,0.1,0,0.1H76.2z"/>
	<path class="logo_vertical_st0" d="M80.5,221.2c0,0.6,0.1,0.8,0.3,0.9c0.1,0,0.3,0,0.4,0c0,0,0.1,0,0.1,0.1c0,0-0.1,0.1-0.1,0.1
		c-0.4,0-0.8,0-0.8,0s-0.4,0-0.8,0c-0.1,0-0.1,0-0.1-0.1c0,0,0-0.1,0.1-0.1c0.1,0,0.2,0,0.3,0c0.2-0.1,0.2-0.3,0.2-1v-4.4
		c0-0.3,0-0.4,0.1-0.4c0.1,0,0.2,0.2,0.3,0.2c0.1,0.1,1.3,1.3,2.5,2.6c0.8,0.8,1.6,1.7,1.9,2l-0.1-3.8c0-0.5-0.1-0.7-0.3-0.7
		c-0.1,0-0.3,0-0.4,0c-0.1,0-0.1,0-0.1-0.1c0,0,0.1-0.1,0.2-0.1c0.4,0,0.7,0,0.8,0c0.1,0,0.4,0,0.7,0c0.1,0,0.1,0,0.1,0.1
		c0,0,0,0.1-0.1,0.1c0,0-0.1,0-0.2,0c-0.3,0.1-0.3,0.2-0.3,0.7l0,4.5c0,0.5,0,0.5-0.1,0.5c-0.1,0-0.2-0.1-0.6-0.5
		c-0.1-0.1-1.2-1.2-2.1-2.1c-0.9-1-1.8-1.9-2.1-2.2L80.5,221.2z"/>
	<path class="logo_vertical_st0" d="M87.7,218.7c0-1.2,0-1.4,0-1.6c0-0.2-0.1-0.4-0.3-0.4c-0.1,0-0.2,0-0.3,0c0,0-0.1,0-0.1-0.1c0,0,0-0.1,0.1-0.1
		c0.4,0,0.8,0,0.9,0c0.1,0,0.6,0,0.8,0c0.1,0,0.1,0,0.1,0.1c0,0,0,0.1-0.1,0.1c-0.1,0-0.1,0-0.2,0c-0.2,0-0.3,0.2-0.3,0.4
		c0,0.2,0,0.5,0,1.6v1.1c0,1.1,0.2,1.6,0.6,1.9c0.4,0.4,0.7,0.4,1.2,0.4c0.5,0,1-0.2,1.2-0.5c0.4-0.4,0.4-1.1,0.4-1.9v-1
		c0-1.2,0-1.4,0-1.6c0-0.2-0.1-0.4-0.3-0.4c-0.1,0-0.2,0-0.3,0c0,0-0.1,0-0.1-0.1c0,0,0-0.1,0.1-0.1c0.4,0,0.8,0,0.9,0
		c0.1,0,0.4,0,0.7,0c0.1,0,0.1,0,0.1,0.1c0,0,0,0.1-0.1,0.1c-0.1,0-0.1,0-0.2,0c-0.2,0-0.3,0.2-0.3,0.4c0,0.2,0,0.5,0,1.6v0.8
		c0,0.8-0.1,1.8-0.7,2.3c-0.6,0.5-1.2,0.6-1.7,0.6c-0.3,0-1.1,0-1.6-0.5c-0.4-0.4-0.7-0.9-0.7-2V218.7z"/>
	<path class="logo_vertical_st0" d="M96.9,220.1c0,0.7,0,1.3,0,1.7c0,0.2,0.1,0.4,0.3,0.4c0.1,0,0.3,0,0.4,0c0.1,0,0.1,0,0.1,0.1
		c0,0,0,0.1-0.1,0.1c-0.4,0-0.9,0-1,0c0,0-0.6,0-0.8,0c-0.1,0-0.1,0-0.1-0.1c0,0,0-0.1,0.1-0.1c0.1,0,0.2,0,0.2,0
		c0.2,0,0.2-0.2,0.2-0.4c0-0.3,0-0.9,0-1.7v-3.2l-1.1,0c-0.5,0-0.7,0.1-0.8,0.2c-0.1,0.1-0.1,0.2-0.1,0.2c0,0.1,0,0.1-0.1,0.1
		c0,0-0.1,0-0.1-0.1c0-0.1,0.2-0.8,0.2-0.8c0,0,0.1-0.1,0.1-0.1c0.1,0,0.1,0.1,0.4,0.1c0.2,0,0.5,0,0.6,0h3c0.3,0,0.4,0,0.6,0
		c0.1,0,0.2,0,0.2,0c0,0,0,0,0,0.1c0,0.2,0,0.8,0,0.9c0,0.1,0,0.1-0.1,0.1c0,0-0.1,0-0.1-0.1l0-0.1c0-0.2-0.2-0.4-1-0.4l-1,0V220.1z
		"/>
	<path class="logo_vertical_st0" d="M100.3,222.2c-0.1-0.1-0.1-0.1-0.1-0.3c0-0.4,0-0.7,0-0.8c0-0.1,0-0.1,0.1-0.1s0.1,0,0.1,0.1
		c0,0.1,0,0.2,0,0.3c0.1,0.6,0.7,0.8,1.3,0.8c0.8,0,1.2-0.4,1.2-1c0-0.5-0.3-0.8-1-1.3l-0.4-0.3c-0.9-0.6-1.1-1.1-1.1-1.6
		c0-0.9,0.7-1.4,1.8-1.4c0.3,0,0.6,0,0.8,0.1c0.2,0,0.2,0,0.3,0c0.1,0,0.1,0,0.1,0.1c0,0,0,0.3,0,0.8c0,0.1,0,0.2-0.1,0.2
		s-0.1,0-0.1-0.1c0-0.1-0.1-0.3-0.1-0.4c-0.1-0.1-0.3-0.4-1-0.4c-0.6,0-1.1,0.3-1.1,0.8c0,0.5,0.2,0.8,1,1.3l0.2,0.2
		c1,0.7,1.3,1.2,1.3,1.8c0,0.4-0.2,0.9-0.7,1.3c-0.3,0.2-0.8,0.3-1.3,0.3C101.1,222.4,100.7,222.3,100.3,222.2"/>
	<path class="logo_vertical_st0" d="M52.6,76.2c-10.6,0-19-4-24.5-10.5c-5.5-6.5-8.3-15.4-8.3-25c0-8.5,1.7-16.4,5.7-22.7
		c4-6.3,10.6-10.8,19.7-12.2c7.9-1.3,10-4.1,10.2-4.4C56,0.7,56.5,0,57.1,0c0.7,0,1,0.6,1.3,1.2c0,0,0.5,1.5,1.4,2.8
		c0.9,1.2,1.5,1.8,2.5,2.2c8.3,1.9,14.2,6.5,17.9,12.6c3.7,6.1,5.2,13.8,5.2,21.9h0c0,9.6-2.7,18.5-8.3,25
		C71.6,72.2,63.3,76.2,52.6,76.2L52.6,76.2z M45.7,8.4c-8.4,1.3-13.8,5.2-17.4,10.7c-3.6,5.5-5.2,12.8-5.2,20.8c0,9,2.6,17,7.5,22.7
		c4.9,5.7,12.1,9.3,22,9.3c9.9,0,17.1-3.6,22-9.3c4.9-5.7,7.5-13.7,7.5-22.7c0-7.7-1.5-14.7-4.8-20.1c-3.3-5.4-7.1-9.4-14.7-11.2
		c0,0-2.7-1.2-3.9-2.4c-1-1.3-1.7-2.9-1.9-4.4C56.8,1.8,54.3,7,45.7,8.4"/>
	<path class="logo_vertical_st1" d="M23.2,51.7c0,0,10.7,9.3,28.9,9.3c19.5,0,30.2-8,30.2-8s-6.2,20.8-29.7,20.8C29.1,73.8,23.2,51.7,23.2,51.7"/>
	<path class="logo_vertical_st0" d="M36.4,25.1c0-9.1,7.4-16.5,16.5-16.5c9.1,0,16.5,7.4,16.5,16.5c0,9.1-7.4,16.5-16.5,16.5
		C43.8,41.6,36.4,34.2,36.4,25.1 M40.2,25.1c0,7.1,5.7,12.8,12.8,12.8c7.1,0,12.8-5.7,12.8-12.8c0-7.1-5.7-12.8-12.8-12.8
		C45.9,12.3,40.2,18,40.2,25.1"/>
	<path class="logo_vertical_st0" d="M38.7,53.6c-3.5-0.7-12.9-3.5-17.6-12.9l-0.4,0.1l-0.3,0.4c-0.5-0.9-0.7-2.3,0.2-2.8c0.9-0.5,2-0.1,2.5,0.9
		c3.5,7.5,13,10.1,16.1,10.6c0.3,0.1,0.7,0.1,1,0.1c1,0,1.8-0.3,2.2-0.7c0.5-0.4,0.6-0.8,0.6-1.2c0-0.3-0.1-0.8-0.8-1.3
		c-0.2-0.2-0.8-0.4-1-0.4c-0.2,0.1-0.5-0.1-1.2,1.2c-0.5,0.9-1.6,1.3-2.5,0.8c-0.9-0.5-1.3-1.6-0.8-2.5c1-2.1,2.9-3.3,4.5-3.2
		c1.5,0,2.6,0.7,3.3,1.2c1.4,1.1,2.2,2.7,2.2,4.2c0,3.3-3,5.6-6.6,5.6C39.8,53.7,39.3,53.7,38.7,53.6"/>
	<path class="logo_vertical_st0" d="M33.7,44.3c-4.4-3.1-7-8.1-8.7-12.4c-1.7-4.3-2.1-6.8-2.1-6.8l0.4,0.4c-0.2-1-0.1-3.4,0.9-3.6
		c1-0.2,2,0.5,2.2,1.5c0,0,0.1,0.8,0.5,2.1c0.3,1.3,0.9,3.1,1.6,5.1c1.5,3.9,3.6,8.7,6.9,11c0.8,0.6,1.3,1.6,0.8,2.4
		c0,0-0.4,0.6-1.4,0.6C34.4,44.6,34,44.5,33.7,44.3"/>
	<path class="logo_vertical_st0" d="M58.2,48.1c0-1.6,0.8-3.1,2.3-4.3c0.7-0.5,1.7-1.1,3.3-1.2c1.7-0.1,3.5,1.1,4.5,3.2c0.5,0.9,0.1,2-0.8,2.5
		c-0.9,0.5-2,0.1-2.5-0.8c-0.7-1.3-0.9-1.1-1.2-1.2c-0.3,0-0.8,0.2-1,0.4c-0.7,0.6-0.8,1-0.8,1.3c0,0.4,0.2,0.8,0.6,1.2
		c0.5,0.4,1.2,0.7,2.2,0.7c0.3,0,0.6,0,1-0.1c3.1-0.5,12.6-3.2,16.1-10.6c0.4-0.9,1.6-1.3,2.5-0.9c0.9,0.5-0.3,1.7-0.7,2.7l0.1,0.8
		C79.1,51.2,70,52.9,66.5,53.6c-0.6,0.1-1.1,0.2-1.7,0.2C61.2,53.7,58.2,51.4,58.2,48.1"/>
	<path class="logo_vertical_st0" d="M68.9,43.8c-0.6-0.8,0.1-1.7,0.9-2.3c0,0,7-7.5,8.5-16.1c0.3-1.3,0.5-2.1,0.5-2.1c0.2-1,1.2-1.7,2.2-1.5
		c1,0.2,1.4,2.3,1.2,3.3l0.3-1.2c0,0.1-0.7,3.6-2.3,7.9c-1.7,4.3-4.3,9.3-8.7,12.4c-0.3,0.2-0.7,0.3-1.1,0.3
		C69.8,44.6,69.3,44.3,68.9,43.8"/>
	<path class="logo_vertical_st0" d="M38.4,59c0-2.4,2-4.4,4.4-4.4c2.5,0,4.4,2,4.4,4.4c0,2.5-2,4.4-4.4,4.4C40.4,63.4,38.4,61.4,38.4,59 M41.2,59
		c0,0.9,0.7,1.6,1.6,1.6c0.9,0,1.6-0.7,1.6-1.6c0-0.9-0.7-1.6-1.6-1.6C41.9,57.3,41.2,58.1,41.2,59"/>
	<path class="logo_vertical_st0" d="M57.2,59c0-2.4,2-4.4,4.4-4.4c2.4,0,4.4,2,4.4,4.4c0,2.5-2,4.4-4.4,4.4C59.1,63.4,57.2,61.4,57.2,59 M60,59
		c0,0.9,0.7,1.6,1.6,1.6c0.9,0,1.6-0.7,1.6-1.6c0-0.9-0.7-1.6-1.6-1.6C60.7,57.3,60,58.1,60,59"/>
	<path class="logo_vertical_st0" d="M44.6,59.4c0-2.5,2-4.4,4.4-4.4c2.4,0,4.4,2,4.4,4.4c0,2.4-2,4.4-4.4,4.4C46.6,63.9,44.6,61.9,44.6,59.4
		 M47.4,59.4c0,0.9,0.7,1.6,1.6,1.6c0.9,0,1.6-0.7,1.6-1.6c0-0.9-0.7-1.6-1.6-1.6C48.2,57.8,47.4,58.5,47.4,59.4"/>
	<path class="logo_vertical_st0" d="M50.9,59.4c0-2.5,2-4.4,4.4-4.4c2.5,0,4.4,2,4.4,4.4c0,2.4-2,4.4-4.4,4.4C52.9,63.9,50.9,61.9,50.9,59.4
		 M53.7,59.4c0,0.9,0.7,1.6,1.6,1.6c0.9,0,1.6-0.7,1.6-1.6c0-0.9-0.7-1.6-1.6-1.6C54.4,57.8,53.7,58.5,53.7,59.4"/>
	<path class="logo_vertical_st0" d="M48,53.2c0-2.4,2-4.4,4.4-4.4c2.5,0,4.4,2,4.4,4.4c0,2.5-2,4.4-4.4,4.4C50,57.6,48,55.6,48,53.2 M50.8,53.2
		c0,0.9,0.7,1.6,1.6,1.6c0.9,0,1.6-0.7,1.6-1.6c0-0.9-0.7-1.6-1.6-1.6C51.6,51.6,50.8,52.3,50.8,53.2"/>
	<path class="logo_vertical_st0" d="M34,31.4c-1.7-0.8-3.4-2.7-3.3-5.5c0-2.6,1.3-4.4,2.8-5.2c1.5-0.9,3.1-1,4.2-1c0.7,0,1.2,0.1,1.3,0.1l0,0
		l-0.4,2.8c0,0-0.1,0-0.2,0c-0.1,0-0.4,0-0.6,0c-0.8,0-2,0.1-2.8,0.6c-0.8,0.5-1.4,1.1-1.4,2.8c0,1.8,0.7,2.4,1.8,3
		c1,0.5,2.5,0.7,3.3,0.7c0.4,0,0.6,0,0.6,0l0.3,2.8c0,0-0.4,0-0.9,0C37.5,32.3,35.7,32.2,34,31.4"/>
	<path class="logo_vertical_st0" d="M66.1,32.3l0.3-2.8c0,0,0.2,0,0.6,0c0.8,0,2.2-0.1,3.3-0.7c1-0.6,1.7-1.2,1.8-3c0-1.7-0.6-2.3-1.4-2.8
		c-0.8-0.5-2-0.6-2.8-0.6c-0.3,0-0.5,0-0.7,0c-0.1,0-0.2,0-0.2,0l-0.4-2.8c0,0,0.5-0.1,1.3-0.1c1.1,0,2.7,0.1,4.2,1
		c1.5,0.8,2.9,2.7,2.8,5.2c0,2.8-1.6,4.7-3.3,5.5c-1.7,0.8-3.5,0.9-4.5,1C66.4,32.3,66.1,32.3,66.1,32.3 M66.8,22.4L66.8,22.4
		L66.8,22.4z"/>
	
		<rect x="27.8" y="31.4" transform="matrix(0.8257 -0.5641 0.5641 0.8257 -12.9764 23.5481)" class="logo_vertical_st0" width="7.7" height="2.8"/>
	<polygon class="logo_vertical_st0" points="25.3,24.6 31.9,23.2 32.5,26 26.2,28 	"/>
	<path class="logo_vertical_st0" d="M29,15.2c0.3-0.3,5.9-0.6,10.8,1L39.7,16l-0.1,2.8c-4.7-1-11.6,0.1-11.6,0.1c-1.3,0.4-1.1,0.6-1.1,0.6L29,15.2
		z"/>
	<path class="logo_vertical_st0" d="M35.1,12.2c-0.4,0-0.7,0-0.7,0V9.4c0.1,0,6-0.3,8.4,3.9l0.8-0.4l-1.9,2C39.6,12.9,36.5,12.3,35.1,12.2
		 M34.4,12.2L34.4,12.2L34.4,12.2z"/>
	<polygon class="logo_vertical_st0" points="70.5,31.2 72.3,29.4 78.7,33.8 77.1,36.1 	"/>
	<polygon class="logo_vertical_st0" points="73.9,26.4 74.5,23.6 80.7,24.2 79.9,27 	"/>
	<path class="logo_vertical_st0" d="M78.9,20.2L78.9,20.2c0,0-0.1-0.1-0.2-0.1c-0.2-0.1-0.7-0.3-1.4-0.5c-4.9-2.4-9.5-0.8-10.5-0.8l-1.5-2
		c1,0,2.6-1.4,6.1-1.8c3.5-0.4,7,1.7,7.4,2l0.8,1.3l-0.1,1.3L78.9,20.2z"/>
	<path class="logo_vertical_st0" d="M62.4,13.8c3.5-4.5,8.1-4,8.2-4h0l0.8,2.5c0,0-1,0.3-1.5,0.4c-0.5,0-1.1,0.1-1.9,0.3c-1.5,0.4-3.3,1.1-4.7,2.4
		l-1.9-2L62.4,13.8z"/>
	<path class="logo_vertical_st0" d="M43.8,29.7c-0.3-0.7,0-1.5,0.7-1.8c0.7-0.3,1.5,0,1.8,0.7c1.1,2.5,3.6,4.3,6.5,4.3c3,0,5.5-1.8,6.6-4.4h0
		c0.3-0.7,1.1-1,1.8-0.7c0.7,0.3,1,1.1,0.7,1.8c-1.5,3.6-5,6.1-9.2,6.1C48.8,35.7,45.3,33.2,43.8,29.7"/>
	<path class="logo_vertical_st0" d="M47.7,24.7c-1-1.3-1.6-1.4-2-1.5c-0.4,0-0.9,0.2-1.3,0.5c-0.5,0.3-0.9,0.7-1.4,1.1c-0.2,0.1-0.4,0.3-0.9,0.3
		c-0.3,0-0.9,0-1.4,0c-0.5,0-0.9-0.2-0.9-0.2v0.2c-0.8,0-1.4-0.6-1.4-1.4c0-0.8,0.7-0.8,1.4-0.8c0,0,1,0.1,1.9-0.6
		c0.2-0.2,0.5-0.4,0.8-0.7c0.7-0.5,1.8-1.2,3.2-1.2c1.5,0,3,0.9,4.3,2.6c0.5,0.6,0.3,1.5-0.3,2c-0.2,0.2-0.5,0.3-0.8,0.3
		C48.4,25.3,47.9,25.1,47.7,24.7"/>
	<path class="logo_vertical_st0" d="M56,25c-0.6-0.5-0.8-1.3-0.3-2c1.2-1.8,2.8-2.6,4.3-2.6c1.2,0,2.2,0.5,2.9,1c0.5,0.3,0.9,0.7,1.1,0.9
		c0.6,0.6,2,0.6,2,0.6l0-0.6c0.8,0,1.4,0.6,1.4,1.4c0,0.8-0.6,1.4-1.4,1.4c0,0-1.7,0-2.3,0c-0.6,0-0.8-0.2-1-0.3
		c-0.2-0.1-0.3-0.2-0.4-0.3c-0.2-0.2-0.5-0.4-0.8-0.6c-0.5-0.4-1.1-0.7-1.6-0.7c-0.4,0-1,0.1-2,1.5c-0.3,0.4-0.7,0.6-1.1,0.6
		C56.5,25.3,56.2,25.2,56,25"/>
	<path class="logo_vertical_st0" d="M116.4,77.3c0,1.9-1.6,3.5-3.5,3.5H97.2c-1.9,0-3.5-1.6-3.5-3.5V61.9c0-1.9,1.6-3.5,3.5-3.5h15.6
		c1.9,0,3.5,1.6,3.5,3.5V77.3z"/>
	<path class="logo_vertical_st2" d="M103.9,72.3c0,0.2,0.1,0.4,0.1,0.6c0,0.1,0,0.1-0.1,0.2c-0.1,0-0.3,0-0.4-0.1c-0.4,0-0.8,0-1.2,0
		c-0.4,0-0.8,0-1.1,0c0,0,0,0.1,0,0.1c0,0.3-0.1,0.6-0.1,1c0.6,0,1.2-0.1,2-0.2c1.1-0.1,1.7-0.2,1.9-0.2c0.1,0.1,0.2,0.3,0.2,0.6
		c0,0.2,0.1,0.4,0.1,0.6c0,0.1,0,0.1,0,0.2c-0.1,0-0.3,0-0.4-0.1c-0.6,0-1.1,0-1.7,0c-0.7,0-1.4,0-1.9,0.1c0,0.4,0,0.8,0,1.2
		c0,1.5-0.1,2.4-0.2,2.9c0,0.1-0.1,0.2-0.2,0.2c-0.1,0-0.3-0.1-0.4-0.2c-0.2-0.2-0.4-0.4-0.7-0.6c-1-0.6-1.7-1.1-2.1-1.4
		c-0.1-0.1-0.1-0.2-0.1-0.2c1,0.2,1.7,0.3,2.3,0.3c0.2,0,0.3-0.3,0.3-1c0-0.4,0-0.8,0-1.1c-0.9,0.1-1.8,0.2-2.8,0.3
		c-0.9,0.2-1.3,0.2-1.4,0.2c-0.1,0-0.1-0.1-0.2-0.3c-0.1-0.3-0.1-0.5-0.2-0.6c-0.1-0.1-0.1-0.3-0.1-0.4c0.1,0,0.4,0,0.9,0
		c0.4,0,0.7,0,1.1,0c1.1,0,1.9-0.1,2.6-0.1c0-0.4,0-0.8-0.1-1.1c-0.6,0.1-1.1,0.1-1.8,0.2c-0.6,0.1-1,0.2-1,0.2
		c-0.1,0-0.1-0.1-0.1-0.3c-0.1-0.3-0.1-0.5-0.2-0.6c-0.1-0.1-0.1-0.3-0.1-0.3c0.1,0,0.3,0,0.7,0c0.3,0,0.5,0,0.8,0
		c0.7,0,1.2-0.1,1.6-0.1c-0.1-0.4-0.1-0.8-0.2-1c-1.2,0.1-1.9,0.2-2.2,0.2c-0.1,0-0.2-0.1-0.3-0.3c1.1-0.2,2.1-0.5,3-0.9
		c1.5-0.6,2.2-1,2.2-1.3l0.2,0c0,0.1,0,0.3,0.1,0.5c0,0.1,0.1,0.3,0.1,0.5c0.2,0.4,0.2,0.6,0.2,0.6c0,0.1-0.1,0.2-0.2,0.2
		c-0.5,0.1-1.3,0.2-2.2,0.3c0.1,0,0.1,0,0.2,0c0.3,0.1,0.5,0.1,0.5,0.3c0,0.1,0,0.3-0.1,0.7c0.3,0,0.7-0.1,1-0.1
		c0.8-0.1,1.3-0.2,1.4-0.2C103.8,71.7,103.9,71.9,103.9,72.3"/>
	<path class="logo_vertical_st2" d="M108.3,73.5c-0.6,0.2-0.9,0.3-1,0.2c-0.1,0-0.1-0.1-0.2-0.4c-0.1-0.3-0.1-0.5-0.2-0.7
		c-0.1-0.2-0.1-0.3-0.1-0.4c0.1,0,0.3,0,0.6,0c0.2,0,0.5,0,0.8-0.1c0.9-0.1,1.6-0.2,2.1-0.3c0.5-0.1,1.2-0.2,2-0.3
		c0.8-0.2,1.3-0.3,1.3-0.3c0.1,0.1,0.2,0.3,0.2,0.8c0,0.3,0.1,0.5,0.1,0.7c0,0.1,0,0.2-0.1,0.2c-0.2,0-0.3-0.1-0.5-0.1
		c-0.4,0-0.8,0-1.2,0c-0.4,0-0.7,0-1,0.1c0,0.9-0.1,1.9-0.1,3c0.6,0,1.2-0.1,2-0.2c1.1-0.1,1.7-0.2,1.8-0.2c0.1,0.1,0.2,0.3,0.2,0.7
		c0,0.3,0.1,0.5,0.1,0.7c0,0.1,0,0.2-0.1,0.2c-0.1,0-0.3-0.1-0.5-0.1c-0.5,0-1.1,0-1.6,0c-1.1,0-2,0.1-2.7,0.1
		c-0.8,0.1-1.7,0.2-2.7,0.3c-0.8,0.2-1.3,0.3-1.3,0.2c-0.1,0-0.2-0.1-0.2-0.4c-0.1-0.3-0.2-0.6-0.2-0.8c-0.1-0.2-0.1-0.3-0.1-0.4
		c0.1,0,0.4,0,0.9,0c0.3,0,0.7,0,1.1-0.1c0.8,0,1.5-0.1,2-0.1c0-1.1,0-2.1-0.1-3C109.3,73.3,108.8,73.4,108.3,73.5"/>
	<path class="logo_vertical_st2" d="M104.6,62c0,0.3,0.1,0.5,0.1,0.7c0,0.1,0,0.2-0.1,0.2c-0.1,0-0.3-0.1-0.5-0.1c-0.6,0-1.1,0-1.7,0
		c-0.8,0-1.5,0.1-2.1,0.1c-0.1,0.4-0.1,0.7-0.2,1.1c0.9-0.2,1.4-0.3,1.4-0.4c0,0.1,0.3,0.2,0.7,0.5c0.5,0.3,0.8,0.5,0.9,0.6
		c0,0.1-0.2,0.7-0.6,1.8c-0.4,1-0.6,1.5-0.7,1.6c-0.1,0-0.4,0-0.7-0.1l-1.1,0c-0.1,0-0.6,0-1.3,0.1c-0.4,0.1-0.7,0.1-1,0.2
		c-0.1-0.1-0.4-0.6-0.7-1.4c-0.3-0.9-0.5-1.4-0.6-1.5c0.1-0.1,0.3-0.2,0.7-0.5c0.3-0.3,0.5-0.4,0.6-0.5c0.3,0,0.8,0,1.4-0.2
		c0-0.4,0-0.8,0-1.2c-0.8,0.1-1.6,0.2-2.5,0.4c-0.9,0.2-1.4,0.3-1.5,0.3c-0.1,0-0.1-0.1-0.2-0.4c-0.1-0.3-0.1-0.5-0.2-0.7
		c-0.1-0.2-0.1-0.3-0.1-0.4c0.1,0,0.4,0,0.9,0c0.4,0,0.8,0,1.2-0.1c0.9,0,1.7-0.1,2.3-0.2c0-0.8-0.1-1.5-0.1-2.1
		c0-0.1,0.1-0.1,0.2-0.1c0.3,0.1,0.8,0.3,1.5,0.4c0.1,0,0.2,0.1,0.2,0.3c-0.1,0.3-0.2,0.7-0.3,1.4c0.6-0.1,1.2-0.2,2-0.3
		c1.1-0.2,1.8-0.3,1.9-0.3C104.6,61.3,104.6,61.6,104.6,62 M99.4,65.3c-0.7,0.1-1.1,0.2-1.3,0.2c0,0.2,0.1,0.4,0.2,0.8
		c0.1,0.3,0.2,0.5,0.2,0.7c0.2,0,0.5,0,0.9,0c0.4,0,0.8,0,1.4-0.1c0.1-0.1,0.1-0.3,0.2-0.7c0.1-0.3,0.1-0.6,0.1-0.8
		c-0.1-0.1-0.1-0.2-0.2-0.3C100.6,65.2,100,65.2,99.4,65.3"/>
	<path class="logo_vertical_st2" d="M106.6,62.9c0.2,0.1,0.4,0.2,0.6,0.3c0.3,0.2,0.4,0.3,0.4,0.3c0,0.1-0.1,0.2-0.2,0.3c-0.1,0.2-0.3,0.4-0.4,0.5
		c-0.1,0.2-0.2,0.4-0.4,0.5l-0.1,0c-0.4-0.8-1-1.6-1.6-2.3l0.1-0.1C105.7,62.6,106.2,62.8,106.6,62.9 M108.2,63.8
		c0,0.2-0.1,0.5-0.1,0.7c0.2,0,0.5,0,0.7,0c0.2,0,0.4,0,0.7,0c0.6,0,1.2-0.1,1.6-0.1V63c-0.4,0.1-0.7,0.1-1.1,0.2
		c-0.4,0.1-0.7,0.2-0.7,0.2c-0.1,0-0.1-0.1-0.1-0.3c-0.1-0.3-0.1-0.5-0.2-0.6c-0.1-0.1-0.1-0.3-0.1-0.3c0,0,0.2,0,0.5,0
		c0.2,0,0.4,0,0.6-0.1c0.5,0,0.8-0.1,1.2-0.1v-0.9c-0.1-0.6-0.1-1.1-0.2-1.3l0.1-0.1c0.2,0.1,0.5,0.2,1.1,0.3c0.2,0,0.3,0.1,0.4,0.1
		c0.1,0,0.1,0.1,0.2,0.1c0,0.1-0.1,0.3-0.1,0.4c-0.1,0.2-0.1,0.4-0.1,0.6c0,0.2,0,0.4-0.1,0.6c0.2,0,0.4-0.1,0.6-0.1
		c0.6-0.1,0.9-0.1,1-0.2c0.1,0.1,0.2,0.3,0.2,0.6c0,0.2,0.1,0.4,0.1,0.6c0,0.1,0,0.1-0.1,0.2c-0.1,0-0.3,0-0.4-0.1
		c-0.3,0-0.6,0-0.8,0c-0.2,0-0.4,0-0.6,0c0,0.4-0.1,0.9-0.1,1.3c0.4,0,0.8-0.1,1.3-0.1c0.8-0.1,1.3-0.1,1.5-0.2
		c0.1,0,0.2,0.2,0.2,0.5c0.1,0.4,0.1,0.6,0.2,0.8c0,0.1,0,0.1-0.1,0.1c-0.1-0.1-0.5-0.1-1-0.2c-0.8,0-1.6,0-2.4,0.1l-1,1.8
		c0.7,0,1.4-0.1,2.1-0.2c-0.1-0.2-0.2-0.4-0.3-0.6c-0.2-0.3-0.3-0.6-0.3-0.6c0,0,0,0,0.1-0.1c0.5,0.3,1.1,0.7,1.7,1.3
		c0.2,0.2,0.3,0.4,0.4,0.5c0.1,0.2,0.2,0.3,0.2,0.4c0,0.1-0.1,0.2-0.2,0.3c-0.2,0.2-0.3,0.3-0.4,0.5c-0.2,0.2-0.3,0.3-0.5,0.5
		l-0.2-0.1c0-0.4-0.1-0.8-0.3-1.4c-0.3,0.1-0.6,0.1-1,0.2c-0.3,0.1-0.6,0.1-0.8,0.2c-0.3,0.1-0.6,0.2-1,0.3
		c-0.3,0.1-0.5,0.1-0.7,0.2c-0.1,0.1-0.3,0.2-0.4,0.2c-0.1,0-0.2-0.1-0.2-0.2c-0.1-0.2-0.2-0.4-0.3-0.6c-0.1-0.2-0.2-0.4-0.3-0.4
		l0.1-0.2c0.3,0,0.6,0,1-0.1l0.7-1.7c-0.2,0-0.5,0.1-0.7,0.1c-0.4,0.1-0.7,0.1-0.8,0.2c-0.2,0.1-0.3,0.1-0.4,0.1
		c0,0-0.2-0.2-0.3-0.7c-0.1-0.2-0.2-0.4-0.2-0.5c-0.1,0.7-0.3,1.3-0.4,2c-0.4,1.5-0.6,2.2-0.7,2.2c-0.2,0-0.3,0-0.3-0.1
		c-0.1,0-0.1-0.1-0.2-0.3c-0.1-0.2-0.3-0.4-0.5-0.6c-0.2-0.3-0.4-0.4-0.5-0.4l0.1-0.2c0.2,0,0.3,0,0.4,0c0.1,0,0.3-0.3,0.8-1
		C107.1,65.6,107.6,64.8,108.2,63.8L108.2,63.8z M107.8,60.7c0.2,0.1,0.4,0.2,0.6,0.3c0.3,0.2,0.4,0.3,0.4,0.4
		c0,0.1-0.1,0.2-0.2,0.3c-0.1,0.2-0.2,0.3-0.3,0.5c-0.1,0.2-0.2,0.4-0.3,0.5l-0.1,0c-0.4-0.9-1-1.6-1.8-2.3l0.1-0.1
		C106.8,60.4,107.3,60.5,107.8,60.7"/>
	<path class="logo_vertical_st3" d="M42.9,144.9c-1.2,2.1-1.6,4.9-2.1,7.6c2-0.5,4.5-1.2,6.6-2.2c0.3-0.1,0.6-0.5,0.9-0.6c0.2-0.1,0.6-0.1,0.9-0.2
		c0.5-0.2,1-0.6,1.5-0.5c0.6,0.1,1.4,1.2,1.5,1.7c0.1,0.5-0.1,1.2,0,2.1c0.2,1.2,1.1,3.1,0.5,4c-0.6,0.9-2.2,0.3-3.3,1
		c-3.8-0.1-7.3,0.6-11.4,0.3c-1.8-0.1-3.7,0.3-5.5,0.6c-0.8,0.1-1.8,0.2-2.7,0.4c-1.4,0.3-2.6,1.1-3.5,0.1c-0.2-2.1-0.9-3.8-1.5-5.6
		c0.3-0.3,0.8-0.3,1.2-0.4c0.4-0.1,0.8-0.4,1.1-0.4c0.4,0,0.7,0.1,1.2,0.2c1.9,0.2,4.1,0,5.8,0.3c0.4-0.9,0.2-1.9,0.1-2.8
		c-0.1-0.9,0-2-0.3-2.8c-0.3-0.8-1.5-1.6-1.6-2.2c-0.1-0.3,0.1-0.6,0.1-0.9c0-0.5-0.5-0.9-0.3-1.3c2.1-0.5,4.8,0.1,7.1,0.4
		C40.8,143.8,42.2,143.7,42.9,144.9"/>
	<path class="logo_vertical_st3" d="M77.4,172c0,0.3,0.1,0.6,0.2,0.8c-0.5,0.8-0.5,2.2-1.1,2.9c-0.7,0-1.6,0.4-2.3,0.4c-0.6,0-1-0.2-1.6-0.3
		c-1.1-0.2-2.6,0.4-3.8,0.3c-1.6-0.1-4.4,0.6-6,0.9c-0.8,0.1-1.5,0.3-2.1,0.9c-0.4,4.2-0.6,10.2-0.3,14.7c3.3-0.3,6.8,0.2,10.1-0.2
		c0.5-0.1,1-0.4,1.5-0.4c2.2-0.3,4.5,0.4,6.3-0.9c2,0.3,3.9-0.5,5.6-0.9c1.1-0.2,2.2,0,3.1-0.3c0.6-0.2,1.1-0.8,1.8-0.8
		c0.3,0,0.2-0.5,0.6-0.5c1.2,0,2.2,0.4,2.3,1.3c0.1,0.7-0.9,1.5-1.5,2.3c-0.7,1.1-1,0.9-1.1,2.4c-1.3,1.8-2,3-2.2,5.8
		c-0.8,0.7-1.9,0-2.9-0.2c-1-0.2-2,0-3.1-0.1c-1.5-0.1-3.5,0.6-5,0.4c-0.4-0.1-0.8-0.3-1.2-0.4c-1.3-0.3-2.8-0.5-4-0.5
		c-1.3-0.1-2.6,0.5-3.8,0.5c-1.8,0.1-3.3-0.8-5-0.9c-0.7,0-1.4,0.4-2.1,0.5c-2,0.2-5.2-0.2-7.2,0.1c-0.5-0.2-1.4-1.5-1.5-2.3
		c0-0.6,0.5-1.1,0.3-2.1c0-0.3-0.3-0.7-0.3-1c0-0.6,0.3-1.3,0.4-1.9c0.4-2.5,1-5.5,0.9-8.3c0-0.6-0.2-1.2-0.3-1.7
		c-0.1-1.4,0.5-2.8,0.6-4.3c0-0.9-0.1-1.9,0-2.8c0.1-1.5,0.4-2.7,0.3-4.1c0.8-0.9,2.9-1,4.5-1.3c2.1-0.4,3.6,0.1,5.7-0.1
		c1.9-0.2,5.1-0.5,6.8-0.6c0.3-0.2,0.3-0.6,0.7-0.6c-0.4-0.7,0.4-1.3,0.5-2.1c0.2-1.1-0.2-2.4,0.9-3c0-1.5,0.6-3.2,0.7-4.5
		c-0.7-0.1-2.1,0.4-2.6,0.8c-0.7-0.5-3.6,0.2-4.2,1c-1.5-0.3-3.1,0.5-4.8,0.5c-0.5,0-1-0.2-1.6-0.2c-1.4,0.1-3.1,0.5-4-0.3
		c-0.4-1.1-0.5-2.3-0.8-3.5c-0.3-1-1-1.9-1-2.9c0.5-0.4,0.9,0.1,1.5,0.1c2.2,0.1,5.4-0.9,8-1.2c0.8-0.1,1.7,0.1,2.3-0.1
		c0.4-0.1,2-0.5,2.4-0.5c0.4-0.1,0.8,0.2,1.3,0.2c0.3,0,0.9-0.3,1.5-0.4c0.6-0.1,1.2-0.2,1.6-0.3c0.5-0.1,1.2-0.3,1.5-0.4
		c1.3-0.7,0.9-3.3,3-2.8c0.8,0.2,1.6,0.8,2.5,1c0.5,0.1,1.1,0.1,1.6,0.2c0.4,0.1,1.8,2.5,1.9,3.1c0.1,0.4-0.3,0.8-0.5,1.3
		c-0.5,1.1-0.4,2.3-0.7,3.5c-0.2,0.8-0.2-0.1-0.4,0.6c-0.2,0.8-0.6,1.4-0.9,2.1c-0.3,0.9-0.4,1.9-0.8,2.9
		C78.7,166.1,78.2,169.1,77.4,172"/>
	<path class="logo_vertical_st3" d="M48.8,167.6c-1.4,0.6-3.1-0.3-4.8-0.3c-0.8,0-2.5,0.3-3.3,0.5c-0.6,0.2-1.2,0.7-2.1,0.2
		c-1.7,0.2-3.1,1.4-4.9,1.5c-1.1,0.1-2.2-0.3-2.9,0.5c-0.5-0.2-0.9-0.5-1.4-0.7c0-2.1-1.3-3.7-1.9-5.6c0.3-0.5,1-0.2,1.3,0.1
		c1.6,0,2.9-0.2,3.9-0.7c1.9-0.1,4.1-0.5,5.7-1.2c1.4,0.4,3.6,0,5.4-0.2c0.9-0.1,1.8-0.2,2.5-0.4c1-0.3,1.6-0.9,2.7-0.7
		c1.1,0.8-0.1,3-0.2,4.6C48.9,166.3,49.1,167,48.8,167.6"/>
	<path class="logo_vertical_st3" d="M46.5,177.2c-1.9-0.1-4.4,0.2-6.4,0.5c-0.7,0.1-1.4,0.2-2,0.3c-0.7,0.2-0.9,0.4-1.9,0.4
		c-0.6,0-1.3,0.2-2.1,0.3c-0.9,0.1-1.7,0-2.3,0.1c-0.9,0.1-1.8,0.4-2.4-0.2c-0.8-0.9-0.3-2.8-1.3-3.6c0.2-0.5-0.2-1.2,0.2-1.6
		c2-0.1,5.1-0.1,6.8-1.2c2.8-0.2,5.9-1.6,8.9-1.6c0.9,0,1.5,0.4,2.4,0.2c0.8-0.1,2-0.8,2.4,0.2c0.2,0.7-0.5,0.8-0.9,1.3
		C47.3,173.5,46.9,175.6,46.5,177.2"/>
	<path class="logo_vertical_st3" d="M48.9,182.2c0-0.4,0.3-0.8,0.3-1.1c-0.1-0.4-0.5-0.8-0.9-1c0,0-1.2-0.2-1.4-0.2c-1,0.5-2.3,0.9-3.7,1.2
		c-1.3,0.3-2.7,0.7-4,0.8c-0.6,0.1-1.2-0.1-1.8,0c-0.4,0.1-0.7,0.3-1.1,0.4c-1.6,0.3-3.7,0.3-4.8-0.1c-0.7,0.1-1.5,0.5-2.7,0.6
		c-1.1,0-2.6-0.8-3,0c-0.3,0.5,0.5,0.5,0,1.2c1,0.3,0.7,1.1,0.8,2.1c0,1,0.3,2,0.5,3c0.6,2.7,1,5.9,0.8,8.5c0.7,0.6,0.5,1.1,0.6,1.9
		c1.4,0.6,2.8-0.1,4.1-0.3c0.7-0.1,1.5,0,2.2-0.1c0.6,0,1.2-0.3,1.8-0.3c0.9-0.1,1.9,0,2.7,0.1c2.3,0.1,4.2,1,6,0.4
		c0.1-0.5,0.2-1,0.7-1.2c0.4-1.7,0.6-3.3,0.9-4.9c0.2-1.1,0.8-2.1,1-3.1c0.4-1.4,0.4-3.1,1-4.4c0.2-0.3,0.4-0.5,0.4-0.8
		C49.3,184.1,48.8,183.2,48.9,182.2 M40.4,193.3c-0.7,0.3-1-0.3-1.5-0.3c-1,0-2.2,1.1-3.6,0.9c-0.2-1.7-0.9-3.7-0.5-5.5
		c2.1-0.5,4.2-1.1,6.5-1.5C41.3,189.1,40.8,191.3,40.4,193.3"/>
	<path class="logo_vertical_st3" d="M37.6,82h1.5c0.7,1.1,1.3,2.3,2.1,3.2c0.3,0.3,0.4,0.5,0.7,0.9c0.3,0.6,1.3,1.4,1.2,2
		c-0.2,0.9-1.6,0.9-2.4,1.3c-1.1,0.6-4.2,2.1-5.4,2.9c0.8-0.5-1.2-0.1-3.6,2.3c0.3,1.2,0.3,2.7,0.7,3.7c0.9,0,4.4-1,4.5-1.4
		c0.3-0.9-0.4-2.2-0.2-3.3c0.6-0.5,2-0.8,2.5-1.3c0.5-0.4,0.8,0.2,1.6,0.3c0.7,0.1,1.1,1.6,1.6,2.2c0.7,0.9,0,1,0.5,1.8
		c0.6,0.9,1.4,2.3,2.3,3.2c0.4,0.5,0.8,0.6,0.6,1.1c-0.1,0.5-1,0.6-1.6,0.9c-1.3,0.7-2,1.1-3.2,2c-0.6,0.5-0.9,0.9-1.7,0.7
		c-1.2-0.3-0.6-1.9-1.5-2.8c-1,0.1-3.9,1.8-5.2,2.4c-0.4,0.2-1,0.3-1.4,0.5c-0.9,0.4-2.3,1.7-3,1.5c0,0-0.1,0-0.2,0
		c-0.9,0-1.4-0.5-2-1.3c0.1-0.6,0.2-1.1,0.1-1.7c-0.3-1.7,0-4.1-0.7-6.1c-0.3-0.9-0.5-1.9-1.1-2.8c-0.5-0.9-1.6-1.6-1.2-2.5
		c0.2-0.5,0.9-0.6,1.6-1c1.9-1.1,3.4-2.1,5-3.1c1.8-1,5.4-2.7,6.6-4C36.9,83.2,37.2,82.5,37.6,82"/>
	<path class="logo_vertical_st3" d="M80.9,122.9c0,0.2-0.1,0.4-0.2,0.6c0.2,2.6,0,5.8,0.5,8.8c-0.1,0.4,0.4,0.3,0.4,0.6c-0.6,1-0.8,2.4-1.7,3.1
		c-0.4,1.4-1.1,2.4-1.6,3.5c0,0.4,0.1,0.5,0.1,0.9c-0.4,0.3-0.9,0.6-0.8,1.3c-1,0-2.1,0.3-3.2,0c-0.8-0.2-1.6-1.1-2.5-1.6
		c-0.4-0.2-1-0.2-1.2-0.4c-0.4-0.3-0.8-0.9-1.2-1.3c-2.5-2.5-5-5.1-7.5-7.7c-0.4-0.4-0.7-1-1.1-1.3c-0.4-0.3-0.9-0.3-1-0.7
		c-0.1-0.4,0.9-1.8,1.4-1.8c0.5-0.1,1,0.4,1.6,0.6c0.6,0.2,1.3,0.2,1.7,0.4c0.6,0.3,1.2,0.7,2,0.9c0.7,0.2,1.6,0.4,2.2,0.7
		c1.3,0.7,2.6,1.7,4,1.9c0.2-3.4,0.5-6.7,0.6-10.3c0-1.2,0.2-2.4,0.1-3.5c0-0.3-0.3-0.7-0.2-1c0-0.3,0.3-0.6,0.3-0.9
		c0.2-1.2-0.2-2.5-0.2-3.7c0-1.2,0.4-2.7,0.5-4c0.2-2.7-0.6-5.4,0.6-7.5c0.1-2-0.4-4.3-0.6-6.5c0.5-0.6,0.1-1.5,0.1-2.4
		c-0.1-2.3,0.4-4.8,0.1-7.1c-0.4-0.3-0.7-1.6,0.3-1.4c2.3,0.4,5.5,2,7.5,2.7c0.3,0,0.6,0,0.8-0.1c0.4,0.4,1.2,0.5,1.3,1.1
		c0,0.4-0.3,0.5-0.5,0.9c-0.2,0.5-0.3,1.2-0.5,1.9c-0.2,0.6-0.5,1.2-0.6,1.7c-0.2,0.9-0.2,1.7-0.4,2.4c-0.1,0.3-0.3,0.5-0.3,0.7
		c-0.3,1.4,0.1,3.3,0.1,4.9c0,1.3-0.3,2.6-0.4,4c-0.1,2-0.2,3.9-0.3,6.1c0,0.7-0.2,1.4-0.2,2c0.1,1,0.2,2.5,0.2,3.9
		c0,1.1,0,2.1,0,3.1C81,120,80.4,121.5,80.9,122.9"/>
	<path class="logo_vertical_st3" d="M64.8,86.5c0,0.4-0.5,0.3-0.6,0.6c-1.5,4.2-2.1,9.3-3.6,13.6c0.2,0.4,0.6,0.4,0.6,0.8c0,0.5-0.9,0.8-1.1,1.5
		c-0.1,0.6,0.3,0.8-0.2,1.3c-1.3,0.4-2.6-0.5-3.9-0.7c-1.3-0.2-2.3-0.1-3-1.4c1.3-2,2.9-7.7,3.7-10.2c-0.4-0.3-1.4-1.4-2-0.5
		c-0.8,2.3-2.4,7.3-3.2,8.3c0,0.3-0.1,0.5-0.2,0.8c-0.9,0.1-1.4,1.3-2.7,0.6c-0.7-1.6-2-2.6-3-3.9c0.1-1.3,1.8-2.3,2.5-3.5
		c0.7-1.1,0.3-2.2,1.3-3c-1-1-2.7,0.5-3.9-0.2c-0.3-1.3-0.1-3.2-0.4-4.6c-0.1-0.4-0.4-0.6-0.3-0.9c1.2-1.2,3.6-0.6,6.1-0.4
		c2.5,0.2,4.7,0.4,6.9,0.6c1.7,0.1,3.5-0.1,5.1,0.1C63.9,85.5,64.5,85.7,64.8,86.5"/>
	<path class="logo_vertical_st3" d="M69.3,116.9c0.1,0.4-0.2,0.4-0.3,0.8c-0.2,1.1,0,2.9-0.1,4.2c-0.1,0.9,0.1,1.9-0.4,2.6c-1.5,0-2.7-0.7-4-1.1
		c-1-0.3-2.1,0-2.8-0.7c-0.2-1.1,0.4-2.1,0.6-2.8c0.3-0.9,0.2-2.1,0.2-3.2c0.2-2.8,0.9-5.5,0.5-8.5c0.3-1.7,0-4.7-0.3-6.9
		c-0.1-0.7-0.4-1.4-0.3-1.8c0-0.1,0.1-0.2,0.2-0.2c2.8-0.1,4.6,1.5,7.1,1.2c0.4,0.2,1.1,0.3,1.2,0.7c0.1,0.4-0.5,0.8-0.6,1.2
		c-0.2,0.5-0.5,1.7-0.6,2.3C69.1,108.3,69,113.3,69.3,116.9"/>
	<path class="logo_vertical_st3" d="M61.9,107.2c0.3,0.9-0.4,1.2-0.7,1.8c-0.3,0.5-0.4,1.2-0.6,1.8c-0.5,1.1-1,2.1-1.4,3.4c-0.8,0.5-1.6,0-1.9-0.7
		c-2.2-0.7-4.3-1.5-6.6-2.2c-0.5,1.3,1.6,2.3,1.4,3.2c-0.1,0.7-1.5,0.4-1.9,1c-2.5,0.5-4.7,0.7-6.5,1.9c0,0.4,0.1,1.6,0,1.9
		c1.6-0.1,3.2-1,4.4-1.7c0.6-0.1,1.2,0,1.7-0.2c0.4-0.1,0.6-0.4,1-0.6c0.4-0.1,0.9,0,1.3-0.3c1-0.1,1.2,0.7,1.7,1.3
		c0.7,0.9,2.5,1.5,2.2,2.8c-0.4,0.4-1.1,0.4-1.9,0.7c-0.4,0.1-0.7,0.6-1.1,0.6c-0.3,0-0.6-0.2-0.8-0.2c-0.5,0-1.1,0.5-1.8,0.6
		c-0.4,0.1-0.8,0-1.1,0.1c-2.1,0.4-4.1,1.4-5.8,1.9c0.2,2.4-0.3,5-0.1,7.2c0.4,0.1,0.8-0.2,1.3-0.2c2.6-0.3,5.8-0.7,8.3-1.5
		c0.3-0.1,1.1,0.2,1.4,0.1c0.9-0.2,1.8,0.1,2.5,0.2c0.1,0.3,0.3,0.4,0.4,0.7c-0.7,2-1.1,4.1-2.1,5.8c-2.2,0.5-4.3-0.6-6.7-0.6
		c-2.1,0-4.3,0.1-6.2,0.5c-1.5,1-3.9-0.1-5.6,0.8c-1.7,0.9-3.6,1.4-5.5,2.2c-0.9,0.4-2.1,1-2.8,0.9c-0.8-0.1-0.9-1-1.5-1.4
		c-0.3-0.9-0.8-2.1-1.2-2.8c-0.2-0.3-0.7-0.5-0.7-0.9c0-0.8,2.6-0.9,3.5-1.2c0.6-0.2,1.2-0.4,1.7-0.6c2.3-0.8,5.4-0.6,7.3-1.4
		c0.4-1.1-0.1-5.7,0-6.6c-0.2-0.3-0.6-0.3-0.9-0.3c-1.6-0.1-4.3,1.2-6.1,1.3c-1.1,0-1.8,0-2.4-0.6c0.4-1.7-1.6-1.7-0.9-3.3
		c0.5-0.4,1-0.1,1.5-0.2c2.9-0.1,5.3-1.3,8.6-1.4c0-0.3,0-1.9-0.2-2.3c-1.8,0.1-4.9,1.3-5.8,0.9c0.2-1.5-1.1-2.3-1.9-3.3
		c-1.6,1.1-2.7,2.6-4.6,3.4c-0.1,0.3-0.4,0.5-0.6,0.8c-2.1,1.2-3.8,2.8-5.4,4.5c-0.9,0-1.6,0.3-2.3,0.6c-0.5-0.2-0.9-0.5-1.4-0.6
		c-0.8-1.6-2.3-2.6-3.6-3.7c0-0.8-1.9-1.6-1.9-2.4c0-0.5,0.6-0.5,1.3-0.6c1-0.7,2.6-0.5,3.9-0.9c0.6-0.2,1-0.6,1.5-0.6
		c0.8-0.5,1.6-0.9,2.3-1.4c1.1,0.1,1.5-0.8,2.4-1.1c0.2-0.1,0.4,0,0.6-0.1c1.3-0.6,2.5-1.6,3.5-2.4c1.1-0.1,1.9-1,2.8-1.5
		c1.5-0.8,3.2-1.5,4.6-2.4c1.1-0.7,2-1.6,2.9-2.5c0.8-0.2,1.3-0.7,2-1c0.7,0.1,1.1,0.9,1.6,1.4c0.5,0.5,1.3,1.1,0.6,2.1
		c-0.7,0.9-2.3,1.8-2.8,2.9c-0.2,0-0.4,0.2-0.6,0.2c-1.8,1.4-4,2.4-5.4,4.1c1.6,0.2,2.8-0.4,4.1-0.8c1.7-0.5,3.5-0.8,5.1-1.2
		c0.9-0.2,1.8-0.6,2.7-0.8c1.8-0.4,3.5-0.6,4.7-1.7c0.6,0,0.9-0.3,1.4-0.5c-0.9-0.7-2.1-1.5-3-2.4c-0.6-0.5-1.2-1.1-1.8-1.4
		c-0.4-0.2-1.1-0.2-1.3-0.6c-0.3-0.8,1-1.5,1.1-2.4c1.3,0,2.9,0.3,4.5,0.6c2.8,0.6,5.6,1.7,8.4,2.1c0.5,0.1,0.9,0.4,1.5,0.6
		C59.4,106.9,60.7,106.5,61.9,107.2"/>
	<path class="logo_vertical_st3" d="M44.4,128.3c0.1-0.7,0.4-1.1,0.5-1.7c1.3-0.4,2.3-1.2,3.7-1.9c1.1-0.6,2.3-1,3.2-1.5c0.6-0.4,1.8-1.3,2.4-0.1
		c-0.5,1.8,1.7,2.8,1.2,4.1c-0.2,0.6-0.9,0.5-1.5,0.7c-1.5,0.5-0.7,0.4-1.8,1.2c-2.5,0.1-4.5-0.1-7.1-0.2
		C44.9,128.6,44.5,128.5,44.4,128.3"/>
	<path class="logo_vertical_st3" d="M27.1,132.8c0-0.5-0.6-0.8-0.7-1.4c0-0.2,0.1-0.5,0-0.7c-0.3-1.2-1.4-2.3-1.1-3.3c0.1-0.2,0.3-0.2,0.3-0.4
		c1.7,0.3,4.2,0.5,6.6,0.3c1.1-0.1,2.9-0.6,3,0.7c0,0.3-0.6,1.6-0.9,1.8c-0.1,0.1-0.7,0.2-0.9,0.2c-1.1,0.4-2.6,1.8-3.7,2.4
		C28.8,133,27.9,133.7,27.1,132.8"/>
	<path class="logo_vertical_st3" d="M64.3,238c1.2-0.1,2.5,0.2,3.8,0.2c0.7,0,1.4-0.3,2.1-0.3c0.6,0,1.2,0.3,1.8,0.2c0.7-0.1,1-1,1.8-0.7
		c0.3-1,2.5-0.6,3.8-1c0.7-0.2,1.2-0.8,2.2-0.6c0.4,0.1,1.1,0.9,1.1,1.2c0,0.5-1.6,1.6-1.9,2.1c-0.3,0.5-0.5,1.1-0.9,1.6
		c-0.7,1-1.4,2-2.2,3.1c0.1,0.3,0,0.3,0,0.6c-0.9,0.7-0.9,1.9-1.7,2.5c-1.1,0-2.1-1-3.1-1.3c-0.3-0.1-0.6,0.1-0.9,0
		c-0.7-0.1-1.5-0.6-2.5-0.6c-0.6,0-1.2,0.1-1.8,0.1c-1.4-0.1-2.7-0.7-4-0.7c-0.5,0.2-0.8,0.5-1.4,0.5c-1.3,1-2,2.4-3,3.7
		c-2.8,1.5-5,3.4-8,4.6c-0.4,0.1-0.7,0.9-1.3,1c-0.7,0.2-1.8-0.4-1.9-1c-0.2-0.9,0.8-1.5,1.6-1.8c0.6-1.2,1.7-2.2,2.3-3.4
		c0.3-0.7,0.3-1.2,1-1.6c0.7-1,0.8-2.1,1.4-3.5c0.2-0.6,0.7-1.5,0.9-2.3c0.1-0.8-0.1-1.6,0.6-2.2c0.8-3,2.1-6,2.7-9
		c0.1-0.5,0.2-1.1,0.2-1.4c-0.1-0.4-0.6-0.8-0.4-1.2c0-0.1,1.4-1,1.8-0.9c1,0.2,1.7,0.7,2.6,1c0.4,0.1,0.9,0.1,1.2,0.2
		c0.3,0.1,0.5,0.4,0.7,0.5c0.6,0.3,1.3,0.5,1.9,0.7c1.3,0.5,2.6,0.8,3.8,1.3c0.3,0.2,1.1,0.7,1,1.3c-0.1,0.4-0.5,0.4-1,0.7
		c-0.7,0.6-1.2,1.5-1.7,2.3c-0.2,0.3-0.5,0.5-0.7,0.8c-0.3,0.5-0.6,1.1-0.8,1.6c-0.1,0.3,0,0.7-0.2,1
		C65.1,237.9,64.4,237.3,64.3,238"/>
	<path class="logo_vertical_st3" d="M42.9,233.2c-0.6,1.5-0.2,3.5,0,5.5c0.2,2,0.4,4.1,0.6,5.8c-0.8,1.2-0.6,4.3,0.3,5.5c-0.6,0.8-0.1,2.5-0.7,3.3
		c-2.1,0.1-2.8-1.3-4.3-1.8c-0.9-1.6-1.9-3.1-2.5-4.9c-2,0.4-3.7,1.1-5.3,1.9c-0.2,0.1-0.3,0.4-0.5,0.7c-0.4,0.1-0.6,0.3-1,0.3
		c-0.4,0.3-0.6,0.8-0.9,1.1c-1.7,0.4-2-1.2-2.7-2.2c-0.4-0.6-1.1-1.3-1.7-2c-0.9-1.3-1.2-2.3-2.4-2.9v-0.7c1.5-0.6,3.3,0.3,5.1,0.1
		c2.5-0.4,5-1.2,7.2-1.7c-0.2-0.7-0.9-0.9-1.2-1.5c-0.1-1.6-0.2-3.5-0.9-4.8c-0.3-0.5-0.8-0.6-0.6-1.2c0.3-0.9,3.4-1.1,5.3-1.1
		c1,0,2.1,0.2,3.1,0.1C41.1,232.4,42.4,232.1,42.9,233.2"/>
	<path class="logo_vertical_st3" d="M76.9,259c-0.6,0.4-1.3,0.8-1.7,1.3c-2.2,1-3.9,2.6-6.3,3.4c-0.6,0.2-1.2,0.2-1.7,0.7
		c-2.1,0.4-4.1-0.1-5.7,0.7c-1.4-0.4-3,0.1-4.4-0.1c-0.1,0.5-0.3,0.8-0.5,1.1c-0.1,3.2,0,7,0,10c0,0.8-0.4,2.1-0.1,2.4
		c0.4,0.4,3.4-0.3,4.3-0.4c1.2-0.1,2.3,0,3.2-0.1c1.5-0.1,2.8-0.7,4.3-0.8c0.8-0.1,1.8,0.1,2.6-0.1c0.7-0.1,1-0.7,1.6-0.9
		c0.5-0.2,1.3-0.4,1.8-0.6c0.6-0.2,1.2-0.5,1.7-0.6c0.4-0.1,0.9,0,1.3-0.1c1.4-0.3,2.3-1.4,3.4-2.1c0.8-0.5,2.7-0.5,2.7,0.7
		c0,0.6-0.7,1.1-1,1.6c-0.3,0.6-0.3,1.1-0.4,1.8c-0.8,2.9-2.3,5.3-3.1,8.2c-1.1,2.2-4.5-0.1-6.3,0.9c-1.1,0-2.2-0.6-3.3-0.7
		c-1.4-0.1-2.8,0.3-4.2,0.2c-0.5,0-0.9-0.3-1.4-0.3c-0.5,0-1,0.1-1.5,0.1c-1,0-2-0.3-2.9-0.3c-0.4,0-0.8,0.2-1.2,0.2
		c-1.4,0-3-0.4-4.6-0.3c-0.5,0-1,0.3-1.5,0.4c-1.2,0.2-2.5,0.1-3.6-0.1c-0.6-0.8-0.2-2.5-0.3-3.8c-0.2-2.9-0.2-6.2,0.6-8.2
		c-0.2-1,0.2-2,0.2-3.2c0-0.9-0.4-1.8-0.3-2.8c0.1-2.6,0.5-5.3,0.6-7.8c0.1-1.6-0.5-3.1-0.8-4.4c0.2-0.7,1.4-0.3,2-0.6
		c1.7,0.9,4.5,0.4,6.7,0.9c0.5,0.1,1.3,0.6,1.4,1c0.1,0.3-0.3,0.6-0.3,1c-0.1,0.7,0.2,1.3,0.3,2c0.8-0.3,1.7-0.4,2.5-0.7
		c0.3-0.1,0.6-0.4,0.9-0.5c0.9-0.4,1.8-0.6,2.7-1c0.8-0.4,1.5-0.9,2.3-1.4c0.7-0.5,1.5-0.9,2.1-1.5c1-0.8,1.4-1.9,2.5-2.5
		c0-0.4,0.1-0.6,0.2-0.9c0.6-0.7,1.7-0.4,2.4,0c0.3,0.5,0.2,1,0.2,1.4c0.7,1.9,1.5,3.6,2.6,5.1C77,258.2,76.9,258.5,76.9,259"/>
	<path class="logo_vertical_st3" d="M39.5,263c0,2.7,0.2,5.4,0.4,8.1c0,0.4,0.2,0.7,0.3,1.1c0,0.9-0.2,2.1-0.2,3.4c0.2,3.3-0.5,7-0.7,10.4
		c-0.9,0.5-1.5-0.1-2.4-0.4c-1.5-0.5-3.3-0.9-4.9-1.1c-1-0.1-1.9,0.1-2.5-0.6c-0.4-0.7,0.6-1.1,0.6-1.7c0.3-3.5,1.1-7.5,0.9-10.9
		c0-0.6-0.4-1.2-0.4-1.9c-0.1-0.9,0.2-2.1-0.1-2.9c-0.6-0.2-1.2,0.4-1.9,0.5c-1.1,0.2-1.9,0.3-3,0.7c-0.8,0.2-1.7,0.4-2.2,0.7
		c-0.4,0.2-0.6,0.6-1,0.7c-0.2,0-1.6-0.6-2.2-0.7c-0.8-0.1-2-0.3-1.9-1.1c0.1-0.8,1.3-0.5,1.7-1.1c2.9-0.7,5.4-2.3,7.4-4.1
		c0.6-0.6,1.1-1.3,1.8-1.9c0.6-0.4,1.3-0.7,1.9-1.1c0.8-0.5,1.6-1.3,2.4-1.9c0.8-0.6,1.7-1.2,2.4-1.8c0.8-0.7,1.9-2.9,2.9-2.8
		c0.9,0.1,1.5,1.7,2.1,2.4c0.5,0.6,1.4,1.4,2.1,2.1c0.4,0.4,2.1,1.5,1.9,2.3c-0.1,0.4-0.6,0.3-1,0.6c-0.5,0.3-1.1,0.8-1.7,1.2
		C41.3,261.8,40.6,262.6,39.5,263"/>
	<path class="logo_vertical_st3" d="M60.6,310.6c2.1,0,4.8-0.7,7.1-1.3c0.3-0.1,0.5-0.3,0.7-0.3c0.8-0.2,1.4,0,2.1,0c0.7,0-0.1,0.1,0.8,0.1
		c0.4,0,1.2,0.1,1.9,0c0.6-0.1,1.3-0.3,2-0.4c0.7-0.1,1.5-0.3,2-0.5c0.9-0.3,1.8-1,2.9-0.8c0.7,0.1,1.4,0.8,1.4,1.3
		c0,0.5-0.5,0.7-0.7,1.2c-0.6,1.2-1,2.6-1.6,4.1c-0.4,0.9-1.4,3-2.5,3.2c-0.9,0.2-2.5-0.3-3.4-0.3c-0.6,0-1.2,0.1-1.8,0.1
		c-1.2,0-0.7-0.8-1.8-0.7c-1.7,0.1-3.2,0.7-5.4,0.7c-1.4,0-2.7-0.4-4.2-0.5c-0.6,0.7-0.8,1.9-0.7,3.2c0.2,2.1,0.3,4.6,0.7,6
		c4.3-0.3,8.6-0.8,12.7-1.6c2-0.2,4.6,0.4,5.9,1.6c0.4-0.1,0.9,0,1.2,0.2c0.6,0.7-0.6,1.4-1,2.2c-0.4,0.8-0.3,1.3-0.4,1.9
		c-1.6,0.6-2.2,2.2-3.3,3.4c-0.4-0.2-1-0.1-1.2-0.5c-0.3,0-0.4,0.2-0.7,0.3c-3.9-0.4-9.2-0.6-13.7-0.3c-0.7,3.2-0.2,6.5,0,10
		c1.5,0.4,4,0,5.7,0.2c1.5,0.1,3.2,0.5,4.7,0.5c0.3,0,0.6-0.1,0.8-0.1c0.7,0,1.5,0.3,2.3,0.4c1.4,0.1,4.3-0.4,5.5,0.1
		c1.3-0.4,3-0.4,4.5-0.8c0.4-0.1,0.7-0.4,1-0.5c1-0.1,1.9,0.2,2.3,0.9c-0.9,1.5-2.2,2.7-2.6,4.7c-1.4,1.2-1.9,4.3-4.8,4
		c-0.4-0.1-0.8-0.3-1.3-0.4c-0.5-0.1-1-0.1-1.4-0.1c-1.8-0.5-4.7-1.1-6.9-1.5c-2-0.4-4.4-0.1-6.4-0.4c-1.6-0.2-4.6-0.9-6-0.8
		c-0.9,0.1-1.7,0.9-3,0.8c-2,0-4-0.8-5.9-0.5c-0.8,0.1-1.2,0.3-2.4,0.4c-1,0.1-2,0.4-2.9,0.5c-0.5,0-1.1-0.1-1.6,0
		c-0.4,0.1-0.6,0.4-1,0.5c-0.6,0.2-1.7,0.2-2.5,0.3c-1.2,0.2-2.1,0.7-3.3,0.3c-0.9,0.6-2.4,0.4-4,0.8c-1.5,0.4-2.8,1.3-3.8,0.1
		c-0.6-0.7-0.9-2-1.5-3c-0.6-1-1.2-2.2-1.7-2.8c-0.3-0.4-0.9-0.8-0.9-1.1c-0.1-1.1,3.5-1.4,4.7-1.3c0.6,0,1.1,0.3,1.7,0.4
		c2,0.3,4.2,0.1,5.8-0.1c4,0.2,7.6-1.2,11.7-1.3c1.5,0,3.2-0.1,4.7,0c0.5-3.6-0.2-7.4,0.4-10.7c-1.5-0.7-2.9-0.3-4.3-0.2
		c-0.5,0.1-0.9-0.1-1.5-0.1c-0.5,0-1,0.3-1.5,0.3c-0.3,0-0.7-0.1-1,0c-0.7,0.1-1.7,0.5-2.6,0.7c-0.9,0.3-1.8,0.7-2.3,0.9
		c-0.4,0.2-0.9,0.7-1.2,0.7c-0.3,0-1-0.3-1.2-0.6c-0.2-0.2-0.1-0.6-0.3-0.8c-0.3-0.4-0.8-0.3-1-0.8c-0.1-0.3,0.1-0.4,0.1-0.7
		c-0.3-0.5-0.8-0.8-1.2-1.2c0-1-0.3-1.7-0.8-2.6c-0.2-0.3-1-1.2-1-1.5c0.1-0.6,1.2-0.7,1.9-0.7c0.8,0,1.6,0.3,2.5,0.4
		c0.6,0.1,1.3,0,2,0.1c1.3,0.2,2.6,0.4,4.3,0.2c1.8-0.1,3.6-0.8,5.3-0.9c1.3-0.1,2.8-0.2,4.1-0.4c-0.2-0.6-0.3-1.2-0.5-1.8
		c-0.2-0.5-0.6-1.1-0.6-1.7c0-0.8,0.7-1.5,0.8-2.4c0.1-1,0-1.8,0.4-2.7c-2.3-0.3-5.4,0.6-8.1,1c-0.5,0.1-1.3,0-2,0.2
		c-1.2,0.2-2.2,0.5-2.8-0.3c-0.1-0.1,0-0.4-0.2-0.6c-0.2-0.2-0.7-0.2-1-0.4c-0.3-0.2-0.5-0.5-0.7-0.7c-0.5-0.3-1.2-0.3-1.7-0.7
		c-1.7,1.4-3.1,3-4.7,4.5c-1.4,0.4-2.8,1-4.2,1.7c-0.7,0.4-1,0.4-2,0.7c-1.3,0.3-2.3,1.4-4.4,1.1c-0.3-0.2-0.6-0.4-0.8-0.7
		c0.2-0.9,0-1.5,0-2.2c0.4-0.3,0.8-0.2,1.4-0.3c1.9-1.1,3.4-2.5,4.8-4c2.6-0.9,3-3.9,4.7-5.6c0.7-2.5,1.5-4.9,2.1-7.5
		c-0.1-0.8-1.3-1.7-1.3-2.5c0-0.6,0.7-0.9,1-1.5c2.3,0.2,4.7,0.7,7,0.9c0.4,0,0.9-0.1,1.3,0c0.5,0.1,0.9,0.4,1.4,0.5
		c1,0.3,2.6,0.2,2.6,1.3c0,0.5-0.7,0.8-0.9,1.2c-0.3,0.4-0.2,1-0.4,1.5c-0.7,2-1.9,4.3-2.2,6.1c3.6,1.1,7,0.8,10.8,0.7
		c0.6-2.3-0.6-4.4-0.3-6.6c0.1-1,0.6-1.9,0.7-2.8c0.1-1.2,0.1-2.5,0.2-3.7c0-0.8,0.1-0.5,0-1.2c-0.2-1.3-1.6-2.6-1.5-4
		c0-0.3,0.2-0.5,0.3-0.7c0.1-0.4-0.4-1,0.2-1.4c2.3-0.4,4.4,0.7,6.1,1.4c1.5,0.6,3,1,4.3,1.8c0.6,0.1,2.1,0.5,2.2,1.2
		c0.1,0.4-0.7,1.4-0.8,1.9c-0.2,0.6-0.6,0.2-0.7,0.8c0,0.2,0.1,0.7,0.1,0.9c-0.2,1.8-0.9,3.7-1.1,5.7
		C61.1,306.2,60.7,308.5,60.6,310.6"/>
</g>
</svg>
