<svg width="26" height="26" xmlns="http://www.w3.org/2000/svg" viewBox="0 0 8.6 10.68"><defs><style>.cls-1{isolation:isolate;}.cls-2{opacity:0.8;mix-blend-mode:multiply;}.cls-3{fill:#9c9c9c;}</style></defs><g class="cls-1"><g id="圖層_2" data-name="圖層 2"><g id="Layer_1" data-name="Layer 1"><g class="cls-2"><path class="cls-3" d="M7.67,3.53H7V2.72a2.72,2.72,0,0,0-5.44,0v.81H.93A.93.93,0,0,0,0,4.46V9.75a.93.93,0,0,0,.93.93H7.67a.93.93,0,0,0,.93-.93V4.46A.93.93,0,0,0,7.67,3.53ZM2.81,2.72a1.49,1.49,0,1,1,3,0v.81h-3Zm2,5.51V9.59a.1.1,0,0,1-.11.09H4A.1.1,0,0,1,4,9.59V8.23a1.16,1.16,0,0,1-.76-1.1A1.19,1.19,0,1,1,4.8,8.23Z"/></g></g></g></g></svg>