<?xml version="1.0" encoding="utf-8"?>
<!-- Generator: Adobe Illustrator 25.2.0, SVG Export Plug-In . SVG Version: 6.00 Build 0)  -->
<svg width="224" height="66" version="1.1" id="圖層_1" xmlns="http://www.w3.org/2000/svg" xmlns:xlink="http://www.w3.org/1999/xlink" x="0px" y="0px"
	 viewBox="0 0 476.6 139.7" style="enable-background:new 0 0 476.6 139.7;" xml:space="preserve">
<style type="text/css">
	.royal_nuts_st0{clip-path:url(#SVGID_2_);fill:#541800;}
	.royal_nuts_st1{clip-path:url(#SVGID_2_);fill:#BA8748;}
</style>
<g>
	<defs>
		<rect id="SVGID_1_" width="476.6" height="139.7"/>
	</defs>
	<clipPath id="SVGID_2_">
		<use xlink:href="#SVGID_1_"  style="overflow:visible;"/>
	</clipPath>
	<path class="royal_nuts_st0" d="M476.2,70h-41.7c-1.5-0.1-1.8-1.1-1.9-1.6v-7.1c0-0.2,0.1-1.4,1.5-1.7h32.1c1.9,0,1.7-1.7,1.7-1.7V2
		c0-2-1.9-2-1.9-2h-77.1c0,0-1.8,0.1-1.8,1.8v56.4c0,0-0.1,1.5,1.7,1.5h33.9c1.1,0.2,1.4,1,1.5,1.4v7.5c-0.1,0.5-0.5,1.4-1.8,1.5
		H378c0,0-0.3,0-0.4,0.4v4.4c0,0,0,0.3,0.3,0.3h22.3c0.3,0,2.2,0.2,2.1,1.8l-19.8,32c0,0-0.7,1.3,0.3,1.3h8.9c0,0,0.5,0,0.8-0.6
		l20.1-32.9l0,0.3c0.7-1.4,2-1.7,2.9-1.8h7.3c0.9,0.2,1.2,1,1.3,1.4v33c0,0-0.2,2.4,2.3,2.4h3.7c2.7,0,2.4-2.4,2.4-2.4V76.7
		c0-0.2,0.1-1.3,1.3-1.6h7.3c0.9,0.1,2.3,0.5,2.9,1.8l0-0.3l20.1,32.9c0.3,0.6,0.8,0.6,0.8,0.6h8.9c1,0,0.3-1.3,0.3-1.3l-19.8-32
		c-0.1-1.6,1.9-1.8,2.1-1.8h19.8c0.3,0,0.3-0.3,0.3-0.3v-4.4C476.5,70,476.2,70,476.2,70 M459.6,8.7v42.2c0,1.6-1.3,2.8-2.8,2.8
		h-22.2v0c-1.6,0-2-1.1-2-1.6V34.6c0-0.2,0.2-1.5,1.8-1.7h15.6c0.3,0,0.3-0.3,0.3-0.3v-4.4c-0.1-0.4-0.4-0.4-0.4-0.4h-15.2
		c-1.8,0-2-1.5-2-1.7V5.9h24.2C458.3,5.9,459.6,7.1,459.6,8.7 M398.2,5.9h25.9v20.5c-0.1,0.5-0.5,1.4-1.9,1.5h-24.9
		c-1.6,0-1.9-1.2-2-1.6V8.7C395.3,7.1,396.6,5.9,398.2,5.9 M395.3,50.9V34.2c0.1-0.5,0.6-1.1,1.7-1.2h25.3c1.3,0.1,1.7,1,1.7,1.5v18
		c-0.1,0.4-0.4,1.1-1.3,1.4h-24.6C396.6,53.7,395.3,52.5,395.3,50.9"/>
	<path class="royal_nuts_st0" d="M42.8,13.4H0.4c0,0-0.3,0-0.4,0.4v4.4c0,0,0,0.3,0.3,0.3h17.2c0.4,0.1,1,0.3,1.1,1.1V84c0,0,0.1,7.1,0.1,7.6
		c0,0,0.1,0.5-0.7,0.5l-3.6,0l-1.4,0c0,0-0.7,0.1-0.8,0.9l0,4.2c0,0-0.1,0.8,0.9,0.8l1.8,0.1c9.2,0.1,10.1,0,11.4-0.1
		c0,0,0.7,0,0.7-0.5l0-0.5c0.1-3.1,0.1-8.1,0.1-8.1V19.5c0.1-0.8,0.8-1,1.1-1.1h14.7c0.3,0,0.3-0.3,0.3-0.3v-4.4
		C43.2,13.4,42.8,13.4,42.8,13.4"/>
	<path class="royal_nuts_st0" d="M107.6,1.2H47.2c0,0-0.3,0-0.4,0.4v4.4c0,0,0,0.3,0.3,0.3h23.8c0.6,0.1,2.2,0.6,1.4,2.5l0,0l-6,11.1
		c-0.2,0.3-0.8,0.9-2,1.1h-14c0,0-1.8,0.1-1.8,1.8v68.7c0,0-0.1,1.5,1.7,1.5h8.6c0,0,2.6,0.1,1.7,2.5l0,0l-8.1,15.9
		c0,0-0.5,0.7,0.4,0.7h9.2c0,0,0.3,0.1,0.6-0.4l8.3-16.8l0,0.1c0.7-1.5,2.2-1.8,3-1.9h7.3c0.9,0.1,2.3,0.4,3,1.9l0-0.1l8.3,16.8
		c0.2,0.5,0.6,0.4,0.6,0.4h9.2c0.9,0,0.4-0.7,0.4-0.7l-8.1-15.9l0,0c-0.9-2.4,1.7-2.5,1.7-2.5h7.7c1.9,0,1.7-1.7,1.7-1.7V22.8
		c0-2-1.9-2-1.9-2H76.8c-0.9-0.1-0.8-0.9-0.7-1.1l6.6-12c0.8-1.1,2-1.4,2.8-1.4h0.7h0h21.5c0.3,0,0.3-0.3,0.3-0.3V1.5
		C107.9,1.1,107.6,1.2,107.6,1.2 M98,85.1c0,0.8-0.6,1.4-1.4,1.4H58.1c-0.8,0-1.4-0.6-1.4-1.4V71.6c0-0.8,0.6-1.4,1.4-1.4h38.5
		c0.8,0,1.4,0.6,1.4,1.4V85.1z M98,63.4c0,0.8-0.6,1.4-1.4,1.4H58.1c-0.8,0-1.4-0.6-1.4-1.4V49.9c0-0.8,0.6-1.4,1.4-1.4h38.5
		c0.8,0,1.4,0.6,1.4,1.4V63.4z M96.5,26.7c0.8,0,1.4,0.6,1.4,1.4v13.5c0,0.8-0.6,1.4-1.4,1.4H58.1c-0.8,0-1.4-0.6-1.4-1.4V28.2
		c0-0.8,0.6-1.4,1.4-1.4H96.5z"/>
	<path class="royal_nuts_st0" d="M233.8,62.6l-18.4-21.5c0,0-0.1-0.1-0.1-0.1l-0.1-0.1c-0.5-0.7-0.4-1.3-0.2-1.7l20.3-29.8
		c1.4-3.1-2.1-2.9-2.1-2.9h-45.2c0,0-0.3,0-0.4,0.4v4.4c0,0,0,0.3,0.3,0.3h34.7c0.1,0,0.2,0,0.4,0.1l-13.4,20
		c-0.1,0-0.1,0.1-0.2,0.2c-0.8,1.1-2,0-2,0v0l-5.9-6.9c-0.6-0.9-1.6-0.9-1.6-0.9h-8.5c0,0-1.3,0-0.5,1.1l12.6,13.4
		c0.3,0.4,0.5,1.1,0,2.1l-15.4,22.7c0,0-1.1,1.5,0.9,1.5h7.5c0,0,0.9,0.1,1.5-0.8l11.5-16.7h0c0,0,0.7-0.7,1.4-0.1l12.9,16.4
		c0,0,0.7,1.1,2,1.1h7.4C235.6,64.6,233.8,62.6,233.8,62.6"/>
	<path class="royal_nuts_st0" d="M168.2,26.7L168.2,26.7C168.2,26.8,168.2,26.8,168.2,26.7L168.2,26.7z"/>
	<path class="royal_nuts_st0" d="M137.8,26.8C137.8,26.8,137.8,26.7,137.8,26.8L137.8,26.8L137.8,26.8z"/>
	<path class="royal_nuts_st0" d="M139.2,6.2L139.2,6.2h38.5c0.3,0,0.3-0.3,0.3-0.3V1.5c-0.1-0.4-0.4-0.4-0.4-0.4h-46.7c0,0-1.6,0-1.6,1.6v64.1
		c0,0-0.1,1.4,1.5,1.4h46.8c0.3,0,0.3-0.3,0.3-0.3v-4.4c-0.1-0.4-0.4-0.4-0.4-0.4h-37.8l0,0c-1.4,0-1.8-0.8-2-1.3V50.7
		c0.2-1.1,1.4-1.1,1.4-1.1H176c0.7,0,0.6-0.7,0.6-0.7V21.6c0-0.7-0.7-0.7-0.7-0.7h-36.3c-1.3,0-1.8-0.8-1.9-1.3V7.3
		C138,6.2,139.2,6.2,139.2,6.2 M139.1,25.9h27.8c0.6,0,1.1,0.3,1.3,0.8h0v0.1c0.1,0.2,0.1,0.4,0.1,0.6v16.1c0,0.8-0.6,1.4-1.4,1.4
		h-27.8c-0.8,0-1.4-0.6-1.4-1.4V27.4c0-0.2,0-0.4,0.1-0.6v0h0C138,26.3,138.5,25.9,139.1,25.9"/>
	<path class="royal_nuts_st0" d="M304,89.5v-3.3c0-1.1-0.9-1.1-0.9-1.1h-9c-1.7-0.1-1.9-1.3-1.9-1.7v-51c0-0.3,0.3-1.6,1.9-1.7h9.7
		c0.3,0,0.3-0.3,0.3-0.3v-4.4c-0.1-0.4-0.4-0.4-0.4-0.4H294c-1.6-0.1-1.9-1.3-1.9-1.7V12.7c0-1.4-1.2-1.3-1.2-1.3h-6.1
		c-1.2,0-1.1,1.1-1.1,1.1v11.7c-0.1,0.5-0.5,1.4-1.9,1.5h-10.2c-1.5-0.1-1.8-1.1-1.9-1.5V1.4c0-1.5-1.4-1.4-1.4-1.4h-5.9
		c-1.3,0-1.2,1.2-1.2,1.2v22.9c0,0.4-0.3,1.6-1.9,1.6h-9.6c0,0-0.3,0-0.4,0.4v4.4c0,0,0,0.3,0.3,0.3h10.3c0.8,0.2,1.1,0.8,1.3,1.2
		v46.2c0,5.5,3.1,12.2,11.4,12.2h9.7c0.8,0.2,1.1,0.7,1.3,1.2v8.1c0,0.2-0.1,0.3-0.2,0.5l-8.4,7c0,0-0.8,0.6-0.1,1.3l3,3
		c0,0,0.5,0.6,1.3,0l12.1-9.9c0.9-0.6,0.8-1.7,0.8-1.7v-7.9c0-0.3,0.3-1.6,2-1.7h8.8C304.1,90.4,304,89.5,304,89.5 M283.6,83.7
		c-0.1,0.5-0.5,1.4-1.9,1.5h-6.4c-5.8-0.3-5.6-6.4-5.6-8.4V32.3c0.1-0.5,0.4-1.4,1.8-1.5h10.9c0.8,0.2,1.1,0.7,1.2,1.1V83.7z"/>
	<path class="royal_nuts_st0" d="M364.5,55.1h-24.6c-1.9-0.1-1.9-1.8-1.9-1.8l0,0V41.3c0.1-0.8,0.5-1.5,0.5-1.5L358.6,8
		c1.2-2.6-1.5-2.5-1.5-2.5h-52.7c0,0-0.3,0-0.4,0.4v4.4c0,0,0,0.3,0.3,0.3h40.1c0.6,0.1,1.6,0.4,1.1,1.6L329,39c0,0-0.7,0.8-0.5,1.9
		v12.8c-0.1,0.5-0.5,1.4-1.9,1.5h-22.8c0,0-0.3,0-0.4,0.4v4.4c0,0,0,0.3,0.3,0.3h22.9c1.8,0.1,1.9,1.7,1.9,1.7v28.7h0v14.1
		c0,0,0.1,0.8-0.5,0.8h-5.1c0,0-1-0.1-1,1.1v4.1c0,0-0.1,0.8,1,0.8h14.3c0,0,0.7,0,0.7-0.9V89.9h0v-28l0,0c0,0,0-1.6,1.9-1.7h24.7
		c0.3,0,0.3-0.3,0.3-0.3v-4.4C364.9,55.1,364.5,55.1,364.5,55.1"/>
	<rect x="265.9" y="129.8" class="royal_nuts_st1" width="2.9" height="2.9"/>
	<path class="royal_nuts_st1" d="M12.1,126.2c0.9-0.2,2.1-0.3,3.3-0.3c1.9,0,3.1,0.3,3.9,1.1c0.7,0.6,1.1,1.5,1.1,2.6c0,1.8-1.1,3-2.5,3.4v0.1
		c1,0.4,1.7,1.3,2,2.7c0.4,1.9,0.8,3.2,1,3.7h-1.8c-0.2-0.4-0.5-1.5-0.9-3.2c-0.4-1.9-1.1-2.6-2.7-2.6h-1.6v5.9h-1.7V126.2z
		 M13.8,132.3h1.8c1.9,0,3-1,3-2.6c0-1.7-1.3-2.5-3.1-2.5c-0.8,0-1.4,0.1-1.7,0.2V132.3z"/>
	<path class="royal_nuts_st1" d="M73.7,132.6c0,4.7-2.8,7.1-6.3,7.1c-3.6,0-6.1-2.8-6.1-6.9c0-4.3,2.7-7.1,6.3-7.1
		C71.3,125.8,73.7,128.6,73.7,132.6 M63.2,132.8c0,2.9,1.6,5.5,4.3,5.5c2.8,0,4.3-2.5,4.3-5.6c0-2.7-1.4-5.5-4.3-5.5
		C64.7,127.2,63.2,129.8,63.2,132.8"/>
	<path class="royal_nuts_st1" d="M115.8,139.5v-5.7l-4.3-7.8h2l1.9,3.7c0.5,1,0.9,1.8,1.3,2.8h0c0.4-0.9,0.8-1.8,1.4-2.8l1.9-3.7h2l-4.5,7.8
		v5.8H115.8z"/>
	<path class="royal_nuts_st1" d="M162.7,135.2l-1.4,4.2h-1.8l4.6-13.5h2.1l4.6,13.5H169l-1.4-4.2H162.7z M167.1,133.9l-1.3-3.9
		c-0.3-0.9-0.5-1.7-0.7-2.5h0c-0.2,0.8-0.4,1.6-0.7,2.4l-1.3,3.9H167.1z"/>
	<polygon class="royal_nuts_st1" points="211.1,126 212.8,126 212.8,138 218.6,138 218.6,139.5 211.1,139.5 	"/>
	<path class="royal_nuts_st1" d="M316.6,139.5V126h1.9l4.3,6.8c1,1.6,1.8,3,2.4,4.4l0,0c-0.2-1.8-0.2-3.4-0.2-5.6V126h1.6v13.5H325l-4.3-6.9
		c-0.9-1.5-1.8-3-2.5-4.5l-0.1,0c0.1,1.7,0.1,3.3,0.1,5.6v5.8H316.6z"/>
	<path class="royal_nuts_st1" d="M369.5,126v8c0,3,1.3,4.3,3.1,4.3c2,0,3.3-1.3,3.3-4.3v-8h1.8v7.9c0,4.1-2.2,5.9-5.1,5.9
		c-2.8,0-4.8-1.6-4.8-5.8v-8H369.5z"/>
	<polygon class="royal_nuts_st1" points="421.4,127.5 417.3,127.5 417.3,126 427.3,126 427.3,127.5 423.2,127.5 423.2,139.5 421.4,139.5 	"/>
	<path class="royal_nuts_st1" d="M466.6,137.4c0.8,0.5,1.9,0.9,3.1,0.9c1.8,0,2.8-0.9,2.8-2.3c0-1.3-0.7-2-2.5-2.7c-2.2-0.8-3.6-1.9-3.6-3.8
		c0-2.1,1.7-3.7,4.4-3.7c1.4,0,2.4,0.3,3,0.7l-0.5,1.4c-0.4-0.2-1.3-0.6-2.6-0.6c-1.8,0-2.5,1.1-2.5,2c0,1.3,0.8,1.9,2.7,2.6
		c2.3,0.9,3.4,2,3.4,4c0,2.1-1.5,3.9-4.7,3.9c-1.3,0-2.7-0.4-3.4-0.9L466.6,137.4z"/>
	<path class="royal_nuts_st0" d="M232.8,105.1h-42.9c-1.6,0-1.9-1.1-2-1.6l0-13.3h0c0-0.2,0-0.3,0-0.4v-0.2c0.2-1.2,1.4-1.1,1.4-1.1
		c0,0,0,0,0,0h37.3c0.3,0,0.3-0.3,0.3-0.3v-4.4c-0.1-0.4-0.4-0.4-0.4-0.4h-36.6c-1.4,0-1.8-0.8-2-1.4l0-8.8c0-0.8-0.8-0.8-0.8-0.8
		h-7.7c-0.8,0-0.8,0.8-0.8,0.8v8.7c-0.1,0.5-0.4,1.5-2,1.5h-35.7c0,0-0.3,0-0.4,0.4v4.4c0,0,0,0.3,0.3,0.3H177
		c0.4,0.1,1.5,0.5,1.6,2.2v12.9c-0.1,0.5-0.4,1.5-2,1.5h-42c0,0-0.3,0-0.4,0.4v4.4c0,0,0,0.3,0.3,0.3h98.3c0.3,0,0.3-0.3,0.3-0.3
		v-4.4C233.1,105,232.8,105.1,232.8,105.1"/>
</g>
</svg>
